<svg version="1.1" viewBox="0.0 0.0 600.0 371.0" fill="none" stroke="none" stroke-linecap="square" stroke-miterlimit="10" width="600" height="371" xmlns:xlink="http://www.w3.org/1999/xlink" xmlns="http://www.w3.org/2000/svg"><path fill="#ffffff" d="M0 0L600.0 0L600.0 371.0L0 371.0L0 0Z" fill-rule="nonzero"/><path fill="#b5e5e8" d="M284.98975 55.675858C289.97717 55.17005 294.98697 54.916668 300.0 54.916668L300.0 203.68333Z" fill-rule="nonzero"/><path fill="#ffc599" d="M187.34618 106.5204C212.19499 77.70988 247.13774 59.514637 284.98975 55.675858L300.0 203.68333Z" fill-rule="nonzero"/><path fill="#aedcba" d="M179.57164 116.34188C182.02411 112.96036 184.61792 109.683624 187.34618 106.5204L300.0 203.68333Z" fill-rule="nonzero"/><path fill="#fde49b" d="M178.11752 118.38279C178.59648 117.69842 179.0812 117.01809 179.57164 116.34188L300.0 203.68333Z" fill-rule="nonzero"/><path fill="#f7b4ae" d="M166.63301 137.76848C169.9656 131.02556 173.8048 124.545074 178.11752 118.38279L300.0 203.68333Z" fill-rule="nonzero"/><path fill="#b3cefb" d="M160.66293 151.56133C162.4193 146.86606 164.41187 142.26257 166.63301 137.76848L300.0 203.68333Z" fill-rule="nonzero"/><path fill="#7ed1d7" d="M159.80475 153.91574C160.0842 153.12854 160.37027 152.3437 160.66293 151.56133L300.0 203.68333Z" fill-rule="nonzero"/><path fill="#ff994d" d="M158.98634 156.28429C159.25249 155.4925 159.5253 154.70294 159.80475 153.91574L300.0 203.68333Z" fill-rule="nonzero"/><path fill="#71c287" d="M158.20795 158.66628C158.46072 157.8701 158.7202 157.07608 158.98634 156.28429L300.0 203.68333Z" fill-rule="nonzero"/><path fill="#fcd04f" d="M156.11499 165.88615C156.75172 163.46228 157.4496 161.05489 158.20795 158.66628L300.0 203.68333Z" fill-rule="nonzero"/><path fill="#f07b72" d="M152.66759 183.07553C153.47781 177.28294 154.62895 171.5432 156.11499 165.88615L300.0 203.68333Z" fill-rule="nonzero"/><path fill="#7baaf7" d="M155.206 237.83322C150.97534 219.89546 150.1146 201.32776 152.66759 183.07553L300.0 203.68333Z" fill-rule="nonzero"/><path fill="#46bdc6" d="M157.83383 247.50456C156.84952 244.31122 155.97307 241.0856 155.206 237.83322L300.0 203.68333Z" fill-rule="nonzero"/><path fill="#ff6d01" d="M160.22888 254.62994C159.37064 252.27536 158.57204 249.89949 157.83383 247.50456L300.0 203.68333Z" fill-rule="nonzero"/><path fill="#34a853" d="M162.02426 259.30902C161.39957 257.75952 160.80103 256.19962 160.22888 254.62994L300.0 203.68333Z" fill-rule="nonzero"/><path fill="#fbbc04" d="M183.35548 296.0174C174.52664 284.864 167.34311 272.50204 162.02426 259.30902L300.0 203.68333Z" fill-rule="nonzero"/><path fill="#ea4335" d="M189.83693 303.66144C187.59122 301.18692 185.4295 298.63748 183.35548 296.0174L300.0 203.68333Z" fill-rule="nonzero"/><path fill="#4285f4" d="M300.0 54.916668C368.22662 54.916668 427.70816 101.326004 444.30038 167.50433C460.8926 233.68266 430.34207 302.66486 370.18567 334.85306C310.02927 367.04126 235.68839 354.18387 189.83693 303.66144L300.0 203.68333Z" fill-rule="nonzero"/><path fill="#1a1a1a" d="M18.784374 65.916664L18.784374 64.854164L23.190624 59.354164Q23.659374 58.77604 24.08125 58.33854L19.284374 58.33854L19.284374 57.322914L25.440624 57.322914L25.440624 58.33854L20.6125 64.291664L20.096874 64.90104L25.58125 64.90104L25.58125 65.916664L18.784374 65.916664ZM26.315624 65.916664L26.315624 57.322914L27.378124 57.322914L27.378124 65.916664L26.315624 65.916664ZM29.346874 58.541664L29.346874 57.322914L30.409374 57.322914L30.409374 58.541664L29.346874 58.541664ZM29.346874 65.916664L29.346874 59.697914L30.409374 59.697914L30.409374 65.916664L29.346874 65.916664ZM33.315624 65.916664L32.33125 65.916664L32.33125 57.322914L33.39375 57.322914L33.39375 60.385414Q34.065624 59.55729 35.096874 59.55729Q35.675 59.55729 36.175 59.791664Q36.690624 60.010414 37.01875 60.43229Q37.3625 60.854164 37.55 61.447914Q37.7375 62.041664 37.7375 62.71354Q37.7375 64.30729 36.940624 65.18229Q36.14375 66.05729 35.05 66.05729Q33.940624 66.05729 33.315624 65.135414L33.315624 65.916664ZM33.3 62.760414Q33.3 63.86979 33.6125 64.36979Q34.1125 65.18229 34.95625 65.18229Q35.64375 65.18229 36.14375 64.58854Q36.659374 63.99479 36.659374 62.791664Q36.659374 61.572914 36.175 60.99479Q35.690624 60.416664 35.003124 60.416664Q34.315624 60.416664 33.8 61.02604Q33.3 61.61979 33.3 62.760414Z" fill-rule="nonzero"/><path fill="#9e9e9e" d="M23.01875 82.916664L21.971874 82.916664L21.971874 76.197914Q21.58125 76.55729 20.95625 76.93229Q20.346874 77.291664 19.8625 77.46354L19.8625 76.447914Q20.7375 76.02604 21.39375 75.447914Q22.065624 74.854164 22.346874 74.291664L23.01875 74.291664L23.01875 82.916664ZM26.64375 82.916664L26.64375 81.71354L27.846874 81.71354L27.846874 82.916664L26.64375 82.916664ZM34.51875 76.43229L33.471874 76.510414Q33.33125 75.885414 33.08125 75.604164Q32.64375 75.15104 32.01875 75.15104Q31.51875 75.15104 31.128124 75.43229Q30.64375 75.80729 30.346874 76.510414Q30.065624 77.197914 30.05 78.479164Q30.425 77.90104 30.971874 77.61979Q31.534374 77.33854 32.14375 77.33854Q33.190624 77.33854 33.925 78.11979Q34.675 78.90104 34.675 80.11979Q34.675 80.93229 34.315624 81.635414Q33.971874 82.322914 33.3625 82.697914Q32.753124 83.05729 31.9875 83.05729Q30.659374 83.05729 29.83125 82.08854Q29.003124 81.11979 29.003124 78.90104Q29.003124 76.40104 29.925 75.27604Q30.721874 74.291664 32.08125 74.291664Q33.096874 74.291664 33.7375 74.86979Q34.39375 75.43229 34.51875 76.43229ZM30.221874 80.135414Q30.221874 80.68229 30.440624 81.18229Q30.675 81.666664 31.08125 81.93229Q31.503124 82.197914 31.971874 82.197914Q32.628124 82.197914 33.1125 81.666664Q33.596874 81.11979 33.596874 80.197914Q33.596874 79.30729 33.1125 78.791664Q32.64375 78.27604 31.925 78.27604Q31.20625 78.27604 30.70625 78.791664Q30.221874 79.30729 30.221874 80.135414ZM36.253124 76.385414Q36.253124 75.46354 36.70625 74.822914Q37.175 74.18229 38.05 74.18229Q38.8625 74.18229 39.39375 74.760414Q39.925 75.33854 39.925 76.447914Q39.925 77.541664 39.378124 78.135414Q38.846874 78.71354 38.065624 78.71354Q37.284374 78.71354 36.76875 78.135414Q36.253124 77.55729 36.253124 76.385414ZM38.08125 74.90104Q37.690624 74.90104 37.425 75.24479Q37.175 75.58854 37.175 76.49479Q37.175 77.322914 37.425 77.666664Q37.690624 77.99479 38.08125 77.99479Q38.4875 77.99479 38.7375 77.65104Q39.003124 77.30729 39.003124 76.416664Q39.003124 75.572914 38.7375 75.24479Q38.471874 74.90104 38.08125 74.90104ZM38.08125 83.229164L42.784374 74.18229L43.64375 74.18229L38.95625 83.229164L38.08125 83.229164ZM41.8 80.90104Q41.8 79.979164 42.253124 79.33854Q42.721874 78.697914 43.6125 78.697914Q44.425 78.697914 44.95625 79.27604Q45.4875 79.83854 45.4875 80.96354Q45.4875 82.05729 44.940624 82.65104Q44.409374 83.229164 43.6125 83.229164Q42.846874 83.229164 42.315624 82.65104Q41.8 82.072914 41.8 80.90104ZM43.64375 79.416664Q43.2375 79.416664 42.971874 79.760414Q42.721874 80.104164 42.721874 81.010414Q42.721874 81.822914 42.9875 82.166664Q43.253124 82.510414 43.64375 82.510414Q44.034374 82.510414 44.3 82.166664Q44.565624 81.822914 44.565624 80.916664Q44.565624 80.08854 44.3 79.760414Q44.034374 79.416664 43.64375 79.416664Z" fill-rule="nonzero"/><path stroke="#757575" stroke-width="1.0" stroke-linecap="butt" d="M18.55 70.416664L145.23334 70.416664L292.86102 62.535423" fill-rule="nonzero"/><path fill="#9e9e9e" d="M294.86102 62.535423C294.86102 61.430855 293.96558 60.535423 292.86102 60.535423C291.75644 60.535423 290.86102 61.430855 290.86102 62.535423C290.86102 63.63999 291.75644 64.53542 292.86102 64.53542C293.96558 64.53542 294.86102 63.63999 294.86102 62.535423" fill-rule="nonzero"/><path fill="#1a1a1a" d="M19.471874 96.916664L19.471874 88.322914L20.628124 88.322914L25.14375 95.072914L25.14375 88.322914L26.2375 88.322914L26.2375 96.916664L25.065624 96.916664L20.55 90.166664L20.55 96.916664L19.471874 96.916664ZM27.95625 93.80729Q27.95625 92.072914 28.909374 91.24479Q29.70625 90.55729 30.8625 90.55729Q32.14375 90.55729 32.95625 91.40104Q33.784374 92.229164 33.784374 93.71354Q33.784374 94.916664 33.425 95.604164Q33.065624 96.291664 32.3625 96.68229Q31.675 97.05729 30.8625 97.05729Q29.565624 97.05729 28.753124 96.229164Q27.95625 95.385414 27.95625 93.80729ZM29.034374 93.80729Q29.034374 94.99479 29.55 95.58854Q30.08125 96.18229 30.8625 96.18229Q31.659374 96.18229 32.175 95.58854Q32.690624 94.99479 32.690624 93.77604Q32.690624 92.61979 32.159374 92.02604Q31.64375 91.43229 30.8625 91.43229Q30.08125 91.43229 29.55 92.02604Q29.034374 92.604164 29.034374 93.80729ZM37.64375 95.979164L37.8 96.90104Q37.346874 96.99479 37.003124 96.99479Q36.425 96.99479 36.1125 96.822914Q35.8 96.635414 35.659374 96.33854Q35.534374 96.041664 35.534374 95.08854L35.534374 91.510414L34.76875 91.510414L34.76875 90.697914L35.534374 90.697914L35.534374 89.15104L36.58125 88.52604L36.58125 90.697914L37.64375 90.697914L37.64375 91.510414L36.58125 91.510414L36.58125 95.15104Q36.58125 95.604164 36.628124 95.729164Q36.690624 95.854164 36.815624 95.93229Q36.940624 96.010414 37.175 96.010414Q37.3625 96.010414 37.64375 95.979164ZM40.534374 96.916664L43.83125 88.322914L45.05 88.322914L48.565624 96.916664L47.284374 96.916664L46.26875 94.30729L42.690624 94.30729L41.7375 96.916664L40.534374 96.916664ZM43.01875 93.385414L45.925 93.385414L45.034374 91.010414Q44.6125 89.93229 44.425 89.229164Q44.253124 90.05729 43.95625 90.86979L43.01875 93.385414ZM50.065624 96.916664L47.70625 90.697914L48.815624 90.697914L50.159374 94.416664Q50.3625 95.02604 50.55 95.666664Q50.690624 95.18229 50.940624 94.49479L52.33125 90.697914L53.409374 90.697914L51.05 96.916664L50.065624 96.916664ZM57.409374 96.15104Q56.815624 96.65104 56.26875 96.854164Q55.7375 97.05729 55.1125 97.05729Q54.08125 97.05729 53.534374 96.55729Q52.9875 96.05729 52.9875 95.27604Q52.9875 94.822914 53.190624 94.447914Q53.39375 94.05729 53.7375 93.83854Q54.08125 93.604164 54.503124 93.49479Q54.8 93.40104 55.440624 93.322914Q56.70625 93.18229 57.315624 92.96354Q57.315624 92.74479 57.315624 92.697914Q57.315624 92.041664 57.01875 91.77604Q56.6125 91.43229 55.815624 91.43229Q55.08125 91.43229 54.721874 91.697914Q54.3625 91.947914 54.190624 92.604164L53.159374 92.46354Q53.3 91.80729 53.628124 91.40104Q53.95625 90.99479 54.565624 90.77604Q55.175 90.55729 55.971874 90.55729Q56.76875 90.55729 57.26875 90.74479Q57.76875 90.93229 58.003124 91.21354Q58.2375 91.49479 58.33125 91.93229Q58.378124 92.197914 58.378124 92.90104L58.378124 94.30729Q58.378124 95.77604 58.440624 96.166664Q58.51875 96.55729 58.721874 96.916664L57.6125 96.916664Q57.45625 96.58854 57.409374 96.15104ZM57.315624 93.791664Q56.7375 94.02604 55.596874 94.197914Q54.940624 94.291664 54.675 94.416664Q54.409374 94.52604 54.253124 94.74479Q54.1125 94.96354 54.1125 95.24479Q54.1125 95.666664 54.425 95.947914Q54.753124 96.229164 55.3625 96.229164Q55.971874 96.229164 56.440624 95.96354Q56.925 95.697914 57.14375 95.229164Q57.315624 94.86979 57.315624 94.18229L57.315624 93.791664ZM60.346874 89.541664L60.346874 88.322914L61.409374 88.322914L61.409374 89.541664L60.346874 89.541664ZM60.346874 96.916664L60.346874 90.697914L61.409374 90.697914L61.409374 96.916664L60.346874 96.916664ZM63.315624 96.916664L63.315624 88.322914L64.37813 88.322914L64.37813 96.916664L63.315624 96.916664ZM70.40938 96.15104Q69.81563 96.65104 69.26875 96.854164Q68.7375 97.05729 68.1125 97.05729Q67.08125 97.05729 66.53438 96.55729Q65.9875 96.05729 65.9875 95.27604Q65.9875 94.822914 66.19063 94.447914Q66.39375 94.05729 66.7375 93.83854Q67.08125 93.604164 67.50313 93.49479Q67.8 93.40104 68.44063 93.322914Q69.70625 93.18229 70.31563 92.96354Q70.31563 92.74479 70.31563 92.697914Q70.31563 92.041664 70.01875 91.77604Q69.6125 91.43229 68.81563 91.43229Q68.08125 91.43229 67.72188 91.697914Q67.3625 91.947914 67.19063 92.604164L66.15938 92.46354Q66.3 91.80729 66.62813 91.40104Q66.95625 90.99479 67.56563 90.77604Q68.175 90.55729 68.97188 90.55729Q69.76875 90.55729 70.26875 90.74479Q70.76875 90.93229 71.00313 91.21354Q71.2375 91.49479 71.33125 91.93229Q71.37813 92.197914 71.37813 92.90104L71.37813 94.30729Q71.37813 95.77604 71.44063 96.166664Q71.51875 96.55729 71.72188 96.916664L70.6125 96.916664Q70.45625 96.58854 70.40938 96.15104ZM70.31563 93.791664Q69.7375 94.02604 68.59688 94.197914Q67.94063 94.291664 67.675 94.416664Q67.40938 94.52604 67.25313 94.74479Q67.1125 94.96354 67.1125 95.24479Q67.1125 95.666664 67.425 95.947914Q67.75313 96.229164 68.3625 96.229164Q68.97188 96.229164 69.44063 95.96354Q69.925 95.697914 70.14375 95.229164Q70.31563 94.86979 70.31563 94.18229L70.31563 93.791664ZM74.31563 96.916664L73.33125 96.916664L73.33125 88.322914L74.39375 88.322914L74.39375 91.385414Q75.06563 90.55729 76.09688 90.55729Q76.675 90.55729 77.175 90.791664Q77.69063 91.010414 78.01875 91.43229Q78.3625 91.854164 78.55 92.447914Q78.7375 93.041664 78.7375 93.71354Q78.7375 95.30729 77.94063 96.18229Q77.14375 97.05729 76.05 97.05729Q74.94063 97.05729 74.31563 96.135414L74.31563 96.916664ZM74.3 93.760414Q74.3 94.86979 74.6125 95.36979Q75.1125 96.18229 75.95625 96.18229Q76.64375 96.18229 77.14375 95.58854Q77.65938 94.99479 77.65938 93.791664Q77.65938 92.572914 77.175 91.99479Q76.69063 91.416664 76.00313 91.416664Q75.31563 91.416664 74.8 92.02604Q74.3 92.61979 74.3 93.760414ZM80.31563 96.916664L80.31563 88.322914L81.37813 88.322914L81.37813 96.916664L80.31563 96.916664ZM87.59688 94.916664L88.69063 95.041664Q88.44063 95.99479 87.7375 96.52604Q87.03438 97.05729 85.95625 97.05729Q84.59688 97.05729 83.78438 96.21354Q82.9875 95.36979 82.9875 93.854164Q82.9875 92.291664 83.8 91.43229Q84.6125 90.55729 85.89375 90.55729Q87.14375 90.55729 87.925 91.40104Q88.72188 92.24479 88.72188 93.791664Q88.72188 93.885414 88.72188 94.072914L84.08125 94.072914Q84.14375 95.104164 84.65938 95.65104Q85.175 96.18229 85.95625 96.18229Q86.53438 96.18229 86.94063 95.885414Q87.3625 95.572914 87.59688 94.916664ZM84.14375 93.21354L87.6125 93.21354Q87.55 92.416664 87.22188 92.02604Q86.70625 91.416664 85.90938 91.416664Q85.175 91.416664 84.675 91.90104Q84.19063 92.385414 84.14375 93.21354Z" fill-rule="nonzero"/><path fill="#9e9e9e" d="M23.01875 113.916664L21.971874 113.916664L21.971874 107.197914Q21.58125 107.55729 20.95625 107.93229Q20.346874 108.291664 19.8625 108.46354L19.8625 107.447914Q20.7375 107.02604 21.39375 106.447914Q22.065624 105.854164 22.346874 105.291664L23.01875 105.291664L23.01875 113.916664ZM31.596874 112.90104L31.596874 113.916664L25.909374 113.916664Q25.909374 113.541664 26.034374 113.18229Q26.253124 112.604164 26.721874 112.041664Q27.20625 111.479164 28.1125 110.74479Q29.51875 109.58854 30.003124 108.916664Q30.503124 108.24479 30.503124 107.65104Q30.503124 107.02604 30.05 106.604164Q29.596874 106.166664 28.878124 106.166664Q28.1125 106.166664 27.659374 106.61979Q27.20625 107.072914 27.190624 107.885414L26.1125 107.77604Q26.221874 106.55729 26.940624 105.93229Q27.675 105.291664 28.909374 105.291664Q30.14375 105.291664 30.8625 105.979164Q31.58125 106.666664 31.58125 107.68229Q31.58125 108.197914 31.3625 108.697914Q31.159374 109.18229 30.659374 109.74479Q30.175 110.291664 29.05 111.24479Q28.096874 112.041664 27.815624 112.33854Q27.55 112.61979 27.378124 112.90104L31.596874 112.90104ZM33.64375 113.916664L33.64375 112.71354L34.846874 112.71354L34.846874 113.916664L33.64375 113.916664ZM40.01875 113.916664L38.971874 113.916664L38.971874 107.197914Q38.58125 107.55729 37.95625 107.93229Q37.346874 108.291664 36.8625 108.46354L36.8625 107.447914Q37.7375 107.02604 38.39375 106.447914Q39.065624 105.854164 39.346874 105.291664L40.01875 105.291664L40.01875 113.916664ZM43.253124 107.385414Q43.253124 106.46354 43.70625 105.822914Q44.175 105.18229 45.05 105.18229Q45.8625 105.18229 46.39375 105.760414Q46.925 106.33854 46.925 107.447914Q46.925 108.541664 46.378124 109.135414Q45.846874 109.71354 45.065624 109.71354Q44.284374 109.71354 43.76875 109.135414Q43.253124 108.55729 43.253124 107.385414ZM45.08125 105.90104Q44.690624 105.90104 44.425 106.24479Q44.175 106.58854 44.175 107.49479Q44.175 108.322914 44.425 108.666664Q44.690624 108.99479 45.08125 108.99479Q45.4875 108.99479 45.7375 108.65104Q46.003124 108.30729 46.003124 107.416664Q46.003124 106.572914 45.7375 106.24479Q45.471874 105.90104 45.08125 105.90104ZM45.08125 114.229164L49.784374 105.18229L50.64375 105.18229L45.95625 114.229164L45.08125 114.229164ZM48.8 111.90104Q48.8 110.979164 49.253124 110.33854Q49.721874 109.697914 50.6125 109.697914Q51.425 109.697914 51.95625 110.27604Q52.4875 110.83854 52.4875 111.96354Q52.4875 113.05729 51.940624 113.65104Q51.409374 114.229164 50.6125 114.229164Q49.846874 114.229164 49.315624 113.65104Q48.8 113.072914 48.8 111.90104ZM50.64375 110.416664Q50.2375 110.416664 49.971874 110.760414Q49.721874 111.104164 49.721874 112.010414Q49.721874 112.822914 49.9875 113.166664Q50.253124 113.510414 50.64375 113.510414Q51.034374 113.510414 51.3 113.166664Q51.565624 112.822914 51.565624 111.916664Q51.565624 111.08854 51.3 110.760414Q51.034374 110.416664 50.64375 110.416664Z" fill-rule="nonzero"/><path stroke="#757575" stroke-width="1.0" stroke-linecap="butt" d="M18.55 101.416664L145.23334 101.416664L234.72717 78.33121" fill-rule="nonzero"/><path fill="#9e9e9e" d="M236.72717 78.33121C236.72717 77.22664 235.83174 76.33121 234.72717 76.33121C233.6226 76.33121 232.72717 77.22664 232.72717 78.33121C232.72717 79.435776 233.6226 80.33121 234.72717 80.33121C235.83174 80.33121 236.72717 79.435776 236.72717 78.33121" fill-rule="nonzero"/><path fill="#1a1a1a" d="M19.425 127.916664L19.425 119.322914L22.659374 119.322914Q23.64375 119.322914 24.2375 119.58854Q24.83125 119.854164 25.159374 120.40104Q25.503124 120.93229 25.503124 121.52604Q25.503124 122.072914 25.20625 122.55729Q24.909374 123.041664 24.3 123.33854Q25.08125 123.572914 25.4875 124.135414Q25.909374 124.68229 25.909374 125.43229Q25.909374 126.02604 25.659374 126.55729Q25.409374 127.072914 25.034374 127.354164Q24.659374 127.635414 24.08125 127.77604Q23.51875 127.916664 22.70625 127.916664L19.425 127.916664ZM20.565624 122.93229L22.425 122.93229Q23.175 122.93229 23.503124 122.83854Q23.940624 122.71354 24.159374 122.416664Q24.378124 122.104164 24.378124 121.65104Q24.378124 121.229164 24.175 120.90104Q23.971874 120.572914 23.58125 120.46354Q23.20625 120.33854 22.284374 120.33854L20.565624 120.33854L20.565624 122.93229ZM20.565624 126.90104L22.70625 126.90104Q23.253124 126.90104 23.471874 126.854164Q23.878124 126.791664 24.128124 126.635414Q24.39375 126.46354 24.565624 126.15104Q24.7375 125.83854 24.7375 125.43229Q24.7375 124.947914 24.4875 124.58854Q24.253124 124.229164 23.815624 124.08854Q23.378124 123.947914 22.55 123.947914L20.565624 123.947914L20.565624 126.90104ZM27.096874 125.15104L28.159374 125.05729Q28.2375 125.71354 28.51875 126.11979Q28.8 126.52604 29.378124 126.791664Q29.971874 127.041664 30.70625 127.041664Q31.346874 127.041664 31.846874 126.854164Q32.346874 126.65104 32.58125 126.322914Q32.83125 125.979164 32.83125 125.58854Q32.83125 125.18229 32.596874 124.885414Q32.3625 124.572914 31.83125 124.36979Q31.471874 124.229164 30.284374 123.947914Q29.1125 123.666664 28.64375 123.416664Q28.01875 123.08854 27.721874 122.61979Q27.425 122.135414 27.425 121.541664Q27.425 120.90104 27.784374 120.33854Q28.159374 119.760414 28.8625 119.479164Q29.58125 119.18229 30.440624 119.18229Q31.39375 119.18229 32.128124 119.49479Q32.8625 119.791664 33.253124 120.40104Q33.64375 120.99479 33.675 121.74479L32.58125 121.822914Q32.4875 121.010414 31.971874 120.604164Q31.471874 120.18229 30.4875 120.18229Q29.45625 120.18229 28.9875 120.55729Q28.51875 120.93229 28.51875 121.46354Q28.51875 121.93229 28.846874 122.229164Q29.175 122.52604 30.55 122.83854Q31.940624 123.15104 32.45625 123.385414Q33.20625 123.74479 33.565624 124.27604Q33.925 124.791664 33.925 125.49479Q33.925 126.18229 33.534374 126.791664Q33.14375 127.385414 32.409374 127.729164Q31.675 128.05728 30.753124 128.05728Q29.58125 128.05728 28.784374 127.729164Q28.003124 127.385414 27.55 126.697914Q27.1125 126.010414 27.096874 125.15104ZM35.425 127.916664L35.425 119.322914L36.565624 119.322914L36.565624 126.90104L40.8 126.90104L40.8 127.916664L35.425 127.916664ZM41.925 125.33854L41.925 124.27604L45.175 124.27604L45.175 125.33854L41.925 125.33854ZM50.01875 127.916664L48.971874 127.916664L48.971874 121.197914Q48.58125 121.55729 47.95625 121.93229Q47.346874 122.291664 46.8625 122.46354L46.8625 121.447914Q47.7375 121.02604 48.39375 120.447914Q49.065624 119.854164 49.346874 119.291664L50.01875 119.291664L50.01875 127.916664ZM53.64375 127.916664L53.64375 126.71354L54.846874 126.71354L54.846874 127.916664L53.64375 127.916664ZM56.05 123.68229Q56.05 122.15104 56.3625 121.229164Q56.675 120.291664 57.284374 119.791664Q57.909374 119.291664 58.846874 119.291664Q59.534374 119.291664 60.05 119.572914Q60.58125 119.854164 60.925 120.385414Q61.26875 120.90104 61.45625 121.65104Q61.64375 122.40104 61.64375 123.68229Q61.64375 125.197914 61.33125 126.11979Q61.034374 127.041664 60.409374 127.55729Q59.8 128.05728 58.846874 128.05728Q57.6125 128.05728 56.89375 127.166664Q56.05 126.104164 56.05 123.68229ZM57.128124 123.68229Q57.128124 125.791664 57.628124 126.49479Q58.128124 127.197914 58.846874 127.197914Q59.58125 127.197914 60.065624 126.49479Q60.565624 125.791664 60.565624 123.68229Q60.565624 121.55729 60.065624 120.86979Q59.58125 120.166664 58.83125 120.166664Q58.1125 120.166664 57.675 120.77604Q57.128124 121.55729 57.128124 123.68229Z" fill-rule="nonzero"/><path fill="#9e9e9e" d="M23.01875 144.91667L21.971874 144.91667L21.971874 138.19792Q21.58125 138.5573 20.95625 138.9323Q20.346874 139.29167 19.8625 139.46355L19.8625 138.44792Q20.7375 138.02605 21.39375 137.44792Q22.065624 136.85417 22.346874 136.29167L23.01875 136.29167L23.01875 144.91667ZM26.64375 144.91667L26.64375 143.71355L27.846874 143.71355L27.846874 144.91667L26.64375 144.91667ZM29.05 142.65105L30.1125 142.51042Q30.284374 143.40105 30.721874 143.8073Q31.159374 144.19792 31.784374 144.19792Q32.534374 144.19792 33.05 143.6823Q33.565624 143.16667 33.565624 142.40105Q33.565624 141.6823 33.08125 141.21355Q32.6125 140.72917 31.878124 140.72917Q31.58125 140.72917 31.128124 140.85417L31.253124 139.91667Q31.3625 139.9323 31.425 139.9323Q32.096874 139.9323 32.628124 139.58855Q33.175 139.22917 33.175 138.4948Q33.175 137.91667 32.784374 137.54167Q32.39375 137.15105 31.76875 137.15105Q31.159374 137.15105 30.7375 137.54167Q30.33125 137.9323 30.221874 138.69792L29.159374 138.51042Q29.346874 137.46355 30.034374 136.88542Q30.721874 136.29167 31.7375 136.29167Q32.440624 136.29167 33.034374 136.60417Q33.628124 136.90105 33.940624 137.41667Q34.253124 137.9323 34.253124 138.52605Q34.253124 139.07292 33.95625 139.54167Q33.659374 139.9948 33.08125 140.26042Q33.83125 140.4323 34.253124 140.9948Q34.675 141.54167 34.675 142.38542Q34.675 143.51042 33.846874 144.29167Q33.034374 145.07292 31.784374 145.07292Q30.659374 145.07292 29.909374 144.40105Q29.159374 143.71355 29.05 142.65105ZM36.253124 138.38542Q36.253124 137.46355 36.70625 136.82292Q37.175 136.1823 38.05 136.1823Q38.8625 136.1823 39.39375 136.76042Q39.925 137.33855 39.925 138.44792Q39.925 139.54167 39.378124 140.13542Q38.846874 140.71355 38.065624 140.71355Q37.284374 140.71355 36.76875 140.13542Q36.253124 139.5573 36.253124 138.38542ZM38.08125 136.90105Q37.690624 136.90105 37.425 137.2448Q37.175 137.58855 37.175 138.4948Q37.175 139.32292 37.425 139.66667Q37.690624 139.9948 38.08125 139.9948Q38.4875 139.9948 38.7375 139.65105Q39.003124 139.3073 39.003124 138.41667Q39.003124 137.57292 38.7375 137.2448Q38.471874 136.90105 38.08125 136.90105ZM38.08125 145.22917L42.784374 136.1823L43.64375 136.1823L38.95625 145.22917L38.08125 145.22917ZM41.8 142.90105Q41.8 141.97917 42.253124 141.33855Q42.721874 140.69792 43.6125 140.69792Q44.425 140.69792 44.95625 141.27605Q45.4875 141.83855 45.4875 142.96355Q45.4875 144.0573 44.940624 144.65105Q44.409374 145.22917 43.6125 145.22917Q42.846874 145.22917 42.315624 144.65105Q41.8 144.07292 41.8 142.90105ZM43.64375 141.41667Q43.2375 141.41667 42.971874 141.76042Q42.721874 142.10417 42.721874 143.01042Q42.721874 143.82292 42.9875 144.16667Q43.253124 144.51042 43.64375 144.51042Q44.034374 144.51042 44.3 144.16667Q44.565624 143.82292 44.565624 142.91667Q44.565624 142.08855 44.3 141.76042Q44.034374 141.41667 43.64375 141.41667Z" fill-rule="nonzero"/><path stroke="#757575" stroke-width="1.0" stroke-linecap="butt" d="M18.55 132.41667L145.23334 132.41667L189.18771 115.96598" fill-rule="nonzero"/><path fill="#9e9e9e" d="M191.18771 115.96598C191.18771 114.86141 190.29228 113.96598 189.18771 113.96598C188.08315 113.96598 187.18771 114.86141 187.18771 115.96598C187.18771 117.07055 188.08315 117.96598 189.18771 117.96598C190.29228 117.96598 191.18771 117.07055 191.18771 115.96598" fill-rule="nonzero"/><path fill="#1a1a1a" d="M19.440624 158.91667L19.440624 150.32292L21.159374 150.32292L23.190624 156.40105Q23.471874 157.26042 23.596874 157.6823Q23.7375 157.21355 24.05 156.3073L26.1125 150.32292L27.64375 150.32292L27.64375 158.91667L26.55 158.91667L26.55 151.72917L24.05 158.91667L23.01875 158.91667L20.534374 151.60417L20.534374 158.91667L19.440624 158.91667ZM28.471874 158.91667L28.471874 150.32292L31.721874 150.32292Q32.565624 150.32292 33.01875 150.40105Q33.659374 150.51042 34.08125 150.8073Q34.51875 151.10417 34.76875 151.63542Q35.034374 152.16667 35.034374 152.8073Q35.034374 153.90105 34.33125 154.66667Q33.64375 155.41667 31.815624 155.41667L29.6125 155.41667L29.6125 158.91667L28.471874 158.91667ZM29.6125 154.41667L31.83125 154.41667Q32.940624 154.41667 33.39375 154.01042Q33.8625 153.58855 33.8625 152.83855Q33.8625 152.3073 33.58125 151.9323Q33.315624 151.54167 32.878124 151.41667Q32.58125 151.33855 31.815624 151.33855L29.6125 151.33855L29.6125 154.41667ZM36.425 158.91667L36.425 150.32292L37.565624 150.32292L37.565624 157.90105L41.8 157.90105L41.8 158.91667L36.425 158.91667ZM42.925 156.33855L42.925 155.27605L46.175 155.27605L46.175 156.33855L42.925 156.33855ZM52.596874 157.90105L52.596874 158.91667L46.909374 158.91667Q46.909374 158.54167 47.034374 158.1823Q47.253124 157.60417 47.721874 157.04167Q48.20625 156.47917 49.1125 155.7448Q50.51875 154.58855 51.003124 153.91667Q51.503124 153.2448 51.503124 152.65105Q51.503124 152.02605 51.05 151.60417Q50.596874 151.16667 49.878124 151.16667Q49.1125 151.16667 48.659374 151.6198Q48.20625 152.07292 48.190624 152.88542L47.1125 152.77605Q47.221874 151.5573 47.940624 150.9323Q48.675 150.29167 49.909374 150.29167Q51.14375 150.29167 51.8625 150.97917Q52.58125 151.66667 52.58125 152.6823Q52.58125 153.19792 52.3625 153.69792Q52.159374 154.1823 51.659374 154.7448Q51.175 155.29167 50.05 156.2448Q49.096874 157.04167 48.815624 157.33855Q48.55 157.6198 48.378124 157.90105L52.596874 157.90105ZM54.64375 158.91667L54.64375 157.71355L55.846874 157.71355L55.846874 158.91667L54.64375 158.91667ZM57.05 154.6823Q57.05 153.15105 57.3625 152.22917Q57.675 151.29167 58.284374 150.79167Q58.909374 150.29167 59.846874 150.29167Q60.534374 150.29167 61.05 150.57292Q61.58125 150.85417 61.925 151.38542Q62.26875 151.90105 62.45625 152.65105Q62.64375 153.40105 62.64375 154.6823Q62.64375 156.19792 62.33125 157.1198Q62.034374 158.04167 61.409374 158.5573Q60.8 159.0573 59.846874 159.0573Q58.6125 159.0573 57.89375 158.16667Q57.05 157.10417 57.05 154.6823ZM58.128124 154.6823Q58.128124 156.79167 58.628124 157.4948Q59.128124 158.19792 59.846874 158.19792Q60.58125 158.19792 61.065624 157.4948Q61.565624 156.79167 61.565624 154.6823Q61.565624 152.5573 61.065624 151.8698Q60.58125 151.16667 59.83125 151.16667Q59.1125 151.16667 58.675 151.77605Q58.128124 152.5573 58.128124 154.6823Z" fill-rule="nonzero"/><path fill="#9e9e9e" d="M24.596874 174.90105L24.596874 175.91667L18.909374 175.91667Q18.909374 175.54167 19.034374 175.1823Q19.253124 174.60417 19.721874 174.04167Q20.20625 173.47917 21.1125 172.7448Q22.51875 171.58855 23.003124 170.91667Q23.503124 170.2448 23.503124 169.65105Q23.503124 169.02605 23.05 168.60417Q22.596874 168.16667 21.878124 168.16667Q21.1125 168.16667 20.659374 168.6198Q20.20625 169.07292 20.190624 169.88542L19.1125 169.77605Q19.221874 168.5573 19.940624 167.9323Q20.675 167.29167 21.909374 167.29167Q23.14375 167.29167 23.8625 167.97917Q24.58125 168.66667 24.58125 169.6823Q24.58125 170.19792 24.3625 170.69792Q24.159374 171.1823 23.659374 171.7448Q23.175 172.29167 22.05 173.2448Q21.096874 174.04167 20.815624 174.33855Q20.55 174.6198 20.378124 174.90105L24.596874 174.90105ZM26.64375 175.91667L26.64375 174.71355L27.846874 174.71355L27.846874 175.91667L26.64375 175.91667ZM32.425 175.91667L32.425 173.85417L28.70625 173.85417L28.70625 172.88542L32.628124 167.32292L33.4875 167.32292L33.4875 172.88542L34.64375 172.88542L34.64375 173.85417L33.4875 173.85417L33.4875 175.91667L32.425 175.91667ZM32.425 172.88542L32.425 169.02605L29.7375 172.88542L32.425 172.88542ZM36.253124 169.38542Q36.253124 168.46355 36.70625 167.82292Q37.175 167.1823 38.05 167.1823Q38.8625 167.1823 39.39375 167.76042Q39.925 168.33855 39.925 169.44792Q39.925 170.54167 39.378124 171.13542Q38.846874 171.71355 38.065624 171.71355Q37.284374 171.71355 36.76875 171.13542Q36.253124 170.5573 36.253124 169.38542ZM38.08125 167.90105Q37.690624 167.90105 37.425 168.2448Q37.175 168.58855 37.175 169.4948Q37.175 170.32292 37.425 170.66667Q37.690624 170.9948 38.08125 170.9948Q38.4875 170.9948 38.7375 170.65105Q39.003124 170.3073 39.003124 169.41667Q39.003124 168.57292 38.7375 168.2448Q38.471874 167.90105 38.08125 167.90105ZM38.08125 176.22917L42.784374 167.1823L43.64375 167.1823L38.95625 176.22917L38.08125 176.22917ZM41.8 173.90105Q41.8 172.97917 42.253124 172.33855Q42.721874 171.69792 43.6125 171.69792Q44.425 171.69792 44.95625 172.27605Q45.4875 172.83855 45.4875 173.96355Q45.4875 175.0573 44.940624 175.65105Q44.409374 176.22917 43.6125 176.22917Q42.846874 176.22917 42.315624 175.65105Q41.8 175.07292 41.8 173.90105ZM43.64375 172.41667Q43.2375 172.41667 42.971874 172.76042Q42.721874 173.10417 42.721874 174.01042Q42.721874 174.82292 42.9875 175.16667Q43.253124 175.51042 43.64375 175.51042Q44.034374 175.51042 44.3 175.16667Q44.565624 174.82292 44.565624 173.91667Q44.565624 173.08855 44.3 172.76042Q44.034374 172.41667 43.64375 172.41667Z" fill-rule="nonzero"/><path stroke="#757575" stroke-width="1.0" stroke-linecap="butt" d="M18.55 163.41667L145.23334 163.41667L178.40733 131.64917" fill-rule="nonzero"/><path fill="#9e9e9e" d="M180.40733 131.64917C180.40733 130.5446 179.5119 129.64917 178.40733 129.64917C177.30276 129.64917 176.40733 130.5446 176.40733 131.64917C176.40733 132.75374 177.30276 133.64917 178.40733 133.64917C179.5119 133.64917 180.40733 132.75374 180.40733 131.64917" fill-rule="nonzero"/><path fill="#1a1a1a" d="M19.425 189.91667L19.425 181.32292L22.659374 181.32292Q23.64375 181.32292 24.2375 181.58855Q24.83125 181.85417 25.159374 182.40105Q25.503124 182.9323 25.503124 183.52605Q25.503124 184.07292 25.20625 184.5573Q24.909374 185.04167 24.3 185.33855Q25.08125 185.57292 25.4875 186.13542Q25.909374 186.6823 25.909374 187.4323Q25.909374 188.02605 25.659374 188.5573Q25.409374 189.07292 25.034374 189.35417Q24.659374 189.63542 24.08125 189.77605Q23.51875 189.91667 22.70625 189.91667L19.425 189.91667ZM20.565624 184.9323L22.425 184.9323Q23.175 184.9323 23.503124 184.83855Q23.940624 184.71355 24.159374 184.41667Q24.378124 184.10417 24.378124 183.65105Q24.378124 183.22917 24.175 182.90105Q23.971874 182.57292 23.58125 182.46355Q23.20625 182.33855 22.284374 182.33855L20.565624 182.33855L20.565624 184.9323ZM20.565624 188.90105L22.70625 188.90105Q23.253124 188.90105 23.471874 188.85417Q23.878124 188.79167 24.128124 188.63542Q24.39375 188.46355 24.565624 188.15105Q24.7375 187.83855 24.7375 187.4323Q24.7375 186.94792 24.4875 186.58855Q24.253124 186.22917 23.815624 186.08855Q23.378124 185.94792 22.55 185.94792L20.565624 185.94792L20.565624 188.90105ZM27.096874 187.15105L28.159374 187.0573Q28.2375 187.71355 28.51875 188.1198Q28.8 188.52605 29.378124 188.79167Q29.971874 189.04167 30.70625 189.04167Q31.346874 189.04167 31.846874 188.85417Q32.346874 188.65105 32.58125 188.32292Q32.83125 187.97917 32.83125 187.58855Q32.83125 187.1823 32.596874 186.88542Q32.3625 186.57292 31.83125 186.3698Q31.471874 186.22917 30.284374 185.94792Q29.1125 185.66667 28.64375 185.41667Q28.01875 185.08855 27.721874 184.6198Q27.425 184.13542 27.425 183.54167Q27.425 182.90105 27.784374 182.33855Q28.159374 181.76042 28.8625 181.47917Q29.58125 181.1823 30.440624 181.1823Q31.39375 181.1823 32.128124 181.4948Q32.8625 181.79167 33.253124 182.40105Q33.64375 182.9948 33.675 183.7448L32.58125 183.82292Q32.4875 183.01042 31.971874 182.60417Q31.471874 182.1823 30.4875 182.1823Q29.45625 182.1823 28.9875 182.5573Q28.51875 182.9323 28.51875 183.46355Q28.51875 183.9323 28.846874 184.22917Q29.175 184.52605 30.55 184.83855Q31.940624 185.15105 32.45625 185.38542Q33.20625 185.7448 33.565624 186.27605Q33.925 186.79167 33.925 187.4948Q33.925 188.1823 33.534374 188.79167Q33.14375 189.38542 32.409374 189.72917Q31.675 190.0573 30.753124 190.0573Q29.58125 190.0573 28.784374 189.72917Q28.003124 189.38542 27.55 188.69792Q27.1125 188.01042 27.096874 187.15105ZM35.471874 189.91667L35.471874 181.32292L38.440624 181.32292Q39.440624 181.32292 39.971874 181.44792Q40.70625 181.6198 41.221874 182.0573Q41.909374 182.63542 42.2375 183.54167Q42.58125 184.4323 42.58125 185.57292Q42.58125 186.5573 42.346874 187.3073Q42.128124 188.0573 41.76875 188.5573Q41.409374 189.0573 40.971874 189.33855Q40.55 189.6198 39.95625 189.77605Q39.3625 189.91667 38.58125 189.91667L35.471874 189.91667ZM36.6125 188.90105L38.440624 188.90105Q39.3 188.90105 39.784374 188.7448Q40.26875 188.58855 40.55 188.29167Q40.95625 187.90105 41.175 187.21355Q41.409374 186.52605 41.409374 185.5573Q41.409374 184.21355 40.95625 183.4948Q40.51875 182.76042 39.89375 182.51042Q39.425 182.33855 38.425 182.33855L36.6125 182.33855L36.6125 188.90105ZM43.925 187.33855L43.925 186.27605L47.175 186.27605L47.175 187.33855L43.925 187.33855ZM48.05 187.65105L49.1125 187.51042Q49.284374 188.40105 49.721874 188.8073Q50.159374 189.19792 50.784374 189.19792Q51.534374 189.19792 52.05 188.6823Q52.565624 188.16667 52.565624 187.40105Q52.565624 186.6823 52.08125 186.21355Q51.6125 185.72917 50.878124 185.72917Q50.58125 185.72917 50.128124 185.85417L50.253124 184.91667Q50.3625 184.9323 50.425 184.9323Q51.096874 184.9323 51.628124 184.58855Q52.175 184.22917 52.175 183.4948Q52.175 182.91667 51.784374 182.54167Q51.39375 182.15105 50.76875 182.15105Q50.159374 182.15105 49.7375 182.54167Q49.33125 182.9323 49.221874 183.69792L48.159374 183.51042Q48.346874 182.46355 49.034374 181.88542Q49.721874 181.29167 50.7375 181.29167Q51.440624 181.29167 52.034374 181.60417Q52.628124 181.90105 52.940624 182.41667Q53.253124 182.9323 53.253124 183.52605Q53.253124 184.07292 52.95625 184.54167Q52.659374 184.9948 52.08125 185.26042Q52.83125 185.4323 53.253124 185.9948Q53.675 186.54167 53.675 187.38542Q53.675 188.51042 52.846874 189.29167Q52.034374 190.07292 50.784374 190.07292Q49.659374 190.07292 48.909374 189.40105Q48.159374 188.71355 48.05 187.65105ZM54.925 187.33855L54.925 186.27605L58.175 186.27605L58.175 187.33855L54.925 187.33855ZM65.6125 186.90105L66.7375 187.19792Q66.37813 188.58855 65.45625 189.32292Q64.53438 190.0573 63.190624 190.0573Q61.8 190.0573 60.925 189.4948Q60.05 188.9323 59.596874 187.8698Q59.14375 186.79167 59.14375 185.5573Q59.14375 184.21355 59.659374 183.21355Q60.175 182.21355 61.1125 181.69792Q62.065624 181.1823 63.20625 181.1823Q64.4875 181.1823 65.3625 181.83855Q66.25313 182.4948 66.59688 183.6823L65.47188 183.94792Q65.175 183.01042 64.59688 182.58855Q64.03438 182.15105 63.175 182.15105Q62.190624 182.15105 61.51875 182.63542Q60.8625 183.10417 60.58125 183.90105Q60.315624 184.69792 60.315624 185.5573Q60.315624 186.65105 60.628124 187.46355Q60.95625 188.27605 61.628124 188.6823Q62.3 189.08855 63.096874 189.08855Q64.05 189.08855 64.70625 188.54167Q65.37813 187.9948 65.6125 186.90105ZM68.31563 189.91667L68.31563 181.32292L69.37813 181.32292L69.37813 189.91667L68.31563 189.91667ZM75.40938 189.15105Q74.81563 189.65105 74.26875 189.85417Q73.7375 190.0573 73.1125 190.0573Q72.08125 190.0573 71.53438 189.5573Q70.9875 189.0573 70.9875 188.27605Q70.9875 187.82292 71.19063 187.44792Q71.39375 187.0573 71.7375 186.83855Q72.08125 186.60417 72.50313 186.4948Q72.8 186.40105 73.44063 186.32292Q74.70625 186.1823 75.31563 185.96355Q75.31563 185.7448 75.31563 185.69792Q75.31563 185.04167 75.01875 184.77605Q74.6125 184.4323 73.81563 184.4323Q73.08125 184.4323 72.72188 184.69792Q72.3625 184.94792 72.19063 185.60417L71.15938 185.46355Q71.3 184.8073 71.62813 184.40105Q71.95625 183.9948 72.56563 183.77605Q73.175 183.5573 73.97188 183.5573Q74.76875 183.5573 75.26875 183.7448Q75.76875 183.9323 76.00313 184.21355Q76.2375 184.4948 76.33125 184.9323Q76.37813 185.19792 76.37813 185.90105L76.37813 187.3073Q76.37813 188.77605 76.44063 189.16667Q76.51875 189.5573 76.72188 189.91667L75.6125 189.91667Q75.45625 189.58855 75.40938 189.15105ZM75.31563 186.79167Q74.7375 187.02605 73.59688 187.19792Q72.94063 187.29167 72.675 187.41667Q72.40938 187.52605 72.25313 187.7448Q72.1125 187.96355 72.1125 188.2448Q72.1125 188.66667 72.425 188.94792Q72.75313 189.22917 73.3625 189.22917Q73.97188 189.22917 74.44063 188.96355Q74.925 188.69792 75.14375 188.22917Q75.31563 187.8698 75.31563 187.1823L75.31563 186.79167ZM82.425 189.91667L82.425 188.9948Q81.69063 190.0573 80.44063 190.0573Q79.89375 190.0573 79.40938 189.85417Q78.94063 189.63542 78.70625 189.32292Q78.47188 188.9948 78.37813 188.52605Q78.31563 188.22917 78.31563 187.54167L78.31563 183.69792L79.37813 183.69792L79.37813 187.15105Q79.37813 187.96355 79.44063 188.26042Q79.53438 188.66667 79.84688 188.91667Q80.175 189.15105 80.65938 189.15105Q81.12813 189.15105 81.53438 188.91667Q81.95625 188.66667 82.12813 188.2448Q82.31563 187.82292 82.31563 187.02605L82.31563 183.69792L83.3625 183.69792L83.3625 189.91667L82.425 189.91667ZM84.925 188.0573L85.95625 187.90105Q86.05 188.52605 86.44063 188.85417Q86.84688 189.1823 87.58125 189.1823Q88.3 189.1823 88.64375 188.90105Q89.00313 188.60417 89.00313 188.19792Q89.00313 187.83855 88.69063 187.63542Q88.47188 187.4948 87.6125 187.27605Q86.45625 186.97917 86.00313 186.77605Q85.56563 186.5573 85.33125 186.1823Q85.09688 185.8073 85.09688 185.33855Q85.09688 184.9323 85.28438 184.57292Q85.47188 184.21355 85.8 183.97917Q86.05 183.8073 86.47188 183.6823Q86.89375 183.5573 87.39375 183.5573Q88.1125 183.5573 88.65938 183.77605Q89.22188 183.97917 89.4875 184.33855Q89.75313 184.69792 89.84688 185.29167L88.81563 185.4323Q88.75313 184.96355 88.40938 184.69792Q88.08125 184.41667 87.45625 184.41667Q86.7375 184.41667 86.425 184.66667Q86.1125 184.90105 86.1125 185.22917Q86.1125 185.4323 86.2375 185.58855Q86.37813 185.76042 86.64375 185.8698Q86.8 185.9323 87.58125 186.13542Q88.70625 186.44792 89.14375 186.63542Q89.58125 186.82292 89.83125 187.1823Q90.08125 187.54167 90.08125 188.08855Q90.08125 188.6198 89.76875 189.08855Q89.47188 189.54167 88.89375 189.8073Q88.31563 190.0573 87.58125 190.0573Q86.3625 190.0573 85.72188 189.5573Q85.09688 189.04167 84.925 188.0573ZM96.59688 187.91667L97.69063 188.04167Q97.44063 188.9948 96.7375 189.52605Q96.03438 190.0573 94.95625 190.0573Q93.59688 190.0573 92.78438 189.21355Q91.9875 188.3698 91.9875 186.85417Q91.9875 185.29167 92.8 184.4323Q93.6125 183.5573 94.89375 183.5573Q96.14375 183.5573 96.925 184.40105Q97.72188 185.2448 97.72188 186.79167Q97.72188 186.88542 97.72188 187.07292L93.08125 187.07292Q93.14375 188.10417 93.65938 188.65105Q94.175 189.1823 94.95625 189.1823Q95.53438 189.1823 95.94063 188.88542Q96.3625 188.57292 96.59688 187.91667ZM93.14375 186.21355L96.6125 186.21355Q96.55 185.41667 96.22188 185.02605Q95.70625 184.41667 94.90938 184.41667Q94.175 184.41667 93.675 184.90105Q93.19063 185.38542 93.14375 186.21355Z" fill-rule="nonzero"/><path fill="#9e9e9e" d="M23.01875 206.91667L21.971874 206.91667L21.971874 200.19792Q21.58125 200.5573 20.95625 200.9323Q20.346874 201.29167 19.8625 201.46355L19.8625 200.44792Q20.7375 200.02605 21.39375 199.44792Q22.065624 198.85417 22.346874 198.29167L23.01875 198.29167L23.01875 206.91667ZM26.64375 206.91667L26.64375 205.71355L27.846874 205.71355L27.846874 206.91667L26.64375 206.91667ZM34.51875 200.4323L33.471874 200.51042Q33.33125 199.88542 33.08125 199.60417Q32.64375 199.15105 32.01875 199.15105Q31.51875 199.15105 31.128124 199.4323Q30.64375 199.8073 30.346874 200.51042Q30.065624 201.19792 30.05 202.47917Q30.425 201.90105 30.971874 201.6198Q31.534374 201.33855 32.14375 201.33855Q33.190624 201.33855 33.925 202.1198Q34.675 202.90105 34.675 204.1198Q34.675 204.9323 34.315624 205.63542Q33.971874 206.32292 33.3625 206.69792Q32.753124 207.0573 31.9875 207.0573Q30.659374 207.0573 29.83125 206.08855Q29.003124 205.1198 29.003124 202.90105Q29.003124 200.40105 29.925 199.27605Q30.721874 198.29167 32.08125 198.29167Q33.096874 198.29167 33.7375 198.8698Q34.39375 199.4323 34.51875 200.4323ZM30.221874 204.13542Q30.221874 204.6823 30.440624 205.1823Q30.675 205.66667 31.08125 205.9323Q31.503124 206.19792 31.971874 206.19792Q32.628124 206.19792 33.1125 205.66667Q33.596874 205.1198 33.596874 204.19792Q33.596874 203.3073 33.1125 202.79167Q32.64375 202.27605 31.925 202.27605Q31.20625 202.27605 30.70625 202.79167Q30.221874 203.3073 30.221874 204.13542ZM36.253124 200.38542Q36.253124 199.46355 36.70625 198.82292Q37.175 198.1823 38.05 198.1823Q38.8625 198.1823 39.39375 198.76042Q39.925 199.33855 39.925 200.44792Q39.925 201.54167 39.378124 202.13542Q38.846874 202.71355 38.065624 202.71355Q37.284374 202.71355 36.76875 202.13542Q36.253124 201.5573 36.253124 200.38542ZM38.08125 198.90105Q37.690624 198.90105 37.425 199.2448Q37.175 199.58855 37.175 200.4948Q37.175 201.32292 37.425 201.66667Q37.690624 201.9948 38.08125 201.9948Q38.4875 201.9948 38.7375 201.65105Q39.003124 201.3073 39.003124 200.41667Q39.003124 199.57292 38.7375 199.2448Q38.471874 198.90105 38.08125 198.90105ZM38.08125 207.22917L42.784374 198.1823L43.64375 198.1823L38.95625 207.22917L38.08125 207.22917ZM41.8 204.90105Q41.8 203.97917 42.253124 203.33855Q42.721874 202.69792 43.6125 202.69792Q44.425 202.69792 44.95625 203.27605Q45.4875 203.83855 45.4875 204.96355Q45.4875 206.0573 44.940624 206.65105Q44.409374 207.22917 43.6125 207.22917Q42.846874 207.22917 42.315624 206.65105Q41.8 206.07292 41.8 204.90105ZM43.64375 203.41667Q43.2375 203.41667 42.971874 203.76042Q42.721874 204.10417 42.721874 205.01042Q42.721874 205.82292 42.9875 206.16667Q43.253124 206.51042 43.64375 206.51042Q44.034374 206.51042 44.3 206.16667Q44.565624 205.82292 44.565624 204.91667Q44.565624 204.08855 44.3 203.76042Q44.034374 203.41667 43.64375 203.41667Z" fill-rule="nonzero"/><path stroke="#757575" stroke-width="1.0" stroke-linecap="butt" d="M18.55 194.41667L145.23334 194.41667L170.3 147.54416" fill-rule="nonzero"/><path fill="#9e9e9e" d="M172.3 147.54416C172.3 146.43959 171.40457 145.54416 170.3 145.54416C169.19542 145.54416 168.3 146.43959 168.3 147.54416C168.3 148.64873 169.19542 149.54416 170.3 149.54416C171.40457 149.54416 172.3 148.64873 172.3 147.54416" fill-rule="nonzero"/><path fill="#1a1a1a" d="M19.05 216.6823Q19.05 215.15105 19.3625 214.22917Q19.675 213.29167 20.284374 212.79167Q20.909374 212.29167 21.846874 212.29167Q22.534374 212.29167 23.05 212.57292Q23.58125 212.85417 23.925 213.38542Q24.26875 213.90105 24.45625 214.65105Q24.64375 215.40105 24.64375 216.6823Q24.64375 218.19792 24.33125 219.1198Q24.034374 220.04167 23.409374 220.5573Q22.8 221.0573 21.846874 221.0573Q20.6125 221.0573 19.89375 220.16667Q19.05 219.10417 19.05 216.6823ZM20.128124 216.6823Q20.128124 218.79167 20.628124 219.4948Q21.128124 220.19792 21.846874 220.19792Q22.58125 220.19792 23.065624 219.4948Q23.565624 218.79167 23.565624 216.6823Q23.565624 214.5573 23.065624 213.8698Q22.58125 213.16667 21.83125 213.16667Q21.1125 213.16667 20.675 213.77605Q20.128124 214.5573 20.128124 216.6823ZM26.425 220.91667L26.425 212.32292L29.659374 212.32292Q30.64375 212.32292 31.2375 212.58855Q31.83125 212.85417 32.159374 213.40105Q32.503124 213.9323 32.503124 214.52605Q32.503124 215.07292 32.20625 215.5573Q31.909374 216.04167 31.3 216.33855Q32.08125 216.57292 32.4875 217.13542Q32.909374 217.6823 32.909374 218.4323Q32.909374 219.02605 32.659374 219.5573Q32.409374 220.07292 32.034374 220.35417Q31.659374 220.63542 31.08125 220.77605Q30.51875 220.91667 29.70625 220.91667L26.425 220.91667ZM27.565624 215.9323L29.425 215.9323Q30.175 215.9323 30.503124 215.83855Q30.940624 215.71355 31.159374 215.41667Q31.378124 215.10417 31.378124 214.65105Q31.378124 214.22917 31.175 213.90105Q30.971874 213.57292 30.58125 213.46355Q30.20625 213.33855 29.284374 213.33855L27.565624 213.33855L27.565624 215.9323ZM27.565624 219.90105L29.70625 219.90105Q30.253124 219.90105 30.471874 219.85417Q30.878124 219.79167 31.128124 219.63542Q31.39375 219.46355 31.565624 219.15105Q31.7375 218.83855 31.7375 218.4323Q31.7375 217.94792 31.4875 217.58855Q31.253124 217.22917 30.815624 217.08855Q30.378124 216.94792 29.55 216.94792L27.565624 216.94792L27.565624 219.90105ZM34.096874 218.15105L35.159374 218.0573Q35.2375 218.71355 35.51875 219.1198Q35.8 219.52605 36.378124 219.79167Q36.971874 220.04167 37.70625 220.04167Q38.346874 220.04167 38.846874 219.85417Q39.346874 219.65105 39.58125 219.32292Q39.83125 218.97917 39.83125 218.58855Q39.83125 218.1823 39.596874 217.88542Q39.3625 217.57292 38.83125 217.3698Q38.471874 217.22917 37.284374 216.94792Q36.1125 216.66667 35.64375 216.41667Q35.01875 216.08855 34.721874 215.6198Q34.425 215.13542 34.425 214.54167Q34.425 213.90105 34.784374 213.33855Q35.159374 212.76042 35.8625 212.47917Q36.58125 212.1823 37.440624 212.1823Q38.39375 212.1823 39.128124 212.4948Q39.8625 212.79167 40.253124 213.40105Q40.64375 213.9948 40.675 214.7448L39.58125 214.82292Q39.4875 214.01042 38.971874 213.60417Q38.471874 213.1823 37.4875 213.1823Q36.45625 213.1823 35.9875 213.5573Q35.51875 213.9323 35.51875 214.46355Q35.51875 214.9323 35.846874 215.22917Q36.175 215.52605 37.55 215.83855Q38.940624 216.15105 39.45625 216.38542Q40.20625 216.7448 40.565624 217.27605Q40.925 217.79167 40.925 218.4948Q40.925 219.1823 40.534374 219.79167Q40.14375 220.38542 39.409374 220.72917Q38.675 221.0573 37.753124 221.0573Q36.58125 221.0573 35.784374 220.72917Q35.003124 220.38542 34.55 219.69792Q34.1125 219.01042 34.096874 218.15105ZM42.471874 220.91667L42.471874 212.32292L45.440624 212.32292Q46.440624 212.32292 46.971874 212.44792Q47.70625 212.6198 48.221874 213.0573Q48.909374 213.63542 49.2375 214.54167Q49.58125 215.4323 49.58125 216.57292Q49.58125 217.5573 49.346874 218.3073Q49.128124 219.0573 48.76875 219.5573Q48.409374 220.0573 47.971874 220.33855Q47.55 220.6198 46.95625 220.77605Q46.3625 220.91667 45.58125 220.91667L42.471874 220.91667ZM43.6125 219.90105L45.440624 219.90105Q46.3 219.90105 46.784374 219.7448Q47.26875 219.58855 47.55 219.29167Q47.95625 218.90105 48.175 218.21355Q48.409374 217.52605 48.409374 216.5573Q48.409374 215.21355 47.95625 214.4948Q47.51875 213.76042 46.89375 213.51042Q46.425 213.33855 45.425 213.33855L43.6125 213.33855L43.6125 219.90105Z" fill-rule="nonzero"/><path fill="#9e9e9e" d="M23.01875 237.91667L21.971874 237.91667L21.971874 231.19792Q21.58125 231.5573 20.95625 231.9323Q20.346874 232.29167 19.8625 232.46355L19.8625 231.44792Q20.7375 231.02605 21.39375 230.44792Q22.065624 229.85417 22.346874 229.29167L23.01875 229.29167L23.01875 237.91667ZM26.64375 237.91667L26.64375 236.71355L27.846874 236.71355L27.846874 237.91667L26.64375 237.91667ZM29.20625 235.9323L30.221874 235.83855Q30.346874 236.5573 30.70625 236.88542Q31.08125 237.19792 31.64375 237.19792Q32.128124 237.19792 32.4875 236.97917Q32.8625 236.7448 33.096874 236.38542Q33.33125 236.01042 33.4875 235.38542Q33.64375 234.7448 33.64375 234.08855Q33.64375 234.01042 33.64375 233.8698Q33.33125 234.3698 32.784374 234.69792Q32.2375 235.01042 31.596874 235.01042Q30.51875 235.01042 29.784374 234.2448Q29.05 233.46355 29.05 232.19792Q29.05 230.88542 29.815624 230.08855Q30.596874 229.29167 31.753124 229.29167Q32.58125 229.29167 33.26875 229.7448Q33.971874 230.19792 34.33125 231.04167Q34.690624 231.8698 34.690624 233.44792Q34.690624 235.08855 34.33125 236.07292Q33.9875 237.04167 33.26875 237.5573Q32.565624 238.0573 31.628124 238.0573Q30.6125 238.0573 29.971874 237.51042Q29.33125 236.94792 29.20625 235.9323ZM33.51875 232.13542Q33.51875 231.22917 33.034374 230.69792Q32.565624 230.16667 31.878124 230.16667Q31.175 230.16667 30.64375 230.7448Q30.128124 231.3073 30.128124 232.22917Q30.128124 233.04167 30.628124 233.5573Q31.128124 234.07292 31.846874 234.07292Q32.58125 234.07292 33.05 233.5573Q33.51875 233.04167 33.51875 232.13542ZM36.253124 231.38542Q36.253124 230.46355 36.70625 229.82292Q37.175 229.1823 38.05 229.1823Q38.8625 229.1823 39.39375 229.76042Q39.925 230.33855 39.925 231.44792Q39.925 232.54167 39.378124 233.13542Q38.846874 233.71355 38.065624 233.71355Q37.284374 233.71355 36.76875 233.13542Q36.253124 232.5573 36.253124 231.38542ZM38.08125 229.90105Q37.690624 229.90105 37.425 230.2448Q37.175 230.58855 37.175 231.4948Q37.175 232.32292 37.425 232.66667Q37.690624 232.9948 38.08125 232.9948Q38.4875 232.9948 38.7375 232.65105Q39.003124 232.3073 39.003124 231.41667Q39.003124 230.57292 38.7375 230.2448Q38.471874 229.90105 38.08125 229.90105ZM38.08125 238.22917L42.784374 229.1823L43.64375 229.1823L38.95625 238.22917L38.08125 238.22917ZM41.8 235.90105Q41.8 234.97917 42.253124 234.33855Q42.721874 233.69792 43.6125 233.69792Q44.425 233.69792 44.95625 234.27605Q45.4875 234.83855 45.4875 235.96355Q45.4875 237.0573 44.940624 237.65105Q44.409374 238.22917 43.6125 238.22917Q42.846874 238.22917 42.315624 237.65105Q41.8 237.07292 41.8 235.90105ZM43.64375 234.41667Q43.2375 234.41667 42.971874 234.76042Q42.721874 235.10417 42.721874 236.01042Q42.721874 236.82292 42.9875 237.16667Q43.253124 237.51042 43.64375 237.51042Q44.034374 237.51042 44.3 237.16667Q44.565624 236.82292 44.565624 235.91667Q44.565624 235.08855 44.3 234.76042Q44.034374 234.41667 43.64375 234.41667Z" fill-rule="nonzero"/><path stroke="#757575" stroke-width="1.0" stroke-linecap="butt" d="M18.55 225.41667L145.23334 225.41667L161.43097 175.89268" fill-rule="nonzero"/><path fill="#9e9e9e" d="M163.43097 175.89268C163.43097 174.7881 162.53554 173.89268 161.43097 173.89268C160.3264 173.89268 159.43097 174.7881 159.43097 175.89268C159.43097 176.99725 160.3264 177.89268 161.43097 177.89268C162.53554 177.89268 163.43097 176.99725 163.43097 175.89268" fill-rule="nonzero"/><path fill="#1a1a1a" d="M19.471874 251.91667L19.471874 243.32292L20.628124 243.32292L25.14375 250.07292L25.14375 243.32292L26.2375 243.32292L26.2375 251.91667L25.065624 251.91667L20.55 245.16667L20.55 251.91667L19.471874 251.91667ZM28.128124 247.72917Q28.128124 245.58855 29.26875 244.38542Q30.425 243.16667 32.2375 243.16667Q33.440624 243.16667 34.39375 243.7448Q35.346874 244.3073 35.846874 245.32292Q36.346874 246.33855 36.346874 247.63542Q36.346874 248.9323 35.815624 249.96355Q35.284374 250.9948 34.315624 251.52605Q33.3625 252.0573 32.2375 252.0573Q31.01875 252.0573 30.065624 251.47917Q29.1125 250.88542 28.6125 249.88542Q28.128124 248.8698 28.128124 247.72917ZM29.3 247.7448Q29.3 249.3073 30.128124 250.19792Q30.971874 251.08855 32.2375 251.08855Q33.51875 251.08855 34.346874 250.19792Q35.175 249.29167 35.175 247.6198Q35.175 246.57292 34.815624 245.79167Q34.471874 245.01042 33.784374 244.58855Q33.096874 244.15105 32.253124 244.15105Q31.05 244.15105 30.175 244.97917Q29.3 245.8073 29.3 247.7448ZM36.534374 251.91667L39.83125 243.32292L41.05 243.32292L44.565624 251.91667L43.284374 251.91667L42.26875 249.3073L38.690624 249.3073L37.7375 251.91667L36.534374 251.91667ZM39.01875 248.38542L41.925 248.38542L41.034374 246.01042Q40.6125 244.9323 40.425 244.22917Q40.253124 245.0573 39.95625 245.8698L39.01875 248.38542ZM44.096874 249.15105L45.159374 249.0573Q45.2375 249.71355 45.51875 250.1198Q45.8 250.52605 46.378124 250.79167Q46.971874 251.04167 47.70625 251.04167Q48.346874 251.04167 48.846874 250.85417Q49.346874 250.65105 49.58125 250.32292Q49.83125 249.97917 49.83125 249.58855Q49.83125 249.1823 49.596874 248.88542Q49.3625 248.57292 48.83125 248.3698Q48.471874 248.22917 47.284374 247.94792Q46.1125 247.66667 45.64375 247.41667Q45.01875 247.08855 44.721874 246.6198Q44.425 246.13542 44.425 245.54167Q44.425 244.90105 44.784374 244.33855Q45.159374 243.76042 45.8625 243.47917Q46.58125 243.1823 47.440624 243.1823Q48.39375 243.1823 49.128124 243.4948Q49.8625 243.79167 50.253124 244.40105Q50.64375 244.9948 50.675 245.7448L49.58125 245.82292Q49.4875 245.01042 48.971874 244.60417Q48.471874 244.1823 47.4875 244.1823Q46.45625 244.1823 45.9875 244.5573Q45.51875 244.9323 45.51875 245.46355Q45.51875 245.9323 45.846874 246.22917Q46.175 246.52605 47.55 246.83855Q48.940624 247.15105 49.45625 247.38542Q50.20625 247.7448 50.565624 248.27605Q50.925 248.79167 50.925 249.4948Q50.925 250.1823 50.534374 250.79167Q50.14375 251.38542 49.409374 251.72917Q48.675 252.0573 47.753124 252.0573Q46.58125 252.0573 45.784374 251.72917Q45.003124 251.38542 44.55 250.69792Q44.1125 250.01042 44.096874 249.15105ZM52.096874 249.15105L53.159374 249.0573Q53.2375 249.71355 53.51875 250.1198Q53.8 250.52605 54.378124 250.79167Q54.971874 251.04167 55.70625 251.04167Q56.346874 251.04167 56.846874 250.85417Q57.346874 250.65105 57.58125 250.32292Q57.83125 249.97917 57.83125 249.58855Q57.83125 249.1823 57.596874 248.88542Q57.3625 248.57292 56.83125 248.3698Q56.471874 248.22917 55.284374 247.94792Q54.1125 247.66667 53.64375 247.41667Q53.01875 247.08855 52.721874 246.6198Q52.425 246.13542 52.425 245.54167Q52.425 244.90105 52.784374 244.33855Q53.159374 243.76042 53.8625 243.47917Q54.58125 243.1823 55.440624 243.1823Q56.39375 243.1823 57.128124 243.4948Q57.8625 243.79167 58.253124 244.40105Q58.64375 244.9948 58.675 245.7448L57.58125 245.82292Q57.4875 245.01042 56.971874 244.60417Q56.471874 244.1823 55.4875 244.1823Q54.45625 244.1823 53.9875 244.5573Q53.51875 244.9323 53.51875 245.46355Q53.51875 245.9323 53.846874 246.22917Q54.175 246.52605 55.55 246.83855Q56.940624 247.15105 57.45625 247.38542Q58.20625 247.7448 58.565624 248.27605Q58.925 248.79167 58.925 249.4948Q58.925 250.1823 58.534374 250.79167Q58.14375 251.38542 57.409374 251.72917Q56.675 252.0573 55.753124 252.0573Q54.58125 252.0573 53.784374 251.72917Q53.003124 251.38542 52.55 250.69792Q52.1125 250.01042 52.096874 249.15105ZM60.503124 251.91667L60.503124 243.32292L66.70625 243.32292L66.70625 244.33855L61.64375 244.33855L61.64375 246.96355L66.39375 246.96355L66.39375 247.97917L61.64375 247.97917L61.64375 250.90105L66.90938 250.90105L66.90938 251.91667L60.503124 251.91667ZM68.4875 251.91667L68.4875 243.32292L72.3 243.32292Q73.45625 243.32292 74.05 243.5573Q74.64375 243.79167 75.00313 244.38542Q75.3625 244.96355 75.3625 245.66667Q75.3625 246.58855 74.76875 247.21355Q74.175 247.83855 72.94063 248.01042Q73.39375 248.22917 73.62813 248.4323Q74.12813 248.88542 74.56563 249.57292L76.06563 251.91667L74.62813 251.91667L73.50313 250.13542Q73.00313 249.35417 72.675 248.94792Q72.3625 248.54167 72.09688 248.38542Q71.84688 248.21355 71.58125 248.13542Q71.39375 248.10417 70.95625 248.10417L69.62813 248.10417L69.62813 251.91667L68.4875 251.91667ZM69.62813 247.1198L72.08125 247.1198Q72.84688 247.1198 73.28438 246.96355Q73.7375 246.79167 73.95625 246.44792Q74.19063 246.08855 74.19063 245.66667Q74.19063 245.0573 73.7375 244.66667Q73.3 244.27605 72.34688 244.27605L69.62813 244.27605L69.62813 247.1198ZM79.65938 251.91667L79.65938 244.33855L76.83125 244.33855L76.83125 243.32292L83.64375 243.32292L83.64375 244.33855L80.8 244.33855L80.8 251.91667L79.65938 251.91667ZM84.675 251.91667L84.675 243.32292L85.8 243.32292L85.8 251.91667L84.675 251.91667ZM87.12813 247.72917Q87.12813 245.58855 88.26875 244.38542Q89.425 243.16667 91.2375 243.16667Q92.44063 243.16667 93.39375 243.7448Q94.34688 244.3073 94.84688 245.32292Q95.34688 246.33855 95.34688 247.63542Q95.34688 248.9323 94.81563 249.96355Q94.28438 250.9948 93.31563 251.52605Q92.3625 252.0573 91.2375 252.0573Q90.01875 252.0573 89.06563 251.47917Q88.1125 250.88542 87.6125 249.88542Q87.12813 248.8698 87.12813 247.72917ZM88.3 247.7448Q88.3 249.3073 89.12813 250.19792Q89.97188 251.08855 91.2375 251.08855Q92.51875 251.08855 93.34688 250.19792Q94.175 249.29167 94.175 247.6198Q94.175 246.57292 93.81563 245.79167Q93.47188 245.01042 92.78438 244.58855Q92.09688 244.15105 91.25313 244.15105Q90.05 244.15105 89.175 244.97917Q88.3 245.8073 88.3 247.7448ZM96.47188 251.91667L96.47188 243.32292L97.62813 243.32292L102.14375 250.07292L102.14375 243.32292L103.2375 243.32292L103.2375 251.91667L102.06563 251.91667L97.55 245.16667L97.55 251.91667L96.47188 251.91667Z" fill-rule="nonzero"/><path fill="#9e9e9e" d="M19.05 266.66666L20.159374 266.5729Q20.284374 267.3854 20.721874 267.79166Q21.175 268.1979 21.815624 268.1979Q22.565624 268.1979 23.096874 267.61978Q23.628124 267.04166 23.628124 266.10416Q23.628124 265.1979 23.1125 264.68228Q22.6125 264.15103 21.784374 264.15103Q21.284374 264.15103 20.8625 264.3854Q20.45625 264.61978 20.221874 264.97916L19.2375 264.85416L20.065624 260.4479L24.346874 260.4479L24.346874 261.4479L20.909374 261.4479L20.45625 263.7604Q21.221874 263.21353 22.065624 263.21353Q23.190624 263.21353 23.95625 263.99478Q24.7375 264.77603 24.7375 266.0104Q24.7375 267.16666 24.065624 268.02603Q23.2375 269.05728 21.815624 269.05728Q20.64375 269.05728 19.89375 268.40103Q19.159374 267.74478 19.05 266.66666ZM26.64375 268.91666L26.64375 267.71353L27.846874 267.71353L27.846874 268.91666L26.64375 268.91666ZM29.20625 266.93228L30.221874 266.83853Q30.346874 267.55728 30.70625 267.8854Q31.08125 268.1979 31.64375 268.1979Q32.128124 268.1979 32.4875 267.97916Q32.8625 267.74478 33.096874 267.3854Q33.33125 267.0104 33.4875 266.3854Q33.64375 265.74478 33.64375 265.08853Q33.64375 265.0104 33.64375 264.86978Q33.33125 265.36978 32.784374 265.6979Q32.2375 266.0104 31.596874 266.0104Q30.51875 266.0104 29.784374 265.24478Q29.05 264.46353 29.05 263.1979Q29.05 261.8854 29.815624 261.08853Q30.596874 260.29166 31.753124 260.29166Q32.58125 260.29166 33.26875 260.74478Q33.971874 261.1979 34.33125 262.04166Q34.690624 262.86978 34.690624 264.4479Q34.690624 266.08853 34.33125 267.0729Q33.9875 268.04166 33.26875 268.55728Q32.565624 269.05728 31.628124 269.05728Q30.6125 269.05728 29.971874 268.5104Q29.33125 267.9479 29.20625 266.93228ZM33.51875 263.1354Q33.51875 262.22916 33.034374 261.6979Q32.565624 261.16666 31.878124 261.16666Q31.175 261.16666 30.64375 261.74478Q30.128124 262.30728 30.128124 263.22916Q30.128124 264.04166 30.628124 264.55728Q31.128124 265.0729 31.846874 265.0729Q32.58125 265.0729 33.05 264.55728Q33.51875 264.04166 33.51875 263.1354ZM36.253124 262.3854Q36.253124 261.46353 36.70625 260.8229Q37.175 260.18228 38.05 260.18228Q38.8625 260.18228 39.39375 260.7604Q39.925 261.33853 39.925 262.4479Q39.925 263.54166 39.378124 264.1354Q38.846874 264.71353 38.065624 264.71353Q37.284374 264.71353 36.76875 264.1354Q36.253124 263.55728 36.253124 262.3854ZM38.08125 260.90103Q37.690624 260.90103 37.425 261.24478Q37.175 261.58853 37.175 262.49478Q37.175 263.3229 37.425 263.66666Q37.690624 263.99478 38.08125 263.99478Q38.4875 263.99478 38.7375 263.65103Q39.003124 263.30728 39.003124 262.41666Q39.003124 261.5729 38.7375 261.24478Q38.471874 260.90103 38.08125 260.90103ZM38.08125 269.22916L42.784374 260.18228L43.64375 260.18228L38.95625 269.22916L38.08125 269.22916ZM41.8 266.90103Q41.8 265.97916 42.253124 265.33853Q42.721874 264.6979 43.6125 264.6979Q44.425 264.6979 44.95625 265.27603Q45.4875 265.83853 45.4875 266.96353Q45.4875 268.05728 44.940624 268.65103Q44.409374 269.22916 43.6125 269.22916Q42.846874 269.22916 42.315624 268.65103Q41.8 268.0729 41.8 266.90103ZM43.64375 265.41666Q43.2375 265.41666 42.971874 265.7604Q42.721874 266.10416 42.721874 267.0104Q42.721874 267.8229 42.9875 268.16666Q43.253124 268.5104 43.64375 268.5104Q44.034374 268.5104 44.3 268.16666Q44.565624 267.8229 44.565624 266.91666Q44.565624 266.08853 44.3 265.7604Q44.034374 265.41666 43.64375 265.41666Z" fill-rule="nonzero"/><path stroke="#757575" stroke-width="1.0" stroke-linecap="butt" d="M18.55 256.41666L145.23334 256.41666L158.82327 210.22784" fill-rule="nonzero"/><path fill="#9e9e9e" d="M160.82327 210.22784C160.82327 209.12328 159.92784 208.22784 158.82327 208.22784C157.7187 208.22784 156.82327 209.12328 156.82327 210.22784C156.82327 211.33241 157.7187 212.22784 158.82327 212.22784C159.92784 212.22784 160.82327 211.33241 160.82327 210.22784" fill-rule="nonzero"/><path fill="#1a1a1a" d="M19.425 282.91666L19.425 274.3229L20.565624 274.3229L20.565624 281.90103L24.8 281.90103L24.8 282.91666L19.425 282.91666ZM30.503124 279.54166L30.503124 278.54166L34.128124 278.52603L34.128124 281.71353Q33.3 282.3854 32.409374 282.72916Q31.51875 283.05728 30.58125 283.05728Q29.315624 283.05728 28.26875 282.52603Q27.2375 281.97916 26.70625 280.96353Q26.190624 279.93228 26.190624 278.66666Q26.190624 277.40103 26.70625 276.3229Q27.2375 275.22916 28.221874 274.71353Q29.20625 274.18228 30.4875 274.18228Q31.425 274.18228 32.175 274.47916Q32.925 274.77603 33.346874 275.3229Q33.784374 275.85416 34.003124 276.72916L32.9875 277.0104Q32.784374 276.35416 32.4875 275.97916Q32.20625 275.60416 31.675 275.3854Q31.14375 275.15103 30.503124 275.15103Q29.721874 275.15103 29.14375 275.3854Q28.58125 275.61978 28.221874 276.0104Q27.878124 276.40103 27.690624 276.86978Q27.3625 277.66666 27.3625 278.58853Q27.3625 279.74478 27.753124 280.52603Q28.159374 281.29166 28.909374 281.66666Q29.659374 282.04166 30.51875 282.04166Q31.253124 282.04166 31.95625 281.7604Q32.659374 281.46353 33.01875 281.15103L33.01875 279.54166L30.503124 279.54166ZM35.471874 282.91666L35.471874 274.3229L38.721874 274.3229Q39.565624 274.3229 40.01875 274.40103Q40.659374 274.5104 41.08125 274.80728Q41.51875 275.10416 41.76875 275.6354Q42.034374 276.16666 42.034374 276.80728Q42.034374 277.90103 41.33125 278.66666Q40.64375 279.41666 38.815624 279.41666L36.6125 279.41666L36.6125 282.91666L35.471874 282.91666ZM36.6125 278.41666L38.83125 278.41666Q39.940624 278.41666 40.39375 278.0104Q40.8625 277.58853 40.8625 276.83853Q40.8625 276.30728 40.58125 275.93228Q40.315624 275.54166 39.878124 275.41666Q39.58125 275.33853 38.815624 275.33853L36.6125 275.33853L36.6125 278.41666ZM43.425 282.91666L43.425 274.3229L44.565624 274.3229L44.565624 281.90103L48.8 281.90103L48.8 282.91666L43.425 282.91666ZM49.925 280.33853L49.925 279.27603L53.175 279.27603L53.175 280.33853L49.925 280.33853ZM54.05 280.65103L55.1125 280.5104Q55.284374 281.40103 55.721874 281.80728Q56.159374 282.1979 56.784374 282.1979Q57.534374 282.1979 58.05 281.68228Q58.565624 281.16666 58.565624 280.40103Q58.565624 279.68228 58.08125 279.21353Q57.6125 278.72916 56.878124 278.72916Q56.58125 278.72916 56.128124 278.85416L56.253124 277.91666Q56.3625 277.93228 56.425 277.93228Q57.096874 277.93228 57.628124 277.58853Q58.175 277.22916 58.175 276.49478Q58.175 275.91666 57.784374 275.54166Q57.39375 275.15103 56.76875 275.15103Q56.159374 275.15103 55.7375 275.54166Q55.33125 275.93228 55.221874 276.6979L54.159374 276.5104Q54.346874 275.46353 55.034374 274.8854Q55.721874 274.29166 56.7375 274.29166Q57.440624 274.29166 58.034374 274.60416Q58.628124 274.90103 58.940624 275.41666Q59.253124 275.93228 59.253124 276.52603Q59.253124 277.0729 58.95625 277.54166Q58.659374 277.99478 58.08125 278.2604Q58.83125 278.43228 59.253124 278.99478Q59.675 279.54166 59.675 280.3854Q59.675 281.5104 58.846874 282.29166Q58.034374 283.0729 56.784374 283.0729Q55.659374 283.0729 54.909374 282.40103Q54.159374 281.71353 54.05 280.65103ZM61.64375 282.91666L61.64375 281.71353L62.846874 281.71353L62.846874 282.91666L61.64375 282.91666ZM64.05 278.68228Q64.05 277.15103 64.3625 276.22916Q64.675 275.29166 65.28438 274.79166Q65.90938 274.29166 66.84688 274.29166Q67.53438 274.29166 68.05 274.5729Q68.58125 274.85416 68.925 275.3854Q69.26875 275.90103 69.45625 276.65103Q69.64375 277.40103 69.64375 278.68228Q69.64375 280.1979 69.33125 281.11978Q69.03438 282.04166 68.40938 282.55728Q67.8 283.05728 66.84688 283.05728Q65.6125 283.05728 64.89375 282.16666Q64.05 281.10416 64.05 278.68228ZM65.12813 278.68228Q65.12813 280.79166 65.62813 281.49478Q66.12813 282.1979 66.84688 282.1979Q67.58125 282.1979 68.06563 281.49478Q68.56563 280.79166 68.56563 278.68228Q68.56563 276.55728 68.06563 275.86978Q67.58125 275.16666 66.83125 275.16666Q66.1125 275.16666 65.675 275.77603Q65.12813 276.55728 65.12813 278.68228Z" fill-rule="nonzero"/><path fill="#9e9e9e" d="M23.01875 299.91666L21.971874 299.91666L21.971874 293.1979Q21.58125 293.55728 20.95625 293.93228Q20.346874 294.29166 19.8625 294.46353L19.8625 293.4479Q20.7375 293.02603 21.39375 292.4479Q22.065624 291.85416 22.346874 291.29166L23.01875 291.29166L23.01875 299.91666ZM26.64375 299.91666L26.64375 298.71353L27.846874 298.71353L27.846874 299.91666L26.64375 299.91666ZM33.01875 299.91666L31.971874 299.91666L31.971874 293.1979Q31.58125 293.55728 30.95625 293.93228Q30.346874 294.29166 29.8625 294.46353L29.8625 293.4479Q30.7375 293.02603 31.39375 292.4479Q32.065624 291.85416 32.346874 291.29166L33.01875 291.29166L33.01875 299.91666ZM36.253124 293.3854Q36.253124 292.46353 36.70625 291.8229Q37.175 291.18228 38.05 291.18228Q38.8625 291.18228 39.39375 291.7604Q39.925 292.33853 39.925 293.4479Q39.925 294.54166 39.378124 295.1354Q38.846874 295.71353 38.065624 295.71353Q37.284374 295.71353 36.76875 295.1354Q36.253124 294.55728 36.253124 293.3854ZM38.08125 291.90103Q37.690624 291.90103 37.425 292.24478Q37.175 292.58853 37.175 293.49478Q37.175 294.3229 37.425 294.66666Q37.690624 294.99478 38.08125 294.99478Q38.4875 294.99478 38.7375 294.65103Q39.003124 294.30728 39.003124 293.41666Q39.003124 292.5729 38.7375 292.24478Q38.471874 291.90103 38.08125 291.90103ZM38.08125 300.22916L42.784374 291.18228L43.64375 291.18228L38.95625 300.22916L38.08125 300.22916ZM41.8 297.90103Q41.8 296.97916 42.253124 296.33853Q42.721874 295.6979 43.6125 295.6979Q44.425 295.6979 44.95625 296.27603Q45.4875 296.83853 45.4875 297.96353Q45.4875 299.05728 44.940624 299.65103Q44.409374 300.22916 43.6125 300.22916Q42.846874 300.22916 42.315624 299.65103Q41.8 299.0729 41.8 297.90103ZM43.64375 296.41666Q43.2375 296.41666 42.971874 296.7604Q42.721874 297.10416 42.721874 298.0104Q42.721874 298.8229 42.9875 299.16666Q43.253124 299.5104 43.64375 299.5104Q44.034374 299.5104 44.3 299.16666Q44.565624 298.8229 44.565624 297.91666Q44.565624 297.08853 44.3 296.7604Q44.034374 296.41666 43.64375 296.41666Z" fill-rule="nonzero"/><path stroke="#757575" stroke-width="1.0" stroke-linecap="butt" d="M18.55 287.41666L145.23334 287.41666L163.61652 240.74065" fill-rule="nonzero"/><path fill="#9e9e9e" d="M165.61652 240.74065C165.61652 239.63608 164.72108 238.74065 163.61652 238.74065C162.51195 238.74065 161.61652 239.63608 161.61652 240.74065C161.61652 241.84521 162.51195 242.74065 163.61652 242.74065C164.72108 242.74065 165.61652 241.84521 165.61652 240.74065" fill-rule="nonzero"/><path fill="#1a1a1a" d="M18.534374 313.91666L21.83125 305.3229L23.05 305.3229L26.565624 313.91666L25.284374 313.91666L24.26875 311.30728L20.690624 311.30728L19.7375 313.91666L18.534374 313.91666ZM21.01875 310.3854L23.925 310.3854L23.034374 308.0104Q22.6125 306.93228 22.425 306.22916Q22.253124 307.05728 21.95625 307.86978L21.01875 310.3854ZM26.346874 316.30728L26.346874 307.6979L27.3 307.6979L27.3 308.49478Q27.64375 308.02603 28.065624 307.79166Q28.503124 307.55728 29.1125 307.55728Q29.909374 307.55728 30.51875 307.96353Q31.128124 308.36978 31.425 309.11978Q31.7375 309.86978 31.7375 310.7604Q31.7375 311.71353 31.39375 312.47916Q31.065624 313.24478 30.409374 313.65103Q29.753124 314.05728 29.034374 314.05728Q28.503124 314.05728 28.08125 313.83853Q27.659374 313.60416 27.39375 313.27603L27.39375 316.30728L26.346874 316.30728ZM27.3 310.83853Q27.3 312.04166 27.784374 312.61978Q28.26875 313.18228 28.95625 313.18228Q29.659374 313.18228 30.159374 312.58853Q30.659374 311.99478 30.659374 310.74478Q30.659374 309.55728 30.175 308.97916Q29.690624 308.3854 29.003124 308.3854Q28.33125 308.3854 27.815624 309.0104Q27.3 309.6354 27.3 310.83853ZM37.409374 313.15103Q36.815624 313.65103 36.26875 313.85416Q35.7375 314.05728 35.1125 314.05728Q34.08125 314.05728 33.534374 313.55728Q32.9875 313.05728 32.9875 312.27603Q32.9875 311.8229 33.190624 311.4479Q33.39375 311.05728 33.7375 310.83853Q34.08125 310.60416 34.503124 310.49478Q34.8 310.40103 35.440624 310.3229Q36.70625 310.18228 37.315624 309.96353Q37.315624 309.74478 37.315624 309.6979Q37.315624 309.04166 37.01875 308.77603Q36.6125 308.43228 35.815624 308.43228Q35.08125 308.43228 34.721874 308.6979Q34.3625 308.9479 34.190624 309.60416L33.159374 309.46353Q33.3 308.80728 33.628124 308.40103Q33.95625 307.99478 34.565624 307.77603Q35.175 307.55728 35.971874 307.55728Q36.76875 307.55728 37.26875 307.74478Q37.76875 307.93228 38.003124 308.21353Q38.2375 308.49478 38.33125 308.93228Q38.378124 309.1979 38.378124 309.90103L38.378124 311.30728Q38.378124 312.77603 38.440624 313.16666Q38.51875 313.55728 38.721874 313.91666L37.6125 313.91666Q37.45625 313.58853 37.409374 313.15103ZM37.315624 310.79166Q36.7375 311.02603 35.596874 311.1979Q34.940624 311.29166 34.675 311.41666Q34.409374 311.52603 34.253124 311.74478Q34.1125 311.96353 34.1125 312.24478Q34.1125 312.66666 34.425 312.9479Q34.753124 313.22916 35.3625 313.22916Q35.971874 313.22916 36.440624 312.96353Q36.925 312.6979 37.14375 312.22916Q37.315624 311.86978 37.315624 311.18228L37.315624 310.79166ZM44.409374 311.6354L45.440624 311.77603Q45.26875 312.83853 44.565624 313.4479Q43.8625 314.05728 42.846874 314.05728Q41.565624 314.05728 40.784374 313.22916Q40.01875 312.3854 40.01875 310.8229Q40.01875 309.8229 40.346874 309.0729Q40.690624 308.30728 41.3625 307.93228Q42.05 307.55728 42.8625 307.55728Q43.8625 307.55728 44.503124 308.0729Q45.159374 308.5729 45.346874 309.52603L44.315624 309.68228Q44.175 309.05728 43.8 308.74478Q43.425 308.41666 42.89375 308.41666Q42.096874 308.41666 41.596874 308.99478Q41.096874 309.55728 41.096874 310.79166Q41.096874 312.05728 41.58125 312.61978Q42.065624 313.18228 42.83125 313.18228Q43.45625 313.18228 43.8625 312.80728Q44.284374 312.43228 44.409374 311.6354ZM46.346874 313.91666L46.346874 305.3229L47.39375 305.3229L47.39375 308.40103Q48.128124 307.55728 49.253124 307.55728Q49.95625 307.55728 50.45625 307.83853Q50.971874 308.10416 51.190624 308.58853Q51.409374 309.05728 51.409374 309.97916L51.409374 313.91666L50.3625 313.91666L50.3625 309.97916Q50.3625 309.18228 50.01875 308.8229Q49.675 308.46353 49.05 308.46353Q48.58125 308.46353 48.159374 308.71353Q47.753124 308.9479 47.565624 309.36978Q47.39375 309.77603 47.39375 310.5104L47.39375 313.91666L46.346874 313.91666ZM57.596874 311.91666L58.690624 312.04166Q58.440624 312.99478 57.7375 313.52603Q57.034374 314.05728 55.95625 314.05728Q54.596874 314.05728 53.784374 313.21353Q52.9875 312.36978 52.9875 310.85416Q52.9875 309.29166 53.8 308.43228Q54.6125 307.55728 55.89375 307.55728Q57.14375 307.55728 57.925 308.40103Q58.721874 309.24478 58.721874 310.79166Q58.721874 310.8854 58.721874 311.0729L54.08125 311.0729Q54.14375 312.10416 54.659374 312.65103Q55.175 313.18228 55.95625 313.18228Q56.534374 313.18228 56.940624 312.8854Q57.3625 312.5729 57.596874 311.91666ZM54.14375 310.21353L57.6125 310.21353Q57.55 309.41666 57.221874 309.02603Q56.70625 308.41666 55.909374 308.41666Q55.175 308.41666 54.675 308.90103Q54.190624 309.3854 54.14375 310.21353ZM59.925 311.33853L59.925 310.27603L63.175 310.27603L63.175 311.33853L59.925 311.33853ZM69.59688 312.90103L69.59688 313.91666L63.909374 313.91666Q63.909374 313.54166 64.03438 313.18228Q64.25313 312.60416 64.72188 312.04166Q65.20625 311.47916 66.1125 310.74478Q67.51875 309.58853 68.00313 308.91666Q68.50313 308.24478 68.50313 307.65103Q68.50313 307.02603 68.05 306.60416Q67.59688 306.16666 66.87813 306.16666Q66.1125 306.16666 65.65938 306.61978Q65.20625 307.0729 65.19063 307.8854L64.1125 307.77603Q64.22188 306.55728 64.94063 305.93228Q65.675 305.29166 66.90938 305.29166Q68.14375 305.29166 68.8625 305.97916Q69.58125 306.66666 69.58125 307.68228Q69.58125 308.1979 69.3625 308.6979Q69.15938 309.18228 68.65938 309.74478Q68.175 310.29166 67.05 311.24478Q66.09688 312.04166 65.81563 312.33853Q65.55 312.61978 65.37813 312.90103L69.59688 312.90103ZM71.64375 313.91666L71.64375 312.71353L72.84688 312.71353L72.84688 313.91666L71.64375 313.91666ZM74.05 309.68228Q74.05 308.15103 74.3625 307.22916Q74.675 306.29166 75.28438 305.79166Q75.90938 305.29166 76.84688 305.29166Q77.53438 305.29166 78.05 305.5729Q78.58125 305.85416 78.925 306.3854Q79.26875 306.90103 79.45625 307.65103Q79.64375 308.40103 79.64375 309.68228Q79.64375 311.1979 79.33125 312.11978Q79.03438 313.04166 78.40938 313.55728Q77.8 314.05728 76.84688 314.05728Q75.6125 314.05728 74.89375 313.16666Q74.05 312.10416 74.05 309.68228ZM75.12813 309.68228Q75.12813 311.79166 75.62813 312.49478Q76.12813 313.1979 76.84688 313.1979Q77.58125 313.1979 78.06563 312.49478Q78.56563 311.79166 78.56563 309.68228Q78.56563 307.55728 78.06563 306.86978Q77.58125 306.16666 76.83125 306.16666Q76.1125 306.16666 75.675 306.77603Q75.12813 307.55728 75.12813 309.68228Z" fill-rule="nonzero"/><path fill="#9e9e9e" d="M22.425 330.91666L22.425 328.85416L18.70625 328.85416L18.70625 327.8854L22.628124 322.3229L23.4875 322.3229L23.4875 327.8854L24.64375 327.8854L24.64375 328.85416L23.4875 328.85416L23.4875 330.91666L22.425 330.91666ZM22.425 327.8854L22.425 324.02603L19.7375 327.8854L22.425 327.8854ZM26.64375 330.91666L26.64375 329.71353L27.846874 329.71353L27.846874 330.91666L26.64375 330.91666ZM34.51875 324.43228L33.471874 324.5104Q33.33125 323.8854 33.08125 323.60416Q32.64375 323.15103 32.01875 323.15103Q31.51875 323.15103 31.128124 323.43228Q30.64375 323.80728 30.346874 324.5104Q30.065624 325.1979 30.05 326.47916Q30.425 325.90103 30.971874 325.61978Q31.534374 325.33853 32.14375 325.33853Q33.190624 325.33853 33.925 326.11978Q34.675 326.90103 34.675 328.11978Q34.675 328.93228 34.315624 329.6354Q33.971874 330.3229 33.3625 330.6979Q32.753124 331.05728 31.9875 331.05728Q30.659374 331.05728 29.83125 330.08853Q29.003124 329.11978 29.003124 326.90103Q29.003124 324.40103 29.925 323.27603Q30.721874 322.29166 32.08125 322.29166Q33.096874 322.29166 33.7375 322.86978Q34.39375 323.43228 34.51875 324.43228ZM30.221874 328.1354Q30.221874 328.68228 30.440624 329.18228Q30.675 329.66666 31.08125 329.93228Q31.503124 330.1979 31.971874 330.1979Q32.628124 330.1979 33.1125 329.66666Q33.596874 329.11978 33.596874 328.1979Q33.596874 327.30728 33.1125 326.79166Q32.64375 326.27603 31.925 326.27603Q31.20625 326.27603 30.70625 326.79166Q30.221874 327.30728 30.221874 328.1354ZM36.253124 324.3854Q36.253124 323.46353 36.70625 322.8229Q37.175 322.18228 38.05 322.18228Q38.8625 322.18228 39.39375 322.7604Q39.925 323.33853 39.925 324.4479Q39.925 325.54166 39.378124 326.1354Q38.846874 326.71353 38.065624 326.71353Q37.284374 326.71353 36.76875 326.1354Q36.253124 325.55728 36.253124 324.3854ZM38.08125 322.90103Q37.690624 322.90103 37.425 323.24478Q37.175 323.58853 37.175 324.49478Q37.175 325.3229 37.425 325.66666Q37.690624 325.99478 38.08125 325.99478Q38.4875 325.99478 38.7375 325.65103Q39.003124 325.30728 39.003124 324.41666Q39.003124 323.5729 38.7375 323.24478Q38.471874 322.90103 38.08125 322.90103ZM38.08125 331.22916L42.784374 322.18228L43.64375 322.18228L38.95625 331.22916L38.08125 331.22916ZM41.8 328.90103Q41.8 327.97916 42.253124 327.33853Q42.721874 326.6979 43.6125 326.6979Q44.425 326.6979 44.95625 327.27603Q45.4875 327.83853 45.4875 328.96353Q45.4875 330.05728 44.940624 330.65103Q44.409374 331.22916 43.6125 331.22916Q42.846874 331.22916 42.315624 330.65103Q41.8 330.0729 41.8 328.90103ZM43.64375 327.41666Q43.2375 327.41666 42.971874 327.7604Q42.721874 328.10416 42.721874 329.0104Q42.721874 329.8229 42.9875 330.16666Q43.253124 330.5104 43.64375 330.5104Q44.034374 330.5104 44.3 330.16666Q44.565624 329.8229 44.565624 328.91666Q44.565624 328.08853 44.3 327.7604Q44.034374 327.41666 43.64375 327.41666Z" fill-rule="nonzero"/><path stroke="#757575" stroke-width="1.0" stroke-linecap="butt" d="M18.55 318.41666L145.23334 318.41666L177.80495 274.69086" fill-rule="nonzero"/><path fill="#9e9e9e" d="M179.80495 274.69086C179.80495 273.58627 178.90952 272.69086 177.80495 272.69086C176.70038 272.69086 175.80495 273.58627 175.80495 274.69086C175.80495 275.7954 176.70038 276.69086 177.80495 276.69086C178.90952 276.69086 179.80495 275.7954 179.80495 274.69086" fill-rule="nonzero"/><path fill="#1a1a1a" d="M563.34064 256.4129L563.34064 247.81915L565.0594 247.81915L567.09064 253.89728Q567.3719 254.75665 567.4969 255.17853Q567.6375 254.70978 567.95 253.80353L570.0125 247.81915L571.54376 247.81915L571.54376 256.4129L570.45 256.4129L570.45 249.2254L567.95 256.4129L566.91876 256.4129L564.4344 249.1004L564.4344 256.4129L563.34064 256.4129ZM572.575 256.4129L572.575 247.81915L573.7 247.81915L573.7 256.4129L572.575 256.4129ZM577.5594 256.4129L577.5594 248.83478L574.73126 248.83478L574.73126 247.81915L581.54376 247.81915L581.54376 248.83478L578.7 248.83478L578.7 256.4129L577.5594 256.4129Z" fill-rule="nonzero"/><path fill="#9e9e9e" d="M552.41876 266.92853L551.3719 267.00665Q551.23126 266.38165 550.98126 266.1004Q550.54376 265.64728 549.91876 265.64728Q549.41876 265.64728 549.02814 265.92853Q548.54376 266.30353 548.2469 267.00665Q547.96564 267.69415 547.95 268.9754Q548.325 268.39728 548.8719 268.11603Q549.4344 267.83478 550.04376 267.83478Q551.09064 267.83478 551.825 268.61603Q552.575 269.39728 552.575 270.61603Q552.575 271.42853 552.21564 272.13165Q551.8719 272.81915 551.2625 273.19415Q550.65314 273.55353 549.8875 273.55353Q548.5594 273.55353 547.73126 272.58478Q546.90314 271.61603 546.90314 269.39728Q546.90314 266.89728 547.825 265.77228Q548.6219 264.7879 549.98126 264.7879Q550.9969 264.7879 551.6375 265.36603Q552.29376 265.92853 552.41876 266.92853ZM548.1219 270.63165Q548.1219 271.17853 548.34064 271.67853Q548.575 272.1629 548.98126 272.42853Q549.40314 272.69415 549.8719 272.69415Q550.52814 272.69415 551.0125 272.1629Q551.4969 271.61603 551.4969 270.69415Q551.4969 269.80353 551.0125 269.2879Q550.54376 268.77228 549.825 268.77228Q549.10626 268.77228 548.60626 269.2879Q548.1219 269.80353 548.1219 270.63165ZM553.95 271.14728L555.0125 271.00665Q555.1844 271.89728 555.6219 272.30353Q556.0594 272.69415 556.6844 272.69415Q557.4344 272.69415 557.95 272.17853Q558.46564 271.6629 558.46564 270.89728Q558.46564 270.17853 557.98126 269.70978Q557.5125 269.2254 556.77814 269.2254Q556.48126 269.2254 556.02814 269.3504L556.15314 268.4129Q556.2625 268.42853 556.325 268.42853Q556.9969 268.42853 557.52814 268.08478Q558.075 267.7254 558.075 266.99103Q558.075 266.4129 557.6844 266.0379Q557.29376 265.64728 556.66876 265.64728Q556.0594 265.64728 555.6375 266.0379Q555.23126 266.42853 555.1219 267.19415L554.0594 267.00665Q554.2469 265.95978 554.9344 265.38165Q555.6219 264.7879 556.6375 264.7879Q557.34064 264.7879 557.9344 265.1004Q558.52814 265.39728 558.84064 265.9129Q559.15314 266.42853 559.15314 267.02228Q559.15314 267.56915 558.85626 268.0379Q558.5594 268.49103 557.98126 268.75665Q558.73126 268.92853 559.15314 269.49103Q559.575 270.0379 559.575 270.88165Q559.575 272.00665 558.7469 272.7879Q557.9344 273.56915 556.6844 273.56915Q555.5594 273.56915 554.8094 272.89728Q554.0594 272.20978 553.95 271.14728ZM561.54376 273.4129L561.54376 272.20978L562.7469 272.20978L562.7469 273.4129L561.54376 273.4129ZM563.95 271.14728L565.0125 271.00665Q565.1844 271.89728 565.6219 272.30353Q566.0594 272.69415 566.6844 272.69415Q567.4344 272.69415 567.95 272.17853Q568.46564 271.6629 568.46564 270.89728Q568.46564 270.17853 567.98126 269.70978Q567.5125 269.2254 566.77814 269.2254Q566.48126 269.2254 566.02814 269.3504L566.15314 268.4129Q566.2625 268.42853 566.325 268.42853Q566.9969 268.42853 567.52814 268.08478Q568.075 267.7254 568.075 266.99103Q568.075 266.4129 567.6844 266.0379Q567.29376 265.64728 566.66876 265.64728Q566.0594 265.64728 565.6375 266.0379Q565.23126 266.42853 565.1219 267.19415L564.0594 267.00665Q564.2469 265.95978 564.9344 265.38165Q565.6219 264.7879 566.6375 264.7879Q567.34064 264.7879 567.9344 265.1004Q568.52814 265.39728 568.84064 265.9129Q569.15314 266.42853 569.15314 267.02228Q569.15314 267.56915 568.85626 268.0379Q568.5594 268.49103 567.98126 268.75665Q568.73126 268.92853 569.15314 269.49103Q569.575 270.0379 569.575 270.88165Q569.575 272.00665 568.7469 272.7879Q567.9344 273.56915 566.6844 273.56915Q565.5594 273.56915 564.8094 272.89728Q564.0594 272.20978 563.95 271.14728ZM571.15314 266.88165Q571.15314 265.95978 571.60626 265.31915Q572.075 264.67853 572.95 264.67853Q573.7625 264.67853 574.29376 265.25665Q574.825 265.83478 574.825 266.94415Q574.825 268.0379 574.27814 268.63165Q573.7469 269.20978 572.96564 269.20978Q572.1844 269.20978 571.66876 268.63165Q571.15314 268.05353 571.15314 266.88165ZM572.98126 265.39728Q572.59064 265.39728 572.325 265.74103Q572.075 266.08478 572.075 266.99103Q572.075 267.81915 572.325 268.1629Q572.59064 268.49103 572.98126 268.49103Q573.3875 268.49103 573.6375 268.14728Q573.90314 267.80353 573.90314 266.9129Q573.90314 266.06915 573.6375 265.74103Q573.3719 265.39728 572.98126 265.39728ZM572.98126 273.7254L577.6844 264.67853L578.54376 264.67853L573.85626 273.7254L572.98126 273.7254ZM576.7 271.39728Q576.7 270.4754 577.15314 269.83478Q577.6219 269.19415 578.5125 269.19415Q579.325 269.19415 579.85626 269.77228Q580.3875 270.33478 580.3875 271.45978Q580.3875 272.55353 579.84064 273.14728Q579.3094 273.7254 578.5125 273.7254Q577.7469 273.7254 577.21564 273.14728Q576.7 272.56915 576.7 271.39728ZM578.54376 269.9129Q578.1375 269.9129 577.8719 270.25665Q577.6219 270.6004 577.6219 271.50665Q577.6219 272.31915 577.8875 272.6629Q578.15314 273.00665 578.54376 273.00665Q578.9344 273.00665 579.2 272.6629Q579.46564 272.31915 579.46564 271.4129Q579.46564 270.58478 579.2 270.25665Q578.9344 269.9129 578.54376 269.9129Z" fill-rule="nonzero"/><path stroke="#757575" stroke-width="1.0" stroke-linecap="butt" d="M581.45 260.9129L454.76666 260.9129L429.22256 260.9129" fill-rule="nonzero"/><path fill="#9e9e9e" d="M431.22256 260.9129C431.22256 259.80832 430.32715 258.9129 429.22256 258.9129C428.118 258.9129 427.22256 259.80832 427.22256 260.9129C427.22256 262.01746 428.118 262.9129 429.22256 262.9129C430.32715 262.9129 431.22256 262.01746 431.22256 260.9129" fill-rule="nonzero"/><path fill="#757575" d="M20.159374 37.55L20.159374 23.2375L22.05 23.2375L22.05 29.1125L29.4875 29.1125L29.4875 23.2375L31.378124 23.2375L31.378124 37.55L29.4875 37.55L29.4875 30.8L22.05 30.8L22.05 37.55L20.159374 37.55ZM32.878124 25.253124L32.878124 23.2375L34.64375 23.2375L34.64375 25.253124L32.878124 25.253124ZM32.878124 37.55L32.878124 27.175L34.64375 27.175L34.64375 37.55L32.878124 37.55ZM36.159374 34.45625L37.909374 34.175Q38.05 35.221874 38.721874 35.784374Q39.39375 36.33125 40.596874 36.33125Q41.8 36.33125 42.378124 35.846874Q42.971874 35.346874 42.971874 34.690624Q42.971874 34.096874 42.45625 33.753124Q42.096874 33.51875 40.659374 33.159374Q38.721874 32.659374 37.971874 32.315624Q37.2375 31.95625 36.846874 31.33125Q36.45625 30.690624 36.45625 29.925Q36.45625 29.2375 36.76875 28.64375Q37.096874 28.05 37.64375 27.659374Q38.05 27.3625 38.753124 27.159374Q39.471874 26.940624 40.284374 26.940624Q41.503124 26.940624 42.425 27.3Q43.346874 27.64375 43.784374 28.253124Q44.221874 28.846874 44.39375 29.846874L42.675 30.08125Q42.55 29.284374 41.9875 28.846874Q41.425 28.39375 40.409374 28.39375Q39.190624 28.39375 38.675 28.8Q38.159374 29.190624 38.159374 29.721874Q38.159374 30.065624 38.378124 30.346874Q38.58125 30.628124 39.05 30.815624Q39.315624 30.909374 40.596874 31.253124Q42.471874 31.753124 43.20625 32.08125Q43.940624 32.39375 44.3625 33.003124Q44.784374 33.596874 44.784374 34.503124Q44.784374 35.378124 44.26875 36.159374Q43.753124 36.940624 42.784374 37.3625Q41.815624 37.784374 40.596874 37.784374Q38.58125 37.784374 37.51875 36.940624Q36.45625 36.096874 36.159374 34.45625ZM50.70625 35.971874L50.95625 37.534374Q50.221874 37.690624 49.628124 37.690624Q48.675 37.690624 48.14375 37.39375Q47.628124 37.08125 47.409374 36.596874Q47.190624 36.096874 47.190624 34.51875L47.190624 28.55L45.909374 28.55L45.909374 27.175L47.190624 27.175L47.190624 24.6125L48.940624 23.55L48.940624 27.175L50.70625 27.175L50.70625 28.55L48.940624 28.55L48.940624 34.6125Q48.940624 35.3625 49.034374 35.58125Q49.128124 35.784374 49.33125 35.925Q49.55 36.05 49.940624 36.05Q50.221874 36.05 50.70625 35.971874ZM52.221874 32.3625Q52.221874 29.4875 53.815624 28.096874Q55.159374 26.940624 57.08125 26.940624Q59.221874 26.940624 60.565624 28.346874Q61.925 29.753124 61.925 32.221874Q61.925 34.221874 61.33125 35.378124Q60.7375 36.51875 59.58125 37.159374Q58.440624 37.784374 57.08125 37.784374Q54.89375 37.784374 53.55 36.39375Q52.221874 34.9875 52.221874 32.3625ZM54.01875 32.3625Q54.01875 34.3625 54.878124 35.346874Q55.753124 36.33125 57.08125 36.33125Q58.39375 36.33125 59.253124 35.346874Q60.128124 34.346874 60.128124 32.3Q60.128124 30.378124 59.253124 29.39375Q58.378124 28.39375 57.08125 28.39375Q55.753124 28.39375 54.878124 29.39375Q54.01875 30.378124 54.01875 32.3625ZM63.55 38.409374L65.25313 38.659374Q65.3625 39.45625 65.84688 39.815624Q66.50313 40.3 67.64375 40.3Q68.8625 40.3 69.51875 39.815624Q70.19063 39.33125 70.425 38.45625Q70.56563 37.909374 70.55 36.190624Q69.39375 37.55 67.675 37.55Q65.53438 37.55 64.3625 36.003124Q63.190624 34.45625 63.190624 32.3Q63.190624 30.815624 63.721874 29.565624Q64.26875 28.315624 65.28438 27.628124Q66.31563 26.940624 67.69063 26.940624Q69.51875 26.940624 70.72188 28.425L70.72188 27.175L72.33125 27.175L72.33125 36.14375Q72.33125 38.565624 71.83125 39.565624Q71.34688 40.58125 70.26875 41.159374Q69.20625 41.753124 67.64375 41.753124Q65.8 41.753124 64.64375 40.925Q63.503124 40.096874 63.55 38.409374ZM65.00313 32.175Q65.00313 34.221874 65.81563 35.159374Q66.62813 36.096874 67.84688 36.096874Q69.05 36.096874 69.8625 35.159374Q70.69063 34.221874 70.69063 32.2375Q70.69063 30.33125 69.84688 29.3625Q69.00313 28.39375 67.81563 28.39375Q66.64375 28.39375 65.81563 29.346874Q65.00313 30.3 65.00313 32.175ZM74.84688 37.55L74.84688 27.175L76.425 27.175L76.425 28.753124Q77.03438 27.64375 77.55 27.3Q78.06563 26.940624 78.675 26.940624Q79.56563 26.940624 80.4875 27.503124L79.87813 29.14375Q79.2375 28.753124 78.59688 28.753124Q78.01875 28.753124 77.55 29.1125Q77.09688 29.45625 76.89375 30.065624Q76.6125 31.003124 76.6125 32.1125L76.6125 37.55L74.84688 37.55ZM88.64375 36.26875Q87.65938 37.096874 86.75313 37.440624Q85.84688 37.784374 84.81563 37.784374Q83.1125 37.784374 82.19063 36.95625Q81.26875 36.1125 81.26875 34.815624Q81.26875 34.05 81.6125 33.425Q81.97188 32.8 82.53438 32.425Q83.09688 32.034374 83.8 31.83125Q84.31563 31.70625 85.3625 31.565624Q87.4875 31.315624 88.4875 30.971874Q88.50313 30.6125 88.50313 30.503124Q88.50313 29.440624 88.00313 28.9875Q87.33125 28.39375 86.00313 28.39375Q84.75313 28.39375 84.15938 28.83125Q83.58125 29.26875 83.3 30.378124L81.58125 30.14375Q81.81563 29.034374 82.34688 28.3625Q82.87813 27.675 83.89375 27.315624Q84.90938 26.940624 86.25313 26.940624Q87.58125 26.940624 88.40938 27.253124Q89.2375 27.565624 89.62813 28.05Q90.01875 28.51875 90.175 29.2375Q90.26875 29.690624 90.26875 30.8625L90.26875 33.20625Q90.26875 35.659374 90.37813 36.315624Q90.4875 36.95625 90.83125 37.55L88.9875 37.55Q88.72188 37.003124 88.64375 36.26875ZM88.4875 32.346874Q87.53438 32.7375 85.6125 33.003124Q84.53438 33.159374 84.08125 33.3625Q83.64375 33.55 83.39375 33.925Q83.14375 34.3 83.14375 34.76875Q83.14375 35.471874 83.675 35.940624Q84.20625 36.409374 85.2375 36.409374Q86.25313 36.409374 87.03438 35.971874Q87.83125 35.51875 88.20625 34.753124Q88.4875 34.14375 88.4875 32.9875L88.4875 32.346874ZM92.8625 37.55L92.8625 27.175L94.44063 27.175L94.44063 28.628124Q94.925 27.878124 95.7375 27.409374Q96.55 26.940624 97.58125 26.940624Q98.7375 26.940624 99.47188 27.425Q100.20625 27.89375 100.51875 28.753124Q101.75313 26.940624 103.72188 26.940624Q105.26875 26.940624 106.09688 27.8Q106.925 28.659374 106.925 30.425L106.925 37.55L105.175 37.55L105.175 31.01875Q105.175 29.95625 105.00313 29.503124Q104.83125 29.034374 104.37813 28.753124Q103.94063 28.471874 103.33125 28.471874Q102.2375 28.471874 101.50313 29.20625Q100.78438 29.925 100.78438 31.51875L100.78438 37.55L99.03438 37.55L99.03438 30.815624Q99.03438 29.64375 98.59688 29.065624Q98.175 28.471874 97.19063 28.471874Q96.45625 28.471874 95.81563 28.8625Q95.19063 29.253124 94.90938 30.003124Q94.62813 30.753124 94.62813 32.175L94.62813 37.55L92.8625 37.55Z" fill-rule="nonzero"/></svg>