<svg xmlns="http://www.w3.org/2000/svg" xmlns:xlink="http://www.w3.org/1999/xlink" fill="none" stroke="none" stroke-linecap="square" stroke-miterlimit="10" width="924" height="647" xmlns:v="https://vecta.io/nano"><style><![CDATA[.B{fill:#9e9e9e}.C{fill:#fff}.D{stroke:#757575}.E{stroke-linecap:butt}]]></style><path fill-opacity="0" d="M0 0h924v647H0V0z" class="C"/><path fill="#b5e5e8" d="M433.756 98.82A415.05 415.05 0 0 1 462 97.859v203.805z"/><path fill="#ffc599" d="M244.794 165.947c48.706-38.196 116.165-62.16 188.961-67.127L462 301.664z"/><path fill="#aedcba" d="M229.825 178.689c4.742-4.387 9.736-8.638 14.97-12.742L462 301.664z"/><path fill="#fde49b" d="M227.01 181.337l2.814-2.648L462 301.664z"/><path fill="#f7b4ae" d="M204.537 206.502c6.607-8.759 14.118-17.17 22.473-25.165L462 301.664z"/><path fill="#b3cefb" d="M192.564 224.434a184.44 184.44 0 0 1 11.974-17.932L462 301.664z"/><path fill="#7ed1d7" d="M190.812 227.498l1.751-3.064L462 301.664z"/><path fill="#ff994d" d="M189.132 230.582l1.68-3.084L462 301.664z"/><path fill="#71c287" d="M187.524 233.684l1.609-3.102L462 301.664z"/><path fill="#fcd04f" d="M183.131 243.095a164.68 164.68 0 0 1 4.392-9.411L462 301.664z"/><path fill="#f07b72" d="M175.457 265.551c1.95-7.581 4.512-15.079 7.674-22.457L462 301.664z"/><path fill="#5677ad" d="M175.457 381.449c-3.065-11.918-4.607-24.003-4.607-36.112v-43.672c0 12.109 1.542 24.195 4.607 36.112z"/><path fill="#7baaf7" d="M175.457 337.776c-6.143-23.883-6.143-48.342 0-72.225L462 301.664z"/><path fill="#31848b" d="M179.397 394.356a152.53 152.53 0 0 1-3.94-12.908v-43.673c1.114 4.331 2.428 8.636 3.94 12.908z"/><path fill="#46bdc6" d="M179.397 350.684c-1.512-4.272-2.826-8.577-3.94-12.908L462 301.664z"/><path fill="#b34c01" d="M183.131 403.905c-1.355-3.161-2.6-6.345-3.734-9.549v-43.673c1.134 3.204 2.379 6.388 3.734 9.549z"/><path fill="#ff6d01" d="M183.131 360.233c-1.355-3.161-2.6-6.345-3.734-9.549L462 301.664z"/><path fill="#24763a" d="M185.987 410.196l-2.856-6.291v-43.672l2.856 6.29z"/><path fill="#34a853" d="M185.987 366.523l-2.856-6.29L462 301.664z"/><path fill="#b08403" d="M221.567 460.274c-15.091-15.469-27.064-32.32-35.58-50.078v-43.673c8.516 17.758 20.489 34.609 35.58 50.078z"/><path fill="#fbbc04" d="M221.567 416.601c-15.091-15.469-27.064-32.32-35.58-50.078L462 301.664z"/><path fill="#a42f25" d="M232.7 470.927a226.97 226.97 0 0 1-11.133-10.653v-43.673c3.546 3.634 7.258 7.187 11.133 10.653z"/><path fill="#ea4335" d="M232.7 427.254c-3.874-3.466-7.587-7.019-11.133-10.653L462 301.664z"/><path fill="#2e5dab" d="M753.15 345.336c0 86.958-78.819 164.337-196.262 192.678s-247.637 1.398-324.188-67.087v-43.673c76.551 68.485 206.746 95.427 324.189 67.087S753.15 388.621 753.15 301.664z"/><path fill="#4285f4" d="M462 97.859c136.173 0 254.157 66.071 284.049 159.067S709.755 445 586.705 485.828 316.614 502.326 232.7 427.254L462 301.664z"/><path d="M32.756 51.35v-1.766l7.328-9.156q.781-.984 1.484-1.703h-7.984v-1.687h10.25v1.688l-8.031 9.922-.875 1.016h9.141v1.688H32.756zm12.875 0V37.038h1.75V51.35h-1.75zm4.047-12.297v-2.016h1.766v2.016h-1.766zm0 12.297V40.975h1.766V51.35h-1.766zm5.609 0h-1.625V37.038h1.75v5.109q1.125-1.406 2.844-1.406.953 0 1.813.391.859.391 1.406 1.094.547.688.859 1.672.313.984.313 2.109 0 2.672-1.312 4.125-1.312 1.453-3.156 1.453-1.844 0-2.891-1.531v1.297zm-.016-5.266q0 1.859.5 2.703.844 1.344 2.25 1.344 1.156 0 1.984-1 .844-1 .844-2.984 0-2.031-.812-2.984-.797-.969-1.937-.969-1.156 0-2 1-.828 1-.828 2.891z" class="C"/><path d="M39.803 78.35h-1.766V67.147q-.625.609-1.656 1.219-1.031.594-1.859.906v-1.703q1.484-.687 2.578-1.672 1.109-1 1.563-1.922h1.141V78.35zm5.359 0v-2h2v2h-2zm5.016-3.75l1.844-.156q.203 1.344.953 2.031.75.672 1.813.672 1.266 0 2.141-.953.875-.953.875-2.547 0-1.5-.844-2.359-.844-.875-2.203-.875-.859 0-1.547.391-.672.375-1.062 1l-1.656-.219 1.391-7.359h7.125v1.688h-5.719l-.766 3.844q1.281-.906 2.703-.906 1.875 0 3.156 1.313 1.297 1.297 1.297 3.328 0 1.953-1.141 3.359-1.375 1.75-3.75 1.75-1.953 0-3.203-1.094-1.234-1.094-1.406-2.906zm11.328-7.125q0-1.531.766-2.609.781-1.078 2.25-1.078 1.344 0 2.219.969.891.953.891 2.828 0 1.813-.891 2.797-.891.969-2.203.969-1.297 0-2.172-.953-.859-.969-.859-2.922zm3.062-2.469q-.656 0-1.094.563-.422.563-.422 2.078 0 1.375.438 1.938.438.563 1.078.563.672 0 1.094-.562.438-.578.438-2.078 0-1.391-.437-1.937-.437-.562-1.094-.562zm.016 13.875l7.828-15.094h1.422l-7.797 15.094h-1.453zm6.188-3.891q0-1.547.766-2.609.781-1.078 2.25-1.078 1.344 0 2.219.969.891.953.891 2.828 0 1.813-.891 2.797-.891.984-2.203.984-1.297 0-2.172-.969-.859-.984-.859-2.922zm3.063-2.469q-.656 0-1.094.563-.437.563-.437 2.078 0 1.375.438 1.938.438.563 1.094.563.672 0 1.094-.562.438-.562.438-2.078 0-1.375-.437-1.937-.437-.562-1.094-.562z" class="B"/><path d="M32.35 57.85h132.5l283.718 50.427" class="D E"/><use xlink:href="#B" class="B"/><path d="M33.881 102.35V88.038h1.938l7.516 11.234V88.038h1.813v14.313h-1.937L35.694 91.1v11.25h-1.812zm12.141-5.187q0-2.875 1.594-4.266 1.344-1.156 3.266-1.156 2.141 0 3.484 1.406 1.359 1.406 1.359 3.875 0 2-.594 3.156-.594 1.141-1.75 1.781-1.141.625-2.5.625-2.187 0-3.531-1.391-1.328-1.406-1.328-4.031zm1.797 0q0 2 .859 2.984.875.984 2.203.984 1.313 0 2.172-.984.875-1 .875-3.047 0-1.922-.875-2.906-.875-1-2.172-1-1.328 0-2.203 1-.859.984-.859 2.969zm9.844 5.188V91.975h1.594v1.484q1.141-1.719 3.297-1.719.938 0 1.719.344.797.328 1.188.875.391.547.547 1.297.094.5.094 1.719v6.375h-1.766v-6.312q0-1.078-.203-1.609-.203-.531-.734-.844-.516-.312-1.219-.312-1.125 0-1.937.719-.812.703-.812 2.688v5.672h-1.766zm17.109-3.344l1.813.234q-.422 1.578-1.594 2.469-1.156.875-2.969.875-2.266 0-3.609-1.391-1.328-1.406-1.328-3.937 0-2.625 1.344-4.062 1.344-1.453 3.5-1.453 2.078 0 3.391 1.422 1.328 1.406 1.328 3.984 0 .156-.016.469h-7.734q.094 1.703.969 2.609.875.906 2.172.906.969 0 1.641-.5.688-.516 1.094-1.625zm-5.781-2.844h5.797q-.109-1.297-.656-1.953-.844-1.016-2.187-1.016-1.203 0-2.031.813-.828.797-.922 2.156z" class="C"/><path d="M39.803 129.35h-1.766v-11.203q-.625.609-1.656 1.219-1.031.594-1.859.906v-1.703q1.484-.687 2.578-1.672 1.109-1 1.563-1.922h1.141v14.375zm11 0h-1.766v-11.203q-.625.609-1.656 1.219-1.031.594-1.859.906v-1.703q1.484-.687 2.578-1.672 1.109-1 1.563-1.922h1.141v14.375zm5.359 0v-2h2v2h-2zm5.281-3.312l1.688-.156q.219 1.188.813 1.734.609.531 1.562.531.813 0 1.422-.359.609-.375 1-1 .391-.625.656-1.672.266-1.062.266-2.156 0-.109-.016-.344-.531.828-1.437 1.359-.906.516-1.984.516-1.766 0-3-1.281-1.234-1.297-1.234-3.406 0-2.172 1.281-3.5 1.297-1.328 3.219-1.328 1.406 0 2.563.75 1.156.75 1.75 2.141.609 1.391.609 4.031 0 2.75-.609 4.375-.594 1.625-1.766 2.484-1.172.844-2.75.844-1.687 0-2.75-.937-1.062-.937-1.281-2.625zm7.203-6.312q0-1.516-.812-2.406-.797-.891-1.937-.891-1.172 0-2.047.969-.859.953-.859 2.469 0 1.375.813 2.234.828.844 2.047.844 1.219 0 2-.844.797-.859.797-2.375zm3.859-1.25q0-1.531.766-2.609.781-1.078 2.25-1.078 1.344 0 2.219.969.891.953.891 2.828 0 1.813-.891 2.797-.891.969-2.203.969-1.297 0-2.172-.953-.859-.969-.859-2.922zm3.063-2.469q-.656 0-1.094.563-.422.563-.422 2.078 0 1.375.438 1.938.438.563 1.078.563.672 0 1.094-.562.438-.578.438-2.078 0-1.391-.437-1.937-.437-.562-1.094-.562zm.016 13.875l7.828-15.094h1.422l-7.797 15.094h-1.453zm6.188-3.891q0-1.547.766-2.609.781-1.078 2.25-1.078 1.344 0 2.219.969.891.953.891 2.828 0 1.813-.891 2.797-.891.984-2.203.984-1.297 0-2.172-.969-.859-.984-.859-2.922zm3.063-2.469q-.656 0-1.094.563-.437.563-.437 2.078 0 1.375.438 1.937.438.563 1.094.563.672 0 1.094-.562.438-.562.438-2.078 0-1.375-.437-1.937-.437-.562-1.094-.562z" class="B"/><path d="M32.35 108.85h132.5l171.979 20.16" class="D E"/><use xlink:href="#B" x="-111.739" y="20.733" class="B"/><path d="M33.819 153.35v-14.312h5.375q1.641 0 2.625.438.984.422 1.547 1.328.563.906.563 1.891 0 .922-.5 1.734-.484.813-1.5 1.297 1.297.391 2 1.313.703.906.703 2.156 0 1.016-.437 1.875-.422.859-1.047 1.328-.625.469-1.562.719-.937.234-2.312.234h-5.453zm1.891-8.297h3.094q1.266 0 1.813-.172.719-.219 1.078-.703.375-.5.375-1.266 0-.703-.344-1.25-.344-.547-.984-.734-.625-.203-2.172-.203h-2.859v4.328zm0 6.609h3.563q.922 0 1.297-.078.656-.109 1.094-.375.438-.281.719-.797.281-.531.281-1.219 0-.797-.406-1.391-.406-.594-1.141-.828-.734-.234-2.094-.234h-3.312v4.922zm10.547-2.906l1.781-.156q.125 1.063.578 1.75.469.688 1.438 1.125.984.422 2.219.422 1.078 0 1.906-.312.828-.328 1.234-.891.406-.562.406-1.234 0-.672-.391-1.172-.391-.5-1.281-.844-.578-.234-2.562-.703-1.969-.469-2.75-.891-1.031-.531-1.531-1.328-.5-.797-.5-1.781 0-1.094.609-2.031.609-.937 1.797-1.422 1.188-.5 2.625-.5 1.594 0 2.813.516 1.219.516 1.859 1.516.656.984.703 2.25l-1.812.141q-.141-1.359-.984-2.047-.844-.703-2.5-.703-1.719 0-2.516.641-.781.625-.781 1.5 0 .781.563 1.281.547.5 2.859 1.016 2.313.516 3.172.906 1.25.578 1.844 1.469.594.875.594 2.031 0 1.141-.656 2.156-.656 1.016-1.891 1.578-1.219.563-2.75.563-1.937 0-3.25-.562-1.312-.578-2.062-1.719-.75-1.141-.781-2.562zm13.563 4.594v-14.312h1.891v12.625h7.047v1.688h-8.937zm10.172-4.297v-1.766h5.391v1.766h-5.391zm13.813 4.297h-1.766v-11.203q-.625.609-1.656 1.219-1.031.594-1.859.906v-1.703q1.484-.687 2.578-1.672 1.109-1 1.563-1.922h1.141v14.375zm5.359 0v-2h2v2h-2zm5.016-7.062q0-2.531.516-4.078.531-1.562 1.563-2.391 1.031-.844 2.594-.844 1.156 0 2.016.469.875.453 1.438 1.328.563.875.891 2.141.328 1.25.328 3.375 0 2.516-.531 4.063-.516 1.547-1.547 2.406-1.016.844-2.594.844-2.078 0-3.25-1.484-1.422-1.797-1.422-5.828zm1.813 0q0 3.531.813 4.703.828 1.156 2.047 1.156 1.203 0 2.031-1.172.828-1.172.828-4.687 0-3.531-.828-4.687-.828-1.172-2.047-1.172-1.219 0-1.937 1.031-.906 1.297-.906 4.828z" class="C"/><path d="M39.803 180.35h-1.766v-11.203q-.625.609-1.656 1.219-1.031.594-1.859.906v-1.703q1.484-.687 2.578-1.672 1.109-1 1.563-1.922h1.141v14.375zm5.359 0v-2h2v2h-2zm5.031-3.781l1.75-.234q.313 1.5 1.031 2.156.734.656 1.781.656 1.234 0 2.078-.859.859-.859.859-2.125 0-1.219-.797-2-.781-.781-2-.781-.5 0-1.234.188l.188-1.547q.172.031.281.031 1.125 0 2.016-.578.906-.594.906-1.812 0-.969-.656-1.609-.656-.641-1.687-.641-1.016 0-1.703.656-.687.641-.875 1.922l-1.766-.312q.328-1.766 1.469-2.734 1.141-.969 2.844-.969 1.172 0 2.156.5.984.5 1.5 1.375.531.875.531 1.844 0 .922-.5 1.688-.5.766-1.469 1.219 1.266.281 1.969 1.219.703.922.703 2.297 0 1.875-1.375 3.188-1.359 1.297-3.453 1.297-1.891 0-3.141-1.125-1.234-1.125-1.406-2.906zm11.313-7.094q0-1.531.766-2.609.781-1.078 2.25-1.078 1.344 0 2.219.969.891.953.891 2.828 0 1.813-.891 2.797-.891.969-2.203.969-1.297 0-2.172-.953-.859-.969-.859-2.922zm3.062-2.469q-.656 0-1.094.563-.422.563-.422 2.078 0 1.375.438 1.938.438.563 1.078.563.672 0 1.094-.562.438-.578.438-2.078 0-1.391-.437-1.937-.437-.562-1.094-.562zm.016 13.875l7.828-15.094h1.422l-7.797 15.094h-1.453zm6.188-3.891q0-1.547.766-2.609.781-1.078 2.25-1.078 1.344 0 2.219.969.891.953.891 2.828 0 1.813-.891 2.797-.891.984-2.203.984-1.297 0-2.172-.969-.859-.984-.859-2.922zm3.063-2.469q-.656 0-1.094.563-.437.563-.437 2.078 0 1.375.438 1.938.438.563 1.094.563.672 0 1.094-.562.438-.562.438-2.078 0-1.375-.437-1.937-.437-.562-1.094-.562z" class="B"/><path d="M32.35 159.85h132.5l83.519 18.834" class="D E"/><use xlink:href="#B" x="-200.199" y="70.407" class="B"/><path d="M33.834 204.35v-14.312h2.859l3.375 10.125q.469 1.422.688 2.125.25-.781.766-2.297l3.422-9.953h2.547v14.313h-1.812v-11.984l-4.172 11.984h-1.703l-4.141-12.187v12.188h-1.828zm17.063 0v-14.312h5.391q1.438 0 2.188.125 1.047.188 1.766.688.719.484 1.141 1.375.438.891.438 1.953 0 1.828-1.172 3.094-1.156 1.25-4.187 1.25h-3.672v5.828h-1.891zm1.891-7.516h3.703q1.828 0 2.594-.672.781-.687.781-1.937 0-.891-.453-1.531-.453-.641-1.187-.844-.484-.125-1.781-.125h-3.656v5.109zm11.031 7.516v-14.312h1.891v12.625h7.047v1.688h-8.937z" class="C"/><path d="M42.413 229.663v1.688h-9.453q-.016-.641.203-1.219.359-.969 1.156-1.906.797-.937 2.297-2.172 2.344-1.906 3.156-3.016.828-1.125.828-2.125 0-1.047-.75-1.766-.75-.719-1.953-.719-1.266 0-2.031.766-.766.766-.766 2.109l-1.812-.187q.188-2.016 1.391-3.078 1.219-1.062 3.266-1.062 2.047 0 3.25 1.141 1.203 1.141 1.203 2.828 0 .859-.359 1.703-.344.828-1.156 1.75-.812.906-2.703 2.516-1.594 1.328-2.047 1.797-.437.469-.734.953h7.016zm2.75 1.688v-2h2v2h-2zm5.031-3.781l1.75-.234q.313 1.5 1.031 2.156.734.656 1.781.656 1.234 0 2.078-.859.859-.859.859-2.125 0-1.219-.797-2-.781-.781-2-.781-.5 0-1.234.188l.188-1.547q.172.031.281.031 1.125 0 2.016-.578.906-.594.906-1.812 0-.969-.656-1.609-.656-.641-1.687-.641-1.016 0-1.703.656-.687.641-.875 1.922l-1.766-.312q.328-1.766 1.469-2.734 1.141-.969 2.844-.969 1.172 0 2.156.5.984.5 1.5 1.375.531.875.531 1.844 0 .922-.5 1.688-.5.766-1.469 1.219 1.266.281 1.969 1.219.703.922.703 2.297 0 1.875-1.375 3.188-1.359 1.297-3.453 1.297-1.891 0-3.141-1.125-1.234-1.125-1.406-2.906zm11.313-7.094q0-1.531.766-2.609.781-1.078 2.25-1.078 1.344 0 2.219.969.891.953.891 2.828 0 1.813-.891 2.797-.891.969-2.203.969-1.297 0-2.172-.953-.859-.969-.859-2.922zm3.062-2.469q-.656 0-1.094.563-.422.563-.422 2.078 0 1.375.438 1.938.438.563 1.078.563.672 0 1.094-.562.438-.578.438-2.078 0-1.391-.437-1.937-.437-.562-1.094-.562zm.016 13.875l7.828-15.094h1.422l-7.797 15.094h-1.453zm6.188-3.891q0-1.547.766-2.609.781-1.078 2.25-1.078 1.344 0 2.219.969.891.953.891 2.828 0 1.813-.891 2.797-.891.984-2.203.984-1.297 0-2.172-.969-.859-.984-.859-2.922zm3.063-2.469q-.656 0-1.094.563-.437.563-.437 2.078 0 1.375.438 1.938.438.563 1.094.563.672 0 1.094-.562.438-.562.438-2.078 0-1.375-.437-1.937-.437-.562-1.094-.562z" class="B"/><path d="M32.35 210.85h132.5l62.613-11.816" class="D E"/><use xlink:href="#B" x="-221.105" y="90.757" class="B"/><path d="M33.819 255.35v-14.312h5.375q1.641 0 2.625.438.984.422 1.547 1.328.563.906.563 1.891 0 .922-.5 1.734-.484.813-1.5 1.297 1.297.391 2 1.313.703.906.703 2.156 0 1.016-.437 1.875-.422.859-1.047 1.328-.625.469-1.562.719-.937.234-2.312.234h-5.453zm1.891-8.297h3.094q1.266 0 1.813-.172.719-.219 1.078-.703.375-.5.375-1.266 0-.703-.344-1.25-.344-.547-.984-.734-.625-.203-2.172-.203h-2.859v4.328zm0 6.609h3.563q.922 0 1.297-.078.656-.109 1.094-.375.438-.281.719-.797.281-.531.281-1.219 0-.797-.406-1.391-.406-.594-1.141-.828-.734-.234-2.094-.234h-3.312v4.922zm10.547-2.906l1.781-.156q.125 1.063.578 1.75.469.688 1.438 1.125.984.422 2.219.422 1.078 0 1.906-.312.828-.328 1.234-.891.406-.562.406-1.234 0-.672-.391-1.172-.391-.5-1.281-.844-.578-.234-2.562-.703-1.969-.469-2.75-.891-1.031-.531-1.531-1.328-.5-.797-.5-1.781 0-1.094.609-2.031.609-.937 1.797-1.422 1.188-.5 2.625-.5 1.594 0 2.813.516 1.219.516 1.859 1.516.656.984.703 2.25l-1.812.141q-.141-1.359-.984-2.047-.844-.703-2.5-.703-1.719 0-2.516.641-.781.625-.781 1.5 0 .781.563 1.281.547.5 2.859 1.016 2.313.516 3.172.906 1.25.578 1.844 1.469.594.875.594 2.031 0 1.141-.656 2.156-.656 1.016-1.891 1.578-1.219.563-2.75.563-1.937 0-3.25-.562-1.312-.578-2.062-1.719-.75-1.141-.781-2.562zm13.641 4.594v-14.312h4.922q1.672 0 2.563.203 1.219.281 2.094 1.016 1.125.969 1.688 2.453.563 1.484.563 3.406 0 1.625-.375 2.891-.375 1.25-.984 2.078-.594.828-1.297 1.313-.703.469-1.703.719-1 .234-2.312.234h-5.156zm1.891-1.687h3.062q1.406 0 2.203-.266.813-.266 1.297-.75.672-.672 1.047-1.797.375-1.141.375-2.766 0-2.25-.734-3.453-.734-1.203-1.797-1.609-.75-.297-2.437-.297h-3.016v10.938zm11.203-2.609v-1.766h5.391v1.766h-5.391zm7.203.516l1.75-.234q.313 1.5 1.031 2.156.734.656 1.781.656 1.234 0 2.078-.859.859-.859.859-2.125 0-1.219-.797-2-.781-.781-2-.781-.5 0-1.234.188l.188-1.547q.172.031.281.031 1.125 0 2.016-.578.906-.594.906-1.812 0-.969-.656-1.609-.656-.641-1.687-.641-1.016 0-1.703.656-.687.641-.875 1.922l-1.766-.312q.328-1.766 1.469-2.734 1.141-.969 2.844-.969 1.172 0 2.156.5.984.5 1.5 1.375.531.875.531 1.844 0 .922-.5 1.688-.5.766-1.469 1.219 1.266.281 1.969 1.219.703.922.703 2.297 0 1.875-1.375 3.188-1.359 1.297-3.453 1.297-1.891 0-3.141-1.125-1.234-1.125-1.406-2.906zm10.797-.516v-1.766h5.391v1.766h-5.391zm18.125-.719l1.891.469q-.594 2.344-2.141 3.578-1.547 1.219-3.797 1.219-2.312 0-3.766-.937-1.437-.953-2.203-2.734-.75-1.797-.75-3.844 0-2.234.844-3.891.859-1.672 2.438-2.531 1.578-.875 3.469-.875 2.156 0 3.609 1.094 1.469 1.094 2.047 3.078l-1.859.438q-.5-1.562-1.453-2.266-.937-.719-2.375-.719-1.656 0-2.766.797-1.109.781-1.562 2.125-.437 1.328-.437 2.734 0 1.828.531 3.203.531 1.359 1.656 2.031 1.125.672 2.422.672 1.594 0 2.703-.922 1.109-.922 1.5-2.719zm3.516 5.016v-14.312h1.75v14.313h-1.75zm10.813-1.281q-.984.828-1.891 1.172-.906.344-1.937.344-1.703 0-2.625-.828-.922-.844-.922-2.141 0-.766.344-1.391.359-.625.922-1 .563-.391 1.266-.594.516-.125 1.563-.266 2.125-.25 3.125-.594.016-.359.016-.469 0-1.062-.5-1.516-.672-.594-2-.594-1.25 0-1.844.438-.578.438-.859 1.547l-1.719-.234q.234-1.109.766-1.781.531-.687 1.547-1.047 1.016-.375 2.359-.375 1.328 0 2.156.313.828.313 1.219.797.391.469.547 1.188.094.453.094 1.625v2.344q0 2.453.109 3.109.109.641.453 1.234h-1.844q-.266-.547-.344-1.281zm-.156-3.922q-.953.391-2.875.656-1.078.156-1.531.359-.437.188-.687.563-.25.375-.25.844 0 .703.531 1.172.531.469 1.563.469 1.016 0 1.797-.437.797-.453 1.172-1.219.281-.609.281-1.766v-.641zm11.172 5.203v-1.531q-1.203 1.766-3.281 1.766-.922 0-1.719-.344-.797-.359-1.187-.891-.375-.531-.531-1.312-.109-.516-.109-1.641v-6.422h1.75v5.75q0 1.375.109 1.859.172.688.703 1.094.547.391 1.328.391.797 0 1.484-.406.703-.406.984-1.094.297-.703.297-2.031v-5.562h1.75v10.375h-1.578zm2.5-3.094l1.75-.281q.141 1.047.813 1.609.672.547 1.875.547 1.203 0 1.781-.484.594-.5.594-1.156 0-.594-.516-.937-.359-.234-1.797-.594-1.937-.5-2.687-.844-.734-.359-1.125-.984-.391-.641-.391-1.406 0-.687.313-1.281.328-.594.875-.984.406-.297 1.109-.5.719-.219 1.531-.219 1.219 0 2.141.359.922.344 1.359.953.438.594.609 1.594l-1.719.234q-.125-.797-.687-1.234-.562-.453-1.578-.453-1.219 0-1.734.406-.516.391-.516.922 0 .344.219.625.203.281.672.469.266.094 1.547.438 1.875.5 2.609.828.734.313 1.156.922.422.594.422 1.5 0 .875-.516 1.656-.516.781-1.484 1.203-.969.422-2.187.422-2.016 0-3.078-.844-1.062-.844-1.359-2.484zm17.813-.25l1.813.234q-.422 1.578-1.594 2.469-1.156.875-2.969.875-2.266 0-3.609-1.391-1.328-1.406-1.328-3.937 0-2.625 1.344-4.062 1.344-1.453 3.5-1.453 2.078 0 3.391 1.422 1.328 1.406 1.328 3.984 0 .156-.016.469h-7.734q.094 1.703.969 2.609.875.906 2.172.906.969 0 1.641-.5.688-.516 1.094-1.625zm-5.781-2.844h5.797q-.109-1.297-.656-1.953-.844-1.016-2.187-1.016-1.203 0-2.031.813-.828.797-.922 2.156z" class="C"/><path d="M39.803 282.35h-1.766v-11.203q-.625.609-1.656 1.219-1.031.594-1.859.906v-1.703q1.484-.687 2.578-1.672 1.109-1 1.563-1.922h1.141v14.375zm5.359 0v-2h2v2h-2zm5.016-3.75l1.844-.156q.203 1.344.953 2.031.75.672 1.813.672 1.266 0 2.141-.953.875-.953.875-2.547 0-1.5-.844-2.359-.844-.875-2.203-.875-.859 0-1.547.391-.672.375-1.062 1l-1.656-.219 1.391-7.359h7.125v1.688h-5.719l-.766 3.844q1.281-.906 2.703-.906 1.875 0 3.156 1.313 1.297 1.297 1.297 3.328 0 1.953-1.141 3.359-1.375 1.75-3.75 1.75-1.953 0-3.203-1.094-1.234-1.094-1.406-2.906zm11.328-7.125q0-1.531.766-2.609.781-1.078 2.25-1.078 1.344 0 2.219.969.891.953.891 2.828 0 1.813-.891 2.797-.891.969-2.203.969-1.297 0-2.172-.953-.859-.969-.859-2.922zm3.062-2.469q-.656 0-1.094.563-.422.563-.422 2.078 0 1.375.438 1.938.438.563 1.078.563.672 0 1.094-.562.438-.578.438-2.078 0-1.391-.437-1.937-.437-.562-1.094-.562zm.016 13.875l7.828-15.094h1.422l-7.797 15.094h-1.453zm6.188-3.891q0-1.547.766-2.609.781-1.078 2.25-1.078 1.344 0 2.219.969.891.953.891 2.828 0 1.813-.891 2.797-.891.984-2.203.984-1.297 0-2.172-.969-.859-.984-.859-2.922zm3.063-2.469q-.656 0-1.094.563-.437.563-.437 2.078 0 1.375.438 1.938.438.563 1.094.563.672 0 1.094-.562.438-.562.438-2.078 0-1.375-.437-1.937-.437-.562-1.094-.562z" class="B"/><path d="M32.35 261.85h132.5l46.577-42.169" class="D E"/><use xlink:href="#B" x="-237.141" y="111.404" class="B"/><path d="M33.178 299.288q0-2.531.516-4.078.531-1.562 1.563-2.391 1.031-.844 2.594-.844 1.156 0 2.016.469.875.453 1.438 1.328.563.875.891 2.141.328 1.25.328 3.375 0 2.516-.531 4.063-.516 1.547-1.547 2.406-1.016.844-2.594.844-2.078 0-3.25-1.484-1.422-1.797-1.422-5.828zm1.813 0q0 3.531.813 4.703.828 1.156 2.047 1.156 1.203 0 2.031-1.172.828-1.172.828-4.687 0-3.531-.828-4.687-.828-1.172-2.047-1.172-1.219 0-1.937 1.031-.906 1.297-.906 4.828zm9.828 7.063v-14.312h5.375q1.641 0 2.625.438.984.422 1.547 1.328.563.906.563 1.891 0 .922-.5 1.734-.484.813-1.5 1.297 1.297.391 2 1.313.703.906.703 2.156 0 1.016-.437 1.875-.422.859-1.047 1.328-.625.469-1.562.719-.937.234-2.312.234h-5.453zm1.891-8.297h3.094q1.266 0 1.813-.172.719-.219 1.078-.703.375-.5.375-1.266 0-.703-.344-1.25-.344-.547-.984-.734-.625-.203-2.172-.203h-2.859v4.328zm0 6.609h3.563q.922 0 1.297-.078.656-.109 1.094-.375.438-.281.719-.797.281-.531.281-1.219 0-.797-.406-1.391-.406-.594-1.141-.828-.734-.234-2.094-.234h-3.312v4.922zm10.547-2.906l1.781-.156q.125 1.063.578 1.75.469.688 1.438 1.125.984.422 2.219.422 1.078 0 1.906-.312.828-.328 1.234-.891.406-.562.406-1.234 0-.672-.391-1.172-.391-.5-1.281-.844-.578-.234-2.562-.703-1.969-.469-2.75-.891-1.031-.531-1.531-1.328-.5-.797-.5-1.781 0-1.094.609-2.031.609-.937 1.797-1.422 1.188-.5 2.625-.5 1.594 0 2.812.516 1.219.516 1.859 1.516.656.984.703 2.25l-1.812.141q-.141-1.359-.984-2.047-.844-.703-2.5-.703-1.719 0-2.516.641-.781.625-.781 1.5 0 .781.563 1.281.547.5 2.859 1.016 2.312.516 3.172.906 1.25.578 1.844 1.469.594.875.594 2.031 0 1.141-.656 2.156-.656 1.016-1.891 1.578-1.219.563-2.75.563-1.937 0-3.25-.562-1.312-.578-2.062-1.719-.75-1.141-.781-2.562zm13.641 4.594v-14.312h4.922q1.672 0 2.563.203 1.219.281 2.094 1.016 1.125.969 1.688 2.453.563 1.484.563 3.406 0 1.625-.375 2.891-.375 1.25-.984 2.078-.594.828-1.297 1.313-.703.469-1.703.719-1 .234-2.312.234h-5.156zm1.891-1.687h3.063q1.406 0 2.203-.266.813-.266 1.297-.75.672-.672 1.047-1.797.375-1.141.375-2.766 0-2.25-.734-3.453-.734-1.203-1.797-1.609-.75-.297-2.437-.297h-3.016v10.938z" class="C"/><path d="M39.803 333.35h-1.766v-11.203q-.625.609-1.656 1.219-1.031.594-1.859.906v-1.703q1.484-.687 2.578-1.672 1.109-1 1.563-1.922h1.141v14.375zm5.359 0v-2h2v2h-2zm7.719-7.766q-1.094-.406-1.625-1.141-.516-.75-.516-1.781 0-1.562 1.125-2.625 1.125-1.062 2.984-1.062 1.875 0 3.016 1.094 1.141 1.078 1.141 2.641 0 1-.531 1.734-.516.734-1.578 1.141 1.328.438 2.016 1.391.688.953.688 2.281 0 1.844-1.312 3.094-1.297 1.25-3.406 1.25-2.125 0-3.422-1.25-1.297-1.266-1.297-3.141 0-1.391.703-2.328.719-.953 2.016-1.297zm-.344-2.984q0 1.016.656 1.672.656.641 1.688.641 1.016 0 1.672-.641.656-.641.656-1.562 0-.969-.672-1.625-.672-.672-1.672-.672-1 0-1.672.656-.656.641-.656 1.531zm-.562 6.625q0 .75.344 1.453.359.703 1.063 1.094.703.375 1.516.375 1.266 0 2.078-.812.828-.812.828-2.062 0-1.266-.844-2.094-.844-.828-2.125-.828-1.234 0-2.047.828-.812.813-.812 2.047zm9.531-6.75q0-1.531.766-2.609.781-1.078 2.25-1.078 1.344 0 2.219.969.891.953.891 2.828 0 1.813-.891 2.797-.891.969-2.203.969-1.297 0-2.172-.953-.859-.969-.859-2.922zm3.062-2.469q-.656 0-1.094.563-.422.563-.422 2.078 0 1.375.438 1.938.438.563 1.078.563.672 0 1.094-.562.438-.578.438-2.078 0-1.391-.437-1.937-.437-.562-1.094-.562zm.016 13.875l7.828-15.094h1.422l-7.797 15.094h-1.453zm6.188-3.891q0-1.547.766-2.609.781-1.078 2.25-1.078 1.344 0 2.219.969.891.953.891 2.828 0 1.813-.891 2.797-.891.984-2.203.984-1.297 0-2.172-.969-.859-.984-.859-2.922zm3.063-2.469q-.656 0-1.094.563-.437.563-.437 2.078 0 1.375.438 1.938.438.563 1.094.563.672 0 1.094-.562.438-.562.438-2.078 0-1.375-.437-1.937-.437-.562-1.094-.562z" class="B"/><path d="M32.35 312.85h132.5l28.148-56.232" class="D E"/><use xlink:href="#B" x="-255.57" y="148.341" class="B"/><path d="M33.881 357.35v-14.312h1.938l7.516 11.234v-11.234h1.813v14.313h-1.937l-7.516-11.25v11.25h-1.812zm12.141-5.187q0-2.875 1.594-4.266 1.344-1.156 3.266-1.156 2.141 0 3.484 1.406 1.359 1.406 1.359 3.875 0 2-.594 3.156-.594 1.141-1.75 1.781-1.141.625-2.5.625-2.187 0-3.531-1.391-1.328-1.406-1.328-4.031zm1.797 0q0 2 .859 2.984.875.984 2.203.984 1.313 0 2.172-.984.875-1 .875-3.047 0-1.922-.875-2.906-.875-1-2.172-1-1.328 0-2.203 1-.859.984-.859 2.969zm8.5 5.188l5.5-14.312h2.047l5.859 14.313h-2.156l-1.672-4.344h-5.984l-1.578 4.344h-2.016zm4.141-5.875h4.844l-1.484-3.969q-.687-1.812-1.016-2.969-.281 1.375-.781 2.734l-1.562 4.203zm9.5 2.781l1.75-.281q.141 1.047.813 1.609.672.547 1.875.547 1.203 0 1.781-.484.594-.5.594-1.156 0-.594-.516-.937-.359-.234-1.797-.594-1.937-.5-2.687-.844-.734-.359-1.125-.984-.391-.641-.391-1.406 0-.687.313-1.281.328-.594.875-.984.406-.297 1.109-.5.719-.219 1.531-.219 1.219 0 2.141.359.922.344 1.359.953.438.594.609 1.594l-1.719.234q-.125-.797-.687-1.234-.562-.453-1.578-.453-1.219 0-1.734.406-.516.391-.516.922 0 .344.219.625.203.281.672.469.266.094 1.547.438 1.875.5 2.609.828.734.313 1.156.922.422.594.422 1.5 0 .875-.516 1.656-.516.781-1.484 1.203-.969.422-2.187.422-2.016 0-3.078-.844-1.062-.844-1.359-2.484zm10 0l1.75-.281q.141 1.047.813 1.609.672.547 1.875.547 1.203 0 1.781-.484.594-.5.594-1.156 0-.594-.516-.937-.359-.234-1.797-.594-1.937-.5-2.687-.844-.734-.359-1.125-.984-.391-.641-.391-1.406 0-.687.313-1.281.328-.594.875-.984.406-.297 1.109-.5.719-.219 1.531-.219 1.219 0 2.141.359.922.344 1.359.953.438.594.609 1.594l-1.719.234q-.125-.797-.687-1.234-.562-.453-1.578-.453-1.219 0-1.734.406-.516.391-.516.922 0 .344.219.625.203.281.672.469.266.094 1.547.438 1.875.5 2.609.828.734.313 1.156.922.422.594.422 1.5 0 .875-.516 1.656-.516.781-1.484 1.203-.969.422-2.187.422-2.016 0-3.078-.844-1.062-.844-1.359-2.484zm17.813-.25l1.813.234q-.422 1.578-1.594 2.469-1.156.875-2.969.875-2.266 0-3.609-1.391-1.328-1.406-1.328-3.937 0-2.625 1.344-4.062 1.344-1.453 3.5-1.453 2.078 0 3.391 1.422 1.328 1.406 1.328 3.984 0 .156-.016.469h-7.734q.094 1.703.969 2.609.875.906 2.172.906.969 0 1.641-.5.688-.516 1.094-1.625zm-5.781-2.844h5.797q-.109-1.297-.656-1.953-.844-1.016-2.187-1.016-1.203 0-2.031.813-.828.797-.922 2.156zm9.656 6.188v-10.375h1.578v1.578q.609-1.109 1.125-1.453.516-.359 1.125-.359.891 0 1.813.563l-.609 1.641q-.641-.391-1.281-.391-.578 0-1.047.359-.453.344-.656.953-.281.938-.281 2.047v5.438h-1.766zm10.859-1.578l.25 1.563q-.734.156-1.328.156-.953 0-1.484-.297-.516-.312-.734-.797-.219-.5-.219-2.078v-5.969h-1.281v-1.375h1.281v-2.562l1.75-1.062v3.625h1.766v1.375h-1.766v6.063q0 .75.094.969.094.203.297.344.219.125.609.125.281 0 .766-.078zm2.172-10.719v-2.016h1.766v2.016h-1.766zm0 12.297v-10.375h1.766v10.375h-1.766zm3.344-5.187q0-2.875 1.594-4.266 1.344-1.156 3.266-1.156 2.141 0 3.484 1.406 1.359 1.406 1.359 3.875 0 2-.594 3.156-.594 1.141-1.75 1.781-1.141.625-2.5.625-2.187 0-3.531-1.391-1.328-1.406-1.328-4.031zm1.797 0q0 2 .859 2.984.875.984 2.203.984 1.313 0 2.172-.984.875-1 .875-3.047 0-1.922-.875-2.906-.875-1-2.172-1-1.328 0-2.203 1-.859.984-.859 2.969zm9.844 5.188v-10.375h1.594v1.484q1.141-1.719 3.297-1.719.938 0 1.719.344.797.328 1.188.875.391.547.547 1.297.094.5.094 1.719v6.375h-1.766v-6.312q0-1.078-.203-1.609-.203-.531-.734-.844-.516-.312-1.219-.312-1.125 0-1.937.719-.812.703-.812 2.688v5.672h-1.766z" class="C"/><path d="M33.178 380.6l1.844-.156q.203 1.344.953 2.031.75.672 1.813.672 1.266 0 2.141-.953.875-.953.875-2.547 0-1.5-.844-2.359-.844-.875-2.203-.875-.859 0-1.547.391-.672.375-1.062 1l-1.656-.219 1.391-7.359h7.125v1.688h-5.719l-.766 3.844q1.281-.906 2.703-.906 1.875 0 3.156 1.313 1.297 1.297 1.297 3.328 0 1.953-1.141 3.359-1.375 1.75-3.75 1.75-1.953 0-3.203-1.094-1.234-1.094-1.406-2.906zm11.984 3.75v-2h2v2h-2zm5.141-12.437v-1.687h9.266v1.359q-1.375 1.453-2.719 3.875-1.344 2.406-2.062 4.953-.531 1.797-.687 3.938h-1.797q.031-1.687.656-4.078.641-2.391 1.828-4.609 1.188-2.234 2.516-3.75h-7zm11.203 1.563q0-1.531.766-2.609.781-1.078 2.25-1.078 1.344 0 2.219.969.891.953.891 2.828 0 1.813-.891 2.797-.891.969-2.203.969-1.297 0-2.172-.953-.859-.969-.859-2.922zm3.062-2.469q-.656 0-1.094.563-.422.563-.422 2.078 0 1.375.438 1.938.438.563 1.078.563.672 0 1.094-.562.438-.578.438-2.078 0-1.391-.437-1.937-.437-.562-1.094-.562zm.016 13.875l7.828-15.094h1.422l-7.797 15.094h-1.453zm6.188-3.891q0-1.547.766-2.609.781-1.078 2.25-1.078 1.344 0 2.219.969.891.953.891 2.828 0 1.813-.891 2.797-.891.984-2.203.984-1.297 0-2.172-.969-.859-.984-.859-2.922zm3.063-2.469q-.656 0-1.094.563-.437.563-.437 2.078 0 1.375.438 1.938.438.563 1.094.563.672 0 1.094-.562.438-.562.438-2.078 0-1.375-.437-1.937-.437-.562-1.094-.562z" class="B"/><path d="M32.35 363.85h132.5l20.558-62.186" class="D E"/><use xlink:href="#B" x="-263.16" y="193.387" class="B"/><path d="M33.819 408.35v-14.312h1.891v12.625h7.047v1.688h-8.937zm17.781-5.609v-1.687l6.063-.016v5.313q-1.406 1.125-2.891 1.688-1.484.563-3.047.563-2.109 0-3.828-.906-1.719-.906-2.609-2.609-.875-1.719-.875-3.828 0-2.094.875-3.891.875-1.812 2.516-2.687 1.641-.891 3.781-.891 1.547 0 2.797.5 1.266.5 1.969 1.406.719.891 1.094 2.344l-1.703.469q-.328-1.094-.812-1.719-.469-.625-1.359-1-.891-.375-1.969-.375-1.312 0-2.266.391-.937.391-1.516 1.047-.578.641-.906 1.406-.547 1.328-.547 2.891 0 1.906.656 3.203.672 1.281 1.922 1.906 1.266.625 2.672.625 1.234 0 2.406-.469 1.172-.469 1.781-1.016v-2.656H51.6zm9.297 5.609v-14.312h5.391q1.438 0 2.188.125 1.047.188 1.766.688.719.484 1.141 1.375.438.891.438 1.953 0 1.828-1.172 3.094-1.156 1.25-4.187 1.25h-3.672v5.828h-1.891zm1.891-7.516h3.703q1.828 0 2.594-.672.781-.687.781-1.937 0-.891-.453-1.531-.453-.641-1.187-.844-.484-.125-1.781-.125h-3.656v5.109zm11.031 7.516v-14.312h1.891v12.625h7.047v1.688h-8.937zm10.172-4.297v-1.766h5.391v1.766h-5.391zm7.203.516l1.75-.234q.313 1.5 1.031 2.156.734.656 1.781.656 1.234 0 2.078-.859.859-.859.859-2.125 0-1.219-.797-2-.781-.781-2-.781-.5 0-1.234.188l.188-1.547q.172.031.281.031 1.125 0 2.016-.578.906-.594.906-1.812 0-.969-.656-1.609-.656-.641-1.687-.641-1.016 0-1.703.656-.687.641-.875 1.922l-1.766-.312q.328-1.766 1.469-2.734 1.141-.969 2.844-.969 1.172 0 2.156.5.984.5 1.5 1.375.531.875.531 1.844 0 .922-.5 1.688-.5.766-1.469 1.219 1.266.281 1.969 1.219.703.922.703 2.297 0 1.875-1.375 3.188-1.359 1.297-3.453 1.297-1.891 0-3.141-1.125-1.234-1.125-1.406-2.906zm11.969 3.781v-2h2v2h-2zm5.016-7.062q0-2.531.516-4.078.531-1.562 1.563-2.391 1.031-.844 2.594-.844 1.156 0 2.016.469.875.453 1.438 1.328.563.875.891 2.141.328 1.25.328 3.375 0 2.516-.531 4.063-.516 1.547-1.547 2.406-1.016.844-2.594.844-2.078 0-3.25-1.484-1.422-1.797-1.422-5.828zm1.813 0q0 3.531.813 4.703.828 1.156 2.047 1.156 1.203 0 2.031-1.172.828-1.172.828-4.687 0-3.531-.828-4.687-.828-1.172-2.047-1.172-1.219 0-1.937 1.031-.906 1.297-.906 4.828z" class="C"/><use xlink:href="#C" class="B"/><path d="M32.35 414.85h132.5l26.664-72.727" class="D E"/><use xlink:href="#B" x="-257.054" y="233.846" class="B"/><path d="M32.319 459.35l5.5-14.312h2.047l5.859 14.313h-2.156l-1.672-4.344h-5.984l-1.578 4.344h-2.016zm4.141-5.875h4.844l-1.484-3.969q-.687-1.812-1.016-2.969-.281 1.375-.781 2.734l-1.562 4.203zm10.203 9.844v-14.344h1.609v1.344q.563-.781 1.266-1.172.719-.406 1.734-.406 1.328 0 2.344.688 1.016.688 1.531 1.938.531 1.234.531 2.719 0 1.594-.578 2.875-.562 1.266-1.656 1.953-1.094.672-2.297.672-.875 0-1.578-.375-.687-.375-1.141-.937v5.047h-1.766zm1.594-9.094q0 2 .813 2.953.813.953 1.969.953 1.172 0 2-.984.844-.984.844-3.078 0-1.969-.828-2.953-.812-1-1.937-1-1.125 0-2 1.063-.859 1.047-.859 3.047zm16.187 3.844q-.984.828-1.891 1.172-.906.344-1.937.344-1.703 0-2.625-.828-.922-.844-.922-2.141 0-.766.344-1.391.359-.625.922-1 .563-.391 1.266-.594.516-.125 1.563-.266 2.125-.25 3.125-.594.016-.359.016-.469 0-1.062-.5-1.516-.672-.594-2-.594-1.25 0-1.844.438-.578.438-.859 1.547l-1.719-.234q.234-1.109.766-1.781.531-.687 1.547-1.047 1.016-.375 2.359-.375 1.328 0 2.156.313.828.313 1.219.797.391.469.547 1.188.094.453.094 1.625v2.344q0 2.453.109 3.109.109.641.453 1.234h-1.844q-.266-.547-.344-1.281zm-.156-3.922q-.953.391-2.875.656-1.078.156-1.531.359-.437.188-.687.563-.25.375-.25.844 0 .703.531 1.172.531.469 1.563.469 1.016 0 1.797-.437.797-.453 1.172-1.219.281-.609.281-1.766v-.641zm11.156 1.406l1.719.219q-.281 1.797-1.453 2.813-1.156 1-2.859 1-2.125 0-3.422-1.391-1.297-1.391-1.297-3.984 0-1.687.547-2.937.563-1.266 1.703-1.891 1.141-.641 2.484-.641 1.688 0 2.75.859 1.078.859 1.391 2.422l-1.719.266q-.234-1.047-.859-1.562-.625-.531-1.5-.531-1.328 0-2.156.953-.828.953-.828 3 0 2.094.797 3.047.797.938 2.094.938 1.031 0 1.719-.625.703-.641.891-1.953zm3.219 3.797v-14.312h1.766v5.125q1.234-1.422 3.109-1.422 1.141 0 1.984.453.859.453 1.219 1.266.375.797.375 2.313v6.578h-1.75v-6.578q0-1.312-.578-1.906-.578-.609-1.609-.609-.781 0-1.484.406-.687.406-.984 1.109-.281.688-.281 1.906v5.672h-1.766zm17.109-3.344l1.813.234q-.422 1.578-1.594 2.469-1.156.875-2.969.875-2.266 0-3.609-1.391-1.328-1.406-1.328-3.937 0-2.625 1.344-4.062 1.344-1.453 3.5-1.453 2.078 0 3.391 1.422 1.328 1.406 1.328 3.984 0 .156-.016.469h-7.734q.094 1.703.969 2.609.875.906 2.172.906.969 0 1.641-.5.688-.516 1.094-1.625zm-5.781-2.844h5.797q-.109-1.297-.656-1.953-.844-1.016-2.187-1.016-1.203 0-2.031.813-.828.797-.922 2.156zm9 1.891v-1.766h5.391v1.766h-5.391zm16.422 2.609v1.688h-9.453q-.016-.641.203-1.219.359-.969 1.156-1.906.797-.937 2.297-2.172 2.344-1.906 3.156-3.016.828-1.125.828-2.125 0-1.047-.75-1.766-.75-.719-1.953-.719-1.266 0-2.031.766-.766.766-.766 2.109l-1.812-.187q.188-2.016 1.391-3.078 1.219-1.062 3.266-1.062 2.047 0 3.25 1.141 1.203 1.141 1.203 2.828 0 .859-.359 1.703-.344.828-1.156 1.75-.812.906-2.703 2.516-1.594 1.328-2.047 1.797-.437.469-.734.953h7.016zm2.75 1.688v-2h2v2h-2zm5.016-7.062q0-2.531.516-4.078.531-1.562 1.563-2.391 1.031-.844 2.594-.844 1.156 0 2.016.469.875.453 1.438 1.328.563.875.891 2.141.328 1.25.328 3.375 0 2.516-.531 4.063-.516 1.547-1.547 2.406-1.016.844-2.594.844-2.078 0-3.25-1.484-1.422-1.797-1.422-5.828zm1.813 0q0 3.531.813 4.703.828 1.156 2.047 1.156 1.203 0 2.031-1.172.828-1.172.828-4.687 0-3.531-.828-4.687-.828-1.172-2.047-1.172-1.219 0-1.937 1.031-.906 1.297-.906 4.828z" class="C"/><path d="M38.819 486.35v-3.422H32.6v-1.625l6.531-9.266h1.438v9.266h1.938v1.625h-1.937v3.422h-1.75zm0-5.047v-6.453l-4.484 6.453h4.484zm6.344 5.047v-2h2v2h-2zm10.656 0v-3.422H49.6v-1.625l6.531-9.266h1.438v9.266h1.938v1.625h-1.937v3.422h-1.75zm0-5.047v-6.453l-4.484 6.453h4.484zm5.688-5.828q0-1.531.766-2.609.781-1.078 2.25-1.078 1.344 0 2.219.969.891.953.891 2.828 0 1.813-.891 2.797-.891.969-2.203.969-1.297 0-2.172-.953-.859-.969-.859-2.922zm3.062-2.469q-.656 0-1.094.563-.422.563-.422 2.078 0 1.375.438 1.938.438.563 1.078.563.672 0 1.094-.562.438-.578.438-2.078 0-1.391-.437-1.937-.437-.562-1.094-.562zm.016 13.875l7.828-15.094h1.422l-7.797 15.094h-1.453zm6.188-3.891q0-1.547.766-2.609.781-1.078 2.25-1.078 1.344 0 2.219.969.891.953.891 2.828 0 1.813-.891 2.797-.891.984-2.203.984-1.297 0-2.172-.969-.859-.984-.859-2.922zm3.063-2.469q-.656 0-1.094.563-.437.563-.437 2.078 0 1.375.438 1.938.438.563 1.094.563.672 0 1.094-.562.438-.562.438-2.078 0-1.375-.437-1.937-.437-.562-1.094-.562z" class="B"/><path d="M32.35 465.85h132.5l49.496-77.967" class="D E"/><use xlink:href="#B" x="-234.222" y="279.606" class="B"/><path d="M40.6 504.741v-1.687l6.063-.016v5.313q-1.406 1.125-2.891 1.688-1.484.563-3.047.563-2.109 0-3.828-.906-1.719-.906-2.609-2.609-.875-1.719-.875-3.828 0-2.094.875-3.891.875-1.812 2.516-2.687 1.641-.891 3.781-.891 1.547 0 2.797.5 1.266.5 1.969 1.406.719.891 1.094 2.344l-1.703.469q-.328-1.094-.812-1.719-.469-.625-1.359-1-.891-.375-1.969-.375-1.312 0-2.266.391-.937.391-1.516 1.047-.578.641-.906 1.406-.547 1.328-.547 2.891 0 1.906.656 3.203.672 1.281 1.922 1.906 1.266.625 2.672.625 1.234 0 2.406-.469 1.172-.469 1.781-1.016v-2.656H40.6zm9.297 5.609v-14.312h5.391q1.438 0 2.188.125 1.047.188 1.766.688.719.484 1.141 1.375.438.891.438 1.953 0 1.828-1.172 3.094-1.156 1.25-4.187 1.25h-3.672v5.828h-1.891zm1.891-7.516h3.703q1.828 0 2.594-.672.781-.687.781-1.937 0-.891-.453-1.531-.453-.641-1.187-.844-.484-.125-1.781-.125h-3.656v5.109zm11.031 7.516v-14.312h1.891v12.625h7.047v1.688h-8.937zm10.172-4.297v-1.766h5.391v1.766h-5.391zm7.203.516l1.75-.234q.313 1.5 1.031 2.156.734.656 1.781.656 1.234 0 2.078-.859.859-.859.859-2.125 0-1.219-.797-2-.781-.781-2-.781-.5 0-1.234.188l.188-1.547q.172.031.281.031 1.125 0 2.016-.578.906-.594.906-1.812 0-.969-.656-1.609-.656-.641-1.687-.641-1.016 0-1.703.656-.687.641-.875 1.922l-1.766-.312q.328-1.766 1.469-2.734 1.141-.969 2.844-.969 1.172 0 2.156.5.984.5 1.5 1.375.531.875.531 1.844 0 .922-.5 1.688-.5.766-1.469 1.219 1.266.281 1.969 1.219.703.922.703 2.297 0 1.875-1.375 3.188-1.359 1.297-3.453 1.297-1.891 0-3.141-1.125-1.234-1.125-1.406-2.906zm11.969 3.781v-2h2v2h-2zm5.016-7.062q0-2.531.516-4.078.531-1.562 1.563-2.391 1.031-.844 2.594-.844 1.156 0 2.016.469.875.453 1.438 1.328.563.875.891 2.141.328 1.25.328 3.375 0 2.516-.531 4.063-.516 1.547-1.547 2.406-1.016.844-2.594.844-2.078 0-3.25-1.484-1.422-1.797-1.422-5.828zm1.813 0q0 3.531.813 4.703.828 1.156 2.047 1.156 1.203 0 2.031-1.172.828-1.172.828-4.687 0-3.531-.828-4.687-.828-1.172-2.047-1.172-1.219 0-1.937 1.031-.906 1.297-.906 4.828z" class="C"/><use xlink:href="#C" y="102" class="B"/><path d="M32.35 516.85h132.5l73.91-100.876" class="D E"/><use xlink:href="#B" x="-209.808" y="307.697" class="B"/><path d="M858.134 379.976v-14.312h2.859l3.375 10.125q.469 1.422.688 2.125.25-.781.766-2.297l3.422-9.953h2.547v14.313h-1.812v-11.984l-4.172 11.984h-1.703l-4.141-12.187v12.188h-1.828zm17.375 0v-14.312h1.906v14.313h-1.906zm9.328 0v-12.625h-4.719v-1.687h11.344v1.688h-4.734v12.625h-1.891z" class="C"/><path d="M844.603 396.164l-1.75.141q-.234-1.031-.656-1.5-.719-.766-1.766-.766-.844 0-1.469.469-.828.609-1.312 1.781-.484 1.156-.5 3.297.641-.953 1.547-1.422.922-.469 1.938-.469 1.75 0 2.984 1.297 1.234 1.281 1.234 3.328 0 1.359-.578 2.516-.578 1.156-1.594 1.781-1.016.609-2.312.609-2.187 0-3.578-1.609-1.391-1.625-1.391-5.344 0-4.141 1.531-6.031 1.344-1.641 3.609-1.641 1.688 0 2.766.953 1.078.938 1.297 2.609zm-7.172 6.172q0 .906.375 1.734.391.828 1.078 1.266.703.438 1.453.438 1.125 0 1.922-.891.797-.906.797-2.453 0-1.484-.797-2.328-.781-.859-1.984-.859-1.187 0-2.016.859-.828.844-.828 2.234zm14.688 4.641v-3.422H845.9v-1.625l6.531-9.266h1.438v9.266h1.938v1.625h-1.937v3.422h-1.75zm0-5.047v-6.453l-4.484 6.453h4.484zm6.344 5.047v-2h2v2h-2zm10.656 0v-3.422H862.9v-1.625l6.531-9.266h1.438v9.266h1.938v1.625h-1.937v3.422h-1.75zm0-5.047v-6.453l-4.484 6.453h4.484zm5.688-5.828q0-1.531.766-2.609.781-1.078 2.25-1.078 1.344 0 2.219.969.891.953.891 2.828 0 1.813-.891 2.797-.891.969-2.203.969-1.297 0-2.172-.953-.859-.969-.859-2.922zm3.063-2.469q-.656 0-1.094.563-.422.563-.422 2.078 0 1.375.438 1.938.438.563 1.078.563.672 0 1.094-.562.438-.578.438-2.078 0-1.391-.437-1.937-.437-.562-1.094-.562zm.016 13.875l7.828-15.094h1.422l-7.797 15.094h-1.453zm6.188-3.891q0-1.547.766-2.609.781-1.078 2.25-1.078 1.344 0 2.219.969.891.953.891 2.828 0 1.813-.891 2.797-.891.984-2.203.984-1.297 0-2.172-.969-.859-.984-.859-2.922zm3.063-2.469q-.656 0-1.094.563-.437.563-.437 2.078 0 1.375.438 1.938.438.563 1.094.563.672 0 1.094-.562.438-.562.438-2.078 0-1.375-.437-1.937-.437-.562-1.094-.562z" class="B"/><path d="M891.65 386.476H710.643" class="D E"/><use xlink:href="#B" x="262.075" y="278.199" class="B"/><defs ><path id="B" d="M450.568 108.277a2 2 0 1 0-4 0 2 2 0 1 0 4 0"/><path id="C" d="M39.803 435.35h-1.766v-11.203q-.625.609-1.656 1.219-1.031.594-1.859.906v-1.703q1.484-.687 2.578-1.672 1.109-1 1.563-1.922h1.141v14.375zm5.359 0v-2h2v2h-2zm5.016-7.062q0-2.531.516-4.078.531-1.562 1.563-2.391 1.031-.844 2.594-.844 1.156 0 2.016.469.875.453 1.438 1.328.563.875.891 2.141.328 1.25.328 3.375 0 2.516-.531 4.063-.516 1.547-1.547 2.406-1.016.844-2.594.844-2.078 0-3.25-1.484-1.422-1.797-1.422-5.828zm1.813 0q0 3.531.813 4.703.828 1.156 2.047 1.156 1.203 0 2.031-1.172.828-1.172.828-4.687 0-3.531-.828-4.687-.828-1.172-2.047-1.172-1.219 0-1.937 1.031-.906 1.297-.906 4.828zm9.516-3.812q0-1.531.766-2.609.781-1.078 2.25-1.078 1.344 0 2.219.969.891.953.891 2.828 0 1.813-.891 2.797-.891.969-2.203.969-1.297 0-2.172-.953-.859-.969-.859-2.922zm3.062-2.469q-.656 0-1.094.563-.422.563-.422 2.078 0 1.375.438 1.938.438.563 1.078.563.672 0 1.094-.562.438-.578.438-2.078 0-1.391-.437-1.937-.437-.562-1.094-.562zm.016 13.875l7.828-15.094h1.422l-7.797 15.094h-1.453zm6.188-3.891q0-1.547.766-2.609.781-1.078 2.25-1.078 1.344 0 2.219.969.891.953.891 2.828 0 1.813-.891 2.797-.891.984-2.203.984-1.297 0-2.172-.969-.859-.984-.859-2.922zm3.063-2.469q-.656 0-1.094.563-.437.563-.437 2.078 0 1.375.438 1.938.438.563 1.094.563.672 0 1.094-.562.438-.562.438-2.078 0-1.375-.437-1.937-.437-.562-1.094-.562z"/></defs></svg>