<svg version="1.1" viewBox="0.0 0.0 1062.0 657.0" fill="none" stroke="none" stroke-linecap="square" stroke-miterlimit="10" width="1062" height="657" xmlns:xlink="http://www.w3.org/1999/xlink" xmlns="http://www.w3.org/2000/svg"><path fill="#ffffff" fill-opacity="0.0" d="M0 0L1062.0 0L1062.0 657.0L0 657.0L0 0Z" fill-rule="nonzero"/><path fill="#2e5dab" d="M826.65 350.67374C826.65 453.21475 719.3818 540.29456 574.48804 555.3776L574.48804 511.03012C719.3818 495.94708 826.65 408.86725 826.65 306.32626Z" fill-rule="nonzero"/><path fill="#4285f4" d="M531.0 99.37125C685.8242 99.37125 814.42706 182.98206 825.8449 291.06387C837.2628 399.1457 727.6282 495.08865 574.48804 511.03012L531.0 306.32626Z" fill-rule="nonzero"/><path fill="#032527" d="M530.1842 99.37204C530.4561 99.37151 530.7281 99.37125 531.0 99.37125L531.0 306.32626Z" fill-rule="nonzero"/><path fill="#251701" d="M526.921 99.390945C528.00867 99.38044 529.09644 99.37414 530.1842 99.37204L531.0 306.32626Z" fill-rule="nonzero"/><path fill="#a4c2f4" d="M487.10852 101.664566C500.29095 100.27929 513.59216 99.519684 526.921 99.390945L531.0 306.32626Z" fill-rule="nonzero"/><path fill="#ffe599" d="M467.85617 104.146454C474.23273 103.170616 480.6537 102.342865 487.10852 101.664566L531.0 306.32626Z" fill-rule="nonzero"/><path fill="#f9cb9c" d="M460.7034 105.3064C463.08072 104.89904 465.46515 104.51236 467.85617 104.146454L531.0 306.32626Z" fill-rule="nonzero"/><path fill="#fff8e6" d="M455.9587 106.14861C457.53693 105.85871 459.11853 105.577965 460.7034 105.3064L531.0 306.32626Z" fill-rule="nonzero"/><path fill="#fdeceb" d="M449.66467 107.35689C451.75626 106.93793 453.8544 106.53515 455.9587 106.14861L531.0 306.32626Z" fill-rule="nonzero"/><path fill="#ecf3fe" d="M448.88065 107.51475C449.14188 107.461876 449.40323 107.409256 449.66467 107.35689L531.0 306.32626Z" fill-rule="nonzero"/><path fill="#b5e5e8" d="M447.31445 107.835014C447.8361 107.72725 448.35815 107.6205 448.88065 107.51475L531.0 306.32626Z" fill-rule="nonzero"/><path fill="#ffc599" d="M437.19855 110.06366C440.5512 109.2785 443.92374 108.5355 447.31445 107.835014L531.0 306.32626Z" fill-rule="nonzero"/><path fill="#aedcba" d="M373.22394 131.30437C393.25626 122.455734 414.7351 115.32437 437.19855 110.06366L531.0 306.32626Z" fill-rule="nonzero"/><path fill="#ffe599" d="M312.1648 167.16866C330.11185 153.33939 350.6515 141.27501 373.22394 131.30437L531.0 306.32626Z" fill-rule="nonzero"/><path fill="#f7b4ae" d="M311.61707 167.59187C311.79938 167.45062 311.98193 167.30956 312.1648 167.16866L531.0 306.32626Z" fill-rule="nonzero"/><path fill="#b3cefb" d="M304.12616 173.62653C306.56738 171.5814 309.06482 169.56947 311.61707 167.59187L531.0 306.32626Z" fill-rule="nonzero"/><path fill="#ae8e6d" d="M404.29956 537.66144C301.11917 503.40375 235.35 430.61264 235.35 350.67374L235.35 306.32626C235.35 386.26514 301.11917 459.05624 404.29956 493.31396Z" fill-rule="nonzero"/><path fill="#f9cb9c" d="M404.29956 493.31396C321.65775 465.87543 261.8121 413.20627 242.21535 350.6664C222.61859 288.12653 245.47765 222.75887 304.12616 173.62653L531.0 306.32626Z" fill-rule="nonzero"/><path fill="#b36b36" d="M407.99707 538.8673C406.76062 538.4713 405.52808 538.06934 404.29956 537.66144L404.29956 493.31396C405.52808 493.72183 406.76062 494.1238 407.99707 494.51978Z" fill-rule="nonzero"/><path fill="#ff994d" d="M407.99707 494.51978C406.76062 494.1238 405.52808 493.72183 404.29956 493.31396L531.0 306.32626Z" fill-rule="nonzero"/><path fill="#4f885f" d="M423.77393 543.538C418.45163 542.08813 413.19046 540.5305 407.99707 538.8673L407.99707 494.51978C413.19046 496.18304 418.45163 497.7406 423.77393 499.19052Z" fill-rule="nonzero"/><path fill="#71c287" d="M423.77393 499.19052C418.45163 497.7406 413.19046 496.18304 407.99707 494.51978L531.0 306.32626Z" fill-rule="nonzero"/><path fill="#b09237" d="M427.5854 544.55524C426.31155 544.2223 425.04105 543.88324 423.77393 543.538L423.77393 499.19052C425.04105 499.53574 426.31155 499.8748 427.5854 500.20773Z" fill-rule="nonzero"/><path fill="#fcd04f" d="M427.5854 500.20773C426.31155 499.8748 425.04105 499.53574 423.77393 499.19052L531.0 306.32626Z" fill-rule="nonzero"/><path fill="#a85650" d="M428.35004 544.7542C428.09503 544.6882 427.84015 544.6218 427.5854 544.55524L427.5854 500.20773C427.84015 500.27432 428.09503 500.34064 428.35004 500.40674Z" fill-rule="nonzero"/><path fill="#f07b72" d="M428.35004 500.40674C428.09503 500.34064 427.84015 500.27432 427.5854 500.20773L531.0 306.32626Z" fill-rule="nonzero"/><path fill="#5677ad" d="M430.64874 545.3424C429.88135 545.14856 429.1151 544.9525 428.35004 544.7542L428.35004 500.40674C429.1151 500.605 429.88135 500.8011 430.64874 500.9949Z" fill-rule="nonzero"/><path fill="#7baaf7" d="M430.64874 500.9949C429.88135 500.8011 429.1151 500.605 428.35004 500.40674L531.0 306.32626Z" fill-rule="nonzero"/><path fill="#31848b" d="M434.49512 546.293C433.2099 545.98236 431.92773 545.66547 430.64874 545.3424L430.64874 500.9949C431.92773 501.318 433.2099 501.63486 434.49512 501.94556Z" fill-rule="nonzero"/><path fill="#46bdc6" d="M434.49512 501.94556C433.2099 501.63486 431.92773 501.318 430.64874 500.9949L531.0 306.32626Z" fill-rule="nonzero"/><path fill="#b34c01" d="M464.27463 552.2891C454.20523 550.6562 444.26508 548.6547 434.49512 546.293L434.49512 501.94556C444.26508 504.30725 454.20523 506.3087 464.27463 507.94162Z" fill-rule="nonzero"/><path fill="#ff6d01" d="M464.27463 507.94162C454.20523 506.3087 444.26508 504.30725 434.49512 501.94556L531.0 306.32626Z" fill-rule="nonzero"/><path fill="#24763a" d="M524.06616 557.57184C503.93063 557.24115 483.89606 555.47107 464.27463 552.2891L464.27463 507.94162C483.89606 511.12357 503.93063 512.8937 524.06616 513.2243Z" fill-rule="nonzero"/><path fill="#34a853" d="M524.06616 513.2243C503.93063 512.8937 483.89606 511.12357 464.27463 507.94162L531.0 306.32626Z" fill-rule="nonzero"/><path fill="#b08403" d="M529.77625 557.62695C527.8727 557.62146 525.96924 557.6031 524.06616 557.57184L524.06616 513.2243C525.96924 513.25555 527.8727 513.274 529.77625 513.2795Z" fill-rule="nonzero"/><path fill="#fbbc04" d="M529.77625 513.2795C527.8727 513.274 525.96924 513.25555 524.06616 513.2243L531.0 306.32626Z" fill-rule="nonzero"/><path fill="#a42f25" d="M574.48804 555.3776C559.6869 556.9184 544.74005 557.67035 529.77625 557.62695L529.77625 513.2795C544.74005 513.3228 559.6869 512.57086 574.48804 511.03012Z" fill-rule="nonzero"/><path fill="#ea4335" d="M574.48804 511.03012C559.6869 512.57086 544.74005 513.3228 529.77625 513.2795L531.0 306.32626Z" fill-rule="nonzero"/><path fill="#ffffff" d="M34.615623 54.85L34.615623 37.6625L41.053123 37.6625Q43.021873 37.6625 44.209373 38.19375Q45.396873 38.709373 46.06875 39.803123Q46.75625 40.88125 46.75625 42.06875Q46.75625 43.1625 46.146873 44.146873Q45.553123 45.115623 44.35 45.709373Q45.9125 46.1625 46.740623 47.271873Q47.584373 48.365623 47.584373 49.865623Q47.584373 51.06875 47.06875 52.115623Q46.56875 53.146873 45.81875 53.709373Q45.06875 54.271873 43.928123 54.56875Q42.803123 54.85 41.1625 54.85L34.615623 54.85ZM36.88125 44.88125L40.6 44.88125Q42.115623 44.88125 42.771873 44.69375Q43.63125 44.428123 44.06875 43.834373Q44.50625 43.240623 44.50625 42.334373Q44.50625 41.475 44.1 40.834373Q43.69375 40.178123 42.928123 39.94375Q42.1625 39.69375 40.31875 39.69375L36.88125 39.69375L36.88125 44.88125ZM36.88125 52.81875L41.1625 52.81875Q42.25625 52.81875 42.709373 52.740623Q43.490623 52.6 44.021873 52.271873Q44.553123 51.94375 44.88125 51.31875Q45.225 50.69375 45.225 49.865623Q45.225 48.9125 44.725 48.209373Q44.240623 47.490623 43.365623 47.209373Q42.490623 46.9125 40.85 46.9125L36.88125 46.9125L36.88125 52.81875ZM49.928123 49.334373L52.06875 49.146873Q52.225 50.428123 52.771873 51.25625Q53.334373 52.084373 54.50625 52.6Q55.678123 53.1 57.146873 53.1Q58.44375 53.1 59.44375 52.725Q60.44375 52.334373 60.928123 51.6625Q61.4125 50.975 61.4125 50.178123Q61.4125 49.38125 60.94375 48.771873Q60.475 48.1625 59.396873 47.75625Q58.709373 47.490623 56.334373 46.928123Q53.975 46.35 53.021873 45.85Q51.7875 45.209373 51.178123 44.25625Q50.584373 43.2875 50.584373 42.115623Q50.584373 40.803123 51.31875 39.678123Q52.06875 38.553123 53.475 37.975Q54.896873 37.38125 56.63125 37.38125Q58.5375 37.38125 59.990623 37.990623Q61.459373 38.6 62.240623 39.803123Q63.0375 40.990623 63.084373 42.50625L60.9125 42.678123Q60.740623 41.0375 59.725 40.209373Q58.709373 39.38125 56.725 39.38125Q54.6625 39.38125 53.709373 40.146873Q52.771873 40.896873 52.771873 41.959373Q52.771873 42.88125 53.44375 43.475Q54.1 44.084373 56.865623 44.709373Q59.646873 45.334373 60.678123 45.803123Q62.178123 46.490623 62.88125 47.553123Q63.6 48.615623 63.6 49.990623Q63.6 51.365623 62.81875 52.584373Q62.0375 53.7875 60.56875 54.475Q59.1 55.146873 57.25625 55.146873Q54.928123 55.146873 53.35 54.475Q51.771873 53.7875 50.865623 52.428123Q49.975 51.053123 49.928123 49.334373ZM66.70937 54.85L66.70937 37.6625L72.61562 37.6625Q74.63125 37.6625 75.67812 37.9125Q77.1625 38.25625 78.19375 39.146873Q79.55312 40.2875 80.225 42.084373Q80.9125 43.865623 80.9125 46.1625Q80.9125 48.115623 80.44375 49.63125Q79.99062 51.146873 79.27187 52.146873Q78.56875 53.13125 77.70937 53.69375Q76.86562 54.25625 75.6625 54.553123Q74.45937 54.85 72.89687 54.85L66.70937 54.85ZM68.975 52.81875L72.64687 52.81875Q74.35 52.81875 75.30312 52.50625Q76.27187 52.19375 76.85 51.615623Q77.6625 50.803123 78.11562 49.44375Q78.56875 48.06875 78.56875 46.13125Q78.56875 43.428123 77.67812 41.990623Q76.7875 40.5375 75.52187 40.053123Q74.61562 39.69375 72.58437 39.69375L68.975 39.69375L68.975 52.81875ZM82.61562 49.69375L82.61562 47.56875L89.1 47.56875L89.1 49.69375L82.61562 49.69375ZM90.86562 50.31875L92.975 50.0375Q93.33437 51.81875 94.20937 52.615623Q95.08437 53.4125 96.33437 53.4125Q97.81875 53.4125 98.83437 52.38125Q99.86562 51.35 99.86562 49.81875Q99.86562 48.365623 98.9125 47.428123Q97.975 46.475 96.50625 46.475Q95.9125 46.475 95.02187 46.709373L95.25625 44.865623Q95.45937 44.88125 95.6 44.88125Q96.94375 44.88125 98.02187 44.178123Q99.1 43.475 99.1 42.021873Q99.1 40.85 98.30312 40.1Q97.52187 39.334373 96.2875 39.334373Q95.05312 39.334373 94.225 40.115623Q93.4125 40.88125 93.17812 42.428123L91.06875 42.053123Q91.45937 39.928123 92.81875 38.771873Q94.19375 37.6 96.24062 37.6Q97.64687 37.6 98.81875 38.209373Q100.00625 38.803123 100.63125 39.85Q101.27187 40.896873 101.27187 42.06875Q101.27187 43.178123 100.6625 44.1Q100.06875 45.00625 98.89687 45.5375Q100.42812 45.896873 101.27187 47.00625Q102.11562 48.115623 102.11562 49.771873Q102.11562 52.021873 100.475 53.6Q98.83437 55.1625 96.31875 55.1625Q94.05312 55.1625 92.55312 53.81875Q91.06875 52.459373 90.86562 50.31875ZM103.61562 49.69375L103.61562 47.56875L110.1 47.56875L110.1 49.69375L103.61562 49.69375ZM124.95937 48.81875L127.24062 49.396873Q126.52187 52.19375 124.6625 53.678123Q122.80312 55.146873 120.11562 55.146873Q117.35 55.146873 115.6 54.021873Q113.86562 52.88125 112.95937 50.740623Q112.05312 48.584373 112.05312 46.13125Q112.05312 43.44375 113.06875 41.44375Q114.1 39.44375 115.99062 38.4125Q117.88125 37.38125 120.1625 37.38125Q122.74062 37.38125 124.49062 38.69375Q126.25625 40.00625 126.94375 42.38125L124.70937 42.9125Q124.1 41.0375 122.95937 40.178123Q121.83437 39.31875 120.11562 39.31875Q118.13125 39.31875 116.80312 40.271873Q115.475 41.225 114.92812 42.81875Q114.39687 44.4125 114.39687 46.115623Q114.39687 48.303123 115.02187 49.94375Q115.6625 51.584373 117.00625 52.396873Q118.36562 53.19375 119.92812 53.19375Q121.85 53.19375 123.1625 52.1Q124.49062 50.990623 124.95937 48.81875ZM129.38126 54.85L129.38126 37.6625L131.49063 37.6625L131.49063 54.85L129.38126 54.85ZM143.55313 53.31875Q142.38126 54.303123 141.2875 54.725Q140.20938 55.13125 138.975 55.13125Q136.92813 55.13125 135.81876 54.13125Q134.725 53.13125 134.725 51.56875Q134.725 50.646873 135.13126 49.896873Q135.55313 49.146873 136.225 48.69375Q136.89688 48.225 137.74063 47.990623Q138.36563 47.834373 139.61563 47.678123Q142.17813 47.365623 143.38126 46.94375Q143.39688 46.521873 143.39688 46.396873Q143.39688 45.115623 142.7875 44.584373Q141.99063 43.865623 140.39688 43.865623Q138.89688 43.865623 138.19376 44.396873Q137.49063 44.9125 137.14688 46.240623L135.08438 45.959373Q135.36563 44.63125 136.00626 43.81875Q136.64688 43.00625 137.86563 42.56875Q139.08438 42.115623 140.69376 42.115623Q142.2875 42.115623 143.2875 42.490623Q144.2875 42.865623 144.75626 43.44375Q145.225 44.00625 145.4125 44.88125Q145.50626 45.4125 145.50626 46.81875L145.50626 49.63125Q145.50626 52.56875 145.64688 53.35Q145.7875 54.13125 146.17813 54.85L143.975 54.85Q143.64688 54.19375 143.55313 53.31875ZM143.38126 48.6Q142.225 49.06875 139.92813 49.396873Q138.63126 49.584373 138.08438 49.81875Q137.55313 50.053123 137.25626 50.50625Q136.975 50.959373 136.975 51.50625Q136.975 52.35 137.6 52.9125Q138.24063 53.475 139.475 53.475Q140.69376 53.475 141.64688 52.94375Q142.6 52.4125 143.0375 51.490623Q143.38126 50.771873 143.38126 49.38125L143.38126 48.6ZM156.58438 54.85L156.58438 53.021873Q155.13126 55.13125 152.64688 55.13125Q151.5375 55.13125 150.58438 54.709373Q149.63126 54.2875 149.1625 53.646873Q148.70938 53.00625 148.52188 52.084373Q148.38126 51.459373 148.38126 50.115623L148.38126 42.396873L150.49063 42.396873L150.49063 49.303123Q150.49063 50.959373 150.63126 51.5375Q150.81876 52.365623 151.45938 52.85Q152.11563 53.31875 153.06876 53.31875Q154.00626 53.31875 154.83438 52.834373Q155.67813 52.334373 156.02188 51.50625Q156.36563 50.6625 156.36563 49.06875L156.36563 42.396873L158.475 42.396873L158.475 54.85L156.58438 54.85ZM161.58438 51.13125L163.67813 50.803123Q163.85 52.053123 164.64688 52.725Q165.45938 53.396873 166.89688 53.396873Q168.35 53.396873 169.05313 52.803123Q169.75626 52.209373 169.75626 51.4125Q169.75626 50.69375 169.13126 50.2875Q168.70938 50.00625 166.975 49.56875Q164.6625 48.990623 163.75626 48.56875Q162.86563 48.13125 162.39688 47.38125Q161.94376 46.615623 161.94376 45.709373Q161.94376 44.88125 162.31876 44.178123Q162.70938 43.459373 163.36563 42.990623Q163.85 42.63125 164.69376 42.38125Q165.55313 42.115623 166.52188 42.115623Q167.99063 42.115623 169.1 42.5375Q170.20938 42.959373 170.725 43.69375Q171.25626 44.4125 171.45938 45.615623L169.39688 45.896873Q169.25626 44.928123 168.58438 44.396873Q167.9125 43.85 166.67813 43.85Q165.225 43.85 164.6 44.334373Q163.975 44.81875 163.975 45.459373Q163.975 45.865623 164.24063 46.19375Q164.49063 46.5375 165.05313 46.75625Q165.36563 46.88125 166.9125 47.303123Q169.14688 47.896873 170.02188 48.2875Q170.9125 48.6625 171.4125 49.396873Q171.92813 50.115623 171.92813 51.19375Q171.92813 52.240623 171.30313 53.178123Q170.69376 54.115623 169.5375 54.63125Q168.38126 55.13125 166.9125 55.13125Q164.49063 55.13125 163.20938 54.13125Q161.94376 53.115623 161.58438 51.13125ZM182.95938 50.834373L185.13126 51.115623Q184.61563 53.021873 183.225 54.084373Q181.83438 55.13125 179.6625 55.13125Q176.92813 55.13125 175.31876 53.459373Q173.725 51.771873 173.725 48.725Q173.725 45.584373 175.33438 43.85Q176.95938 42.115623 179.5375 42.115623Q182.0375 42.115623 183.61563 43.81875Q185.20938 45.521873 185.20938 48.6Q185.20938 48.7875 185.19376 49.1625L175.9125 49.1625Q176.02188 51.209373 177.06876 52.303123Q178.11563 53.396873 179.67813 53.396873Q180.83438 53.396873 181.64688 52.7875Q182.475 52.178123 182.95938 50.834373ZM176.02188 47.428123L182.975 47.428123Q182.83438 45.865623 182.17813 45.06875Q181.17813 43.85 179.56876 43.85Q178.11563 43.85 177.11563 44.834373Q176.13126 45.803123 176.02188 47.428123Z" fill-rule="nonzero"/><path fill="#9e9e9e" d="M44.928123 83.81875L44.928123 85.85L33.584373 85.85Q33.553123 85.08437 33.81875 84.38125Q34.25625 83.225 35.209373 82.1Q36.1625 80.975 37.975 79.49062Q40.771873 77.19375 41.75625 75.86562Q42.740623 74.52187 42.740623 73.31875Q42.740623 72.06875 41.834373 71.20937Q40.94375 70.35 39.50625 70.35Q37.990623 70.35 37.06875 71.27187Q36.1625 72.17812 36.146873 73.7875L33.975 73.56875Q34.19375 71.14687 35.646873 69.88125Q37.1 68.6 39.553123 68.6Q42.021873 68.6 43.459373 69.975Q44.9125 71.33437 44.9125 73.36562Q44.9125 74.39687 44.490623 75.39687Q44.06875 76.39687 43.084373 77.50625Q42.115623 78.6 39.834373 80.52187Q37.94375 82.11562 37.396873 82.67812Q36.865623 83.24062 36.50625 83.81875L44.928123 83.81875ZM48.0375 85.85L48.0375 83.44375L50.428123 83.44375L50.428123 85.85L48.0375 85.85ZM64.92812 83.81875L64.92812 85.85L53.584373 85.85Q53.553123 85.08437 53.81875 84.38125Q54.25625 83.225 55.209373 82.1Q56.1625 80.975 57.975 79.49062Q60.771873 77.19375 61.75625 75.86562Q62.740623 74.52187 62.740623 73.31875Q62.740623 72.06875 61.834373 71.20937Q60.94375 70.35 59.50625 70.35Q57.990623 70.35 57.06875 71.27187Q56.1625 72.17812 56.146873 73.7875L53.975 73.56875Q54.19375 71.14687 55.646873 69.88125Q57.1 68.6 59.553123 68.6Q62.021873 68.6 63.459373 69.975Q64.9125 71.33437 64.9125 73.36562Q64.9125 74.39687 64.49062 75.39687Q64.06875 76.39687 63.084373 77.50625Q62.115623 78.6 59.834373 80.52187Q57.94375 82.11562 57.396873 82.67812Q56.865623 83.24062 56.50625 83.81875L64.92812 83.81875ZM67.24062 72.7875Q67.24062 70.95937 68.1625 69.67812Q69.1 68.38125 70.85 68.38125Q72.475 68.38125 73.5375 69.5375Q74.6 70.67812 74.6 72.92812Q74.6 75.1 73.52187 76.2875Q72.44375 77.45937 70.88125 77.45937Q69.31875 77.45937 68.27187 76.30312Q67.24062 75.13125 67.24062 72.7875ZM70.9125 69.83437Q70.13125 69.83437 69.6 70.52187Q69.08437 71.19375 69.08437 73.00625Q69.08437 74.6625 69.61562 75.33437Q70.14687 76.00625 70.9125 76.00625Q71.70937 76.00625 72.225 75.33437Q72.75625 74.64687 72.75625 72.83437Q72.75625 71.17812 72.225 70.50625Q71.69375 69.83437 70.9125 69.83437ZM70.92812 86.49062L80.31875 68.38125L82.0375 68.38125L72.67812 86.49062L70.92812 86.49062ZM78.35 81.81875Q78.35 79.95937 79.27187 78.67812Q80.20937 77.39687 81.975 77.39687Q83.6 77.39687 84.64687 78.55312Q85.70937 79.70937 85.70937 81.94375Q85.70937 84.13125 84.63125 85.31875Q83.56875 86.49062 81.99062 86.49062Q80.42812 86.49062 79.38125 85.31875Q78.35 84.14687 78.35 81.81875ZM82.0375 78.85Q81.24062 78.85 80.70937 79.5375Q80.19375 80.20937 80.19375 82.02187Q80.19375 83.6625 80.725 84.35Q81.25625 85.02187 82.02187 85.02187Q82.83437 85.02187 83.35 84.35Q83.88125 83.6625 83.88125 81.86562Q83.88125 80.19375 83.35 79.52187Q82.81875 78.85 82.0375 78.85Z" fill-rule="nonzero"/><path stroke="#757575" stroke-width="1.0" stroke-linecap="butt" d="M32.85 62.35L229.35 62.35L508.16187 110.37004" fill-rule="nonzero"/><path fill="#9e9e9e" d="M510.16187 110.37004C510.16187 109.26547 509.26645 108.37004 508.16187 108.37004C507.0573 108.37004 506.16187 109.26547 506.16187 110.37004C506.16187 111.47461 507.0573 112.37004 508.16187 112.37004C509.26645 112.37004 510.16187 111.47461 510.16187 110.37004" fill-rule="nonzero"/><path fill="#ffffff" d="M32.81875 113.85L39.4125 96.6625L41.865623 96.6625L48.896873 113.85L46.303123 113.85L44.303123 108.64687L37.115623 108.64687L35.225 113.85L32.81875 113.85ZM37.771873 106.7875L43.6 106.7875L41.803123 102.0375Q40.990623 99.86562 40.584373 98.475Q40.25625 100.13125 39.6625 101.75625L37.771873 106.7875ZM57.740623 107.11562L57.740623 105.1L65.02187 105.08437L65.02187 111.45937Q63.35 112.7875 61.56875 113.475Q59.7875 114.14687 57.9125 114.14687Q55.38125 114.14687 53.303123 113.06875Q51.240623 111.975 50.178123 109.92812Q49.13125 107.86562 49.13125 105.33437Q49.13125 102.83437 50.178123 100.6625Q51.225 98.49062 53.19375 97.44375Q55.1625 96.38125 57.725 96.38125Q59.6 96.38125 61.1 96.99062Q62.6 97.58437 63.459373 98.6625Q64.31875 99.74062 64.75625 101.475L62.709373 102.0375Q62.31875 100.725 61.740623 99.975Q61.178123 99.225 60.1 98.77187Q59.0375 98.31875 57.740623 98.31875Q56.178123 98.31875 55.0375 98.80312Q53.9125 99.27187 53.209373 100.05312Q52.521873 100.81875 52.13125 101.74062Q51.475 103.33437 51.475 105.19375Q51.475 107.49062 52.25625 109.0375Q53.053123 110.58437 54.56875 111.33437Q56.084373 112.08437 57.771873 112.08437Q59.25625 112.08437 60.6625 111.52187Q62.06875 110.95937 62.7875 110.30312L62.7875 107.11562L57.740623 107.11562ZM68.70937 113.85L68.70937 96.6625L75.17812 96.6625Q76.89687 96.6625 77.80312 96.83437Q79.06875 97.0375 79.9125 97.63125Q80.77187 98.225 81.2875 99.30312Q81.81875 100.36562 81.81875 101.63125Q81.81875 103.83437 80.4125 105.35Q79.02187 106.86562 75.38125 106.86562L70.975 106.86562L70.975 113.85L68.70937 113.85ZM70.975 104.83437L75.4125 104.83437Q77.61562 104.83437 78.5375 104.02187Q79.475 103.19375 79.475 101.70937Q79.475 100.63125 78.92812 99.86562Q78.38125 99.1 77.49062 98.85Q76.9125 98.69375 75.36562 98.69375L70.975 98.69375L70.975 104.83437ZM84.61562 113.85L84.61562 96.6625L86.88125 96.6625L86.88125 111.81875L95.35 111.81875L95.35 113.85L84.61562 113.85ZM96.61562 108.69375L96.61562 106.56875L103.1 106.56875L103.1 108.69375L96.61562 108.69375ZM104.86562 109.31875L106.975 109.0375Q107.33437 110.81875 108.20937 111.61562Q109.08437 112.4125 110.33437 112.4125Q111.81875 112.4125 112.83437 111.38125Q113.86562 110.35 113.86562 108.81875Q113.86562 107.36562 112.9125 106.42812Q111.975 105.475 110.50625 105.475Q109.9125 105.475 109.02187 105.70937L109.25625 103.86562Q109.45937 103.88125 109.6 103.88125Q110.94375 103.88125 112.02187 103.17812Q113.1 102.475 113.1 101.02187Q113.1 99.85 112.30312 99.1Q111.52187 98.33437 110.2875 98.33437Q109.05312 98.33437 108.225 99.11562Q107.4125 99.88125 107.17812 101.42812L105.06875 101.05312Q105.45937 98.92812 106.81875 97.77187Q108.19375 96.6 110.24062 96.6Q111.64687 96.6 112.81875 97.20937Q114.00625 97.80312 114.63125 98.85Q115.27187 99.89687 115.27187 101.06875Q115.27187 102.17812 114.6625 103.1Q114.06875 104.00625 112.89687 104.5375Q114.42812 104.89687 115.27187 106.00625Q116.11562 107.11562 116.11562 108.77187Q116.11562 111.02187 114.475 112.6Q112.83437 114.1625 110.31875 114.1625Q108.05312 114.1625 106.55312 112.81875Q105.06875 111.45937 104.86562 109.31875ZM119.0375 113.85L119.0375 111.44375L121.42812 111.44375L121.42812 113.85L119.0375 113.85ZM124.85 105.38125Q124.85 102.33437 125.475 100.475Q126.1 98.61562 127.33437 97.61562Q128.56876 96.6 130.44376 96.6Q131.83438 96.6 132.86563 97.1625Q133.9125 97.70937 134.58438 98.75625Q135.27188 99.80312 135.6625 101.31875Q136.05313 102.81875 136.05313 105.38125Q136.05313 108.39687 135.42813 110.25625Q134.80313 112.11562 133.56876 113.13125Q132.33438 114.14687 130.44376 114.14687Q127.95937 114.14687 126.55312 112.36562Q124.85 110.20937 124.85 105.38125ZM127.02187 105.38125Q127.02187 109.6 128.00626 111.00625Q128.99063 112.4125 130.44376 112.4125Q131.89688 112.4125 132.88126 111.00625Q133.88126 109.6 133.88126 105.38125Q133.88126 101.13125 132.88126 99.74062Q131.89688 98.35 130.42813 98.35Q128.975 98.35 128.1 99.56875Q127.02187 101.14687 127.02187 105.38125Z" fill-rule="nonzero"/><path fill="#9e9e9e" d="M41.7875 144.85L39.678123 144.85L39.678123 131.4125Q38.928123 132.13126 37.678123 132.86563Q36.44375 133.58438 35.459373 133.94376L35.459373 131.9125Q37.240623 131.08438 38.553123 129.89688Q39.88125 128.70938 40.428123 127.600006L41.7875 127.600006L41.7875 144.85ZM48.0375 144.85L48.0375 142.44376L50.428123 142.44376L50.428123 144.85L48.0375 144.85ZM61.7875 144.85L59.678123 144.85L59.678123 131.4125Q58.928123 132.13126 57.678123 132.86563Q56.44375 133.58438 55.459373 133.94376L55.459373 131.9125Q57.240623 131.08438 58.553123 129.89688Q59.88125 128.70938 60.428123 127.600006L61.7875 127.600006L61.7875 144.85ZM67.24062 131.7875Q67.24062 129.95938 68.1625 128.67813Q69.1 127.381256 70.85 127.381256Q72.475 127.381256 73.5375 128.5375Q74.6 129.67813 74.6 131.92813Q74.6 134.1 73.52187 135.2875Q72.44375 136.45938 70.88125 136.45938Q69.31875 136.45938 68.27187 135.30313Q67.24062 134.13126 67.24062 131.7875ZM70.9125 128.83438Q70.13125 128.83438 69.6 129.52188Q69.08437 130.19376 69.08437 132.00626Q69.08437 133.6625 69.61562 134.33438Q70.14687 135.00626 70.9125 135.00626Q71.70937 135.00626 72.225 134.33438Q72.75625 133.64688 72.75625 131.83438Q72.75625 130.17813 72.225 129.50626Q71.69375 128.83438 70.9125 128.83438ZM70.92812 145.49063L80.31875 127.381256L82.0375 127.381256L72.67812 145.49063L70.92812 145.49063ZM78.35 140.81876Q78.35 138.95938 79.27187 137.67813Q80.20937 136.39688 81.975 136.39688Q83.6 136.39688 84.64687 137.55313Q85.70937 138.70938 85.70937 140.94376Q85.70937 143.13126 84.63125 144.31876Q83.56875 145.49063 81.99062 145.49063Q80.42812 145.49063 79.38125 144.31876Q78.35 143.14688 78.35 140.81876ZM82.0375 137.85Q81.24062 137.85 80.70937 138.5375Q80.19375 139.20938 80.19375 141.02188Q80.19375 142.6625 80.725 143.35Q81.25625 144.02188 82.02187 144.02188Q82.83437 144.02188 83.35 143.35Q83.88125 142.6625 83.88125 140.86563Q83.88125 139.19376 83.35 138.52188Q82.81875 137.85 82.0375 137.85Z" fill-rule="nonzero"/><path stroke="#757575" stroke-width="1.0" stroke-linecap="butt" d="M32.85 121.35L229.35 121.35L480.13034 112.97055" fill-rule="nonzero"/><path fill="#9e9e9e" d="M482.13034 112.97055C482.13034 111.86598 481.23492 110.97055 480.13034 110.97055C479.0258 110.97055 478.13034 111.86598 478.13034 112.97055C478.13034 114.07512 479.0258 114.97055 480.13034 114.97055C481.23492 114.97055 482.13034 114.07512 482.13034 112.97055" fill-rule="nonzero"/><path fill="#ffffff" d="M32.81875 172.85L39.4125 155.6625L41.865623 155.6625L48.896873 172.85L46.303123 172.85L44.303123 167.64688L37.115623 167.64688L35.225 172.85L32.81875 172.85ZM37.771873 165.7875L43.6 165.7875L41.803123 161.0375Q40.990623 158.86563 40.584373 157.475Q40.25625 159.13126 39.6625 160.75626L37.771873 165.7875ZM49.428123 177.61563L49.428123 160.39688L51.35 160.39688L51.35 162.02188Q52.0375 161.06876 52.88125 160.6Q53.740623 160.11563 54.959373 160.11563Q56.553123 160.11563 57.771873 160.94376Q58.990623 161.75626 59.615623 163.25626Q60.240623 164.75626 60.240623 166.5375Q60.240623 168.44376 59.553123 169.975Q58.865623 171.50626 57.553123 172.31876Q56.25625 173.13126 54.81875 173.13126Q53.75625 173.13126 52.9125 172.69376Q52.084373 172.24063 51.5375 171.55313L51.5375 177.61563L49.428123 177.61563ZM51.35 166.69376Q51.35 169.1 52.31875 170.25626Q53.2875 171.39688 54.678123 171.39688Q56.084373 171.39688 57.084373 170.20938Q58.084373 169.02188 58.084373 166.52188Q58.084373 164.14688 57.1 162.95938Q56.13125 161.77188 54.771873 161.77188Q53.4125 161.77188 52.38125 163.0375Q51.35 164.2875 51.35 166.69376ZM71.55312 171.31876Q70.38125 172.30313 69.2875 172.725Q68.20937 173.13126 66.975 173.13126Q64.92812 173.13126 63.81875 172.13126Q62.725 171.13126 62.725 169.56876Q62.725 168.64688 63.13125 167.89688Q63.553123 167.14688 64.225 166.69376Q64.89687 166.225 65.74062 165.99063Q66.36562 165.83438 67.61562 165.67813Q70.17812 165.36563 71.38125 164.94376Q71.39687 164.52188 71.39687 164.39688Q71.39687 163.11563 70.7875 162.58438Q69.99062 161.86563 68.39687 161.86563Q66.89687 161.86563 66.19375 162.39688Q65.49062 162.9125 65.14687 164.24063L63.084373 163.95938Q63.365623 162.63126 64.00625 161.81876Q64.64687 161.00626 65.86562 160.56876Q67.08437 160.11563 68.69375 160.11563Q70.2875 160.11563 71.2875 160.49063Q72.2875 160.86563 72.75625 161.44376Q73.225 162.00626 73.4125 162.88126Q73.50625 163.4125 73.50625 164.81876L73.50625 167.63126Q73.50625 170.56876 73.64687 171.35Q73.7875 172.13126 74.17812 172.85L71.975 172.85Q71.64687 172.19376 71.55312 171.31876ZM71.38125 166.6Q70.225 167.06876 67.92812 167.39688Q66.63125 167.58438 66.08437 167.81876Q65.55312 168.05313 65.25625 168.50626Q64.975 168.95938 64.975 169.50626Q64.975 170.35 65.6 170.9125Q66.24062 171.475 67.475 171.475Q68.69375 171.475 69.64687 170.94376Q70.6 170.4125 71.0375 169.49063Q71.38125 168.77188 71.38125 167.38126L71.38125 166.6ZM84.55312 168.2875L86.63125 168.55313Q86.2875 170.70938 84.88125 171.92813Q83.49062 173.13126 81.44375 173.13126Q78.89687 173.13126 77.33437 171.45938Q75.7875 169.7875 75.7875 166.67813Q75.7875 164.6625 76.45937 163.14688Q77.13125 161.63126 78.49062 160.88126Q79.85 160.11563 81.45937 160.11563Q83.49062 160.11563 84.77187 161.14688Q86.06875 162.17813 86.42812 164.05313L84.38125 164.38126Q84.08437 163.11563 83.33437 162.49063Q82.6 161.85 81.5375 161.85Q79.94375 161.85 78.94375 163.00626Q77.95937 164.14688 77.95937 166.61563Q77.95937 169.11563 78.9125 170.25626Q79.88125 171.39688 81.42812 171.39688Q82.6625 171.39688 83.49062 170.63126Q84.33437 169.86563 84.55312 168.2875ZM88.42812 172.85L88.42812 155.6625L90.5375 155.6625L90.5375 161.83438Q92.02187 160.11563 94.27187 160.11563Q95.64687 160.11563 96.6625 160.6625Q97.69375 161.20938 98.13125 162.17813Q98.56875 163.13126 98.56875 164.95938L98.56875 172.85L96.45937 172.85L96.45937 164.95938Q96.45937 163.38126 95.77187 162.6625Q95.08437 161.94376 93.83437 161.94376Q92.89687 161.94376 92.06875 162.42813Q91.24062 162.9125 90.88125 163.74063Q90.5375 164.56876 90.5375 166.0375L90.5375 172.85L88.42812 172.85ZM110.95937 168.83438L113.13125 169.11563Q112.61562 171.02188 111.225 172.08438Q109.83437 173.13126 107.6625 173.13126Q104.92812 173.13126 103.31875 171.45938Q101.725 169.77188 101.725 166.725Q101.725 163.58438 103.33437 161.85Q104.95937 160.11563 107.5375 160.11563Q110.0375 160.11563 111.61562 161.81876Q113.20937 163.52188 113.20937 166.6Q113.20937 166.7875 113.19375 167.1625L103.9125 167.1625Q104.02187 169.20938 105.06875 170.30313Q106.11562 171.39688 107.67812 171.39688Q108.83437 171.39688 109.64687 170.7875Q110.475 170.17813 110.95937 168.83438ZM104.02187 165.42813L110.975 165.42813Q110.83437 163.86563 110.17812 163.06876Q109.17812 161.85 107.56875 161.85Q106.11562 161.85 105.11562 162.83438Q104.13125 163.80313 104.02187 165.42813ZM114.61562 167.69376L114.61562 165.56876L121.1 165.56876L121.1 167.69376L114.61562 167.69376ZM133.92813 170.81876L133.92813 172.85L122.58437 172.85Q122.55312 172.08438 122.81875 171.38126Q123.25625 170.225 124.20937 169.1Q125.1625 167.975 126.975 166.49063Q129.77188 164.19376 130.75626 162.86563Q131.74063 161.52188 131.74063 160.31876Q131.74063 159.06876 130.83438 158.20938Q129.94376 157.35 128.50626 157.35Q126.99062 157.35 126.06875 158.27188Q125.1625 159.17813 125.14687 160.7875L122.975 160.56876Q123.19375 158.14688 124.64687 156.88126Q126.1 155.6 128.55313 155.6Q131.02188 155.6 132.45938 156.975Q133.9125 158.33438 133.9125 160.36563Q133.9125 161.39688 133.49063 162.39688Q133.06876 163.39688 132.08438 164.50626Q131.11563 165.6 128.83438 167.52188Q126.94375 169.11563 126.39687 169.67813Q125.86562 170.24063 125.50625 170.81876L133.92813 170.81876ZM137.0375 172.85L137.0375 170.44376L139.42813 170.44376L139.42813 172.85L137.0375 172.85ZM142.85 164.38126Q142.85 161.33438 143.475 159.475Q144.1 157.61563 145.33438 156.61563Q146.56876 155.6 148.44376 155.6Q149.83438 155.6 150.86563 156.1625Q151.9125 156.70938 152.58438 157.75626Q153.27188 158.80313 153.6625 160.31876Q154.05313 161.81876 154.05313 164.38126Q154.05313 167.39688 153.42813 169.25626Q152.80313 171.11563 151.56876 172.13126Q150.33438 173.14688 148.44376 173.14688Q145.95938 173.14688 144.55313 171.36563Q142.85 169.20938 142.85 164.38126ZM145.02188 164.38126Q145.02188 168.6 146.00626 170.00626Q146.99063 171.4125 148.44376 171.4125Q149.89688 171.4125 150.88126 170.00626Q151.88126 168.6 151.88126 164.38126Q151.88126 160.13126 150.88126 158.74063Q149.89688 157.35 148.42813 157.35Q146.975 157.35 146.1 158.56876Q145.02188 160.14688 145.02188 164.38126Z" fill-rule="nonzero"/><path fill="#9e9e9e" d="M33.865623 199.31876L35.975 199.0375Q36.334373 200.81876 37.209373 201.61563Q38.084373 202.4125 39.334373 202.4125Q40.81875 202.4125 41.834373 201.38126Q42.865623 200.35 42.865623 198.81876Q42.865623 197.36563 41.9125 196.42813Q40.975 195.475 39.50625 195.475Q38.9125 195.475 38.021873 195.70938L38.25625 193.86563Q38.459373 193.88126 38.6 193.88126Q39.94375 193.88126 41.021873 193.17813Q42.1 192.475 42.1 191.02188Q42.1 189.85 41.303123 189.1Q40.521873 188.33438 39.2875 188.33438Q38.053123 188.33438 37.225 189.11563Q36.4125 189.88126 36.178123 191.42813L34.06875 191.05313Q34.459373 188.92813 35.81875 187.77188Q37.19375 186.6 39.240623 186.6Q40.646873 186.6 41.81875 187.20938Q43.00625 187.80313 43.63125 188.85Q44.271873 189.89688 44.271873 191.06876Q44.271873 192.17813 43.6625 193.1Q43.06875 194.00626 41.896873 194.5375Q43.428123 194.89688 44.271873 196.00626Q45.115623 197.11563 45.115623 198.77188Q45.115623 201.02188 43.475 202.6Q41.834373 204.1625 39.31875 204.1625Q37.053123 204.1625 35.553123 202.81876Q34.06875 201.45938 33.865623 199.31876ZM48.0375 203.85L48.0375 201.44376L50.428123 201.44376L50.428123 203.85L48.0375 203.85ZM57.1 194.5375Q55.7875 194.05313 55.146873 193.1625Q54.521873 192.27188 54.521873 191.02188Q54.521873 189.14688 55.865623 187.88126Q57.209373 186.6 59.44375 186.6Q61.69375 186.6 63.06875 187.9125Q64.44375 189.20938 64.44375 191.08438Q64.44375 192.2875 63.81875 193.17813Q63.19375 194.05313 61.9125 194.5375Q63.490623 195.05313 64.31875 196.20938Q65.14687 197.35 65.14687 198.94376Q65.14687 201.14688 63.584373 202.64688Q62.021873 204.14688 59.490623 204.14688Q56.94375 204.14688 55.38125 202.64688Q53.81875 201.13126 53.81875 198.88126Q53.81875 197.20938 54.6625 196.08438Q55.521873 194.94376 57.1 194.5375ZM56.678123 190.95938Q56.678123 192.17813 57.459373 192.95938Q58.240623 193.725 59.490623 193.725Q60.709373 193.725 61.490623 192.95938Q62.271873 192.19376 62.271873 191.06876Q62.271873 189.9125 61.459373 189.13126Q60.6625 188.33438 59.475 188.33438Q58.271873 188.33438 57.475 189.11563Q56.678123 189.88126 56.678123 190.95938ZM55.990623 198.89688Q55.990623 199.7875 56.4125 200.63126Q56.85 201.475 57.69375 201.94376Q58.5375 202.4125 59.50625 202.4125Q61.021873 202.4125 62.00625 201.44376Q62.990623 200.45938 62.990623 198.95938Q62.990623 197.44376 61.975 196.44376Q60.959373 195.44376 59.44375 195.44376Q57.94375 195.44376 56.959373 196.42813Q55.990623 197.4125 55.990623 198.89688ZM67.24062 190.7875Q67.24062 188.95938 68.1625 187.67813Q69.1 186.38126 70.85 186.38126Q72.475 186.38126 73.5375 187.5375Q74.6 188.67813 74.6 190.92813Q74.6 193.1 73.52187 194.2875Q72.44375 195.45938 70.88125 195.45938Q69.31875 195.45938 68.27187 194.30313Q67.24062 193.13126 67.24062 190.7875ZM70.9125 187.83438Q70.13125 187.83438 69.6 188.52188Q69.08437 189.19376 69.08437 191.00626Q69.08437 192.6625 69.61562 193.33438Q70.14687 194.00626 70.9125 194.00626Q71.70937 194.00626 72.225 193.33438Q72.75625 192.64688 72.75625 190.83438Q72.75625 189.17813 72.225 188.50626Q71.69375 187.83438 70.9125 187.83438ZM70.92812 204.49063L80.31875 186.38126L82.0375 186.38126L72.67812 204.49063L70.92812 204.49063ZM78.35 199.81876Q78.35 197.95938 79.27187 196.67813Q80.20937 195.39688 81.975 195.39688Q83.6 195.39688 84.64687 196.55313Q85.70937 197.70938 85.70937 199.94376Q85.70937 202.13126 84.63125 203.31876Q83.56875 204.49063 81.99062 204.49063Q80.42812 204.49063 79.38125 203.31876Q78.35 202.14688 78.35 199.81876ZM82.0375 196.85Q81.24062 196.85 80.70937 197.5375Q80.19375 198.20938 80.19375 200.02188Q80.19375 201.6625 80.725 202.35Q81.25625 203.02188 82.02187 203.02188Q82.83437 203.02188 83.35 202.35Q83.88125 201.6625 83.88125 199.86563Q83.88125 198.19376 83.35 197.52188Q82.81875 196.85 82.0375 196.85Z" fill-rule="nonzero"/><path stroke="#757575" stroke-width="1.0" stroke-linecap="butt" d="M32.85 180.35L229.35 180.35L410.63458 128.68793" fill-rule="nonzero"/><path fill="#9e9e9e" d="M412.63458 128.68793C412.63458 127.58336 411.73917 126.68793 410.63458 126.68793C409.53003 126.68793 408.63458 127.58336 408.63458 128.68793C408.63458 129.7925 409.53003 130.68793 410.63458 130.68793C411.73917 130.68793 412.63458 129.7925 412.63458 128.68793" fill-rule="nonzero"/><path fill="#ffffff" d="M42.740623 225.11563L42.740623 223.1L50.021873 223.08438L50.021873 229.45938Q48.35 230.7875 46.56875 231.475Q44.7875 232.14688 42.9125 232.14688Q40.38125 232.14688 38.303123 231.06876Q36.240623 229.975 35.178123 227.92813Q34.13125 225.86563 34.13125 223.33438Q34.13125 220.83438 35.178123 218.6625Q36.225 216.49063 38.19375 215.44376Q40.1625 214.38126 42.725 214.38126Q44.6 214.38126 46.1 214.99063Q47.6 215.58438 48.459373 216.6625Q49.31875 217.74063 49.75625 219.475L47.709373 220.0375Q47.31875 218.725 46.740623 217.975Q46.178123 217.225 45.1 216.77188Q44.0375 216.31876 42.740623 216.31876Q41.178123 216.31876 40.0375 216.80313Q38.9125 217.27188 38.209373 218.05313Q37.521873 218.81876 37.13125 219.74063Q36.475 221.33438 36.475 223.19376Q36.475 225.49063 37.25625 227.0375Q38.053123 228.58438 39.56875 229.33438Q41.084373 230.08438 42.771873 230.08438Q44.25625 230.08438 45.6625 229.52188Q47.06875 228.95938 47.7875 228.30313L47.7875 225.11563L42.740623 225.11563ZM53.709373 231.85L53.709373 214.6625L60.178123 214.6625Q61.896873 214.6625 62.803123 214.83438Q64.06875 215.0375 64.9125 215.63126Q65.77187 216.225 66.2875 217.30313Q66.81875 218.36563 66.81875 219.63126Q66.81875 221.83438 65.4125 223.35Q64.02187 224.86563 60.38125 224.86563L55.975 224.86563L55.975 231.85L53.709373 231.85ZM55.975 222.83438L60.4125 222.83438Q62.615623 222.83438 63.5375 222.02188Q64.475 221.19376 64.475 219.70938Q64.475 218.63126 63.928123 217.86563Q63.38125 217.1 62.490623 216.85Q61.9125 216.69376 60.365623 216.69376L55.975 216.69376L55.975 222.83438ZM69.61562 231.85L69.61562 214.6625L71.88125 214.6625L71.88125 229.81876L80.35 229.81876L80.35 231.85L69.61562 231.85ZM81.61562 226.69376L81.61562 224.56876L88.1 224.56876L88.1 226.69376L81.61562 226.69376ZM89.86562 227.31876L91.975 227.0375Q92.33437 228.81876 93.20937 229.61563Q94.08437 230.4125 95.33437 230.4125Q96.81875 230.4125 97.83437 229.38126Q98.86562 228.35 98.86562 226.81876Q98.86562 225.36563 97.9125 224.42813Q96.975 223.475 95.50625 223.475Q94.9125 223.475 94.02187 223.70938L94.25625 221.86563Q94.45937 221.88126 94.6 221.88126Q95.94375 221.88126 97.02187 221.17813Q98.1 220.475 98.1 219.02188Q98.1 217.85 97.30312 217.1Q96.52187 216.33438 95.2875 216.33438Q94.05312 216.33438 93.225 217.11563Q92.4125 217.88126 92.17812 219.42813L90.06875 219.05313Q90.45937 216.92813 91.81875 215.77188Q93.19375 214.6 95.24062 214.6Q96.64687 214.6 97.81875 215.20938Q99.00625 215.80313 99.63125 216.85Q100.27187 217.89688 100.27187 219.06876Q100.27187 220.17813 99.6625 221.1Q99.06875 222.00626 97.89687 222.5375Q99.42812 222.89688 100.27187 224.00626Q101.11562 225.11563 101.11562 226.77188Q101.11562 229.02188 99.475 230.6Q97.83437 232.1625 95.31875 232.1625Q93.05312 232.1625 91.55312 230.81876Q90.06875 229.45938 89.86562 227.31876ZM104.0375 231.85L104.0375 229.44376L106.42812 229.44376L106.42812 231.85L104.0375 231.85ZM109.85 223.38126Q109.85 220.33438 110.475 218.475Q111.1 216.61563 112.33437 215.61563Q113.56875 214.6 115.44375 214.6Q116.83437 214.6 117.86562 215.1625Q118.9125 215.70938 119.58437 216.75626Q120.27187 217.80313 120.6625 219.31876Q121.05312 220.81876 121.05312 223.38126Q121.05312 226.39688 120.42812 228.25626Q119.80312 230.11563 118.56875 231.13126Q117.33437 232.14688 115.44375 232.14688Q112.95937 232.14688 111.55312 230.36563Q109.85 228.20938 109.85 223.38126ZM112.02187 223.38126Q112.02187 227.6 113.00625 229.00626Q113.99062 230.4125 115.44375 230.4125Q116.89687 230.4125 117.88125 229.00626Q118.88125 227.6 118.88125 223.38126Q118.88125 219.13126 117.88125 217.74063Q116.89687 216.35 115.42812 216.35Q113.975 216.35 113.1 217.56876Q112.02187 219.14688 112.02187 223.38126Z" fill-rule="nonzero"/><path fill="#9e9e9e" d="M40.615623 262.85L40.615623 258.74063L33.1625 258.74063L33.1625 256.80313L40.990623 245.6625L42.725 245.6625L42.725 256.80313L45.0375 256.80313L45.0375 258.74063L42.725 258.74063L42.725 262.85L40.615623 262.85ZM40.615623 256.80313L40.615623 249.05313L35.225 256.80313L40.615623 256.80313ZM48.0375 262.85L48.0375 260.44376L50.428123 260.44376L50.428123 262.85L48.0375 262.85ZM53.865623 258.31876L55.975 258.0375Q56.334373 259.81876 57.209373 260.61563Q58.084373 261.4125 59.334373 261.4125Q60.81875 261.4125 61.834373 260.38126Q62.865623 259.35 62.865623 257.81876Q62.865623 256.36563 61.9125 255.42813Q60.975 254.475 59.50625 254.475Q58.9125 254.475 58.021873 254.70938L58.25625 252.86563Q58.459373 252.88126 58.6 252.88126Q59.94375 252.88126 61.021873 252.17813Q62.1 251.475 62.1 250.02188Q62.1 248.85 61.303123 248.1Q60.521873 247.33438 59.2875 247.33438Q58.053123 247.33438 57.225 248.11563Q56.4125 248.88126 56.178123 250.42813L54.06875 250.05313Q54.459373 247.92813 55.81875 246.77188Q57.19375 245.6 59.240623 245.6Q60.646873 245.6 61.81875 246.20938Q63.00625 246.80313 63.63125 247.85Q64.27187 248.89688 64.27187 250.06876Q64.27187 251.17813 63.6625 252.1Q63.06875 253.00626 61.896873 253.5375Q63.428123 253.89688 64.27187 255.00626Q65.11562 256.11563 65.11562 257.77188Q65.11562 260.02188 63.475 261.6Q61.834373 263.1625 59.31875 263.1625Q57.053123 263.1625 55.553123 261.81876Q54.06875 260.45938 53.865623 258.31876ZM67.24062 249.7875Q67.24062 247.95938 68.1625 246.67813Q69.1 245.38126 70.85 245.38126Q72.475 245.38126 73.5375 246.5375Q74.6 247.67813 74.6 249.92813Q74.6 252.1 73.52187 253.2875Q72.44375 254.45938 70.88125 254.45938Q69.31875 254.45938 68.27187 253.30313Q67.24062 252.13126 67.24062 249.7875ZM70.9125 246.83438Q70.13125 246.83438 69.6 247.52188Q69.08437 248.19376 69.08437 250.00626Q69.08437 251.6625 69.61562 252.33438Q70.14687 253.00626 70.9125 253.00626Q71.70937 253.00626 72.225 252.33438Q72.75625 251.64688 72.75625 249.83438Q72.75625 248.17813 72.225 247.50626Q71.69375 246.83438 70.9125 246.83438ZM70.92812 263.49063L80.31875 245.38126L82.0375 245.38126L72.67812 263.49063L70.92812 263.49063ZM78.35 258.81876Q78.35 256.95938 79.27187 255.67813Q80.20937 254.39688 81.975 254.39688Q83.6 254.39688 84.64687 255.55313Q85.70937 256.70938 85.70937 258.94376Q85.70937 261.13126 84.63125 262.31876Q83.56875 263.49063 81.99062 263.49063Q80.42812 263.49063 79.38125 262.31876Q78.35 261.14688 78.35 258.81876ZM82.0375 255.85Q81.24062 255.85 80.70937 256.5375Q80.19375 257.20938 80.19375 259.02188Q80.19375 260.6625 80.725 261.35Q81.25625 262.02188 82.02187 262.02188Q82.83437 262.02188 83.35 261.35Q83.88125 260.6625 83.88125 258.86563Q83.88125 257.19376 83.35 256.52188Q82.81875 255.85 82.0375 255.85Z" fill-rule="nonzero"/><path stroke="#757575" stroke-width="1.0" stroke-linecap="butt" d="M32.85 239.35L229.35 239.35L350.46185 155.71635" fill-rule="nonzero"/><path fill="#9e9e9e" d="M352.46185 155.71635C352.46185 154.61179 351.5664 153.71635 350.46185 153.71635C349.35727 153.71635 348.46185 154.61179 348.46185 155.71635C348.46185 156.82092 349.35727 157.71635 350.46185 157.71635C351.5664 157.71635 352.46185 156.82092 352.46185 155.71635" fill-rule="nonzero"/><path fill="#ffffff" d="M33.615623 335.79315L33.615623 333.66815L40.1 333.66815L40.1 335.79315L33.615623 335.79315Z" fill-rule="nonzero"/><path fill="#9e9e9e" d="M44.928123 369.91815L44.928123 371.9494L33.584373 371.9494Q33.553123 371.18378 33.81875 370.48065Q34.25625 369.3244 35.209373 368.1994Q36.1625 367.0744 37.975 365.59003Q40.771873 363.29315 41.75625 361.96503Q42.740623 360.62128 42.740623 359.41815Q42.740623 358.16815 41.834373 357.30878Q40.94375 356.4494 39.50625 356.4494Q37.990623 356.4494 37.06875 357.37128Q36.1625 358.27753 36.146873 359.8869L33.975 359.66815Q34.19375 357.24628 35.646873 355.98065Q37.1 354.6994 39.553123 354.6994Q42.021873 354.6994 43.459373 356.0744Q44.9125 357.43378 44.9125 359.46503Q44.9125 360.49628 44.490623 361.49628Q44.06875 362.49628 43.084373 363.60565Q42.115623 364.6994 39.834373 366.62128Q37.94375 368.21503 37.396873 368.77753Q36.865623 369.34003 36.50625 369.91815L44.928123 369.91815ZM47.1625 367.98065L49.19375 367.79315Q49.44375 369.21503 50.1625 369.87128Q50.896873 370.5119 52.0375 370.5119Q53.00625 370.5119 53.740623 370.0744Q54.475 369.62128 54.94375 368.87128Q55.4125 368.12128 55.725 366.85565Q56.053123 365.59003 56.053123 364.27753Q56.053123 364.1369 56.0375 363.85565Q55.396873 364.87128 54.303123 365.49628Q53.209373 366.12128 51.928123 366.12128Q49.803123 366.12128 48.31875 364.5744Q46.85 363.02753 46.85 360.49628Q46.85 357.8869 48.38125 356.29315Q49.928123 354.6994 52.25625 354.6994Q53.928123 354.6994 55.31875 355.60565Q56.709373 356.49628 57.428123 358.16815Q58.146873 359.84003 58.146873 363.0119Q58.146873 366.29315 57.428123 368.24628Q56.709373 370.1994 55.303123 371.23065Q53.896873 372.24628 51.990623 372.24628Q49.975 372.24628 48.69375 371.12128Q47.428123 369.99628 47.1625 367.98065ZM55.803123 360.3869Q55.803123 358.5744 54.834373 357.5119Q53.865623 356.4494 52.50625 356.4494Q51.1 356.4494 50.053123 357.60565Q49.021873 358.74628 49.021873 360.5744Q49.021873 362.21503 50.00625 363.24628Q50.990623 364.2619 52.44375 364.2619Q53.9125 364.2619 54.85 363.24628Q55.803123 362.21503 55.803123 360.3869ZM61.0375 371.9494L61.0375 369.54315L63.428123 369.54315L63.428123 371.9494L61.0375 371.9494ZM66.85 363.48065Q66.85 360.43378 67.475 358.5744Q68.1 356.71503 69.33437 355.71503Q70.56875 354.6994 72.44375 354.6994Q73.83437 354.6994 74.86562 355.2619Q75.9125 355.80878 76.58437 356.85565Q77.27187 357.90253 77.6625 359.41815Q78.05312 360.91815 78.05312 363.48065Q78.05312 366.49628 77.42812 368.35565Q76.80312 370.21503 75.56875 371.23065Q74.33437 372.24628 72.44375 372.24628Q69.95937 372.24628 68.55312 370.46503Q66.85 368.30878 66.85 363.48065ZM69.02187 363.48065Q69.02187 367.6994 70.00625 369.10565Q70.99062 370.5119 72.44375 370.5119Q73.89687 370.5119 74.88125 369.10565Q75.88125 367.6994 75.88125 363.48065Q75.88125 359.23065 74.88125 357.84003Q73.89687 356.4494 72.42812 356.4494Q70.975 356.4494 70.1 357.66815Q69.02187 359.24628 69.02187 363.48065ZM80.24062 358.8869Q80.24062 357.05878 81.1625 355.77753Q82.1 354.48065 83.85 354.48065Q85.475 354.48065 86.5375 355.6369Q87.6 356.77753 87.6 359.02753Q87.6 361.1994 86.52187 362.3869Q85.44375 363.55878 83.88125 363.55878Q82.31875 363.55878 81.27187 362.40253Q80.24062 361.23065 80.24062 358.8869ZM83.9125 355.93378Q83.13125 355.93378 82.6 356.62128Q82.08437 357.29315 82.08437 359.10565Q82.08437 360.7619 82.61562 361.43378Q83.14687 362.10565 83.9125 362.10565Q84.70937 362.10565 85.225 361.43378Q85.75625 360.74628 85.75625 358.93378Q85.75625 357.27753 85.225 356.60565Q84.69375 355.93378 83.9125 355.93378ZM83.92812 372.59003L93.31875 354.48065L95.0375 354.48065L85.67812 372.59003L83.92812 372.59003ZM91.35 367.91815Q91.35 366.05878 92.27187 364.77753Q93.20937 363.49628 94.975 363.49628Q96.6 363.49628 97.64687 364.65253Q98.70937 365.80878 98.70937 368.04315Q98.70937 370.23065 97.63125 371.41815Q96.56875 372.59003 94.99062 372.59003Q93.42812 372.59003 92.38125 371.41815Q91.35 370.24628 91.35 367.91815ZM95.0375 364.9494Q94.24062 364.9494 93.70937 365.6369Q93.19375 366.30878 93.19375 368.12128Q93.19375 369.7619 93.725 370.4494Q94.25625 371.12128 95.02187 371.12128Q95.83437 371.12128 96.35 370.4494Q96.88125 369.7619 96.88125 367.96503Q96.88125 366.29315 96.35 365.62128Q95.81875 364.9494 95.0375 364.9494Z" fill-rule="nonzero"/><path stroke="#757575" stroke-width="1.0" stroke-linecap="butt" d="M32.85 348.4494L229.35 348.4494L256.65457 348.4494" fill-rule="nonzero"/><path fill="#9e9e9e" d="M258.65457 348.4494C258.65457 347.34482 257.75916 346.4494 256.65457 346.4494C255.55 346.4494 254.65457 347.34482 254.65457 348.4494C254.65457 349.55396 255.55 350.4494 256.65457 350.4494C257.75916 350.4494 258.65457 349.55396 258.65457 348.4494" fill-rule="nonzero"/><path fill="#ffffff" d="M34.63125 427.89532L34.63125 410.70782L38.053123 410.70782L42.115623 422.8797Q42.678123 424.58282 42.94375 425.42657Q43.240623 424.48907 43.85 422.66095L47.975 410.70782L51.021873 410.70782L51.021873 427.89532L48.834373 427.89532L48.834373 413.52032L43.85 427.89532L41.7875 427.89532L36.81875 413.27032L36.81875 427.89532L34.63125 427.89532ZM53.709373 427.89532L53.709373 410.70782L60.178123 410.70782Q61.896873 410.70782 62.803123 410.8797Q64.06875 411.08282 64.9125 411.67657Q65.77187 412.27032 66.2875 413.34845Q66.81875 414.41095 66.81875 415.67657Q66.81875 417.8797 65.4125 419.39532Q64.02187 420.91095 60.38125 420.91095L55.975 420.91095L55.975 427.89532L53.709373 427.89532ZM55.975 418.8797L60.4125 418.8797Q62.615623 418.8797 63.5375 418.0672Q64.475 417.23907 64.475 415.7547Q64.475 414.67657 63.928123 413.91095Q63.38125 413.14532 62.490623 412.89532Q61.9125 412.73907 60.365623 412.73907L55.975 412.73907L55.975 418.8797ZM69.61562 427.89532L69.61562 410.70782L71.88125 410.70782L71.88125 425.86407L80.35 425.86407L80.35 427.89532L69.61562 427.89532ZM81.61562 422.73907L81.61562 420.61407L88.1 420.61407L88.1 422.73907L81.61562 422.73907ZM100.92812 425.86407L100.92812 427.89532L89.58437 427.89532Q89.55312 427.1297 89.81875 426.42657Q90.25625 425.27032 91.20937 424.14532Q92.1625 423.02032 93.975 421.53595Q96.77187 419.23907 97.75625 417.91095Q98.74062 416.5672 98.74062 415.36407Q98.74062 414.11407 97.83437 413.2547Q96.94375 412.39532 95.50625 412.39532Q93.99062 412.39532 93.06875 413.3172Q92.1625 414.22345 92.14687 415.83282L89.975 415.61407Q90.19375 413.1922 91.64687 411.92657Q93.1 410.64532 95.55312 410.64532Q98.02187 410.64532 99.45937 412.02032Q100.9125 413.3797 100.9125 415.41095Q100.9125 416.4422 100.49062 417.4422Q100.06875 418.4422 99.08437 419.55157Q98.11562 420.64532 95.83437 422.5672Q93.94375 424.16095 93.39687 424.72345Q92.86562 425.28595 92.50625 425.86407L100.92812 425.86407ZM104.0375 427.89532L104.0375 425.48907L106.42812 425.48907L106.42812 427.89532L104.0375 427.89532ZM109.85 419.42657Q109.85 416.3797 110.475 414.52032Q111.1 412.66095 112.33437 411.66095Q113.56875 410.64532 115.44375 410.64532Q116.83437 410.64532 117.86562 411.20782Q118.9125 411.7547 119.58437 412.80157Q120.27187 413.84845 120.6625 415.36407Q121.05312 416.86407 121.05312 419.42657Q121.05312 422.4422 120.42812 424.30157Q119.80312 426.16095 118.56875 427.17657Q117.33437 428.1922 115.44375 428.1922Q112.95937 428.1922 111.55312 426.41095Q109.85 424.2547 109.85 419.42657ZM112.02187 419.42657Q112.02187 423.64532 113.00625 425.05157Q113.99062 426.45782 115.44375 426.45782Q116.89687 426.45782 117.88125 425.05157Q118.88125 423.64532 118.88125 419.42657Q118.88125 415.17657 117.88125 413.78595Q116.89687 412.39532 115.42812 412.39532Q113.975 412.39532 113.1 413.61407Q112.02187 415.1922 112.02187 419.42657Z" fill-rule="nonzero"/><path fill="#9e9e9e" d="M33.85 450.42657Q33.85 447.3797 34.475 445.52032Q35.1 443.66095 36.334373 442.66095Q37.56875 441.64532 39.44375 441.64532Q40.834373 441.64532 41.865623 442.20782Q42.9125 442.7547 43.584373 443.80157Q44.271873 444.84845 44.6625 446.36407Q45.053123 447.86407 45.053123 450.42657Q45.053123 453.4422 44.428123 455.30157Q43.803123 457.16095 42.56875 458.17657Q41.334373 459.1922 39.44375 459.1922Q36.959373 459.1922 35.553123 457.41095Q33.85 455.2547 33.85 450.42657ZM36.021873 450.42657Q36.021873 454.64532 37.00625 456.05157Q37.990623 457.45782 39.44375 457.45782Q40.896873 457.45782 41.88125 456.05157Q42.88125 454.64532 42.88125 450.42657Q42.88125 446.17657 41.88125 444.78595Q40.896873 443.39532 39.428123 443.39532Q37.975 443.39532 37.1 444.61407Q36.021873 446.1922 36.021873 450.42657ZM48.0375 458.89532L48.0375 456.48907L50.428123 456.48907L50.428123 458.89532L48.0375 458.89532ZM54.1625 454.92657L56.19375 454.73907Q56.44375 456.16095 57.1625 456.8172Q57.896873 457.45782 59.0375 457.45782Q60.00625 457.45782 60.740623 457.02032Q61.475 456.5672 61.94375 455.8172Q62.4125 455.0672 62.725 453.80157Q63.053123 452.53595 63.053123 451.22345Q63.053123 451.08282 63.0375 450.80157Q62.396873 451.8172 61.303123 452.4422Q60.209373 453.0672 58.928123 453.0672Q56.803123 453.0672 55.31875 451.52032Q53.85 449.97345 53.85 447.4422Q53.85 444.83282 55.38125 443.23907Q56.928123 441.64532 59.25625 441.64532Q60.928123 441.64532 62.31875 442.55157Q63.709373 443.4422 64.42812 445.11407Q65.14687 446.78595 65.14687 449.95782Q65.14687 453.23907 64.42812 455.1922Q63.709373 457.14532 62.303123 458.17657Q60.896873 459.1922 58.990623 459.1922Q56.975 459.1922 55.69375 458.0672Q54.428123 456.9422 54.1625 454.92657ZM62.803123 447.33282Q62.803123 445.52032 61.834373 444.45782Q60.865623 443.39532 59.50625 443.39532Q58.1 443.39532 57.053123 444.55157Q56.021873 445.6922 56.021873 447.52032Q56.021873 449.16095 57.00625 450.1922Q57.990623 451.20782 59.44375 451.20782Q60.9125 451.20782 61.85 450.1922Q62.803123 449.16095 62.803123 447.33282ZM67.24062 445.83282Q67.24062 444.0047 68.1625 442.72345Q69.1 441.42657 70.85 441.42657Q72.475 441.42657 73.5375 442.58282Q74.6 443.72345 74.6 445.97345Q74.6 448.14532 73.52187 449.33282Q72.44375 450.5047 70.88125 450.5047Q69.31875 450.5047 68.27187 449.34845Q67.24062 448.17657 67.24062 445.83282ZM70.9125 442.8797Q70.13125 442.8797 69.6 443.5672Q69.08437 444.23907 69.08437 446.05157Q69.08437 447.70782 69.61562 448.3797Q70.14687 449.05157 70.9125 449.05157Q71.70937 449.05157 72.225 448.3797Q72.75625 447.6922 72.75625 445.8797Q72.75625 444.22345 72.225 443.55157Q71.69375 442.8797 70.9125 442.8797ZM70.92812 459.53595L80.31875 441.42657L82.0375 441.42657L72.67812 459.53595L70.92812 459.53595ZM78.35 454.86407Q78.35 453.0047 79.27187 451.72345Q80.20937 450.4422 81.975 450.4422Q83.6 450.4422 84.64687 451.59845Q85.70937 452.7547 85.70937 454.98907Q85.70937 457.17657 84.63125 458.36407Q83.56875 459.53595 81.99062 459.53595Q80.42812 459.53595 79.38125 458.36407Q78.35 457.1922 78.35 454.86407ZM82.0375 451.89532Q81.24062 451.89532 80.70937 452.58282Q80.19375 453.2547 80.19375 455.0672Q80.19375 456.70782 80.725 457.39532Q81.25625 458.0672 82.02187 458.0672Q82.83437 458.0672 83.35 457.39532Q83.88125 456.70782 83.88125 454.91095Q83.88125 453.23907 83.35 452.5672Q82.81875 451.89532 82.0375 451.89532Z" fill-rule="nonzero"/><path stroke="#757575" stroke-width="1.0" stroke-linecap="butt" d="M32.85 435.39532L229.35 435.39532L421.5953 487.40472" fill-rule="nonzero"/><path fill="#9e9e9e" d="M423.5953 487.40472C423.5953 486.30014 422.69986 485.40472 421.5953 485.40472C420.49072 485.40472 419.5953 486.30014 419.5953 487.40472C419.5953 488.50928 420.49072 489.40472 421.5953 489.40472C422.69986 489.40472 423.5953 488.50928 423.5953 487.40472" fill-rule="nonzero"/><path fill="#ffffff" d="M33.85 478.42657Q33.85 475.3797 34.475 473.52032Q35.1 471.66095 36.334373 470.66095Q37.56875 469.64532 39.44375 469.64532Q40.834373 469.64532 41.865623 470.20782Q42.9125 470.7547 43.584373 471.80157Q44.271873 472.84845 44.6625 474.36407Q45.053123 475.86407 45.053123 478.42657Q45.053123 481.4422 44.428123 483.30157Q43.803123 485.16095 42.56875 486.17657Q41.334373 487.1922 39.44375 487.1922Q36.959373 487.1922 35.553123 485.41095Q33.85 483.2547 33.85 478.42657ZM36.021873 478.42657Q36.021873 482.64532 37.00625 484.05157Q37.990623 485.45782 39.44375 485.45782Q40.896873 485.45782 41.88125 484.05157Q42.88125 482.64532 42.88125 478.42657Q42.88125 474.17657 41.88125 472.78595Q40.896873 471.39532 39.428123 471.39532Q37.975 471.39532 37.1 472.61407Q36.021873 474.1922 36.021873 478.42657ZM47.615623 486.89532L47.615623 469.70782L54.053123 469.70782Q56.021873 469.70782 57.209373 470.23907Q58.396873 470.7547 59.06875 471.84845Q59.75625 472.92657 59.75625 474.11407Q59.75625 475.20782 59.146873 476.1922Q58.553123 477.16095 57.35 477.7547Q58.9125 478.20782 59.740623 479.3172Q60.584373 480.41095 60.584373 481.91095Q60.584373 483.11407 60.06875 484.16095Q59.56875 485.1922 58.81875 485.7547Q58.06875 486.3172 56.928123 486.61407Q55.803123 486.89532 54.1625 486.89532L47.615623 486.89532ZM49.88125 476.92657L53.6 476.92657Q55.115623 476.92657 55.771873 476.73907Q56.63125 476.47345 57.06875 475.8797Q57.50625 475.28595 57.50625 474.3797Q57.50625 473.52032 57.1 472.8797Q56.69375 472.22345 55.928123 471.98907Q55.1625 471.73907 53.31875 471.73907L49.88125 471.73907L49.88125 476.92657ZM49.88125 484.86407L54.1625 484.86407Q55.25625 484.86407 55.709373 484.78595Q56.490623 484.64532 57.021873 484.3172Q57.553123 483.98907 57.88125 483.36407Q58.225 482.73907 58.225 481.91095Q58.225 480.95782 57.725 480.2547Q57.240623 479.53595 56.365623 479.2547Q55.490623 478.95782 53.85 478.95782L49.88125 478.95782L49.88125 484.86407ZM62.928123 481.3797L65.06875 481.1922Q65.225 482.47345 65.77187 483.30157Q66.33437 484.1297 67.50625 484.64532Q68.67812 485.14532 70.14687 485.14532Q71.44375 485.14532 72.44375 484.77032Q73.44375 484.3797 73.92812 483.70782Q74.4125 483.02032 74.4125 482.22345Q74.4125 481.42657 73.94375 480.8172Q73.475 480.20782 72.39687 479.80157Q71.70937 479.53595 69.33437 478.97345Q66.975 478.39532 66.02187 477.89532Q64.7875 477.2547 64.17812 476.30157Q63.584373 475.33282 63.584373 474.16095Q63.584373 472.84845 64.31875 471.72345Q65.06875 470.59845 66.475 470.02032Q67.89687 469.42657 69.63125 469.42657Q71.5375 469.42657 72.99062 470.03595Q74.45937 470.64532 75.24062 471.84845Q76.0375 473.03595 76.08437 474.55157L73.9125 474.72345Q73.74062 473.08282 72.725 472.2547Q71.70937 471.42657 69.725 471.42657Q67.6625 471.42657 66.70937 472.1922Q65.77187 472.9422 65.77187 474.0047Q65.77187 474.92657 66.44375 475.52032Q67.1 476.1297 69.86562 476.7547Q72.64687 477.3797 73.67812 477.84845Q75.17812 478.53595 75.88125 479.59845Q76.6 480.66095 76.6 482.03595Q76.6 483.41095 75.81875 484.6297Q75.0375 485.83282 73.56875 486.52032Q72.1 487.1922 70.25625 487.1922Q67.92812 487.1922 66.35 486.52032Q64.77187 485.83282 63.865623 484.47345Q62.975 483.09845 62.928123 481.3797ZM79.70937 486.89532L79.70937 469.70782L85.61562 469.70782Q87.63125 469.70782 88.67812 469.95782Q90.1625 470.30157 91.19375 471.1922Q92.55312 472.33282 93.225 474.1297Q93.9125 475.91095 93.9125 478.20782Q93.9125 480.16095 93.44375 481.67657Q92.99062 483.1922 92.27187 484.1922Q91.56875 485.17657 90.70937 485.73907Q89.86562 486.30157 88.6625 486.59845Q87.45937 486.89532 85.89687 486.89532L79.70937 486.89532ZM81.975 484.86407L85.64687 484.86407Q87.35 484.86407 88.30312 484.55157Q89.27187 484.23907 89.85 483.66095Q90.6625 482.84845 91.11562 481.48907Q91.56875 480.11407 91.56875 478.17657Q91.56875 475.47345 90.67812 474.03595Q89.7875 472.58282 88.52187 472.09845Q87.61562 471.73907 85.58437 471.73907L81.975 471.73907L81.975 484.86407Z" fill-rule="nonzero"/><path fill="#9e9e9e" d="M41.7875 517.8953L39.678123 517.8953L39.678123 504.45782Q38.928123 505.17657 37.678123 505.91095Q36.44375 506.6297 35.459373 506.98907L35.459373 504.95782Q37.240623 504.1297 38.553123 502.9422Q39.88125 501.7547 40.428123 500.64532L41.7875 500.64532L41.7875 517.8953ZM48.0375 517.8953L48.0375 515.4891L50.428123 515.4891L50.428123 517.8953L48.0375 517.8953ZM53.990623 502.95782L53.990623 500.9422L65.11562 500.9422L65.11562 502.58282Q63.475 504.3172 61.85 507.22345Q60.240623 510.11407 59.365623 513.1766Q58.740623 515.3328 58.553123 517.8953L56.396873 517.8953Q56.428123 515.8641 57.178123 513.0047Q57.94375 510.1297 59.365623 507.45782Q60.803123 504.78595 62.396873 502.95782L53.990623 502.95782ZM67.24062 504.83282Q67.24062 503.0047 68.1625 501.72345Q69.1 500.42657 70.85 500.42657Q72.475 500.42657 73.5375 501.58282Q74.6 502.72345 74.6 504.97345Q74.6 507.14532 73.52187 508.33282Q72.44375 509.5047 70.88125 509.5047Q69.31875 509.5047 68.27187 508.34845Q67.24062 507.17657 67.24062 504.83282ZM70.9125 501.8797Q70.13125 501.8797 69.6 502.5672Q69.08437 503.23907 69.08437 505.05157Q69.08437 506.70782 69.61562 507.3797Q70.14687 508.05157 70.9125 508.05157Q71.70937 508.05157 72.225 507.3797Q72.75625 506.6922 72.75625 504.8797Q72.75625 503.22345 72.225 502.55157Q71.69375 501.8797 70.9125 501.8797ZM70.92812 518.53595L80.31875 500.42657L82.0375 500.42657L72.67812 518.53595L70.92812 518.53595ZM78.35 513.8641Q78.35 512.0047 79.27187 510.72345Q80.20937 509.4422 81.975 509.4422Q83.6 509.4422 84.64687 510.59845Q85.70937 511.7547 85.70937 513.9891Q85.70937 516.1766 84.63125 517.3641Q83.56875 518.53595 81.99062 518.53595Q80.42812 518.53595 79.38125 517.3641Q78.35 516.1922 78.35 513.8641ZM82.0375 510.89532Q81.24062 510.89532 80.70937 511.58282Q80.19375 512.2547 80.19375 514.0672Q80.19375 515.7078 80.725 516.3953Q81.25625 517.0672 82.02187 517.0672Q82.83437 517.0672 83.35 516.3953Q83.88125 515.7078 83.88125 513.91095Q83.88125 512.2391 83.35 511.5672Q82.81875 510.89532 82.0375 510.89532Z" fill-rule="nonzero"/><path stroke="#757575" stroke-width="1.0" stroke-linecap="butt" d="M32.85 494.39532L229.35 494.39532L453.35895 495.27234" fill-rule="nonzero"/><path fill="#9e9e9e" d="M455.35895 495.27234C455.35895 494.1678 454.46353 493.27234 453.35895 493.27234C452.2544 493.27234 451.35895 494.1678 451.35895 495.27234C451.35895 496.37692 452.2544 497.27234 453.35895 497.27234C454.46353 497.27234 455.35895 496.37692 455.35895 495.27234" fill-rule="nonzero"/><path fill="#ffffff" d="M34.678123 545.8953L34.678123 528.7078L37.00625 528.7078L46.0375 542.2078L46.0375 528.7078L48.209373 528.7078L48.209373 545.8953L45.88125 545.8953L36.865623 532.3953L36.865623 545.8953L34.678123 545.8953ZM51.00625 537.5203Q51.00625 533.2547 53.303123 530.8328Q55.6 528.41095 59.240623 528.41095Q61.615623 528.41095 63.521873 529.5516Q65.44375 530.6766 66.44375 532.72345Q67.44375 534.7547 67.44375 537.3328Q67.44375 539.9422 66.38125 542.0047Q65.33437 544.0672 63.396873 545.1297Q61.459373 546.1922 59.225 546.1922Q56.803123 546.1922 54.88125 545.0203Q52.975 543.84845 51.990623 541.8172Q51.00625 539.78595 51.00625 537.5203ZM53.35 537.5672Q53.35 540.66095 55.021873 542.4578Q56.69375 544.2391 59.209373 544.2391Q61.7875 544.2391 63.44375 542.4422Q65.1 540.6297 65.1 537.3172Q65.1 535.22345 64.38125 533.66095Q63.678123 532.0828 62.303123 531.22345Q60.94375 530.3641 59.25625 530.3641Q56.834373 530.3641 55.084373 532.0203Q53.35 533.6766 53.35 537.5672ZM68.81875 545.8953L75.4125 528.7078L77.86562 528.7078L84.89687 545.8953L82.30312 545.8953L80.30312 540.6922L73.11562 540.6922L71.225 545.8953L68.81875 545.8953ZM73.77187 538.8328L79.6 538.8328L77.80312 534.0828Q76.99062 531.91095 76.58437 530.5203Q76.25625 532.1766 75.6625 533.8016L73.77187 538.8328ZM84.92812 540.3797L87.06875 540.1922Q87.225 541.47345 87.77187 542.3016Q88.33437 543.1297 89.50625 543.6453Q90.67812 544.1453 92.14687 544.1453Q93.44375 544.1453 94.44375 543.7703Q95.44375 543.3797 95.92812 542.7078Q96.4125 542.0203 96.4125 541.22345Q96.4125 540.4266 95.94375 539.8172Q95.475 539.2078 94.39687 538.8016Q93.70937 538.53595 91.33437 537.97345Q88.975 537.3953 88.02187 536.8953Q86.7875 536.2547 86.17812 535.3016Q85.58437 534.3328 85.58437 533.16095Q85.58437 531.84845 86.31875 530.72345Q87.06875 529.59845 88.475 529.0203Q89.89687 528.4266 91.63125 528.4266Q93.5375 528.4266 94.99062 529.03595Q96.45937 529.6453 97.24062 530.84845Q98.0375 532.03595 98.08437 533.5516L95.9125 533.72345Q95.74062 532.0828 94.725 531.2547Q93.70937 530.4266 91.725 530.4266Q89.6625 530.4266 88.70937 531.1922Q87.77187 531.9422 87.77187 533.0047Q87.77187 533.9266 88.44375 534.5203Q89.1 535.1297 91.86562 535.7547Q94.64687 536.3797 95.67812 536.84845Q97.17812 537.53595 97.88125 538.59845Q98.6 539.66095 98.6 541.03595Q98.6 542.41095 97.81875 543.6297Q97.0375 544.8328 95.56875 545.5203Q94.1 546.1922 92.25625 546.1922Q89.92812 546.1922 88.35 545.5203Q86.77187 544.8328 85.86562 543.47345Q84.975 542.09845 84.92812 540.3797ZM100.92812 540.3797L103.06875 540.1922Q103.225 541.47345 103.77187 542.3016Q104.33437 543.1297 105.50625 543.6453Q106.67812 544.1453 108.14687 544.1453Q109.44375 544.1453 110.44375 543.7703Q111.44375 543.3797 111.92812 542.7078Q112.4125 542.0203 112.4125 541.22345Q112.4125 540.4266 111.94375 539.8172Q111.475 539.2078 110.39687 538.8016Q109.70937 538.53595 107.33437 537.97345Q104.975 537.3953 104.02187 536.8953Q102.7875 536.2547 102.17812 535.3016Q101.58437 534.3328 101.58437 533.16095Q101.58437 531.84845 102.31875 530.72345Q103.06875 529.59845 104.475 529.0203Q105.89687 528.4266 107.63125 528.4266Q109.5375 528.4266 110.99062 529.03595Q112.45937 529.6453 113.24062 530.84845Q114.0375 532.03595 114.08437 533.5516L111.9125 533.72345Q111.74062 532.0828 110.725 531.2547Q109.70937 530.4266 107.725 530.4266Q105.6625 530.4266 104.70937 531.1922Q103.77187 531.9422 103.77187 533.0047Q103.77187 533.9266 104.44375 534.5203Q105.1 535.1297 107.86562 535.7547Q110.64687 536.3797 111.67812 536.84845Q113.17812 537.53595 113.88125 538.59845Q114.6 539.66095 114.6 541.03595Q114.6 542.41095 113.81875 543.6297Q113.0375 544.8328 111.56875 545.5203Q110.1 546.1922 108.25625 546.1922Q105.92812 546.1922 104.35 545.5203Q102.77187 544.8328 101.86562 543.47345Q100.975 542.09845 100.92812 540.3797ZM117.75625 545.8953L117.75625 528.7078L130.17813 528.7078L130.17813 530.7391L120.02187 530.7391L120.02187 536.0047L129.52188 536.0047L129.52188 538.0203L120.02187 538.0203L120.02187 543.8641L130.56876 543.8641L130.56876 545.8953L117.75625 545.8953ZM133.74063 545.8953L133.74063 528.7078L141.35 528.7078Q143.64688 528.7078 144.83438 529.1766Q146.0375 529.6453 146.75626 530.8172Q147.475 531.9891 147.475 533.3953Q147.475 535.22345 146.2875 536.4891Q145.1 537.7391 142.63126 538.0828Q143.5375 538.5047 144.00626 538.9266Q145.00626 539.84845 145.89688 541.22345L148.88126 545.8953L146.02188 545.8953L143.74063 542.3172Q142.75626 540.7703 142.1 539.9578Q141.45938 539.1297 140.94376 538.8016Q140.44376 538.47345 139.9125 538.34845Q139.52188 538.2703 138.64688 538.2703L136.00626 538.2703L136.00626 545.8953L133.74063 545.8953ZM136.00626 536.3016L140.89688 536.3016Q142.45938 536.3016 143.33438 535.97345Q144.20938 535.6453 144.6625 534.9422Q145.13126 534.2391 145.13126 533.3953Q145.13126 532.1766 144.24063 531.3953Q143.36563 530.6141 141.44376 530.6141L136.00626 530.6141L136.00626 536.3016ZM155.06876 545.8953L155.06876 530.7391L149.4125 530.7391L149.4125 528.7078L163.0375 528.7078L163.0375 530.7391L157.35 530.7391L157.35 545.8953L155.06876 545.8953ZM165.08438 545.8953L165.08438 528.7078L167.36563 528.7078L167.36563 545.8953L165.08438 545.8953ZM170.00626 537.5203Q170.00626 533.2547 172.30313 530.8328Q174.6 528.41095 178.24063 528.41095Q180.61563 528.41095 182.52188 529.5516Q184.44376 530.6766 185.44376 532.72345Q186.44376 534.7547 186.44376 537.3328Q186.44376 539.9422 185.38126 542.0047Q184.33438 544.0672 182.39688 545.1297Q180.45938 546.1922 178.225 546.1922Q175.80313 546.1922 173.88126 545.0203Q171.975 543.84845 170.99063 541.8172Q170.00626 539.78595 170.00626 537.5203ZM172.35 537.5672Q172.35 540.66095 174.02188 542.4578Q175.69376 544.2391 178.20938 544.2391Q180.7875 544.2391 182.44376 542.4422Q184.1 540.6297 184.1 537.3172Q184.1 535.22345 183.38126 533.66095Q182.67813 532.0828 181.30313 531.22345Q179.94376 530.3641 178.25626 530.3641Q175.83438 530.3641 174.08438 532.0203Q172.35 533.6766 172.35 537.5672ZM189.67813 545.8953L189.67813 528.7078L192.00626 528.7078L201.0375 542.2078L201.0375 528.7078L203.20938 528.7078L203.20938 545.8953L200.88126 545.8953L191.86563 532.3953L191.86563 545.8953L189.67813 545.8953Z" fill-rule="nonzero"/><path fill="#9e9e9e" d="M33.865623 572.3641L35.975 572.0828Q36.334373 573.8641 37.209373 574.66095Q38.084373 575.4578 39.334373 575.4578Q40.81875 575.4578 41.834373 574.4266Q42.865623 573.3953 42.865623 571.8641Q42.865623 570.41095 41.9125 569.47345Q40.975 568.5203 39.50625 568.5203Q38.9125 568.5203 38.021873 568.7547L38.25625 566.91095Q38.459373 566.9266 38.6 566.9266Q39.94375 566.9266 41.021873 566.22345Q42.1 565.5203 42.1 564.0672Q42.1 562.8953 41.303123 562.1453Q40.521873 561.3797 39.2875 561.3797Q38.053123 561.3797 37.225 562.16095Q36.4125 562.9266 36.178123 564.47345L34.06875 564.09845Q34.459373 561.97345 35.81875 560.8172Q37.19375 559.6453 39.240623 559.6453Q40.646873 559.6453 41.81875 560.2547Q43.00625 560.84845 43.63125 561.8953Q44.271873 562.9422 44.271873 564.1141Q44.271873 565.22345 43.6625 566.1453Q43.06875 567.0516 41.896873 567.5828Q43.428123 567.9422 44.271873 569.0516Q45.115623 570.16095 45.115623 571.8172Q45.115623 574.0672 43.475 575.6453Q41.834373 577.2078 39.31875 577.2078Q37.053123 577.2078 35.553123 575.8641Q34.06875 574.5047 33.865623 572.3641ZM48.0375 576.8953L48.0375 574.4891L50.428123 574.4891L50.428123 576.8953L48.0375 576.8953ZM64.92812 574.8641L64.92812 576.8953L53.584373 576.8953Q53.553123 576.1297 53.81875 575.4266Q54.25625 574.2703 55.209373 573.1453Q56.1625 572.0203 57.975 570.53595Q60.771873 568.2391 61.75625 566.91095Q62.740623 565.5672 62.740623 564.3641Q62.740623 563.1141 61.834373 562.2547Q60.94375 561.3953 59.50625 561.3953Q57.990623 561.3953 57.06875 562.3172Q56.1625 563.22345 56.146873 564.8328L53.975 564.6141Q54.19375 562.1922 55.646873 560.9266Q57.1 559.6453 59.553123 559.6453Q62.021873 559.6453 63.459373 561.0203Q64.9125 562.3797 64.9125 564.41095Q64.9125 565.4422 64.49062 566.4422Q64.06875 567.4422 63.084373 568.5516Q62.115623 569.6453 59.834373 571.5672Q57.94375 573.16095 57.396873 573.72345Q56.865623 574.28595 56.50625 574.8641L64.92812 574.8641ZM67.24062 563.8328Q67.24062 562.0047 68.1625 560.72345Q69.1 559.4266 70.85 559.4266Q72.475 559.4266 73.5375 560.5828Q74.6 561.72345 74.6 563.97345Q74.6 566.1453 73.52187 567.3328Q72.44375 568.5047 70.88125 568.5047Q69.31875 568.5047 68.27187 567.34845Q67.24062 566.1766 67.24062 563.8328ZM70.9125 560.8797Q70.13125 560.8797 69.6 561.5672Q69.08437 562.2391 69.08437 564.0516Q69.08437 565.7078 69.61562 566.3797Q70.14687 567.0516 70.9125 567.0516Q71.70937 567.0516 72.225 566.3797Q72.75625 565.6922 72.75625 563.8797Q72.75625 562.22345 72.225 561.5516Q71.69375 560.8797 70.9125 560.8797ZM70.92812 577.53595L80.31875 559.4266L82.0375 559.4266L72.67812 577.53595L70.92812 577.53595ZM78.35 572.8641Q78.35 571.0047 79.27187 569.72345Q80.20937 568.4422 81.975 568.4422Q83.6 568.4422 84.64687 569.59845Q85.70937 570.7547 85.70937 572.9891Q85.70937 575.1766 84.63125 576.3641Q83.56875 577.53595 81.99062 577.53595Q80.42812 577.53595 79.38125 576.3641Q78.35 575.1922 78.35 572.8641ZM82.0375 569.8953Q81.24062 569.8953 80.70937 570.5828Q80.19375 571.2547 80.19375 573.0672Q80.19375 574.7078 80.725 575.3953Q81.25625 576.0672 82.02187 576.0672Q82.83437 576.0672 83.35 575.3953Q83.88125 574.7078 83.88125 572.91095Q83.88125 571.2391 83.35 570.5672Q82.81875 569.8953 82.0375 569.8953Z" fill-rule="nonzero"/><path stroke="#757575" stroke-width="1.0" stroke-linecap="butt" d="M32.85 553.3953L229.35 553.3953L495.82874 501.38593" fill-rule="nonzero"/><path fill="#9e9e9e" d="M497.82874 501.38593C497.82874 500.28134 496.9333 499.38593 495.82874 499.38593C494.72415 499.38593 493.82874 500.28134 493.82874 501.38593C493.82874 502.49048 494.72415 503.38593 495.82874 503.38593C496.9333 503.38593 497.82874 502.49048 497.82874 501.38593" fill-rule="nonzero"/><path fill="#ffffff" d="M991.9313 284.327L991.9313 267.1395L995.35315 267.1395L999.41565 279.31137Q999.97815 281.0145 1000.2438 281.85825Q1000.54065 280.92075 1001.15 279.09262L1005.275 267.1395L1008.3219 267.1395L1008.3219 284.327L1006.1344 284.327L1006.1344 269.952L1001.15 284.327L999.0875 284.327L994.1188 269.702L994.1188 284.327L991.9313 284.327ZM1011.3844 284.327L1011.3844 267.1395L1013.66565 267.1395L1013.66565 284.327L1011.3844 284.327ZM1021.3688 284.327L1021.3688 269.17075L1015.7125 269.17075L1015.7125 267.1395L1029.3375 267.1395L1029.3375 269.17075L1023.65 269.17075L1023.65 284.327L1021.3688 284.327Z" fill-rule="nonzero"/><path fill="#9e9e9e" d="M969.91565 315.327L969.91565 311.21762L962.4625 311.21762L962.4625 309.28012L970.29065 298.1395L972.025 298.1395L972.025 309.28012L974.3375 309.28012L974.3375 311.21762L972.025 311.21762L972.025 315.327L969.91565 315.327ZM969.91565 309.28012L969.91565 301.53012L964.525 309.28012L969.91565 309.28012ZM976.29065 300.3895L976.29065 298.37387L987.41565 298.37387L987.41565 300.0145Q985.775 301.74887 984.15 304.65512Q982.54065 307.54575 981.66565 310.60825Q981.04065 312.7645 980.85315 315.327L978.6969 315.327Q978.72815 313.29575 979.47815 310.43637Q980.2438 307.56137 981.66565 304.8895Q983.10315 302.21762 984.6969 300.3895L976.29065 300.3895ZM990.3375 315.327L990.3375 312.92075L992.72815 312.92075L992.72815 315.327L990.3375 315.327ZM996.29065 300.3895L996.29065 298.37387L1007.41565 298.37387L1007.41565 300.0145Q1005.775 301.74887 1004.15 304.65512Q1002.54065 307.54575 1001.66565 310.60825Q1001.04065 312.7645 1000.85315 315.327L998.6969 315.327Q998.72815 313.29575 999.47815 310.43637Q1000.2438 307.56137 1001.66565 304.8895Q1003.10315 302.21762 1004.6969 300.3895L996.29065 300.3895ZM1009.54065 302.2645Q1009.54065 300.43637 1010.4625 299.15512Q1011.4 297.85825 1013.15 297.85825Q1014.775 297.85825 1015.8375 299.0145Q1016.9 300.15512 1016.9 302.40512Q1016.9 304.577 1015.8219 305.7645Q1014.7438 306.93637 1013.1813 306.93637Q1011.6188 306.93637 1010.5719 305.78012Q1009.54065 304.60825 1009.54065 302.2645ZM1013.2125 299.31137Q1012.4313 299.31137 1011.9 299.99887Q1011.3844 300.67075 1011.3844 302.48325Q1011.3844 304.1395 1011.91565 304.81137Q1012.4469 305.48325 1013.2125 305.48325Q1014.0094 305.48325 1014.525 304.81137Q1015.0563 304.12387 1015.0563 302.31137Q1015.0563 300.65512 1014.525 299.98325Q1013.9938 299.31137 1013.2125 299.31137ZM1013.22815 315.96762L1022.6188 297.85825L1024.3375 297.85825L1014.97815 315.96762L1013.22815 315.96762ZM1020.65 311.29575Q1020.65 309.43637 1021.5719 308.15512Q1022.5094 306.87387 1024.275 306.87387Q1025.9 306.87387 1026.9469 308.03012Q1028.0094 309.18637 1028.0094 311.42075Q1028.0094 313.60825 1026.9313 314.79575Q1025.8688 315.96762 1024.2906 315.96762Q1022.72815 315.96762 1021.6813 314.79575Q1020.65 313.62387 1020.65 311.29575ZM1024.3375 308.327Q1023.54065 308.327 1023.0094 309.0145Q1022.4938 309.68637 1022.4938 311.49887Q1022.4938 313.1395 1023.025 313.827Q1023.5563 314.49887 1024.3219 314.49887Q1025.1344 314.49887 1025.65 313.827Q1026.1813 313.1395 1026.1813 311.34262Q1026.1813 309.67075 1025.65 308.99887Q1025.1188 308.327 1024.3375 308.327Z" fill-rule="nonzero"/><path stroke="#757575" stroke-width="1.0" stroke-linecap="butt" d="M1029.15 291.827L832.65 291.827L811.10266 291.827" fill-rule="nonzero"/><path fill="#9e9e9e" d="M813.10266 291.827C813.10266 290.7224 812.2073 289.827 811.10266 289.827C809.9981 289.827 809.10266 290.7224 809.10266 291.827C809.10266 292.93155 809.9981 293.827 811.10266 293.827C812.2073 293.827 813.10266 292.93155 813.10266 291.827" fill-rule="nonzero"/><path fill="#ffffff" d="M936.275 477.7402L938.5563 477.7402L938.5563 487.6777Q938.5563 490.25583 937.9625 491.78708Q937.3844 493.3027 935.85315 494.27145Q934.3219 495.22458 931.8375 495.22458Q929.41565 495.22458 927.8844 494.39645Q926.35315 493.5527 925.6969 491.97458Q925.04065 490.39645 925.04065 487.6777L925.04065 477.7402L927.3063 477.7402L927.3063 487.66208Q927.3063 489.89645 927.72815 490.95895Q928.15 492.02145 929.15 492.59958Q930.16565 493.16208 931.6344 493.16208Q934.15 493.16208 935.2125 492.03708Q936.275 490.89645 936.275 487.66208L936.275 477.7402ZM941.72815 494.9277L941.72815 482.47458L943.6344 482.47458L943.6344 484.25583Q945.0094 482.19333 947.5875 482.19333Q948.7125 482.19333 949.65 482.59958Q950.60315 483.00583 951.0719 483.66208Q951.54065 484.31833 951.72815 485.22458Q951.85315 485.8027 951.85315 487.27145L951.85315 494.9277L949.7438 494.9277L949.7438 487.34958Q949.7438 486.06833 949.4938 485.4277Q949.2438 484.78708 948.6188 484.41208Q947.9938 484.02145 947.15 484.02145Q945.8063 484.02145 944.8219 484.88083Q943.8375 485.7402 943.8375 488.13083L943.8375 494.9277L941.72815 494.9277ZM955.6813 494.9277L955.6813 477.7402L957.79065 477.7402L957.79065 494.9277L955.6813 494.9277ZM961.7438 480.1777L961.7438 477.7402L963.85315 477.7402L963.85315 480.1777L961.7438 480.1777ZM961.7438 494.9277L961.7438 482.47458L963.85315 482.47458L963.85315 494.9277L961.7438 494.9277ZM974.85315 490.3652L976.9313 490.63083Q976.5875 492.78708 975.1813 494.00583Q973.79065 495.20895 971.7438 495.20895Q969.1969 495.20895 967.6344 493.53708Q966.0875 491.8652 966.0875 488.75583Q966.0875 486.7402 966.7594 485.22458Q967.4313 483.70895 968.79065 482.95895Q970.15 482.19333 971.7594 482.19333Q973.79065 482.19333 975.0719 483.22458Q976.3688 484.25583 976.72815 486.13083L974.6813 486.45895Q974.3844 485.19333 973.6344 484.56833Q972.9 483.9277 971.8375 483.9277Q970.2438 483.9277 969.2438 485.08395Q968.2594 486.22458 968.2594 488.69333Q968.2594 491.19333 969.2125 492.33395Q970.1813 493.47458 971.72815 493.47458Q972.9625 493.47458 973.79065 492.70895Q974.6344 491.94333 974.85315 490.3652ZM987.2594 490.91208L989.4313 491.19333Q988.91565 493.09958 987.525 494.16208Q986.1344 495.20895 983.9625 495.20895Q981.22815 495.20895 979.6188 493.53708Q978.025 491.84958 978.025 488.8027Q978.025 485.66208 979.6344 483.9277Q981.2594 482.19333 983.8375 482.19333Q986.3375 482.19333 987.91565 483.89645Q989.5094 485.59958 989.5094 488.6777Q989.5094 488.8652 989.4938 489.2402L980.2125 489.2402Q980.3219 491.28708 981.3688 492.38083Q982.41565 493.47458 983.97815 493.47458Q985.1344 493.47458 985.9469 492.8652Q986.775 492.25583 987.2594 490.91208ZM980.3219 487.50583L987.275 487.50583Q987.1344 485.94333 986.47815 485.14645Q985.47815 483.9277 983.8688 483.9277Q982.41565 483.9277 981.41565 484.91208Q980.4313 485.88083 980.3219 487.50583ZM991.72815 494.9277L991.72815 482.47458L993.6344 482.47458L993.6344 484.25583Q995.0094 482.19333 997.5875 482.19333Q998.7125 482.19333 999.65 482.59958Q1000.60315 483.00583 1001.0719 483.66208Q1001.54065 484.31833 1001.72815 485.22458Q1001.85315 485.8027 1001.85315 487.27145L1001.85315 494.9277L999.7438 494.9277L999.7438 487.34958Q999.7438 486.06833 999.4938 485.4277Q999.2438 484.78708 998.6188 484.41208Q997.9938 484.02145 997.15 484.02145Q995.8063 484.02145 994.8219 484.88083Q993.8375 485.7402 993.8375 488.13083L993.8375 494.9277L991.72815 494.9277ZM1004.8844 491.20895L1006.97815 490.88083Q1007.15 492.13083 1007.9469 492.8027Q1008.7594 493.47458 1010.1969 493.47458Q1011.65 493.47458 1012.35315 492.88083Q1013.0563 492.28708 1013.0563 491.4902Q1013.0563 490.77145 1012.4313 490.3652Q1012.0094 490.08395 1010.275 489.64645Q1007.9625 489.06833 1007.0563 488.64645Q1006.16565 488.20895 1005.6969 487.45895Q1005.2438 486.69333 1005.2438 485.78708Q1005.2438 484.95895 1005.6188 484.25583Q1006.0094 483.53708 1006.66565 483.06833Q1007.15 482.70895 1007.9938 482.45895Q1008.85315 482.19333 1009.8219 482.19333Q1011.29065 482.19333 1012.4 482.6152Q1013.5094 483.03708 1014.025 483.77145Q1014.5563 484.4902 1014.7594 485.69333L1012.6969 485.97458Q1012.5563 485.00583 1011.8844 484.47458Q1011.2125 483.9277 1009.97815 483.9277Q1008.525 483.9277 1007.9 484.41208Q1007.275 484.89645 1007.275 485.53708Q1007.275 485.94333 1007.54065 486.27145Q1007.79065 486.6152 1008.35315 486.83395Q1008.66565 486.95895 1010.2125 487.38083Q1012.4469 487.97458 1013.3219 488.3652Q1014.2125 488.7402 1014.7125 489.47458Q1015.22815 490.19333 1015.22815 491.27145Q1015.22815 492.31833 1014.60315 493.25583Q1013.9938 494.19333 1012.8375 494.70895Q1011.6813 495.20895 1010.2125 495.20895Q1007.79065 495.20895 1006.5094 494.20895Q1005.2438 493.19333 1004.8844 491.20895ZM1026.2594 490.91208L1028.4313 491.19333Q1027.9156 493.09958 1026.525 494.16208Q1025.1344 495.20895 1022.9625 495.20895Q1020.22815 495.20895 1018.6188 493.53708Q1017.025 491.84958 1017.025 488.8027Q1017.025 485.66208 1018.6344 483.9277Q1020.2594 482.19333 1022.8375 482.19333Q1025.3375 482.19333 1026.9156 483.89645Q1028.5094 485.59958 1028.5094 488.6777Q1028.5094 488.8652 1028.4938 489.2402L1019.2125 489.2402Q1019.3219 491.28708 1020.3688 492.38083Q1021.41565 493.47458 1022.97815 493.47458Q1024.1344 493.47458 1024.9469 492.8652Q1025.775 492.25583 1026.2594 490.91208ZM1019.3219 487.50583L1026.275 487.50583Q1026.1344 485.94333 1025.4781 485.14645Q1024.4781 483.9277 1022.8688 483.9277Q1021.41565 483.9277 1020.41565 484.91208Q1019.4313 485.88083 1019.3219 487.50583Z" fill-rule="nonzero"/><path fill="#9e9e9e" d="M987.22815 523.8965L987.22815 525.92773L975.8844 525.92773Q975.85315 525.1621 976.1188 524.459Q976.5563 523.30273 977.5094 522.17773Q978.4625 521.05273 980.275 519.56836Q983.0719 517.2715 984.0563 515.94336Q985.04065 514.5996 985.04065 513.3965Q985.04065 512.1465 984.1344 511.2871Q983.2438 510.42773 981.8063 510.42773Q980.29065 510.42773 979.3688 511.3496Q978.4625 512.25586 978.4469 513.86523L976.275 513.6465Q976.4938 511.2246 977.9469 509.95898Q979.4 508.67773 981.85315 508.67773Q984.3219 508.67773 985.7594 510.05273Q987.2125 511.4121 987.2125 513.44336Q987.2125 514.4746 986.79065 515.4746Q986.3688 516.4746 985.3844 517.584Q984.41565 518.67773 982.1344 520.5996Q980.2438 522.19336 979.6969 522.75586Q979.16565 523.31836 978.8063 523.8965L987.22815 523.8965ZM990.3375 525.92773L990.3375 523.5215L992.72815 523.5215L992.72815 525.92773L990.3375 525.92773ZM1002.91565 525.92773L1002.91565 521.81836L995.4625 521.81836L995.4625 519.88086L1003.29065 508.74023L1005.025 508.74023L1005.025 519.88086L1007.3375 519.88086L1007.3375 521.81836L1005.025 521.81836L1005.025 525.92773L1002.91565 525.92773ZM1002.91565 519.88086L1002.91565 512.13086L997.525 519.88086L1002.91565 519.88086ZM1009.54065 512.86523Q1009.54065 511.0371 1010.4625 509.75586Q1011.4 508.45898 1013.15 508.45898Q1014.775 508.45898 1015.8375 509.61523Q1016.9 510.75586 1016.9 513.00586Q1016.9 515.17773 1015.8219 516.36523Q1014.7438 517.5371 1013.1813 517.5371Q1011.6188 517.5371 1010.5719 516.38086Q1009.54065 515.209 1009.54065 512.86523ZM1013.2125 509.9121Q1012.4313 509.9121 1011.9 510.5996Q1011.3844 511.27148 1011.3844 513.084Q1011.3844 514.74023 1011.91565 515.4121Q1012.4469 516.084 1013.2125 516.084Q1014.0094 516.084 1014.525 515.4121Q1015.0563 514.7246 1015.0563 512.9121Q1015.0563 511.25586 1014.525 510.58398Q1013.9938 509.9121 1013.2125 509.9121ZM1013.22815 526.56836L1022.6188 508.45898L1024.3375 508.45898L1014.97815 526.56836L1013.22815 526.56836ZM1020.65 521.8965Q1020.65 520.0371 1021.5719 518.75586Q1022.5094 517.4746 1024.275 517.4746Q1025.9 517.4746 1026.9469 518.63086Q1028.0094 519.7871 1028.0094 522.0215Q1028.0094 524.209 1026.9313 525.3965Q1025.8688 526.56836 1024.2906 526.56836Q1022.72815 526.56836 1021.6813 525.3965Q1020.65 524.2246 1020.65 521.8965ZM1024.3375 518.92773Q1023.54065 518.92773 1023.0094 519.61523Q1022.4938 520.2871 1022.4938 522.0996Q1022.4938 523.74023 1023.025 524.42773Q1023.5563 525.0996 1024.3219 525.0996Q1025.1344 525.0996 1025.65 524.42773Q1026.1813 523.74023 1026.1813 521.94336Q1026.1813 520.2715 1025.65 519.5996Q1025.1188 518.92773 1024.3375 518.92773Z" fill-rule="nonzero"/><path stroke="#757575" stroke-width="1.0" stroke-linecap="butt" d="M1029.15 502.4277L832.65 502.4277L551.1335 502.4277" fill-rule="nonzero"/><path fill="#9e9e9e" d="M553.1335 502.4277C553.1335 501.32315 552.23804 500.4277 551.1335 500.4277C550.02893 500.4277 549.1335 501.32315 549.1335 502.4277C549.1335 503.5323 550.02893 504.4277 551.1335 504.4277C552.23804 504.4277 553.1335 503.5323 553.1335 502.4277" fill-rule="nonzero"/></svg>