<svg version="1.1" viewBox="0.0 0.0 1051.0 647.0" fill="none" stroke="none" stroke-linecap="square" stroke-miterlimit="10" width="1051" height="647" xmlns:xlink="http://www.w3.org/1999/xlink" xmlns="http://www.w3.org/2000/svg"><path fill="#ffffff" fill-opacity="0.0" d="M0 0L1051.0 0L1051.0 647.0L0 647.0L0 0Z" fill-rule="nonzero"/><path fill="#4285f4" d="M525.5 97.85875C527.76855 97.85875 530.03705 97.87731 532.305 97.91443L525.5 301.66376Z" fill-rule="nonzero"/><path fill="#ea4335" d="M532.305 97.91443C534.57294 97.95154 536.8402 98.00721 539.10626 98.08142L525.5 301.66376Z" fill-rule="nonzero"/><path fill="#fbbc04" d="M539.10626 98.08142C541.3724 98.15563 543.63715 98.24838 545.90015 98.35965L525.5 301.66376Z" fill-rule="nonzero"/><path fill="#34a853" d="M545.90015 98.35965C548.1631 98.47092 550.42413 98.60069 552.6828 98.748955L525.5 301.66376Z" fill-rule="nonzero"/><path fill="#ff6d01" d="M552.6828 98.748955C554.94147 98.89722 557.1976 99.06395 559.4507 99.24912L525.5 301.66376Z" fill-rule="nonzero"/><path fill="#46bdc6" d="M559.4507 99.24912C561.70374 99.434296 563.9537 99.6379 566.19995 99.859886L525.5 301.66376Z" fill-rule="nonzero"/><path fill="#7baaf7" d="M566.19995 99.859886C568.4462 100.08187 570.6888 100.32223 572.927 100.5809L525.5 301.66376Z" fill-rule="nonzero"/><path fill="#f07b72" d="M572.927 100.5809C575.613 100.89132 578.29254 101.22809 580.96497 101.59111L525.5 301.66376Z" fill-rule="nonzero"/><path fill="#fcd04f" d="M580.96497 101.59111C583.6374 101.95413 586.3024 102.343376 588.9593 102.75872L525.5 301.66376Z" fill-rule="nonzero"/><path fill="#71c287" d="M588.9593 102.75872C592.5018 103.31253 596.0292 103.91265 599.5396 104.55879L525.5 301.66376Z" fill-rule="nonzero"/><path fill="#ff994d" d="M599.5396 104.55879C603.05005 105.204926 606.5429 105.89696 610.01636 106.63452L525.5 301.66376Z" fill-rule="nonzero"/><path fill="#7ed1d7" d="M610.01636 106.63452C614.3583 107.556496 618.6688 108.54939 622.94446 109.6124L525.5 301.66376Z" fill-rule="nonzero"/><path fill="#b3cefb" d="M622.94446 109.6124C627.64764 110.78171 632.3071 112.035484 636.9183 113.37248L525.5 301.66376Z" fill-rule="nonzero"/><path fill="#f7b4ae" d="M636.9183 113.37248C641.94867 114.83104 646.9196 116.388084 651.82526 118.04179L525.5 301.66376Z" fill-rule="nonzero"/><path fill="#fde49b" d="M651.82526 118.04179C657.1398 119.83332 662.37524 121.737495 667.5245 123.75167L525.5 301.66376Z" fill-rule="nonzero"/><path fill="#aedcba" d="M667.5245 123.75167C673.8623 126.23075 680.06537 128.87491 686.1208 131.6786L525.5 301.66376Z" fill-rule="nonzero"/><path fill="#ffc599" d="M686.1208 131.6786C723.75226 149.10222 755.084 172.40956 777.6433 199.76125L525.5 301.66376Z" fill-rule="nonzero"/><path fill="#7388ab" d="M816.65 345.33624C816.65 346.92426 816.6235 348.51218 816.57043 350.09976L816.57043 306.42725C816.6235 304.8397 816.65 303.25174 816.65 301.66376Z" fill-rule="nonzero"/><path fill="#a4c2f4" d="M777.6433 199.76125C804.35187 232.14368 817.819 269.04544 816.57043 306.42725L525.5 301.66376Z" fill-rule="nonzero"/><path fill="#ac7d4b" d="M816.57043 350.09976C813.312 447.66162 711.71185 529.915 574.2694 546.2617L574.2694 502.5892C711.71185 486.2425 813.312 403.9891 816.57043 306.42725Z" fill-rule="nonzero"/><path fill="#f6b26b" d="M816.57043 306.42725C813.312 403.9891 711.71185 486.2425 574.2694 502.5892L525.5 301.66376Z" fill-rule="nonzero"/><path fill="#345ea2" d="M574.2694 546.2617C489.73633 556.3156 403.17026 539.7749 337.65817 501.05087C272.14612 462.32687 234.35 405.35745 234.35 345.33624L234.35 301.66376C234.35 361.68497 272.14612 418.6544 337.65817 457.3784C403.17026 496.1024 489.73633 512.6431 574.2694 502.5892Z" fill-rule="nonzero"/><path fill="#4a86e8" d="M574.2694 502.5892C465.9462 515.4726 356.48773 484.57126 291.24136 422.6873C225.99496 360.80328 216.0749 278.4781 265.5909 209.81801C315.10693 141.15794 415.62433 97.85875 525.5 97.85875L525.5 301.66376Z" fill-rule="nonzero"/><path fill="#ffffff" d="M33.021873 306.24966Q33.021873 303.37466 34.615623 301.98404Q35.959373 300.8278 37.88125 300.8278Q40.021873 300.8278 41.365623 302.23404Q42.725 303.6403 42.725 306.10904Q42.725 308.10904 42.13125 309.2653Q41.5375 310.4059 40.38125 311.04654Q39.240623 311.67154 37.88125 311.67154Q35.69375 311.67154 34.35 310.2809Q33.021873 308.87466 33.021873 306.24966ZM34.81875 306.24966Q34.81875 308.24966 35.678123 309.23404Q36.553123 310.2184 37.88125 310.2184Q39.19375 310.2184 40.053123 309.23404Q40.928123 308.23404 40.928123 306.18716Q40.928123 304.2653 40.053123 303.2809Q39.178123 302.2809 37.88125 302.2809Q36.553123 302.2809 35.678123 303.2809Q34.81875 304.2653 34.81875 306.24966ZM48.50625 309.85904L48.75625 311.42154Q48.021873 311.5778 47.428123 311.5778Q46.475 311.5778 45.94375 311.2809Q45.428123 310.9684 45.209373 310.48404Q44.990623 309.98404 44.990623 308.4059L44.990623 302.43716L43.709373 302.43716L43.709373 301.06216L44.990623 301.06216L44.990623 298.49966L46.740623 297.43716L46.740623 301.06216L48.50625 301.06216L48.50625 302.43716L46.740623 302.43716L46.740623 308.49966Q46.740623 309.24966 46.834373 309.4684Q46.928123 309.67154 47.13125 309.81216Q47.35 309.93716 47.740623 309.93716Q48.021873 309.93716 48.50625 309.85904ZM50.6625 311.43716L50.6625 297.12466L52.428123 297.12466L52.428123 302.24966Q53.6625 300.8278 55.5375 300.8278Q56.678123 300.8278 57.521873 301.2809Q58.38125 301.73404 58.740623 302.54654Q59.115623 303.3434 59.115623 304.85904L59.115623 311.43716L57.365623 311.43716L57.365623 304.85904Q57.365623 303.54654 56.7875 302.9528Q56.209373 302.3434 55.178123 302.3434Q54.396873 302.3434 53.69375 302.74966Q53.00625 303.1559 52.709373 303.85904Q52.428123 304.54654 52.428123 305.7653L52.428123 311.43716L50.6625 311.43716ZM67.77187 308.0934L69.58437 308.3278Q69.1625 309.9059 67.99062 310.79654Q66.83437 311.67154 65.02187 311.67154Q62.75625 311.67154 61.4125 310.2809Q60.084373 308.87466 60.084373 306.3434Q60.084373 303.7184 61.428123 302.2809Q62.771873 300.8278 64.92812 300.8278Q67.00625 300.8278 68.31875 302.24966Q69.64687 303.6559 69.64687 306.23404Q69.64687 306.3903 69.63125 306.7028L61.896873 306.7028Q61.990623 308.4059 62.865623 309.31216Q63.740623 310.2184 65.0375 310.2184Q66.00625 310.2184 66.67812 309.7184Q67.36562 309.2028 67.77187 308.0934ZM61.990623 305.24966L67.7875 305.24966Q67.67812 303.9528 67.13125 303.29654Q66.2875 302.2809 64.94375 302.2809Q63.740623 302.2809 62.9125 303.0934Q62.084373 303.8903 61.990623 305.24966ZM71.64687 311.43716L71.64687 301.06216L73.225 301.06216L73.225 302.6403Q73.83437 301.5309 74.35 301.18716Q74.86562 300.8278 75.475 300.8278Q76.36562 300.8278 77.2875 301.3903L76.67812 303.0309Q76.0375 302.6403 75.39687 302.6403Q74.81875 302.6403 74.35 302.99966Q73.89687 303.3434 73.69375 303.9528Q73.4125 304.8903 73.4125 305.99966L73.4125 311.43716L71.64687 311.43716ZM77.95937 308.3434L79.70937 308.06216Q79.85 309.10904 80.52187 309.67154Q81.19375 310.2184 82.39687 310.2184Q83.6 310.2184 84.17812 309.73404Q84.77187 309.23404 84.77187 308.5778Q84.77187 307.98404 84.25625 307.6403Q83.89687 307.4059 82.45937 307.04654Q80.52187 306.54654 79.77187 306.2028Q79.0375 305.8434 78.64687 305.2184Q78.25625 304.5778 78.25625 303.81216Q78.25625 303.12466 78.56875 302.5309Q78.89687 301.93716 79.44375 301.54654Q79.85 301.24966 80.55312 301.04654Q81.27187 300.8278 82.08437 300.8278Q83.30312 300.8278 84.225 301.18716Q85.14687 301.5309 85.58437 302.1403Q86.02187 302.73404 86.19375 303.73404L84.475 303.9684Q84.35 303.17154 83.7875 302.73404Q83.225 302.2809 82.20937 302.2809Q80.99062 302.2809 80.475 302.68716Q79.95937 303.0778 79.95937 303.60904Q79.95937 303.9528 80.17812 304.23404Q80.38125 304.5153 80.85 304.7028Q81.11562 304.79654 82.39687 305.1403Q84.27187 305.6403 85.00625 305.9684Q85.74062 306.2809 86.1625 306.8903Q86.58437 307.48404 86.58437 308.3903Q86.58437 309.2653 86.06875 310.04654Q85.55312 310.8278 84.58437 311.24966Q83.61562 311.67154 82.39687 311.67154Q80.38125 311.67154 79.31875 310.8278Q78.25625 309.98404 77.95937 308.3434Z" fill-rule="nonzero"/><path fill="#9e9e9e" d="M33.178123 334.68716L35.021873 334.5309Q35.225 335.87466 35.975 336.56216Q36.725 337.23404 37.7875 337.23404Q39.053123 337.23404 39.928123 336.2809Q40.803123 335.3278 40.803123 333.73404Q40.803123 332.23404 39.959373 331.37466Q39.115623 330.49966 37.75625 330.49966Q36.896873 330.49966 36.209373 330.8903Q35.5375 331.2653 35.146873 331.8903L33.490623 331.67154L34.88125 324.31216L42.00625 324.31216L42.00625 325.99966L36.2875 325.99966L35.521873 329.8434Q36.803123 328.93716 38.225 328.93716Q40.1 328.93716 41.38125 330.24966Q42.678123 331.54654 42.678123 333.5778Q42.678123 335.5309 41.5375 336.93716Q40.1625 338.68716 37.7875 338.68716Q35.834373 338.68716 34.584373 337.5934Q33.35 336.49966 33.178123 334.68716ZM53.4125 336.74966L53.4125 338.43716L43.959373 338.43716Q43.94375 337.79654 44.1625 337.2184Q44.521873 336.24966 45.31875 335.31216Q46.115623 334.37466 47.615623 333.1403Q49.959373 331.23404 50.771873 330.12466Q51.6 328.99966 51.6 327.99966Q51.6 326.9528 50.85 326.23404Q50.1 325.5153 48.896873 325.5153Q47.63125 325.5153 46.865623 326.2809Q46.1 327.04654 46.1 328.3903L44.2875 328.2028Q44.475 326.18716 45.678123 325.12466Q46.896873 324.06216 48.94375 324.06216Q50.990623 324.06216 52.19375 325.2028Q53.396873 326.3434 53.396873 328.0309Q53.396873 328.8903 53.0375 329.73404Q52.69375 330.56216 51.88125 331.48404Q51.06875 332.3903 49.178123 333.99966Q47.584373 335.3278 47.13125 335.79654Q46.69375 336.2653 46.396873 336.74966L53.4125 336.74966ZM56.1625 338.43716L56.1625 336.43716L58.1625 336.43716L58.1625 338.43716L56.1625 338.43716ZM61.303123 325.99966L61.303123 324.31216L70.56875 324.31216L70.56875 325.67154Q69.19375 327.12466 67.85 329.54654Q66.50625 331.9528 65.7875 334.49966Q65.25625 336.29654 65.1 338.43716L63.303123 338.43716Q63.334373 336.74966 63.959373 334.35904Q64.6 331.9684 65.7875 329.74966Q66.975 327.5153 68.30312 325.99966L61.303123 325.99966ZM72.50625 327.56216Q72.50625 326.0309 73.27187 324.9528Q74.05312 323.87466 75.52187 323.87466Q76.86562 323.87466 77.74062 324.8434Q78.63125 325.79654 78.63125 327.67154Q78.63125 329.48404 77.74062 330.4684Q76.85 331.43716 75.5375 331.43716Q74.24062 331.43716 73.36562 330.48404Q72.50625 329.5153 72.50625 327.56216ZM75.56875 325.0934Q74.9125 325.0934 74.475 325.6559Q74.05312 326.2184 74.05312 327.73404Q74.05312 329.10904 74.49062 329.67154Q74.92812 330.23404 75.56875 330.23404Q76.24062 330.23404 76.6625 329.67154Q77.1 329.0934 77.1 327.5934Q77.1 326.2028 76.6625 325.6559Q76.225 325.0934 75.56875 325.0934ZM75.58437 338.9684L83.4125 323.87466L84.83437 323.87466L77.0375 338.9684L75.58437 338.9684ZM81.77187 335.0778Q81.77187 333.5309 82.5375 332.4684Q83.31875 331.3903 84.7875 331.3903Q86.13125 331.3903 87.00625 332.35904Q87.89687 333.31216 87.89687 335.18716Q87.89687 336.99966 87.00625 337.98404Q86.11562 338.9684 84.80312 338.9684Q83.50625 338.9684 82.63125 337.99966Q81.77187 337.0153 81.77187 335.0778ZM84.83437 332.60904Q84.17812 332.60904 83.74062 333.17154Q83.30312 333.73404 83.30312 335.24966Q83.30312 336.62466 83.74062 337.18716Q84.17812 337.74966 84.83437 337.74966Q85.50625 337.74966 85.92812 337.18716Q86.36562 336.62466 86.36562 335.10904Q86.36562 333.73404 85.92812 333.17154Q85.49062 332.60904 84.83437 332.60904Z" fill-rule="nonzero"/><path stroke="#757575" stroke-width="1.0" stroke-linecap="butt" d="M32.35 317.93716L228.35 317.93716L249.88623 317.93716" fill-rule="nonzero"/><path fill="#9e9e9e" d="M251.88623 317.93716C251.88623 316.8326 250.9908 315.93716 249.88623 315.93716C248.78166 315.93716 247.88623 316.8326 247.88623 317.93716C247.88623 319.04175 248.78166 319.93716 249.88623 319.93716C250.9908 319.93716 251.88623 319.04175 251.88623 317.93716" fill-rule="nonzero"/><path fill="#ffffff" d="M994.7438 49.54461L996.4625 49.76336Q996.1813 51.560234 995.0094 52.57586Q993.85315 53.57586 992.15 53.57586Q990.025 53.57586 988.72815 52.185234Q987.4313 50.79461 987.4313 48.20086Q987.4313 46.51336 987.97815 45.26336Q988.54065 43.997734 989.6813 43.372734Q990.8219 42.73211 992.16565 42.73211Q993.85315 42.73211 994.91565 43.591484Q995.9938 44.45086 996.3063 46.01336L994.5875 46.278984Q994.35315 45.23211 993.72815 44.716484Q993.10315 44.185234 992.22815 44.185234Q990.9 44.185234 990.0719 45.13836Q989.2438 46.091484 989.2438 48.13836Q989.2438 50.23211 990.04065 51.185234Q990.8375 52.122734 992.1344 52.122734Q993.16565 52.122734 993.85315 51.497734Q994.5563 50.85711 994.7438 49.54461ZM997.9625 57.310234L997.9625 42.966484L999.5719 42.966484L999.5719 44.310234Q1000.1344 43.528984 1000.8375 43.13836Q1001.5563 42.73211 1002.5719 42.73211Q1003.9 42.73211 1004.91565 43.41961Q1005.9313 44.10711 1006.4469 45.35711Q1006.97815 46.591484 1006.97815 48.07586Q1006.97815 49.66961 1006.4 50.95086Q1005.8375 52.216484 1004.7438 52.903984Q1003.65 53.57586 1002.4469 53.57586Q1001.5719 53.57586 1000.8688 53.20086Q1000.1813 52.82586 999.72815 52.26336L999.72815 57.310234L997.9625 57.310234ZM999.5563 48.216484Q999.5563 50.216484 1000.3688 51.16961Q1001.1813 52.122734 1002.3375 52.122734Q1003.5094 52.122734 1004.3375 51.13836Q1005.1813 50.153984 1005.1813 48.060234Q1005.1813 46.091484 1004.35315 45.10711Q1003.54065 44.10711 1002.41565 44.10711Q1001.29065 44.10711 1000.41565 45.16961Q999.5563 46.216484 999.5563 48.216484ZM1008.9625 57.310234L1008.9625 42.966484L1010.5719 42.966484L1010.5719 44.310234Q1011.1344 43.528984 1011.8375 43.13836Q1012.5563 42.73211 1013.5719 42.73211Q1014.9 42.73211 1015.91565 43.41961Q1016.9313 44.10711 1017.4469 45.35711Q1017.97815 46.591484 1017.97815 48.07586Q1017.97815 49.66961 1017.4 50.95086Q1016.8375 52.216484 1015.7438 52.903984Q1014.65 53.57586 1013.4469 53.57586Q1012.5719 53.57586 1011.8688 53.20086Q1011.1813 52.82586 1010.72815 52.26336L1010.72815 57.310234L1008.9625 57.310234ZM1010.5563 48.216484Q1010.5563 50.216484 1011.3688 51.16961Q1012.1813 52.122734 1013.3375 52.122734Q1014.5094 52.122734 1015.3375 51.13836Q1016.1813 50.153984 1016.1813 48.060234Q1016.1813 46.091484 1015.35315 45.10711Q1014.54065 44.10711 1013.41565 44.10711Q1012.29065 44.10711 1011.41565 45.16961Q1010.5563 46.216484 1010.5563 48.216484Z" fill-rule="nonzero"/><path fill="#9e9e9e" d="M973.47815 73.278984Q973.47815 70.747734 973.9938 69.20086Q974.525 67.63836 975.5563 66.810234Q976.5875 65.966484 978.15 65.966484Q979.3063 65.966484 980.16565 66.435234Q981.04065 66.88836 981.60315 67.76336Q982.16565 68.63836 982.4938 69.903984Q982.8219 71.153984 982.8219 73.278984Q982.8219 75.79461 982.29065 77.341484Q981.775 78.88836 980.7438 79.747734Q979.72815 80.591484 978.15 80.591484Q976.0719 80.591484 974.9 79.10711Q973.47815 77.310234 973.47815 73.278984ZM975.29065 73.278984Q975.29065 76.810234 976.10315 77.98211Q976.9313 79.13836 978.15 79.13836Q979.35315 79.13836 980.1813 77.966484Q981.0094 76.79461 981.0094 73.278984Q981.0094 69.747734 980.1813 68.591484Q979.35315 67.41961 978.1344 67.41961Q976.91565 67.41961 976.1969 68.45086Q975.29065 69.747734 975.29065 73.278984ZM985.4625 80.341484L985.4625 78.341484L987.4625 78.341484L987.4625 80.341484L985.4625 80.341484ZM993.1813 72.57586Q992.0875 72.16961 991.5563 71.435234Q991.04065 70.685234 991.04065 69.653984Q991.04065 68.091484 992.16565 67.028984Q993.29065 65.966484 995.15 65.966484Q997.025 65.966484 998.16565 67.060234Q999.3063 68.13836 999.3063 69.70086Q999.3063 70.70086 998.775 71.435234Q998.2594 72.16961 997.1969 72.57586Q998.525 73.01336 999.2125 73.966484Q999.9 74.91961 999.9 76.247734Q999.9 78.091484 998.5875 79.341484Q997.29065 80.591484 995.1813 80.591484Q993.0563 80.591484 991.7594 79.341484Q990.4625 78.07586 990.4625 76.20086Q990.4625 74.810234 991.16565 73.872734Q991.8844 72.91961 993.1813 72.57586ZM992.8375 69.591484Q992.8375 70.60711 993.4938 71.26336Q994.15 71.903984 995.1813 71.903984Q996.1969 71.903984 996.85315 71.26336Q997.5094 70.622734 997.5094 69.70086Q997.5094 68.73211 996.8375 68.07586Q996.16565 67.403984 995.16565 67.403984Q994.16565 67.403984 993.4938 68.060234Q992.8375 68.70086 992.8375 69.591484ZM992.275 76.216484Q992.275 76.966484 992.6188 77.66961Q992.97815 78.372734 993.6813 78.76336Q994.3844 79.13836 995.1969 79.13836Q996.4625 79.13836 997.275 78.32586Q998.10315 77.51336 998.10315 76.26336Q998.10315 74.997734 997.2594 74.16961Q996.41565 73.341484 995.1344 73.341484Q993.9 73.341484 993.0875 74.16961Q992.275 74.98211 992.275 76.216484ZM1001.8063 69.466484Q1001.8063 67.935234 1002.5719 66.85711Q1003.35315 65.778984 1004.8219 65.778984Q1006.16565 65.778984 1007.04065 66.747734Q1007.9313 67.70086 1007.9313 69.57586Q1007.9313 71.38836 1007.04065 72.372734Q1006.15 73.341484 1004.8375 73.341484Q1003.54065 73.341484 1002.66565 72.38836Q1001.8063 71.41961 1001.8063 69.466484ZM1004.8688 66.997734Q1004.2125 66.997734 1003.775 67.560234Q1003.35315 68.122734 1003.35315 69.63836Q1003.35315 71.01336 1003.79065 71.57586Q1004.22815 72.13836 1004.8688 72.13836Q1005.54065 72.13836 1005.9625 71.57586Q1006.4 70.997734 1006.4 69.497734Q1006.4 68.10711 1005.9625 67.560234Q1005.525 66.997734 1004.8688 66.997734ZM1004.8844 80.872734L1012.7125 65.778984L1014.1344 65.778984L1006.3375 80.872734L1004.8844 80.872734ZM1011.0719 76.98211Q1011.0719 75.435234 1011.8375 74.372734Q1012.6188 73.29461 1014.0875 73.29461Q1015.4313 73.29461 1016.3063 74.26336Q1017.1969 75.216484 1017.1969 77.091484Q1017.1969 78.903984 1016.3063 79.88836Q1015.41565 80.872734 1014.10315 80.872734Q1012.8063 80.872734 1011.9313 79.903984Q1011.0719 78.91961 1011.0719 76.98211ZM1014.1344 74.51336Q1013.47815 74.51336 1013.04065 75.07586Q1012.60315 75.63836 1012.60315 77.153984Q1012.60315 78.528984 1013.04065 79.091484Q1013.47815 79.653984 1014.1344 79.653984Q1014.8063 79.653984 1015.22815 79.091484Q1015.66565 78.528984 1015.66565 77.01336Q1015.66565 75.63836 1015.22815 75.07586Q1014.79065 74.51336 1014.1344 74.51336Z" fill-rule="nonzero"/><path stroke="#757575" stroke-width="1.0" stroke-linecap="butt" d="M1018.65 59.841484L822.65 59.841484L624.7426 120.94127" fill-rule="nonzero"/><path fill="#9e9e9e" d="M626.7426 120.94127C626.7426 119.8367 625.84717 118.94127 624.7426 118.94127C623.638 118.94127 622.7426 119.8367 622.7426 120.94127C622.7426 122.04584 623.638 122.94127 624.7426 122.94127C625.84717 122.94127 626.7426 122.04584 626.7426 120.94127" fill-rule="nonzero"/><path fill="#ffffff" d="M969.04065 104.341484L969.04065 102.91961L975.65 95.341484Q974.525 95.38836 973.66565 95.38836L969.4313 95.38836L969.4313 93.966484L977.91565 93.966484L977.91565 95.13836L972.29065 101.716484L971.2125 102.91961Q972.3844 102.82586 973.4313 102.82586L978.22815 102.82586L978.22815 104.341484L969.04065 104.341484ZM978.97815 92.04461L978.97815 90.028984L980.7438 90.028984L980.7438 92.04461L978.97815 92.04461ZM978.97815 104.341484L978.97815 93.966484L980.7438 93.966484L980.7438 104.341484L978.97815 104.341484ZM982.65 105.20086L984.35315 105.45086Q984.4625 106.247734 984.9469 106.60711Q985.60315 107.091484 986.7438 107.091484Q987.9625 107.091484 988.6188 106.60711Q989.29065 106.122734 989.525 105.247734Q989.66565 104.70086 989.65 102.98211Q988.4938 104.341484 986.775 104.341484Q984.6344 104.341484 983.4625 102.79461Q982.29065 101.247734 982.29065 99.091484Q982.29065 97.60711 982.8219 96.35711Q983.3688 95.10711 984.3844 94.41961Q985.41565 93.73211 986.79065 93.73211Q988.6188 93.73211 989.8219 95.216484L989.8219 93.966484L991.4313 93.966484L991.4313 102.935234Q991.4313 105.35711 990.9313 106.35711Q990.4469 107.372734 989.3688 107.95086Q988.3063 108.54461 986.7438 108.54461Q984.9 108.54461 983.7438 107.716484Q982.60315 106.88836 982.65 105.20086ZM984.10315 98.966484Q984.10315 101.01336 984.91565 101.95086Q985.72815 102.88836 986.9469 102.88836Q988.15 102.88836 988.9625 101.95086Q989.79065 101.01336 989.79065 99.028984Q989.79065 97.122734 988.9469 96.153984Q988.10315 95.185234 986.91565 95.185234Q985.7438 95.185234 984.91565 96.13836Q984.10315 97.091484 984.10315 98.966484ZM993.29065 100.04461L993.29065 98.278984L998.6813 98.278984L998.6813 100.04461L993.29065 100.04461ZM1000.9313 104.341484L1000.9313 90.028984L1002.6813 90.028984L1002.6813 104.341484L1000.9313 104.341484ZM1004.97815 92.04461L1004.97815 90.028984L1006.7438 90.028984L1006.7438 92.04461L1004.97815 92.04461ZM1004.97815 104.341484L1004.97815 93.966484L1006.7438 93.966484L1006.7438 104.341484L1004.97815 104.341484ZM1010.5875 104.341484L1008.9625 104.341484L1008.9625 90.028984L1010.7125 90.028984L1010.7125 95.13836Q1011.8375 93.73211 1013.5563 93.73211Q1014.5094 93.73211 1015.3688 94.122734Q1016.22815 94.51336 1016.775 95.216484Q1017.3219 95.903984 1017.6344 96.88836Q1017.9469 97.872734 1017.9469 98.997734Q1017.9469 101.66961 1016.6344 103.122734Q1015.3219 104.57586 1013.47815 104.57586Q1011.6344 104.57586 1010.5875 103.04461L1010.5875 104.341484ZM1010.5719 99.07586Q1010.5719 100.935234 1011.0719 101.778984Q1011.91565 103.122734 1013.3219 103.122734Q1014.47815 103.122734 1015.3063 102.122734Q1016.15 101.122734 1016.15 99.13836Q1016.15 97.10711 1015.3375 96.153984Q1014.54065 95.185234 1013.4 95.185234Q1012.2438 95.185234 1011.4 96.185234Q1010.5719 97.185234 1010.5719 99.07586Z" fill-rule="nonzero"/><path fill="#9e9e9e" d="M973.47815 124.27898Q973.47815 121.74773 973.9938 120.20085Q974.525 118.63835 975.5563 117.81023Q976.5875 116.96648 978.15 116.96648Q979.3063 116.96648 980.16565 117.43523Q981.04065 117.88835 981.60315 118.76335Q982.16565 119.63835 982.4938 120.90398Q982.8219 122.15398 982.8219 124.27898Q982.8219 126.7946 982.29065 128.34148Q981.775 129.88835 980.7438 130.74773Q979.72815 131.59148 978.15 131.59148Q976.0719 131.59148 974.9 130.1071Q973.47815 128.31023 973.47815 124.27898ZM975.29065 124.27898Q975.29065 127.81023 976.10315 128.9821Q976.9313 130.13835 978.15 130.13835Q979.35315 130.13835 980.1813 128.96648Q981.0094 127.7946 981.0094 124.27898Q981.0094 120.74773 980.1813 119.59148Q979.35315 118.4196 978.1344 118.4196Q976.91565 118.4196 976.1969 119.45085Q975.29065 120.74773 975.29065 124.27898ZM985.4625 131.34148L985.4625 129.34148L987.4625 129.34148L987.4625 131.34148L985.4625 131.34148ZM990.7438 128.02898L992.4313 127.87273Q992.65 129.06023 993.2438 129.6071Q993.85315 130.13835 994.8063 130.13835Q995.6188 130.13835 996.22815 129.77898Q996.8375 129.40398 997.22815 128.77898Q997.6188 128.15398 997.8844 127.1071Q998.15 126.0446 998.15 124.95085Q998.15 124.84148 998.1344 124.6071Q997.60315 125.43523 996.6969 125.96648Q995.79065 126.4821 994.7125 126.4821Q992.9469 126.4821 991.7125 125.20085Q990.47815 123.90398 990.47815 121.7946Q990.47815 119.62273 991.7594 118.2946Q993.0563 116.96648 994.97815 116.96648Q996.3844 116.96648 997.54065 117.71648Q998.6969 118.46648 999.29065 119.8571Q999.9 121.24773 999.9 123.88835Q999.9 126.63835 999.29065 128.26335Q998.6969 129.88835 997.525 130.74773Q996.35315 131.59148 994.775 131.59148Q993.0875 131.59148 992.025 130.65398Q990.9625 129.71648 990.7438 128.02898ZM997.9469 121.71648Q997.9469 120.20085 997.1344 119.31023Q996.3375 118.4196 995.1969 118.4196Q994.025 118.4196 993.15 119.38835Q992.29065 120.34148 992.29065 121.8571Q992.29065 123.2321 993.10315 124.09148Q993.9313 124.93523 995.15 124.93523Q996.3688 124.93523 997.15 124.09148Q997.9469 123.2321 997.9469 121.71648ZM1001.8063 120.46648Q1001.8063 118.93523 1002.5719 117.8571Q1003.35315 116.77898 1004.8219 116.77898Q1006.16565 116.77898 1007.04065 117.74773Q1007.9313 118.70085 1007.9313 120.57585Q1007.9313 122.38835 1007.04065 123.37273Q1006.15 124.34148 1004.8375 124.34148Q1003.54065 124.34148 1002.66565 123.38835Q1001.8063 122.4196 1001.8063 120.46648ZM1004.8688 117.99773Q1004.2125 117.99773 1003.775 118.56023Q1003.35315 119.12273 1003.35315 120.63835Q1003.35315 122.01335 1003.79065 122.57585Q1004.22815 123.13835 1004.8688 123.13835Q1005.54065 123.13835 1005.9625 122.57585Q1006.4 121.99773 1006.4 120.49773Q1006.4 119.1071 1005.9625 118.56023Q1005.525 117.99773 1004.8688 117.99773ZM1004.8844 131.87273L1012.7125 116.77898L1014.1344 116.77898L1006.3375 131.87273L1004.8844 131.87273ZM1011.0719 127.9821Q1011.0719 126.43523 1011.8375 125.37273Q1012.6188 124.2946 1014.0875 124.2946Q1015.4313 124.2946 1016.3063 125.26335Q1017.1969 126.21648 1017.1969 128.09148Q1017.1969 129.90398 1016.3063 130.88835Q1015.41565 131.87273 1014.10315 131.87273Q1012.8063 131.87273 1011.9313 130.90398Q1011.0719 129.9196 1011.0719 127.9821ZM1014.1344 125.51335Q1013.47815 125.51335 1013.04065 126.07585Q1012.60315 126.63835 1012.60315 128.15398Q1012.60315 129.52898 1013.04065 130.09148Q1013.47815 130.65398 1014.1344 130.65398Q1014.8063 130.65398 1015.22815 130.09148Q1015.66565 129.52898 1015.66565 128.01335Q1015.66565 126.63835 1015.22815 126.07585Q1014.79065 125.51335 1014.1344 125.51335Z" fill-rule="nonzero"/><path stroke="#757575" stroke-width="1.0" stroke-linecap="butt" d="M1018.65 110.841484L822.65 110.841484L638.4726 124.93545" fill-rule="nonzero"/><path fill="#9e9e9e" d="M640.4726 124.93545C640.4726 123.83088 639.5772 122.93545 638.4726 122.93545C637.36804 122.93545 636.4726 123.83088 636.4726 124.93545C636.4726 126.040016 637.36804 126.93545 638.4726 126.93545C639.5772 126.93545 640.4726 126.040016 640.4726 124.93545" fill-rule="nonzero"/><path fill="#ffffff" d="M909.04065 155.34148L909.04065 153.9196L915.65 146.34148Q914.525 146.38835 913.66565 146.38835L909.4313 146.38835L909.4313 144.96648L917.91565 144.96648L917.91565 146.13835L912.29065 152.71648L911.2125 153.9196Q912.3844 153.82585 913.4313 153.82585L918.22815 153.82585L918.22815 155.34148L909.04065 155.34148ZM918.97815 143.0446L918.97815 141.02898L920.7438 141.02898L920.7438 143.0446L918.97815 143.0446ZM918.97815 155.34148L918.97815 144.96648L920.7438 144.96648L920.7438 155.34148L918.97815 155.34148ZM922.65 156.20085L924.35315 156.45085Q924.4625 157.24773 924.9469 157.6071Q925.60315 158.09148 926.7438 158.09148Q927.9625 158.09148 928.6188 157.6071Q929.29065 157.12273 929.525 156.24773Q929.66565 155.70085 929.65 153.9821Q928.4938 155.34148 926.775 155.34148Q924.6344 155.34148 923.4625 153.7946Q922.29065 152.24773 922.29065 150.09148Q922.29065 148.6071 922.8219 147.3571Q923.3688 146.1071 924.3844 145.4196Q925.41565 144.7321 926.79065 144.7321Q928.6188 144.7321 929.8219 146.21648L929.8219 144.96648L931.4313 144.96648L931.4313 153.93523Q931.4313 156.3571 930.9313 157.3571Q930.4469 158.37273 929.3688 158.95085Q928.3063 159.5446 926.7438 159.5446Q924.9 159.5446 923.7438 158.71648Q922.60315 157.88835 922.65 156.20085ZM924.10315 149.96648Q924.10315 152.01335 924.91565 152.95085Q925.72815 153.88835 926.9469 153.88835Q928.15 153.88835 928.9625 152.95085Q929.79065 152.01335 929.79065 150.02898Q929.79065 148.12273 928.9469 147.15398Q928.10315 146.18523 926.91565 146.18523Q925.7438 146.18523 924.91565 147.13835Q924.10315 148.09148 924.10315 149.96648ZM933.29065 151.0446L933.29065 149.27898L938.6813 149.27898L938.6813 151.0446L933.29065 151.0446ZM940.9313 155.34148L940.9313 141.02898L942.6813 141.02898L942.6813 155.34148L940.9313 155.34148ZM951.7438 154.06023Q950.7594 154.88835 949.85315 155.2321Q948.9469 155.57585 947.91565 155.57585Q946.2125 155.57585 945.29065 154.74773Q944.3688 153.90398 944.3688 152.6071Q944.3688 151.84148 944.7125 151.21648Q945.0719 150.59148 945.6344 150.21648Q946.1969 149.82585 946.9 149.62273Q947.41565 149.49773 948.4625 149.3571Q950.5875 149.1071 951.5875 148.76335Q951.60315 148.40398 951.60315 148.2946Q951.60315 147.2321 951.10315 146.77898Q950.4313 146.18523 949.10315 146.18523Q947.85315 146.18523 947.2594 146.62273Q946.6813 147.06023 946.4 148.1696L944.6813 147.93523Q944.91565 146.82585 945.4469 146.15398Q945.97815 145.46648 946.9938 145.1071Q948.0094 144.7321 949.35315 144.7321Q950.6813 144.7321 951.5094 145.0446Q952.3375 145.3571 952.72815 145.84148Q953.1188 146.31023 953.275 147.02898Q953.3688 147.4821 953.3688 148.65398L953.3688 150.99773Q953.3688 153.45085 953.47815 154.1071Q953.5875 154.74773 953.9313 155.34148L952.0875 155.34148Q951.8219 154.7946 951.7438 154.06023ZM951.5875 150.13835Q950.6344 150.52898 948.7125 150.7946Q947.6344 150.95085 947.1813 151.15398Q946.7438 151.34148 946.4938 151.71648Q946.2438 152.09148 946.2438 152.56023Q946.2438 153.26335 946.775 153.7321Q947.3063 154.20085 948.3375 154.20085Q949.35315 154.20085 950.1344 153.76335Q950.9313 153.31023 951.3063 152.5446Q951.5875 151.93523 951.5875 150.77898L951.5875 150.13835ZM955.9625 155.34148L955.9625 144.96648L957.5563 144.96648L957.5563 146.45085Q958.6969 144.7321 960.85315 144.7321Q961.79065 144.7321 962.5719 145.07585Q963.3688 145.40398 963.7594 145.95085Q964.15 146.49773 964.3063 147.24773Q964.4 147.74773 964.4 148.96648L964.4 155.34148L962.6344 155.34148L962.6344 149.02898Q962.6344 147.95085 962.4313 147.4196Q962.22815 146.88835 961.6969 146.57585Q961.1813 146.26335 960.47815 146.26335Q959.35315 146.26335 958.54065 146.9821Q957.72815 147.68523 957.72815 149.6696L957.72815 155.34148L955.9625 155.34148ZM965.65 156.20085L967.35315 156.45085Q967.4625 157.24773 967.9469 157.6071Q968.60315 158.09148 969.7438 158.09148Q970.9625 158.09148 971.6188 157.6071Q972.29065 157.12273 972.525 156.24773Q972.66565 155.70085 972.65 153.9821Q971.4938 155.34148 969.775 155.34148Q967.6344 155.34148 966.4625 153.7946Q965.29065 152.24773 965.29065 150.09148Q965.29065 148.6071 965.8219 147.3571Q966.3688 146.1071 967.3844 145.4196Q968.41565 144.7321 969.79065 144.7321Q971.6188 144.7321 972.8219 146.21648L972.8219 144.96648L974.4313 144.96648L974.4313 153.93523Q974.4313 156.3571 973.9313 157.3571Q973.4469 158.37273 972.3688 158.95085Q971.3063 159.5446 969.7438 159.5446Q967.9 159.5446 966.7438 158.71648Q965.60315 157.88835 965.65 156.20085ZM967.10315 149.96648Q967.10315 152.01335 967.91565 152.95085Q968.72815 153.88835 969.9469 153.88835Q971.15 153.88835 971.9625 152.95085Q972.79065 152.01335 972.79065 150.02898Q972.79065 148.12273 971.9469 147.15398Q971.10315 146.18523 969.91565 146.18523Q968.7438 146.18523 967.91565 147.13835Q967.10315 148.09148 967.10315 149.96648ZM983.7594 155.34148L983.7594 153.81023Q982.5563 155.57585 980.47815 155.57585Q979.5563 155.57585 978.7594 155.2321Q977.9625 154.87273 977.5719 154.34148Q977.1969 153.81023 977.04065 153.02898Q976.9313 152.51335 976.9313 151.38835L976.9313 144.96648L978.6813 144.96648L978.6813 150.71648Q978.6813 152.09148 978.79065 152.57585Q978.9625 153.26335 979.4938 153.6696Q980.04065 154.06023 980.8219 154.06023Q981.6188 154.06023 982.3063 153.65398Q983.0094 153.24773 983.29065 152.56023Q983.5875 151.8571 983.5875 150.52898L983.5875 144.96648L985.3375 144.96648L985.3375 155.34148L983.7594 155.34148ZM993.7438 154.06023Q992.7594 154.88835 991.85315 155.2321Q990.9469 155.57585 989.91565 155.57585Q988.2125 155.57585 987.29065 154.74773Q986.3688 153.90398 986.3688 152.6071Q986.3688 151.84148 986.7125 151.21648Q987.0719 150.59148 987.6344 150.21648Q988.1969 149.82585 988.9 149.62273Q989.41565 149.49773 990.4625 149.3571Q992.5875 149.1071 993.5875 148.76335Q993.60315 148.40398 993.60315 148.2946Q993.60315 147.2321 993.10315 146.77898Q992.4313 146.18523 991.10315 146.18523Q989.85315 146.18523 989.2594 146.62273Q988.6813 147.06023 988.4 148.1696L986.6813 147.93523Q986.91565 146.82585 987.4469 146.15398Q987.97815 145.46648 988.9938 145.1071Q990.0094 144.7321 991.35315 144.7321Q992.6813 144.7321 993.5094 145.0446Q994.3375 145.3571 994.72815 145.84148Q995.1188 146.31023 995.275 147.02898Q995.3688 147.4821 995.3688 148.65398L995.3688 150.99773Q995.3688 153.45085 995.47815 154.1071Q995.5875 154.74773 995.9313 155.34148L994.0875 155.34148Q993.8219 154.7946 993.7438 154.06023ZM993.5875 150.13835Q992.6344 150.52898 990.7125 150.7946Q989.6344 150.95085 989.1813 151.15398Q988.7438 151.34148 988.4938 151.71648Q988.2438 152.09148 988.2438 152.56023Q988.2438 153.26335 988.775 153.7321Q989.3063 154.20085 990.3375 154.20085Q991.35315 154.20085 992.1344 153.76335Q992.9313 153.31023 993.3063 152.5446Q993.5875 151.93523 993.5875 150.77898L993.5875 150.13835ZM997.65 156.20085L999.35315 156.45085Q999.4625 157.24773 999.9469 157.6071Q1000.60315 158.09148 1001.7438 158.09148Q1002.9625 158.09148 1003.6188 157.6071Q1004.29065 157.12273 1004.525 156.24773Q1004.66565 155.70085 1004.65 153.9821Q1003.4938 155.34148 1001.775 155.34148Q999.6344 155.34148 998.4625 153.7946Q997.29065 152.24773 997.29065 150.09148Q997.29065 148.6071 997.8219 147.3571Q998.3688 146.1071 999.3844 145.4196Q1000.41565 144.7321 1001.79065 144.7321Q1003.6188 144.7321 1004.8219 146.21648L1004.8219 144.96648L1006.4313 144.96648L1006.4313 153.93523Q1006.4313 156.3571 1005.9313 157.3571Q1005.4469 158.37273 1004.3688 158.95085Q1003.3063 159.5446 1001.7438 159.5446Q999.9 159.5446 998.7438 158.71648Q997.60315 157.88835 997.65 156.20085ZM999.10315 149.96648Q999.10315 152.01335 999.91565 152.95085Q1000.72815 153.88835 1001.9469 153.88835Q1003.15 153.88835 1003.9625 152.95085Q1004.79065 152.01335 1004.79065 150.02898Q1004.79065 148.12273 1003.9469 147.15398Q1003.10315 146.18523 1001.91565 146.18523Q1000.7438 146.18523 999.91565 147.13835Q999.10315 148.09148 999.10315 149.96648ZM1016.0719 151.99773L1017.8844 152.2321Q1017.4625 153.81023 1016.29065 154.70085Q1015.1344 155.57585 1013.3219 155.57585Q1011.0563 155.57585 1009.7125 154.18523Q1008.3844 152.77898 1008.3844 150.24773Q1008.3844 147.62273 1009.72815 146.18523Q1011.0719 144.7321 1013.22815 144.7321Q1015.3063 144.7321 1016.6188 146.15398Q1017.9469 147.56023 1017.9469 150.13835Q1017.9469 150.2946 1017.9313 150.6071L1010.1969 150.6071Q1010.29065 152.31023 1011.16565 153.21648Q1012.04065 154.12273 1013.3375 154.12273Q1014.3063 154.12273 1014.97815 153.62273Q1015.66565 153.1071 1016.0719 151.99773ZM1010.29065 149.15398L1016.0875 149.15398Q1015.97815 147.8571 1015.4313 147.20085Q1014.5875 146.18523 1013.2438 146.18523Q1012.04065 146.18523 1011.2125 146.99773Q1010.3844 147.7946 1010.29065 149.15398Z" fill-rule="nonzero"/><path fill="#9e9e9e" d="M980.10315 182.34148L978.3375 182.34148L978.3375 171.13835Q977.7125 171.74773 976.6813 172.3571Q975.65 172.95085 974.8219 173.26335L974.8219 171.56023Q976.3063 170.87273 977.4 169.88835Q978.5094 168.88835 978.9625 167.96648L980.10315 167.96648L980.10315 182.34148ZM985.4625 182.34148L985.4625 180.34148L987.4625 180.34148L987.4625 182.34148L985.4625 182.34148ZM990.47815 175.27898Q990.47815 172.74773 990.9938 171.20085Q991.525 169.63835 992.5563 168.81023Q993.5875 167.96648 995.15 167.96648Q996.3063 167.96648 997.16565 168.43523Q998.04065 168.88835 998.60315 169.76335Q999.16565 170.63835 999.4938 171.90398Q999.8219 173.15398 999.8219 175.27898Q999.8219 177.7946 999.29065 179.34148Q998.775 180.88835 997.7438 181.74773Q996.72815 182.59148 995.15 182.59148Q993.0719 182.59148 991.9 181.1071Q990.47815 179.31023 990.47815 175.27898ZM992.29065 175.27898Q992.29065 178.81023 993.10315 179.9821Q993.9313 181.13835 995.15 181.13835Q996.35315 181.13835 997.1813 179.96648Q998.0094 178.7946 998.0094 175.27898Q998.0094 171.74773 997.1813 170.59148Q996.35315 169.4196 995.1344 169.4196Q993.91565 169.4196 993.1969 170.45085Q992.29065 171.74773 992.29065 175.27898ZM1001.8063 171.46648Q1001.8063 169.93523 1002.5719 168.8571Q1003.35315 167.77898 1004.8219 167.77898Q1006.16565 167.77898 1007.04065 168.74773Q1007.9313 169.70085 1007.9313 171.57585Q1007.9313 173.38835 1007.04065 174.37273Q1006.15 175.34148 1004.8375 175.34148Q1003.54065 175.34148 1002.66565 174.38835Q1001.8063 173.4196 1001.8063 171.46648ZM1004.8688 168.99773Q1004.2125 168.99773 1003.775 169.56023Q1003.35315 170.12273 1003.35315 171.63835Q1003.35315 173.01335 1003.79065 173.57585Q1004.22815 174.13835 1004.8688 174.13835Q1005.54065 174.13835 1005.9625 173.57585Q1006.4 172.99773 1006.4 171.49773Q1006.4 170.1071 1005.9625 169.56023Q1005.525 168.99773 1004.8688 168.99773ZM1004.8844 182.87273L1012.7125 167.77898L1014.1344 167.77898L1006.3375 182.87273L1004.8844 182.87273ZM1011.0719 178.9821Q1011.0719 177.43523 1011.8375 176.37273Q1012.6188 175.2946 1014.0875 175.2946Q1015.4313 175.2946 1016.3063 176.26335Q1017.1969 177.21648 1017.1969 179.09148Q1017.1969 180.90398 1016.3063 181.88835Q1015.41565 182.87273 1014.10315 182.87273Q1012.8063 182.87273 1011.9313 181.90398Q1011.0719 180.9196 1011.0719 178.9821ZM1014.1344 176.51335Q1013.47815 176.51335 1013.04065 177.07585Q1012.60315 177.63835 1012.60315 179.15398Q1012.60315 180.52898 1013.04065 181.09148Q1013.47815 181.65398 1014.1344 181.65398Q1014.8063 181.65398 1015.22815 181.09148Q1015.66565 180.52898 1015.66565 179.01335Q1015.66565 177.63835 1015.22815 177.07585Q1014.79065 176.51335 1014.1344 176.51335Z" fill-rule="nonzero"/><path stroke="#757575" stroke-width="1.0" stroke-linecap="butt" d="M1018.65 161.84148L822.65 161.84148L653.025 129.85576" fill-rule="nonzero"/><path fill="#9e9e9e" d="M655.025 129.85576C655.025 128.75119 654.1296 127.85577 653.025 127.85577C651.9204 127.85577 651.025 128.75119 651.025 129.85576C651.025 130.96033 651.9204 131.85576 653.025 131.85576C654.1296 131.85576 655.025 130.96033 655.025 129.85576" fill-rule="nonzero"/><path fill="#ffffff" d="M952.04065 206.34148L952.04065 204.9196L958.65 197.34148Q957.525 197.38835 956.66565 197.38835L952.4313 197.38835L952.4313 195.96648L960.91565 195.96648L960.91565 197.13835L955.29065 203.71648L954.2125 204.9196Q955.3844 204.82585 956.4313 204.82585L961.22815 204.82585L961.22815 206.34148L952.04065 206.34148ZM961.97815 194.0446L961.97815 192.02898L963.7438 192.02898L963.7438 194.0446L961.97815 194.0446ZM961.97815 206.34148L961.97815 195.96648L963.7438 195.96648L963.7438 206.34148L961.97815 206.34148ZM965.65 207.20085L967.35315 207.45085Q967.4625 208.24773 967.9469 208.6071Q968.60315 209.09148 969.7438 209.09148Q970.9625 209.09148 971.6188 208.6071Q972.29065 208.12273 972.525 207.24773Q972.66565 206.70085 972.65 204.9821Q971.4938 206.34148 969.775 206.34148Q967.6344 206.34148 966.4625 204.7946Q965.29065 203.24773 965.29065 201.09148Q965.29065 199.6071 965.8219 198.3571Q966.3688 197.1071 967.3844 196.4196Q968.41565 195.7321 969.79065 195.7321Q971.6188 195.7321 972.8219 197.21648L972.8219 195.96648L974.4313 195.96648L974.4313 204.93523Q974.4313 207.3571 973.9313 208.3571Q973.4469 209.37273 972.3688 209.95085Q971.3063 210.5446 969.7438 210.5446Q967.9 210.5446 966.7438 209.71648Q965.60315 208.88835 965.65 207.20085ZM967.10315 200.96648Q967.10315 203.01335 967.91565 203.95085Q968.72815 204.88835 969.9469 204.88835Q971.15 204.88835 971.9625 203.95085Q972.79065 203.01335 972.79065 201.02898Q972.79065 199.12273 971.9469 198.15398Q971.10315 197.18523 969.91565 197.18523Q968.7438 197.18523 967.91565 198.13835Q967.10315 199.09148 967.10315 200.96648ZM976.29065 202.0446L976.29065 200.27898L981.6813 200.27898L981.6813 202.0446L976.29065 202.0446ZM983.9313 206.34148L983.9313 192.02898L985.6813 192.02898L985.6813 206.34148L983.9313 206.34148ZM994.7438 205.06023Q993.7594 205.88835 992.85315 206.2321Q991.9469 206.57585 990.91565 206.57585Q989.2125 206.57585 988.29065 205.74773Q987.3688 204.90398 987.3688 203.6071Q987.3688 202.84148 987.7125 202.21648Q988.0719 201.59148 988.6344 201.21648Q989.1969 200.82585 989.9 200.62273Q990.41565 200.49773 991.4625 200.3571Q993.5875 200.1071 994.5875 199.76335Q994.60315 199.40398 994.60315 199.2946Q994.60315 198.2321 994.10315 197.77898Q993.4313 197.18523 992.10315 197.18523Q990.85315 197.18523 990.2594 197.62273Q989.6813 198.06023 989.4 199.1696L987.6813 198.93523Q987.91565 197.82585 988.4469 197.15398Q988.97815 196.46648 989.9938 196.1071Q991.0094 195.7321 992.35315 195.7321Q993.6813 195.7321 994.5094 196.0446Q995.3375 196.3571 995.72815 196.84148Q996.1188 197.31023 996.275 198.02898Q996.3688 198.4821 996.3688 199.65398L996.3688 201.99773Q996.3688 204.45085 996.47815 205.1071Q996.5875 205.74773 996.9313 206.34148L995.0875 206.34148Q994.8219 205.7946 994.7438 205.06023ZM994.5875 201.13835Q993.6344 201.52898 991.7125 201.7946Q990.6344 201.95085 990.1813 202.15398Q989.7438 202.34148 989.4938 202.71648Q989.2438 203.09148 989.2438 203.56023Q989.2438 204.26335 989.775 204.7321Q990.3063 205.20085 991.3375 205.20085Q992.35315 205.20085 993.1344 204.76335Q993.9313 204.31023 994.3063 203.5446Q994.5875 202.93523 994.5875 201.77898L994.5875 201.13835ZM998.9625 206.34148L998.9625 195.96648L1000.5563 195.96648L1000.5563 197.45085Q1001.6969 195.7321 1003.85315 195.7321Q1004.79065 195.7321 1005.5719 196.07585Q1006.3688 196.40398 1006.7594 196.95085Q1007.15 197.49773 1007.3063 198.24773Q1007.4 198.74773 1007.4 199.96648L1007.4 206.34148L1005.6344 206.34148L1005.6344 200.02898Q1005.6344 198.95085 1005.4313 198.4196Q1005.22815 197.88835 1004.6969 197.57585Q1004.1813 197.26335 1003.47815 197.26335Q1002.35315 197.26335 1001.54065 197.9821Q1000.72815 198.68523 1000.72815 200.6696L1000.72815 206.34148L998.9625 206.34148ZM1008.65 207.20085L1010.35315 207.45085Q1010.4625 208.24773 1010.9469 208.6071Q1011.60315 209.09148 1012.7438 209.09148Q1013.9625 209.09148 1014.6188 208.6071Q1015.29065 208.12273 1015.525 207.24773Q1015.66565 206.70085 1015.65 204.9821Q1014.4938 206.34148 1012.775 206.34148Q1010.6344 206.34148 1009.4625 204.7946Q1008.29065 203.24773 1008.29065 201.09148Q1008.29065 199.6071 1008.8219 198.3571Q1009.3688 197.1071 1010.3844 196.4196Q1011.41565 195.7321 1012.79065 195.7321Q1014.6188 195.7321 1015.8219 197.21648L1015.8219 195.96648L1017.4313 195.96648L1017.4313 204.93523Q1017.4313 207.3571 1016.9313 208.3571Q1016.4469 209.37273 1015.3688 209.95085Q1014.3063 210.5446 1012.7438 210.5446Q1010.9 210.5446 1009.7438 209.71648Q1008.60315 208.88835 1008.65 207.20085ZM1010.10315 200.96648Q1010.10315 203.01335 1010.91565 203.95085Q1011.72815 204.88835 1012.9469 204.88835Q1014.15 204.88835 1014.9625 203.95085Q1015.79065 203.01335 1015.79065 201.02898Q1015.79065 199.12273 1014.9469 198.15398Q1014.10315 197.18523 1012.91565 197.18523Q1011.7438 197.18523 1010.91565 198.13835Q1010.10315 199.09148 1010.10315 200.96648Z" fill-rule="nonzero"/><path fill="#9e9e9e" d="M980.10315 233.34148L978.3375 233.34148L978.3375 222.13835Q977.7125 222.74773 976.6813 223.3571Q975.65 223.95085 974.8219 224.26335L974.8219 222.56023Q976.3063 221.87273 977.4 220.88835Q978.5094 219.88835 978.9625 218.96648L980.10315 218.96648L980.10315 233.34148ZM985.4625 233.34148L985.4625 231.34148L987.4625 231.34148L987.4625 233.34148L985.4625 233.34148ZM999.7125 231.65398L999.7125 233.34148L990.2594 233.34148Q990.2438 232.70085 990.4625 232.12273Q990.8219 231.15398 991.6188 230.21648Q992.41565 229.27898 993.91565 228.0446Q996.2594 226.13835 997.0719 225.02898Q997.9 223.90398 997.9 222.90398Q997.9 221.8571 997.15 221.13835Q996.4 220.4196 995.1969 220.4196Q993.9313 220.4196 993.16565 221.18523Q992.4 221.95085 992.4 223.2946L990.5875 223.1071Q990.775 221.09148 991.97815 220.02898Q993.1969 218.96648 995.2438 218.96648Q997.29065 218.96648 998.4938 220.1071Q999.6969 221.24773 999.6969 222.93523Q999.6969 223.7946 999.3375 224.63835Q998.9938 225.46648 998.1813 226.38835Q997.3688 227.2946 995.47815 228.90398Q993.8844 230.2321 993.4313 230.70085Q992.9938 231.1696 992.6969 231.65398L999.7125 231.65398ZM1001.8063 222.46648Q1001.8063 220.93523 1002.5719 219.8571Q1003.35315 218.77898 1004.8219 218.77898Q1006.16565 218.77898 1007.04065 219.74773Q1007.9313 220.70085 1007.9313 222.57585Q1007.9313 224.38835 1007.04065 225.37273Q1006.15 226.34148 1004.8375 226.34148Q1003.54065 226.34148 1002.66565 225.38835Q1001.8063 224.4196 1001.8063 222.46648ZM1004.8688 219.99773Q1004.2125 219.99773 1003.775 220.56023Q1003.35315 221.12273 1003.35315 222.63835Q1003.35315 224.01335 1003.79065 224.57585Q1004.22815 225.13835 1004.8688 225.13835Q1005.54065 225.13835 1005.9625 224.57585Q1006.4 223.99773 1006.4 222.49773Q1006.4 221.1071 1005.9625 220.56023Q1005.525 219.99773 1004.8688 219.99773ZM1004.8844 233.87273L1012.7125 218.77898L1014.1344 218.77898L1006.3375 233.87273L1004.8844 233.87273ZM1011.0719 229.9821Q1011.0719 228.43523 1011.8375 227.37273Q1012.6188 226.2946 1014.0875 226.2946Q1015.4313 226.2946 1016.3063 227.26335Q1017.1969 228.21648 1017.1969 230.09148Q1017.1969 231.90398 1016.3063 232.88835Q1015.41565 233.87273 1014.10315 233.87273Q1012.8063 233.87273 1011.9313 232.90398Q1011.0719 231.9196 1011.0719 229.9821ZM1014.1344 227.51335Q1013.47815 227.51335 1013.04065 228.07585Q1012.60315 228.63835 1012.60315 230.15398Q1012.60315 231.52898 1013.04065 232.09148Q1013.47815 232.65398 1014.1344 232.65398Q1014.8063 232.65398 1015.22815 232.09148Q1015.66565 231.52898 1015.66565 230.01335Q1015.66565 228.63835 1015.22815 228.07585Q1014.79065 227.51335 1014.1344 227.51335Z" fill-rule="nonzero"/><path stroke="#757575" stroke-width="1.0" stroke-linecap="butt" d="M1018.65 212.84148L822.65 212.84148L669.3571 136.29692" fill-rule="nonzero"/><path fill="#9e9e9e" d="M671.3571 136.29692C671.3571 135.19235 670.4617 134.29692 669.3571 134.29692C668.25256 134.29692 667.3571 135.19235 667.3571 136.29692C667.3571 137.40149 668.25256 138.29692 669.3571 138.29692C670.4617 138.29692 671.3571 137.40149 671.3571 136.29692" fill-rule="nonzero"/><path fill="#ffffff" d="M934.04065 257.3415L934.04065 255.91962L940.65 248.34149Q939.525 248.38837 938.66565 248.38837L934.4313 248.38837L934.4313 246.96649L942.91565 246.96649L942.91565 248.13837L937.29065 254.71649L936.2125 255.91962Q937.3844 255.82587 938.4313 255.82587L943.22815 255.82587L943.22815 257.3415L934.04065 257.3415ZM943.97815 245.04462L943.97815 243.02899L945.7438 243.02899L945.7438 245.04462L943.97815 245.04462ZM943.97815 257.3415L943.97815 246.96649L945.7438 246.96649L945.7438 257.3415L943.97815 257.3415ZM947.65 258.20087L949.35315 258.45087Q949.4625 259.24774 949.9469 259.60712Q950.60315 260.0915 951.7438 260.0915Q952.9625 260.0915 953.6188 259.60712Q954.29065 259.12274 954.525 258.24774Q954.66565 257.70087 954.65 255.98212Q953.4938 257.3415 951.775 257.3415Q949.6344 257.3415 948.4625 255.79462Q947.29065 254.24774 947.29065 252.09149Q947.29065 250.60712 947.8219 249.35712Q948.3688 248.10712 949.3844 247.41962Q950.41565 246.73212 951.79065 246.73212Q953.6188 246.73212 954.8219 248.21649L954.8219 246.96649L956.4313 246.96649L956.4313 255.93524Q956.4313 258.35712 955.9313 259.35712Q955.4469 260.37274 954.3688 260.95087Q953.3063 261.54462 951.7438 261.54462Q949.9 261.54462 948.7438 260.7165Q947.60315 259.88837 947.65 258.20087ZM949.10315 251.96649Q949.10315 254.01337 949.91565 254.95087Q950.72815 255.88837 951.9469 255.88837Q953.15 255.88837 953.9625 254.95087Q954.79065 254.01337 954.79065 252.02899Q954.79065 250.12274 953.9469 249.15399Q953.10315 248.18524 951.91565 248.18524Q950.7438 248.18524 949.91565 249.13837Q949.10315 250.09149 949.10315 251.96649ZM958.29065 253.04462L958.29065 251.27899L963.6813 251.27899L963.6813 253.04462L958.29065 253.04462ZM965.9313 257.3415L965.9313 243.02899L967.6813 243.02899L967.6813 257.3415L965.9313 257.3415ZM969.97815 245.04462L969.97815 243.02899L971.7438 243.02899L971.7438 245.04462L969.97815 245.04462ZM969.97815 257.3415L969.97815 246.96649L971.7438 246.96649L971.7438 257.3415L969.97815 257.3415ZM975.5875 257.3415L973.9625 257.3415L973.9625 243.02899L975.7125 243.02899L975.7125 248.13837Q976.8375 246.73212 978.5563 246.73212Q979.5094 246.73212 980.3688 247.12274Q981.22815 247.51337 981.775 248.21649Q982.3219 248.90399 982.6344 249.88837Q982.9469 250.87274 982.9469 251.99774Q982.9469 254.66962 981.6344 256.12274Q980.3219 257.57587 978.47815 257.57587Q976.6344 257.57587 975.5875 256.04462L975.5875 257.3415ZM975.5719 252.07587Q975.5719 253.93524 976.0719 254.77899Q976.91565 256.12274 978.3219 256.12274Q979.47815 256.12274 980.3063 255.12274Q981.15 254.12274 981.15 252.13837Q981.15 250.10712 980.3375 249.15399Q979.54065 248.18524 978.4 248.18524Q977.2438 248.18524 976.4 249.18524Q975.5719 250.18524 975.5719 252.07587ZM984.9469 257.3415L984.9469 246.96649L986.525 246.96649L986.525 248.54462Q987.1344 247.43524 987.65 247.09149Q988.16565 246.73212 988.775 246.73212Q989.66565 246.73212 990.5875 247.29462L989.97815 248.93524Q989.3375 248.54462 988.6969 248.54462Q988.1188 248.54462 987.65 248.90399Q987.1969 249.24774 986.9938 249.85712Q986.7125 250.79462 986.7125 251.90399L986.7125 257.3415L984.9469 257.3415ZM998.7438 256.06024Q997.7594 256.88837 996.85315 257.23212Q995.9469 257.57587 994.91565 257.57587Q993.2125 257.57587 992.29065 256.74774Q991.3688 255.90399 991.3688 254.60712Q991.3688 253.84149 991.7125 253.21649Q992.0719 252.59149 992.6344 252.21649Q993.1969 251.82587 993.9 251.62274Q994.41565 251.49774 995.4625 251.35712Q997.5875 251.10712 998.5875 250.76337Q998.60315 250.40399 998.60315 250.29462Q998.60315 249.23212 998.10315 248.77899Q997.4313 248.18524 996.10315 248.18524Q994.85315 248.18524 994.2594 248.62274Q993.6813 249.06024 993.4 250.16962L991.6813 249.93524Q991.91565 248.82587 992.4469 248.15399Q992.97815 247.46649 993.9938 247.10712Q995.0094 246.73212 996.35315 246.73212Q997.6813 246.73212 998.5094 247.04462Q999.3375 247.35712 999.72815 247.84149Q1000.1188 248.31024 1000.275 249.02899Q1000.3688 249.48212 1000.3688 250.65399L1000.3688 252.99774Q1000.3688 255.45087 1000.47815 256.10712Q1000.5875 256.74774 1000.9313 257.3415L999.0875 257.3415Q998.8219 256.79462 998.7438 256.06024ZM998.5875 252.13837Q997.6344 252.52899 995.7125 252.79462Q994.6344 252.95087 994.1813 253.15399Q993.7438 253.34149 993.4938 253.71649Q993.2438 254.09149 993.2438 254.56024Q993.2438 255.26337 993.775 255.73212Q994.3063 256.20087 995.3375 256.20087Q996.35315 256.20087 997.1344 255.76337Q997.9313 255.31024 998.3063 254.54462Q998.5875 253.93524 998.5875 252.77899L998.5875 252.13837ZM1002.9469 257.3415L1002.9469 246.96649L1004.525 246.96649L1004.525 248.54462Q1005.1344 247.43524 1005.65 247.09149Q1006.16565 246.73212 1006.775 246.73212Q1007.66565 246.73212 1008.5875 247.29462L1007.97815 248.93524Q1007.3375 248.54462 1006.6969 248.54462Q1006.1188 248.54462 1005.65 248.90399Q1005.1969 249.24774 1004.9938 249.85712Q1004.7125 250.79462 1004.7125 251.90399L1004.7125 257.3415L1002.9469 257.3415ZM1009.8844 261.3415L1009.6969 259.68524Q1010.275 259.8415 1010.6969 259.8415Q1011.29065 259.8415 1011.6344 259.63837Q1011.9938 259.45087 1012.2125 259.10712Q1012.3844 258.8415 1012.7594 257.79462Q1012.8063 257.63837 1012.91565 257.35712L1008.97815 246.96649L1010.8688 246.96649L1013.025 252.98212Q1013.4469 254.12274 1013.775 255.37274Q1014.0875 254.16962 1014.4938 253.01337L1016.7125 246.96649L1018.47815 246.96649L1014.525 257.51337Q1013.9 259.23212 1013.54065 259.87274Q1013.0719 260.74774 1012.4625 261.13837Q1011.8688 261.54462 1011.025 261.54462Q1010.5094 261.54462 1009.8844 261.3415Z" fill-rule="nonzero"/><path fill="#9e9e9e" d="M973.60315 271.904L973.60315 270.2165L982.8688 270.2165L982.8688 271.57587Q981.4938 273.029 980.15 275.45087Q978.8063 277.85712 978.0875 280.404Q977.5563 282.20087 977.4 284.3415L975.60315 284.3415Q975.6344 282.654 976.2594 280.26337Q976.9 277.87274 978.0875 275.654Q979.275 273.41962 980.60315 271.904L973.60315 271.904ZM985.4625 284.3415L985.4625 282.3415L987.4625 282.3415L987.4625 284.3415L985.4625 284.3415ZM996.1188 284.3415L996.1188 280.91962L989.9 280.91962L989.9 279.29462L996.4313 270.029L997.8688 270.029L997.8688 279.29462L999.8063 279.29462L999.8063 280.91962L997.8688 280.91962L997.8688 284.3415L996.1188 284.3415ZM996.1188 279.29462L996.1188 272.8415L991.6344 279.29462L996.1188 279.29462ZM1001.8063 273.4665Q1001.8063 271.93524 1002.5719 270.85712Q1003.35315 269.779 1004.8219 269.779Q1006.16565 269.779 1007.04065 270.74774Q1007.9313 271.70087 1007.9313 273.57587Q1007.9313 275.38837 1007.04065 276.37274Q1006.15 277.3415 1004.8375 277.3415Q1003.54065 277.3415 1002.66565 276.38837Q1001.8063 275.41962 1001.8063 273.4665ZM1004.8688 270.99774Q1004.2125 270.99774 1003.775 271.56024Q1003.35315 272.12274 1003.35315 273.63837Q1003.35315 275.01337 1003.79065 275.57587Q1004.22815 276.13837 1004.8688 276.13837Q1005.54065 276.13837 1005.9625 275.57587Q1006.4 274.99774 1006.4 273.49774Q1006.4 272.10712 1005.9625 271.56024Q1005.525 270.99774 1004.8688 270.99774ZM1004.8844 284.87274L1012.7125 269.779L1014.1344 269.779L1006.3375 284.87274L1004.8844 284.87274ZM1011.0719 280.98212Q1011.0719 279.43524 1011.8375 278.37274Q1012.6188 277.29462 1014.0875 277.29462Q1015.4313 277.29462 1016.3063 278.26337Q1017.1969 279.2165 1017.1969 281.0915Q1017.1969 282.904 1016.3063 283.88837Q1015.41565 284.87274 1014.10315 284.87274Q1012.8063 284.87274 1011.9313 283.904Q1011.0719 282.91962 1011.0719 280.98212ZM1014.1344 278.51337Q1013.47815 278.51337 1013.04065 279.07587Q1012.60315 279.63837 1012.60315 281.154Q1012.60315 282.529 1013.04065 283.0915Q1013.47815 283.654 1014.1344 283.654Q1014.8063 283.654 1015.22815 283.0915Q1015.66565 282.529 1015.66565 281.01337Q1015.66565 279.63837 1015.22815 279.07587Q1014.79065 278.51337 1014.1344 278.51337Z" fill-rule="nonzero"/><path stroke="#757575" stroke-width="1.0" stroke-linecap="butt" d="M1018.65 263.8415L822.65 263.8415L726.93243 168.98024" fill-rule="nonzero"/><path fill="#9e9e9e" d="M728.93243 168.98024C728.93243 167.87567 728.037 166.98024 726.93243 166.98024C725.8278 166.98024 724.93243 167.87567 724.93243 168.98024C724.93243 170.08481 725.8278 170.98024 726.93243 170.98024C728.037 170.98024 728.93243 170.08481 728.93243 168.98024" fill-rule="nonzero"/><path fill="#ffffff" d="M959.04065 308.3415L959.04065 306.91962L965.65 299.3415Q964.525 299.38837 963.66565 299.38837L959.4313 299.38837L959.4313 297.9665L967.91565 297.9665L967.91565 299.13837L962.29065 305.7165L961.2125 306.91962Q962.3844 306.82587 963.4313 306.82587L968.22815 306.82587L968.22815 308.3415L959.04065 308.3415ZM968.97815 296.04462L968.97815 294.029L970.7438 294.029L970.7438 296.04462L968.97815 296.04462ZM968.97815 308.3415L968.97815 297.9665L970.7438 297.9665L970.7438 308.3415L968.97815 308.3415ZM972.65 309.20087L974.35315 309.45087Q974.4625 310.24774 974.9469 310.60712Q975.60315 311.0915 976.7438 311.0915Q977.9625 311.0915 978.6188 310.60712Q979.29065 310.12274 979.525 309.24774Q979.66565 308.70087 979.65 306.98212Q978.4938 308.3415 976.775 308.3415Q974.6344 308.3415 973.4625 306.79462Q972.29065 305.24774 972.29065 303.0915Q972.29065 301.60712 972.8219 300.35712Q973.3688 299.10712 974.3844 298.41962Q975.41565 297.73212 976.79065 297.73212Q978.6188 297.73212 979.8219 299.2165L979.8219 297.9665L981.4313 297.9665L981.4313 306.93524Q981.4313 309.35712 980.9313 310.35712Q980.4469 311.37274 979.3688 311.95087Q978.3063 312.54462 976.7438 312.54462Q974.9 312.54462 973.7438 311.7165Q972.60315 310.88837 972.65 309.20087ZM974.10315 302.9665Q974.10315 305.01337 974.91565 305.95087Q975.72815 306.88837 976.9469 306.88837Q978.15 306.88837 978.9625 305.95087Q979.79065 305.01337 979.79065 303.029Q979.79065 301.12274 978.9469 300.154Q978.10315 299.18524 976.91565 299.18524Q975.7438 299.18524 974.91565 300.13837Q974.10315 301.0915 974.10315 302.9665ZM983.9313 308.3415L983.9313 294.029L985.6813 294.029L985.6813 308.3415L983.9313 308.3415ZM994.7438 307.06024Q993.7594 307.88837 992.85315 308.23212Q991.9469 308.57587 990.91565 308.57587Q989.2125 308.57587 988.29065 307.74774Q987.3688 306.904 987.3688 305.60712Q987.3688 304.8415 987.7125 304.2165Q988.0719 303.5915 988.6344 303.2165Q989.1969 302.82587 989.9 302.62274Q990.41565 302.49774 991.4625 302.35712Q993.5875 302.10712 994.5875 301.76337Q994.60315 301.404 994.60315 301.29462Q994.60315 300.23212 994.10315 299.779Q993.4313 299.18524 992.10315 299.18524Q990.85315 299.18524 990.2594 299.62274Q989.6813 300.06024 989.4 301.16962L987.6813 300.93524Q987.91565 299.82587 988.4469 299.154Q988.97815 298.4665 989.9938 298.10712Q991.0094 297.73212 992.35315 297.73212Q993.6813 297.73212 994.5094 298.04462Q995.3375 298.35712 995.72815 298.8415Q996.1188 299.31024 996.275 300.029Q996.3688 300.48212 996.3688 301.654L996.3688 303.99774Q996.3688 306.45087 996.47815 307.10712Q996.5875 307.74774 996.9313 308.3415L995.0875 308.3415Q994.8219 307.79462 994.7438 307.06024ZM994.5875 303.13837Q993.6344 303.529 991.7125 303.79462Q990.6344 303.95087 990.1813 304.154Q989.7438 304.3415 989.4938 304.7165Q989.2438 305.0915 989.2438 305.56024Q989.2438 306.26337 989.775 306.73212Q990.3063 307.20087 991.3375 307.20087Q992.35315 307.20087 993.1344 306.76337Q993.9313 306.31024 994.3063 305.54462Q994.5875 304.93524 994.5875 303.779L994.5875 303.13837ZM998.9625 308.3415L998.9625 297.9665L1000.5563 297.9665L1000.5563 299.45087Q1001.6969 297.73212 1003.85315 297.73212Q1004.79065 297.73212 1005.5719 298.07587Q1006.3688 298.404 1006.7594 298.95087Q1007.15 299.49774 1007.3063 300.24774Q1007.4 300.74774 1007.4 301.9665L1007.4 308.3415L1005.6344 308.3415L1005.6344 302.029Q1005.6344 300.95087 1005.4313 300.41962Q1005.22815 299.88837 1004.6969 299.57587Q1004.1813 299.26337 1003.47815 299.26337Q1002.35315 299.26337 1001.54065 299.98212Q1000.72815 300.68524 1000.72815 302.66962L1000.72815 308.3415L998.9625 308.3415ZM1008.65 309.20087L1010.35315 309.45087Q1010.4625 310.24774 1010.9469 310.60712Q1011.60315 311.0915 1012.7438 311.0915Q1013.9625 311.0915 1014.6188 310.60712Q1015.29065 310.12274 1015.525 309.24774Q1015.66565 308.70087 1015.65 306.98212Q1014.4938 308.3415 1012.775 308.3415Q1010.6344 308.3415 1009.4625 306.79462Q1008.29065 305.24774 1008.29065 303.0915Q1008.29065 301.60712 1008.8219 300.35712Q1009.3688 299.10712 1010.3844 298.41962Q1011.41565 297.73212 1012.79065 297.73212Q1014.6188 297.73212 1015.8219 299.2165L1015.8219 297.9665L1017.4313 297.9665L1017.4313 306.93524Q1017.4313 309.35712 1016.9313 310.35712Q1016.4469 311.37274 1015.3688 311.95087Q1014.3063 312.54462 1012.7438 312.54462Q1010.9 312.54462 1009.7438 311.7165Q1008.60315 310.88837 1008.65 309.20087ZM1010.10315 302.9665Q1010.10315 305.01337 1010.91565 305.95087Q1011.72815 306.88837 1012.9469 306.88837Q1014.15 306.88837 1014.9625 305.95087Q1015.79065 305.01337 1015.79065 303.029Q1015.79065 301.12274 1014.9469 300.154Q1014.10315 299.18524 1012.91565 299.18524Q1011.7438 299.18524 1010.91565 300.13837Q1010.10315 301.0915 1010.10315 302.9665Z" fill-rule="nonzero"/><path fill="#9e9e9e" d="M976.1813 327.57587Q975.0875 327.16962 974.5563 326.43524Q974.04065 325.68524 974.04065 324.654Q974.04065 323.0915 975.16565 322.029Q976.29065 320.9665 978.15 320.9665Q980.025 320.9665 981.16565 322.06024Q982.3063 323.13837 982.3063 324.70087Q982.3063 325.70087 981.775 326.43524Q981.2594 327.16962 980.1969 327.57587Q981.525 328.01337 982.2125 328.9665Q982.9 329.91962 982.9 331.24774Q982.9 333.0915 981.5875 334.3415Q980.29065 335.5915 978.1813 335.5915Q976.0563 335.5915 974.7594 334.3415Q973.4625 333.07587 973.4625 331.20087Q973.4625 329.81024 974.16565 328.87274Q974.8844 327.91962 976.1813 327.57587ZM975.8375 324.5915Q975.8375 325.60712 976.4938 326.26337Q977.15 326.904 978.1813 326.904Q979.1969 326.904 979.85315 326.26337Q980.5094 325.62274 980.5094 324.70087Q980.5094 323.73212 979.8375 323.07587Q979.16565 322.404 978.16565 322.404Q977.16565 322.404 976.4938 323.06024Q975.8375 323.70087 975.8375 324.5915ZM975.275 331.2165Q975.275 331.9665 975.6188 332.66962Q975.97815 333.37274 976.6813 333.76337Q977.3844 334.13837 978.1969 334.13837Q979.4625 334.13837 980.275 333.32587Q981.10315 332.51337 981.10315 331.26337Q981.10315 329.99774 980.2594 329.16962Q979.41565 328.3415 978.1344 328.3415Q976.9 328.3415 976.0875 329.16962Q975.275 329.98212 975.275 331.2165ZM985.4625 335.3415L985.4625 333.3415L987.4625 333.3415L987.4625 335.3415L985.4625 335.3415ZM990.60315 322.904L990.60315 321.2165L999.8688 321.2165L999.8688 322.57587Q998.4938 324.029 997.15 326.45087Q995.8063 328.85712 995.0875 331.404Q994.5563 333.20087 994.4 335.3415L992.60315 335.3415Q992.6344 333.654 993.2594 331.26337Q993.9 328.87274 995.0875 326.654Q996.275 324.41962 997.60315 322.904L990.60315 322.904ZM1001.8063 324.4665Q1001.8063 322.93524 1002.5719 321.85712Q1003.35315 320.779 1004.8219 320.779Q1006.16565 320.779 1007.04065 321.74774Q1007.9313 322.70087 1007.9313 324.57587Q1007.9313 326.38837 1007.04065 327.37274Q1006.15 328.3415 1004.8375 328.3415Q1003.54065 328.3415 1002.66565 327.38837Q1001.8063 326.41962 1001.8063 324.4665ZM1004.8688 321.99774Q1004.2125 321.99774 1003.775 322.56024Q1003.35315 323.12274 1003.35315 324.63837Q1003.35315 326.01337 1003.79065 326.57587Q1004.22815 327.13837 1004.8688 327.13837Q1005.54065 327.13837 1005.9625 326.57587Q1006.4 325.99774 1006.4 324.49774Q1006.4 323.10712 1005.9625 322.56024Q1005.525 321.99774 1004.8688 321.99774ZM1004.8844 335.87274L1012.7125 320.779L1014.1344 320.779L1006.3375 335.87274L1004.8844 335.87274ZM1011.0719 331.98212Q1011.0719 330.43524 1011.8375 329.37274Q1012.6188 328.29462 1014.0875 328.29462Q1015.4313 328.29462 1016.3063 329.26337Q1017.1969 330.2165 1017.1969 332.0915Q1017.1969 333.904 1016.3063 334.88837Q1015.41565 335.87274 1014.10315 335.87274Q1012.8063 335.87274 1011.9313 334.904Q1011.0719 333.91962 1011.0719 331.98212ZM1014.1344 329.51337Q1013.47815 329.51337 1013.04065 330.07587Q1012.60315 330.63837 1012.60315 332.154Q1012.60315 333.529 1013.04065 334.0915Q1013.47815 334.654 1014.1344 334.654Q1014.8063 334.654 1015.22815 334.0915Q1015.66565 333.529 1015.66565 332.01337Q1015.66565 330.63837 1015.22815 330.07587Q1014.79065 329.51337 1014.1344 329.51337Z" fill-rule="nonzero"/><path stroke="#757575" stroke-width="1.0" stroke-linecap="butt" d="M1018.65 314.8415L822.65 314.8415L793.48627 253.7417" fill-rule="nonzero"/><path fill="#9e9e9e" d="M795.48627 253.7417C795.48627 252.63713 794.5908 251.7417 793.48627 251.7417C792.38165 251.7417 791.48627 252.63713 791.48627 253.7417C791.48627 254.84627 792.38165 255.7417 793.48627 255.7417C794.5908 255.7417 795.48627 254.84627 795.48627 253.7417" fill-rule="nonzero"/><path fill="#ffffff" d="M995.04065 421.79892L995.04065 420.37704L1001.65 412.79892Q1000.525 412.8458 999.66565 412.8458L995.4313 412.8458L995.4313 411.42392L1003.91565 411.42392L1003.91565 412.5958L998.29065 419.17392L997.2125 420.37704Q998.3844 420.2833 999.4313 420.2833L1004.22815 420.2833L1004.22815 421.79892L995.04065 421.79892ZM1004.97815 409.50204L1004.97815 407.48642L1006.7438 407.48642L1006.7438 409.50204L1004.97815 409.50204ZM1004.97815 421.79892L1004.97815 411.42392L1006.7438 411.42392L1006.7438 421.79892L1004.97815 421.79892ZM1008.65 422.6583L1010.35315 422.9083Q1010.4625 423.70517 1010.9469 424.06454Q1011.60315 424.54892 1012.7438 424.54892Q1013.9625 424.54892 1014.6188 424.06454Q1015.29065 423.58017 1015.525 422.70517Q1015.66565 422.1583 1015.65 420.43954Q1014.4938 421.79892 1012.775 421.79892Q1010.6344 421.79892 1009.4625 420.25204Q1008.29065 418.70517 1008.29065 416.54892Q1008.29065 415.06454 1008.8219 413.81454Q1009.3688 412.56454 1010.3844 411.87704Q1011.41565 411.18954 1012.79065 411.18954Q1014.6188 411.18954 1015.8219 412.67392L1015.8219 411.42392L1017.4313 411.42392L1017.4313 420.39267Q1017.4313 422.81454 1016.9313 423.81454Q1016.4469 424.83017 1015.3688 425.4083Q1014.3063 426.00204 1012.7438 426.00204Q1010.9 426.00204 1009.7438 425.17392Q1008.60315 424.3458 1008.65 422.6583ZM1010.10315 416.42392Q1010.10315 418.4708 1010.91565 419.4083Q1011.72815 420.3458 1012.9469 420.3458Q1014.15 420.3458 1014.9625 419.4083Q1015.79065 418.4708 1015.79065 416.48642Q1015.79065 414.58017 1014.9469 413.61142Q1014.10315 412.64267 1012.91565 412.64267Q1011.7438 412.64267 1010.91565 413.5958Q1010.10315 414.54892 1010.10315 416.42392Z" fill-rule="nonzero"/><path fill="#9e9e9e" d="M971.7125 447.11142L971.7125 448.79892L962.2594 448.79892Q962.2438 448.1583 962.4625 447.58017Q962.8219 446.61142 963.6188 445.67392Q964.41565 444.73642 965.91565 443.50204Q968.2594 441.5958 969.0719 440.48642Q969.9 439.36142 969.9 438.36142Q969.9 437.31454 969.15 436.5958Q968.4 435.87704 967.1969 435.87704Q965.9313 435.87704 965.16565 436.64267Q964.4 437.4083 964.4 438.75204L962.5875 438.56454Q962.775 436.54892 963.97815 435.48642Q965.1969 434.42392 967.2438 434.42392Q969.29065 434.42392 970.4938 435.56454Q971.6969 436.70517 971.6969 438.39267Q971.6969 439.25204 971.3375 440.0958Q970.9938 440.92392 970.1813 441.8458Q969.3688 442.75204 967.47815 444.36142Q965.8844 445.68954 965.4313 446.1583Q964.9938 446.62704 964.6969 447.11142L971.7125 447.11142ZM980.10315 448.79892L978.3375 448.79892L978.3375 437.5958Q977.7125 438.20517 976.6813 438.81454Q975.65 439.4083 974.8219 439.7208L974.8219 438.01767Q976.3063 437.33017 977.4 436.3458Q978.5094 435.3458 978.9625 434.42392L980.10315 434.42392L980.10315 448.79892ZM985.4625 448.79892L985.4625 446.79892L987.4625 446.79892L987.4625 448.79892L985.4625 448.79892ZM990.7438 445.48642L992.4313 445.33017Q992.65 446.51767 993.2438 447.06454Q993.85315 447.5958 994.8063 447.5958Q995.6188 447.5958 996.22815 447.23642Q996.8375 446.86142 997.22815 446.23642Q997.6188 445.61142 997.8844 444.56454Q998.15 443.50204 998.15 442.4083Q998.15 442.29892 998.1344 442.06454Q997.60315 442.89267 996.6969 443.42392Q995.79065 443.93954 994.7125 443.93954Q992.9469 443.93954 991.7125 442.6583Q990.47815 441.36142 990.47815 439.25204Q990.47815 437.08017 991.7594 435.75204Q993.0563 434.42392 994.97815 434.42392Q996.3844 434.42392 997.54065 435.17392Q998.6969 435.92392 999.29065 437.31454Q999.9 438.70517 999.9 441.3458Q999.9 444.0958 999.29065 445.7208Q998.6969 447.3458 997.525 448.20517Q996.35315 449.04892 994.775 449.04892Q993.0875 449.04892 992.025 448.11142Q990.9625 447.17392 990.7438 445.48642ZM997.9469 439.17392Q997.9469 437.6583 997.1344 436.76767Q996.3375 435.87704 995.1969 435.87704Q994.025 435.87704 993.15 436.8458Q992.29065 437.79892 992.29065 439.31454Q992.29065 440.68954 993.10315 441.54892Q993.9313 442.39267 995.15 442.39267Q996.3688 442.39267 997.15 441.54892Q997.9469 440.68954 997.9469 439.17392ZM1001.8063 437.92392Q1001.8063 436.39267 1002.5719 435.31454Q1003.35315 434.23642 1004.8219 434.23642Q1006.16565 434.23642 1007.04065 435.20517Q1007.9313 436.1583 1007.9313 438.0333Q1007.9313 439.8458 1007.04065 440.83017Q1006.15 441.79892 1004.8375 441.79892Q1003.54065 441.79892 1002.66565 440.8458Q1001.8063 439.87704 1001.8063 437.92392ZM1004.8688 435.45517Q1004.2125 435.45517 1003.775 436.01767Q1003.35315 436.58017 1003.35315 438.0958Q1003.35315 439.4708 1003.79065 440.0333Q1004.22815 440.5958 1004.8688 440.5958Q1005.54065 440.5958 1005.9625 440.0333Q1006.4 439.45517 1006.4 437.95517Q1006.4 436.56454 1005.9625 436.01767Q1005.525 435.45517 1004.8688 435.45517ZM1004.8844 449.33017L1012.7125 434.23642L1014.1344 434.23642L1006.3375 449.33017L1004.8844 449.33017ZM1011.0719 445.43954Q1011.0719 443.89267 1011.8375 442.83017Q1012.6188 441.75204 1014.0875 441.75204Q1015.4313 441.75204 1016.3063 442.7208Q1017.1969 443.67392 1017.1969 445.54892Q1017.1969 447.36142 1016.3063 448.3458Q1015.41565 449.33017 1014.10315 449.33017Q1012.8063 449.33017 1011.9313 448.36142Q1011.0719 447.37704 1011.0719 445.43954ZM1014.1344 442.9708Q1013.47815 442.9708 1013.04065 443.5333Q1012.60315 444.0958 1012.60315 445.61142Q1012.60315 446.98642 1013.04065 447.54892Q1013.47815 448.11142 1014.1344 448.11142Q1014.8063 448.11142 1015.22815 447.54892Q1015.66565 446.98642 1015.66565 445.4708Q1015.66565 444.0958 1015.22815 443.5333Q1014.79065 442.9708 1014.1344 442.9708Z" fill-rule="nonzero"/><path stroke="#757575" stroke-width="1.0" stroke-linecap="butt" d="M1018.65 428.29892L822.65 428.29892L734.727 428.29892" fill-rule="nonzero"/><path fill="#9e9e9e" d="M736.727 428.29892C736.727 427.19434 735.83154 426.29892 734.727 426.29892C733.62244 426.29892 732.727 427.19434 732.727 428.29892C732.727 429.40347 733.62244 430.29892 734.727 430.29892C735.83154 430.29892 736.727 429.40347 736.727 428.29892" fill-rule="nonzero"/></svg>