<svg xmlns="http://www.w3.org/2000/svg" width="1200" height="900" xmlns:v="https://vecta.io/nano"><style><![CDATA[.B{stroke:#000}.C{fill:#7b9955}.D{stroke-width:2}.E{fill:#dfd438}.F{fill:#d6b13b}.G{font-family:sans-serif}.H{font-size:105px}.I{font-weight:900}.J{fill:#8dccea}.K{visibility:hidden}]]></style><path fill="transparent" d="M0 0h1200v900H0z"/><path vector-effect="non-scaling-stroke" d="M-600-450H600v900H-600z" fill="#fff" transform="translate(600 450)" class="K"/><path vector-effect="non-scaling-stroke" transform="matrix(1.61 3.31 -3.4 1.65 1036.46 61.89)" d="M20.339 27.172c-3.754 0-6.78-3.08-6.78-6.833s3.026-6.778 6.78-6.778c18.26 0 34.787 7.393 46.775 19.326 11.931 11.986 19.325 28.511 19.325 46.775 0 3.751-3.025 6.777-6.777 6.777s-6.835-3.026-6.835-6.777c0-14.509-5.825-27.616-15.347-37.142-9.524-9.465-22.632-15.348-37.141-15.348z" class="C"/><path vector-effect="non-scaling-stroke" d="M-50-50H50V50H-50z" fill="#fff" fill-opacity="0" transform="matrix(.46 0 0 .46 510.15 50.71)"/><circle vector-effect="non-scaling-stroke" cx="0" cy="0" r="35" transform="matrix(2.57 -.18 .47 6.83 788.94 523.62)" class="B D F"/><path vector-effect="non-scaling-stroke" d="M-540-540H540V540H-540z" fill="#fff" transform="matrix(.46 0 0 .46 490.36 235.06)" class="K"/><circle vector-effect="non-scaling-stroke" cx="0" cy="0" r="35" stroke-width="3" transform="matrix(3.54 0 0 3.54 674.38 208.56)" class="B J"/><circle vector-effect="non-scaling-stroke" cx="0" cy="0" r="35" transform="matrix(3 0 0 2.93 683.24 227.66)" class="C"/><circle vector-effect="non-scaling-stroke" cx="0" cy="0" r="35" fill="#8dcbe9" transform="matrix(-.3 -.72 2.05 -.84 626.98 162.54)"/><path vector-effect="non-scaling-stroke" d="M-33.085-33.085h66.17v66.17h-66.17z" transform="matrix(1.22 0 0 .46 695.56 124.3)" class="J"/><path vector-effect="non-scaling-stroke" d="M-33.085-33.085h66.17v66.17h-66.17z" fill="#8dcbe9" transform="matrix(.43 .18 -.1 .23 743.81 134.49)"/><g class="B D"><g class="F"><circle vector-effect="non-scaling-stroke" cx="0" cy="0" r="35" transform="matrix(2.69 -.19 .47 6.83 800.93 536.6)"/><path vector-effect="non-scaling-stroke" d="M-37.46-19.415h74.92v38.83h-74.92z" transform="matrix(2.63 -.49 .36 1.93 782.53 395.71)"/></g><path vector-effect="non-scaling-stroke" d="M-37.46-19.415h74.92v38.83h-74.92z" transform="matrix(2.65 -.33 .22 1.83 792.88 462.01)" class="E"/></g><g class="C"><path vector-effect="non-scaling-stroke" d="M-37.43 32.41L0-32.41l37.43 64.82z" transform="matrix(.11 .27 -.43 .17 762.35 152.31)"/><path vector-effect="non-scaling-stroke" d="M-37.43 32.41L0-32.41l37.43 64.82z" transform="matrix(.11 .27 -.43 .17 770.8 170.96)"/><circle vector-effect="non-scaling-stroke" cx="0" cy="0" r="35" transform="matrix(.8 0 0 .42 769.42 193.35)"/></g><circle vector-effect="non-scaling-stroke" cx="0" cy="0" r="35" transform="matrix(.51 0 0 1.16 579.11 227.83)" class="J"/><circle vector-effect="non-scaling-stroke" cx="0" cy="0" r="35" transform="matrix(-.55 -1.03 .76 -.4 596.95 238.62)" class="C"/><path vector-effect="non-scaling-stroke" d="M-37.46-19.415h74.92v38.83h-74.92z" transform="matrix(2.46 -1.48 1.98 3.27 744.56 332.11)" class="B D F"/><path vector-effect="non-scaling-stroke" transform="matrix(1.41 -.37 .11 .45 578.22 218.51)" d="M50 92.875C26.358 92.875 7.125 73.642 7.125 50S26.358 7.125 50 7.125 92.875 26.358 92.875 50 73.642 92.875 50 92.875zm0-83.75C27.461 9.125 9.125 27.461 9.125 50S27.461 90.875 50 90.875 90.875 72.538 90.875 50 72.538 9.125 50 9.125z"/><circle vector-effect="non-scaling-stroke" cx="0" cy="0" r="35" transform="matrix(2.73 -1.63 .09 .15 704.44 267.3)" class="B D E"/><g class="C"><circle vector-effect="non-scaling-stroke" cx="0" cy="0" r="35" transform="matrix(1.65 -.63 .13 .33 656.27 207.8)"/><circle vector-effect="non-scaling-stroke" cx="0" cy="0" r="35" transform="matrix(.46 -.18 .28 .74 707.54 211.22)"/></g><circle vector-effect="non-scaling-stroke" cx="0" cy="0" r="35" fill="#e0eecf" transform="matrix(.46 0 0 .46 688.27 190.59)"/><path vector-effect="non-scaling-stroke" d="M-33.085-33.085h66.17v66.17h-66.17z" transform="matrix(.37 -.28 .07 .1 680.24 180.11)" class="C"/><circle vector-effect="non-scaling-stroke" cx="0" cy="0" r="35" fill="#656565" transform="matrix(.09 0 0 .23 690.04 195.29)"/><circle vector-effect="non-scaling-stroke" cx="0" cy="0" r="35" transform="matrix(.08 -.04 .11 .2 587.63 221.66)"/><path vector-effect="non-scaling-stroke" d="M-37.46-19.415h74.92v38.83h-74.92z" transform="matrix(.21 -.08 .01 .03 580.18 251.47)"/><path vector-effect="non-scaling-stroke" d="M-37.46-19.415h74.92v38.83h-74.92z" transform="matrix(.11 .04 -.01 .03 591.41 250.27)"/><path vector-effect="non-scaling-stroke" d="M-37.46-19.415h74.92v38.83h-74.92z" transform="matrix(.08 -.07 .02 .02 598.05 249)"/><path vector-effect="non-scaling-stroke" d="M-37.46-19.415h74.92v38.83h-74.92z" transform="matrix(.15 .1 -.02 .03 606.67 250.75)"/><path vector-effect="non-scaling-stroke" d="M-37.46-19.415h74.92v38.83h-74.92z" transform="matrix(.05 -.11 .03 .01 613.52 251.08)"/><g class="C"><circle vector-effect="non-scaling-stroke" cx="0" cy="0" r="35" transform="matrix(.46 0 0 .35 610.5 234.6)"/><circle vector-effect="non-scaling-stroke" cx="0" cy="0" r="35" transform="matrix(.46 0 0 .35 606.2 234.23)"/><circle vector-effect="non-scaling-stroke" cx="0" cy="0" r="35" transform="matrix(.25 0 0 .35 609.93 237.12)"/></g><path vector-effect="non-scaling-stroke" d="M-37.46-19.415h74.92v38.83h-74.92z" transform="matrix(-.14 -.1 .02 -.03 701.07 231.03)"/><path vector-effect="non-scaling-stroke" d="M-37.46-19.415h74.92v38.83h-74.92z" transform="matrix(-.05 .16 -.03 -.01 707.88 229.47)"/><path vector-effect="non-scaling-stroke" d="M-37.46-19.415h74.92v38.83h-74.92z" transform="matrix(-.14 .09 -.02 -.02 715.2 220.31)"/><path vector-effect="non-scaling-stroke" d="M-37.46-19.415h74.92v38.83h-74.92z" transform="matrix(-.07 -.05 .02 -.03 722.54 219.05)"/><path vector-effect="non-scaling-stroke" d="M-37.46-19.415h74.92v38.83h-74.92z" transform="matrix(-.05 .16 -.03 -.01 727.34 215.89)"/><path vector-effect="non-scaling-stroke" transform="matrix(.36 0 0 .19 700.38 194.92)" d="M50 92.875C26.358 92.875 7.125 73.642 7.125 50S26.358 7.125 50 7.125 92.875 26.358 92.875 50 73.642 92.875 50 92.875zm0-83.75C27.461 9.125 9.125 27.461 9.125 50S27.461 90.875 50 90.875 90.875 72.538 90.875 50 72.538 9.125 50 9.125z" class="B"/><g class="C"><circle vector-effect="non-scaling-stroke" cx="0" cy="0" r="35" transform="matrix(.36 -.14 .13 .33 714.27 203.89)"/><circle vector-effect="non-scaling-stroke" cx="0" cy="0" r="35" transform="matrix(.2 -.07 .07 .18 721.17 209.38)"/></g><g class="B D E"><path vector-effect="non-scaling-stroke" d="M-37.46-19.415h74.92v38.83h-74.92z" transform="matrix(.35 -.3 .42 .49 658.19 405.19)"/><circle vector-effect="non-scaling-stroke" cx="0" cy="0" r="35" transform="matrix(.13 -.07 .14 .24 661.14 389.08)"/><circle vector-effect="non-scaling-stroke" cx="0" cy="0" r="35" transform="matrix(.13 -.07 .14 .24 639.62 403.23)"/><circle vector-effect="non-scaling-stroke" cx="0" cy="0" r="35" transform="matrix(.13 .07 -.14 .24 639.06 392.59)"/></g><path vector-effect="non-scaling-stroke" d="M-33.085-33.085h66.17v66.17h-66.17z" fill="#656565" transform="matrix(.08 -.08 1.51 1.51 625.09 373.88)"/><g class="D"><path vector-effect="non-scaling-stroke" d="M-37.46-19.415h74.92v38.83h-74.92z" stroke="#dfd438" transform="matrix(.35 -.3 .42 .49 657.71 407.26)" class="E"/><path vector-effect="non-scaling-stroke" transform="matrix(0 0 0 0 645.47 42.05)" d="M90.375 90.375H9.625V9.625h80.75v80.75zm-78.75-2h76.75v-76.75h-76.75v76.75z" class="B"/></g><circle vector-effect="non-scaling-stroke" cx="0" cy="0" r="35" transform="matrix(.1 -.04 .1 .26 638.15 402.15)" class="E"/><g class="B"><g class="D"><path vector-effect="non-scaling-stroke" transform="matrix(0 0 0 0 667.12 42.05)" d="M90.375 90.375H9.625V9.625h80.75v80.75zm-78.75-2h76.75v-76.75h-76.75v76.75z"/><path vector-effect="non-scaling-stroke" transform="matrix(0 0 0 0 675.66 42.05)" d="M90.375 90.375H9.625V9.625h80.75v80.75zm-78.75-2h76.75v-76.75h-76.75v76.75z"/></g><circle vector-effect="non-scaling-stroke" cx="0" cy="0" r="35" stroke-width="6" fill="#01d0f5" fill-opacity=".33" transform="matrix(.43 -.34 .68 .86 552.01 294.85)"/></g><path vector-effect="non-scaling-stroke" transform="matrix(1.23 -.72 .93 1.59 699.89 263.25)" d="M50 92.875C26.358 92.875 7.125 73.642 7.125 50S26.358 7.125 50 7.125 92.875 26.358 92.875 50 73.642 92.875 50 92.875zm0-83.75C27.461 9.125 9.125 27.461 9.125 50S27.461 90.875 50 90.875 90.875 72.538 90.875 50 72.538 9.125 50 9.125z" stroke="#3f3f3f" stroke-width="16" fill="#918b8b"/><circle vector-effect="non-scaling-stroke" cx="0" cy="0" r="35" transform="matrix(2.3 -.93 .24 .6 735.06 399.96)" class="B D F"/><g class="C"><path vector-effect="non-scaling-stroke" d="M-37.43 32.41L0-32.41l37.43 64.82z" transform="matrix(.61 -.24 .26 .65 914.51 397.91)"/><path vector-effect="non-scaling-stroke" d="M-37.43 32.41L0-32.41l37.43 64.82z" transform="matrix(.24 -.61 .65 .25 958.88 332.45)"/><path vector-effect="non-scaling-stroke" d="M-37.43 32.41L0-32.41l37.43 64.82z" transform="matrix(.29 -.59 .63 .31 938.91 371.27)"/></g><g class="F"><circle vector-effect="non-scaling-stroke" cx="0" cy="0" r="35" transform="matrix(.57 1.94 -.77 .23 784.62 317.18)" class="B D"/><circle vector-effect="non-scaling-stroke" cx="0" cy="0" r="35" transform="matrix(.71 -.54 .26 .34 789.42 376.81)"/><circle vector-effect="non-scaling-stroke" cx="0" cy="0" r="35" transform="matrix(.89 -.09 .04 .41 781.22 378.04)"/></g><path vector-effect="non-scaling-stroke" d="M-33.085-33.085h66.17v66.17h-66.17z" fill="#3f3f3f" transform="matrix(1.03 -.69 1.7 2.53 883.01 276.98)"/><path vector-effect="non-scaling-stroke" d="M-37.43 32.41L0-32.41l37.43 64.82z" fill="#fcff1f" fill-opacity=".18" transform="matrix(8.91 11.49 -12 9.3 162.61 595)"/><text xml:space="preserve" style="white-space:pre" fill="#ccc" transform="matrix(.26 .38 -.38 .26 895.84 304.08)" class="G H I"><tspan x="-102.05" y="32.98">istry</tspan></text><text xml:space="preserve" style="white-space:pre" fill="#f2dc10" transform="matrix(.26 .38 -.38 .26 849.21 232.78)" class="G H I"><tspan x="-75.85" y="32.98">Zig</tspan></text><g class="B D E"><circle vector-effect="non-scaling-stroke" cx="0" cy="0" r="35" transform="matrix(2.04 0 0 .69 788.9 769.34)"/><circle vector-effect="non-scaling-stroke" cx="0" cy="0" r="35" transform="matrix(2.04 0 0 .69 796.69 770.46)"/></g><g class="C"><path vector-effect="non-scaling-stroke" d="M-37.43 32.41L0-32.41l37.43 64.82z" transform="matrix(-.19 -.63 .63 -.19 972.87 172.63)"/><path vector-effect="non-scaling-stroke" d="M-37.43 32.41L0-32.41l37.43 64.82z" transform="matrix(-.05 -.66 .66 -.05 972.89 206.26)"/><path vector-effect="non-scaling-stroke" d="M-37.43 32.41L0-32.41l37.43 64.82z" transform="matrix(0 -.66 .67 0 976.55 250.33)"/><path vector-effect="non-scaling-stroke" d="M-37.43 32.41L0-32.41l37.43 64.82z" transform="matrix(.15 -.64 .68 .16 974.41 291.38)"/></g><path vector-effect="non-scaling-stroke" transform="matrix(3.29 0 0 3.29 36.71 390.09)" d="M94.75 50c0 6.213-5.236 11.25-11.696 11.25H16.946C10.486 61.25 5.25 56.213 5.25 50h0c0-6.213 5.236-11.25 11.696-11.25h66.107c6.461 0 11.697 5.037 11.697 11.25h0z" fill="#0e68c2"/><text xml:space="preserve" style="white-space:pre" fill="#fff" transform="matrix(.37 0 0 .37 211.8 554.19)" class="G H I"><tspan x="-327.39" y="32.98">zig-package</tspan></text><path vector-effect="non-scaling-stroke" transform="matrix(-.32 -.16 .16 -.32 560.06 320.38)" d="M94.75 50c0 6.213-5.236 11.25-11.696 11.25H16.946C10.486 61.25 5.25 56.213 5.25 50h0c0-6.213 5.236-11.25 11.696-11.25h66.107c6.461 0 11.697 5.037 11.697 11.25h0z" fill="#0e68c2" fill-opacity=".53"/><text xml:space="preserve" style="white-space:pre" fill="#fff" fill-opacity=".61" transform="matrix(-.04 -.02 .02 -.04 551.88 296.35)" class="G H I"><tspan x="-327.39" y="32.98">zig-package</tspan></text></svg>