<svg version="1.1" xmlns="http://www.w3.org/2000/svg" xmlns:xlink="http://www.w3.org/1999/xlink" width="451.28336" height="360.54097" viewBox="0,0,451.28336,360.54097"><g transform="translate(0.35353,31.38004)"><g data-paper-data="{&quot;isPaintingLayer&quot;:true}" fill-rule="nonzero" stroke-linecap="butt" stroke-linejoin="miter" stroke-miterlimit="10" stroke-dasharray="" stroke-dashoffset="0" style="mix-blend-mode: normal"><g fill="#7b9955" stroke="none" stroke-width="1"><path d="M327.90664,153.88046l2.24856,-19.22325l14.92451,12.46663z"/><path d="M354.55455,129.59581l-12.46663,-14.68074l19.22324,-2.49232z"/><path d="M346.09686,144.6446l-11.27528,-15.86182l19.43952,-0.74819z"/></g><path d="M249.3197,223.87719c5.26188,-9.88081 13.46273,-17.7187 20.90061,-24.74608c19.66685,-18.58143 33.94097,-32.85686 41.53963,-28.00296c10.37959,6.63032 2.87296,41.90178 -16.76653,78.78103c-2.63909,4.95572 -19.0079,8.1722 -21.77132,12.63602c-17.80129,28.75488 -23.59823,47.87385 -32.58304,42.13449c-10.37959,-6.63032 -10.95883,-43.92326 8.68066,-80.8025z" fill="#d6b13b" stroke="#000000" stroke-width="2"/><path d="M282.13822,221.96438c2.42584,-42.5974 16.65693,-51.26868 34.80406,-54.07548c18.14713,-2.8068 29.05678,5.59533 26.63094,48.19273c-0.90216,15.84176 -11.10215,31.30791 -14.97027,45.26603c-6.53298,23.5743 -9.04713,41.91077 -20.44543,43.67373c-11.01313,1.70339 -19.1354,-13.56213 -23.27723,-35.34893c-2.68297,-14.1129 -3.69571,-30.96219 -2.74207,-47.70808z" fill="#d6b13b" stroke="#000000" stroke-width="2"/><path d="M201.75046,121.2963c1.6911,-4.76664 16.72147,-2.96218 33.57126,4.03038c16.84979,6.99256 29.13834,16.52528 27.44724,21.29193c-1.6911,4.76665 -16.72147,2.96217 -33.57126,-4.03039c-16.84979,-6.99256 -29.13834,-16.52527 -27.44724,-21.29192z" fill="#d6b13b" stroke="#000000" stroke-width="2"/><path d="M-0.35352,-31.38003h451.28336v338.46253h-451.28336z" fill-opacity="0" fill="#000000" stroke="none" stroke-width="1"/><path d="M-0.35352,-31.38003h451.28336v338.46253h-451.28336z" fill="#ffffff" stroke="none" stroke-width="1" visibility="hidden"/><path d="M356.75745,58.39122c-2.27294,-4.67294 -0.1669,-10.35086 4.63182,-12.67965c4.79872,-2.32879 10.49875,-0.43912 12.77169,4.23382c11.05592,22.72986 11.6096,47.88998 3.61003,70.21712c-8.10185,22.28908 -24.75446,41.74706 -48.10746,53.08014c-4.79616,2.32755 -10.49687,0.43973 -12.7686,-4.23072c-2.27173,-4.67045 -0.26925,-10.38581 4.52691,-12.71336c18.55174,-9.00305 31.78395,-24.38703 38.19893,-42.15095c6.33578,-17.72855 5.92147,-37.69575 -2.86332,-55.75641z" fill="#7b9955" stroke="none" stroke-width="1"/><path d="M191.83838,24.01098h17.29919v17.2992h-17.29919z" fill-opacity="0" fill="#ffffff" stroke="none" stroke-width="1"/><path d="M99.6299,8.57333h186.83131v186.83131h-186.83131z" fill="#ffffff" stroke="none" stroke-width="1" visibility="hidden"/><path d="M215.65486,92.02315c0,-25.73371 20.8613,-46.595 46.59501,-46.595c25.73371,0 46.59501,20.86129 46.59501,46.59501c0,25.73371 -20.8613,46.59501 -46.59501,46.59501c-25.73371,0 -46.59501,-20.8613 -46.59501,-46.59501z" fill="#8dccea" stroke="#000000" stroke-width="2"/><path d="M226.09454,99.20607c0,-21.29937 17.67907,-38.56592 39.4873,-38.56592c21.80823,0 39.48729,17.26655 39.48729,38.56592c0,21.29937 -17.67906,38.56593 -39.48729,38.56593c-21.80823,0 -39.4873,-17.26656 -39.4873,-38.56593z" fill="#7b9955" stroke="none" stroke-width="1"/><path d="M249.68836,84.00546c-14.90229,6.10631 -28.75089,6.81347 -30.93171,1.5795c-2.18082,-5.23398 8.13197,-14.42709 23.03426,-20.5334c14.90229,-6.1063 28.75088,-6.81346 30.93171,-1.57949c2.18083,5.23398 -8.13196,14.42708 -23.03425,20.53339z" fill="#8dcbe9" stroke="none" stroke-width="1"/><path d="M255.03546,54.6121h30.35911v11.44688h-30.35911z" fill="#8dccea" stroke="none" stroke-width="1"/><path d="M284.25442,59.06636l10.70034,4.47921l-2.48845,5.72344l-10.70035,-4.47922z" fill="#8dcbe9" stroke="none" stroke-width="1"/><g fill="#7b9955" stroke="none" stroke-width="1"><path d="M288.54329,69.14067l12.03042,-0.34346l-8.93365,7.94466z"/><path d="M291.72107,76.15437l12.03042,-0.34346l-8.93364,7.94465z"/><path d="M287.46156,86.30313c0,-3.05315 4.71441,-5.52822 10.52994,-5.52822c5.81553,0 10.52994,2.47507 10.52994,5.52822c0,3.05315 -4.71441,5.52822 -10.52994,5.52822c-5.81553,0 -10.52994,-2.47507 -10.52994,-5.52822z"/></g><path d="M219.70889,99.27001c0,-8.43251 3.00544,-15.26842 6.71284,-15.26842c3.7074,0 6.71284,6.8359 6.71284,15.26842c0,8.43251 -3.00544,15.26842 -6.71284,15.26842c-3.7074,0 -6.71284,-6.83591 -6.71284,-15.26842z" fill="#8dccea" stroke="none" stroke-width="1"/><path d="M240.37014,116.8851c-5.52475,2.90776 -13.24461,-0.80485 -17.24278,-8.29233c-3.99818,-7.48749 -2.76064,-15.91451 2.76411,-18.82228c5.52475,-2.90776 13.24461,0.80484 17.24278,8.29233c3.99818,7.48749 2.76064,15.91451 -2.76411,18.82228z" fill="#7b9955" stroke="none" stroke-width="1"/><path d="M244.33151,131.23577l66.76008,-35.89739l31.45621,77.9152l-63.95903,37.60107z" fill="#d6b13b" stroke="#000000" stroke-width="2"/><path d="M256.44194,104.52511c-12.53636,3.28969 -23.53043,2.71104 -24.50845,-1.28992c-0.97801,-4.00096 8.42481,-9.93197 20.96117,-13.22166c12.53636,-3.28969 23.53043,-2.71105 24.50845,1.28991c0.97802,4.00096 -8.42481,9.93198 -20.96117,13.22167zM252.9774,90.35199c-11.95148,3.13621 -20.91578,8.7906 -19.9834,12.60491c0.93239,3.81431 11.41371,4.36595 23.3652,1.22974c11.95148,-3.13621 20.91574,-8.79077 19.98339,-12.60491c-0.93234,-3.81413 -11.41424,-4.36581 -23.3652,-1.22975z" fill="#000000" stroke="none" stroke-width="1"/><path d="M237.62107,135.56823c-0.65425,-1.09041 14.90333,-11.57999 34.74882,-23.42913c19.84549,-11.84914 36.46381,-20.57081 37.11806,-19.4804c0.65425,1.09041 -14.90333,11.57999 -34.74882,23.42913c-19.84549,11.84914 -36.46381,20.57081 -37.11806,19.4804z" fill="#dfd438" stroke="#000000" stroke-width="2"/><g fill="#7b9955" stroke="none" stroke-width="1"><path d="M233.72123,100.02967c-0.94502,-2.3989 8.01237,-8.0562 20.0069,-12.63593c11.99452,-4.57973 22.48411,-6.34764 23.42913,-3.94873c0.94502,2.3989 -8.01237,8.05621 -20.0069,12.63594c-11.99453,4.57973 -22.4841,6.34763 -23.42913,3.94873z"/><path d="M268.66561,95.39273c-2.03544,-5.37936 -0.97469,-10.80094 2.36924,-12.10944c3.34393,-1.30849 7.70476,1.9916 9.7402,7.37096c2.03544,5.37936 0.97469,10.80094 -2.36924,12.10944c-3.34393,1.30849 -7.70476,-1.9916 -9.7402,-7.37096z"/></g><path d="M261.41875,85.26518c0,-3.34393 2.71078,-6.05472 6.05471,-6.05472c3.34393,0 6.05472,2.71079 6.05472,6.05472c0,3.34393 -2.71079,6.05472 -6.05472,6.05472c-3.34393,0 -6.05471,-2.71079 -6.05471,-6.05472z" fill="#e0eecf" stroke="none" stroke-width="1"/><path d="M258.97904,83.56358l9.20727,-6.96766l1.74192,2.48845l-9.20727,6.96766z" fill="#7b9955" stroke="none" stroke-width="1"/><path d="M263.96443,87.03271c0,-1.67196 0.53037,-3.02736 1.18462,-3.02736c0.65425,0 1.18462,1.3554 1.18462,3.02736c0,1.67197 -0.53037,3.02735 -1.18462,3.02735c-0.65425,0 -1.18462,-1.35539 -1.18462,-3.02735z" fill="#656565" stroke="none" stroke-width="1"/><path d="M228.57284,97.47615c-0.79963,-1.45388 -0.97643,-2.86821 -0.39488,-3.15898c0.58155,-0.29077 1.70123,0.6521 2.50087,2.10599c0.79963,1.45388 0.97642,2.86821 0.39487,3.15898c-0.58155,0.29077 -1.70122,-0.6521 -2.50086,-2.10599z" fill="#000000" stroke="none" stroke-width="1"/><path d="M223.79272,109.06825l5.91678,-2.25401l0.14603,0.43809l-5.91678,2.25401z" fill="#000000" stroke="none" stroke-width="1"/><path d="M229.57076,106.92646l3.09927,1.127l-0.14603,0.43808l-3.09927,-1.127z" fill="#000000" stroke="none" stroke-width="1"/><path d="M232.27145,108.0715l2.25401,-1.97226l0.29206,0.29206l-2.25401,1.97226z" fill="#000000" stroke="none" stroke-width="1"/><path d="M234.81909,106.26172l4.22627,2.81751l-0.29205,0.43809l-4.22627,-2.81751z" fill="#000000" stroke="none" stroke-width="1"/><path d="M238.43886,109.49024l1.40876,-3.09926l0.43809,0.14603l-1.40876,3.09926z" fill="#000000" stroke="none" stroke-width="1"/><g fill="#7b9955" stroke="none" stroke-width="1"><path d="M232.17183,101.816c0,-2.5443 2.71079,-4.60685 6.05472,-4.60685c3.34393,0 6.05472,2.06255 6.05472,4.60685c0,2.5443 -2.71079,4.60685 -6.05472,4.60685c-3.34393,0 -6.05472,-2.06255 -6.05472,-4.60685z"/><path d="M230.55473,101.67685c0,-2.5443 2.71079,-4.60685 6.05472,-4.60685c3.34393,0 6.05472,2.06256 6.05472,4.60685c0,2.5443 -2.71079,4.60685 -6.05472,4.60685c-3.34393,0 -6.05472,-2.06255 -6.05472,-4.60685z"/><path d="M234.72158,102.76369c0,-2.5443 1.47326,-4.60685 3.29061,-4.60685c1.81735,0 3.2906,2.06255 3.2906,4.60685c0,2.5443 -1.47325,4.60685 -3.2906,4.60685c-1.81735,0 -3.29061,-2.06256 -3.29061,-4.60685z"/></g><path d="M274.11339,102.10123l-3.94451,-2.81751l0.29205,-0.43808l3.94452,2.81751z" fill="#000000" stroke="none" stroke-width="1"/><path d="M275.77161,97.70576l-1.40876,4.50802l-0.43808,-0.14602l1.40875,-4.50802z" fill="#000000" stroke="none" stroke-width="1"/><path d="M279.71931,95.32011l-3.94452,2.53576l-0.29206,-0.29205l3.94452,-2.53576z" fill="#000000" stroke="none" stroke-width="1"/><path d="M281.20147,96.89154l-1.97226,-1.40876l0.29206,-0.43808l1.97226,1.40875z" fill="#000000" stroke="none" stroke-width="1"/><path d="M283.08992,92.59874l-1.40875,4.50802l-0.43809,-0.14603l1.40875,-4.50802z" fill="#000000" stroke="none" stroke-width="1"/><path d="M278.79692,93.52978c-3.20077,0 -5.80464,-1.37426 -5.80464,-3.06356c0,-1.6893 2.60387,-3.06356 5.80464,-3.06356c3.20077,0 5.80463,1.37426 5.80463,3.06356c0,1.6893 -2.60386,3.06356 -5.80463,3.06356zM278.79692,87.54557c-3.05145,0 -5.53386,1.31016 -5.53386,2.92065c0,1.61048 2.48242,2.92065 5.53386,2.92065c3.05145,0 5.53386,-1.31024 5.53386,-2.92065c0,-1.61041 -2.48255,-2.92065 -5.53386,-2.92065z" fill="#000000" stroke="#000000" stroke-width="1"/><g fill="#7b9955" stroke="none" stroke-width="1"><path d="M272.5128,92.10964c-0.94502,-2.3989 0.41037,-5.16863 3.02736,-6.18634c2.61699,-1.01771 5.50457,0.10196 6.44959,2.50086c0.94502,2.3989 -0.41037,5.16863 -3.02735,6.18635c-2.61699,1.01771 -5.50457,-0.10196 -6.4496,-2.50087z"/><path d="M277.21367,93.25289c-0.50886,-1.30849 0.25723,-2.78175 1.71112,-3.2906c1.45389,-0.50886 3.045,0.13937 3.55386,1.44787c0.50886,1.30849 -0.25723,2.78175 -1.71112,3.29061c-1.45389,0.50886 -3.04499,-0.13938 -3.55385,-1.44787z"/></g><g stroke="#000000" stroke-width="1.5"><g fill="#000000"><path d="M243.32885,39.6877v0v0v0zM243.32885,39.6877v0v0v0z"/><path d="M246.38918,40.66186v0v0v0zM246.38918,40.66186v0v0v0z"/></g><path d="M166.49119,119.69595c-2.81402,-7.45655 -2.07288,-14.64189 1.6554,-16.0489c3.72827,-1.40701 9.03185,3.49711 11.84588,10.95367c2.81402,7.45655 2.07288,14.64189 -1.6554,16.0489c-3.72827,1.40701 -9.03185,-3.49712 -11.84588,-10.95366z" fill-opacity="0.33" fill="#01d0f5"/></g><path d="M312.72235,154.58653c-6.89307,6.40154 -16.74053,0.10888 -21.95236,-14.02786c-5.21183,-14.13675 -3.84413,-30.84485 3.04894,-37.24639c6.89307,-6.40154 16.74053,-0.10889 21.95236,14.02786c5.21183,14.13675 3.84413,30.84485 -3.04894,37.24639zM294.25982,104.50818c-6.57148,6.10289 -7.87539,22.03175 -2.90671,35.50895c4.96868,13.4772 14.35686,19.47638 20.92834,13.3735c6.57148,-6.10288 7.87518,-22.03234 2.90672,-35.50895c-4.96846,-13.4766 -14.35716,-19.47612 -20.92835,-13.3735z" fill="#918b8b" stroke="#3f3f3f" stroke-width="6"/><path d="M197.4911,131.10898c1.6911,-4.76664 16.72147,-2.96218 33.57126,4.03038c16.84979,6.99256 29.13834,16.52528 27.44724,21.29193c-1.6911,4.76665 -16.72147,2.96217 -33.57126,-4.03039c-16.84979,-6.99256 -29.13834,-16.52527 -27.44724,-21.29192z" fill="#d6b13b" stroke="#000000" stroke-width="2"/><g fill="#7b9955" stroke="none" stroke-width="1"><path d="M365.62479,64.41101l-18.0319,-4.23646l12.68291,-13.49965z"/><path d="M364.02729,79.18689l-16.79252,-8.07151l15.38489,-10.50919z"/><path d="M364.82177,96.36969l-16.33247,-9.29035l16.33247,-9.29035z"/><path d="M362.02742,113.47597l-14.46479,-12.90911l18.68768,-5.10853z"/></g><path d="M236.70862,102.58357l-4.45682,-11.18025l26.71223,-6.09246l2.3267,6.20018z" fill="#7c7c7c" stroke="#000000" stroke-width="1.5"/><path d="M178.00069,131.33506l-10.92054,-27.39499l65.45301,-14.92837l5.70112,15.1923z" fill="#7c7c7c" stroke="#000000" stroke-width="1.5"/><g fill="#dfd438" stroke="#000000" stroke-width="1"><path d="M189.64413,128.5214l9.86129,-8.45254l6.13317,7.15536l-9.86129,8.45254z"/><path d="M197.03965,122.7357c-1.01772,-1.74466 -1.07665,-3.57149 -0.13163,-4.08035c0.94502,-0.50886 2.53614,0.49296 3.55385,2.23762c1.01772,1.74466 1.07665,3.57149 0.13163,4.08035c-0.94502,0.50886 -2.53614,-0.49296 -3.55385,-2.23762z"/><path d="M188.94663,128.05709c-1.01772,-1.74466 -1.07665,-3.57149 -0.13162,-4.08035c0.94502,-0.50886 2.53614,0.49295 3.55385,2.23761c1.01772,1.74466 1.07665,3.57149 0.13162,4.08035c-0.94502,0.50886 -2.53614,-0.49295 -3.55385,-2.23761z"/><path d="M188.73603,122.21297c1.01772,-1.74466 2.60884,-2.74647 3.55386,-2.23761c0.94502,0.50886 0.88609,2.3357 -0.13163,4.08035c-1.01772,1.74466 -2.60883,2.74647 -3.55386,2.23761c-0.94502,-0.50886 -0.88609,-2.3357 0.13162,-4.08035z"/></g><g stroke="#000000" stroke-width="1"><path d="M189.85637,129.29986l9.86129,-8.45253l6.13317,7.15536l-9.86129,8.45254z" fill="#dfd438"/><path d="M193.25051,-8.69305v0v0v0zM193.25051,-8.69305v0v0v0z" fill="#000000"/></g><path d="M189.05304,127.14833c-0.83025,-1.89005 -0.83025,-3.65796 0,-3.94873c0.83025,-0.29077 2.17634,1.00569 3.0066,2.89574c0.83025,1.89005 0.83025,3.65796 0,3.94873c-0.83025,0.29077 -2.17634,-1.00569 -3.0066,-2.89574z" fill="#dfd438" stroke="none" stroke-width="1"/><path d="M197.78299,123.26661c-0.72694,-1.89005 -0.72694,-3.65796 0,-3.94873c0.72694,-0.29077 1.90554,1.00569 2.63249,2.89574c0.72694,1.89005 0.72694,3.65796 0,3.94873c-0.72694,0.29077 -1.90554,-1.00569 -2.63249,-2.89574z" fill="#dfd438" stroke="none" stroke-width="1"/><path d="M341.94547,173.49091l-35.85631,-76.35317l29.28825,-13.03894l33.20432,76.82008z" fill="#7c7c7c" stroke="#000000" stroke-width="1.5"/><path d="M257.1654,156.92676c-3.84565,-3.28508 3.21869,-16.674 15.77864,-29.90498c12.55995,-13.23099 25.85932,-21.29374 29.70497,-18.00866c3.84565,3.28508 -3.2187,16.67399 -15.77866,29.90498c-12.55995,13.23099 -25.85931,21.29374 -29.70495,18.00867z" fill="#d6b13b" stroke="#000000" stroke-width="2"/><path d="M272.5488,150.9432c0,4.15858 -7.29505,7.52979 -16.29396,7.52979c-8.99891,0 -16.29396,-3.3712 -16.29396,-7.52979c0,-4.15858 7.29506,-7.52979 16.29396,-7.52979c8.9989,0 16.29396,3.3712 16.29396,7.52979z" fill="#d6b13b" stroke="#000000" stroke-width="2"/><path d="M313.62057,305.98235c-0.58472,3.96959 -9.48228,5.94679 -19.87327,4.4162c-10.39099,-1.53058 -18.34053,-5.98935 -17.75581,-9.95894c0.2853,-1.93688 2.54969,-3.39943 6.00099,-4.21159c3.62205,-0.85235 8.55136,-0.98838 13.87228,-0.20462c10.39099,1.53058 18.34053,5.98936 17.75581,9.95895z" fill="#dfd438" stroke="#000000" stroke-width="2"/><path d="M252.12733,310.41848c-1.54361,3.70362 -10.65412,3.43042 -20.34889,-0.61021c-9.69477,-4.04062 -16.3026,-10.31858 -14.75899,-14.0222c1.54361,-3.70362 10.65412,-3.43042 20.3489,0.61021c9.69477,4.04062 16.3026,10.31858 14.75899,14.0222z" fill="#dfd438" stroke="#000000" stroke-width="2"/><path d="M276.17462,218.70398l-8.18008,-34.26414l73.5736,-11.78303l8.18007,34.26414c0,0 -18.59636,2.97827 -29.38755,4.70651c-13.23214,2.11917 -44.18604,7.07652 -44.18604,7.07652z" data-paper-data="{&quot;index&quot;:null}" fill="#dfd438" stroke="#000000" stroke-width="2"/><path d="M367.54665,170.44837c1.93813,4.08631 0.86158,8.70942 0.48216,12.52762c-0.51336,5.16599 -4.06025,6.14673 -7.94504,4.12904c-3.88365,-2.01711 -7.84634,-4.48789 -10.12621,-9.29471c-4.56039,-9.61503 1.41576,-0.91662 8.70992,-4.37622c5.95173,-2.82289 5.06613,-9.4285 7.01602,-6.54088c0.4398,0.65131 1.02386,1.78558 1.86316,3.55515z" fill="#3b9eeb" stroke="#00d0d0" stroke-width="2"/><path d="M364.26122,176.07469c0.84959,1.79126 0.37768,3.81783 0.21135,5.49157c-0.22503,2.26454 -1.77984,2.69446 -3.48276,1.80999c-1.70242,-0.88421 -3.4395,-1.9673 -4.43889,-4.07439c-1.99908,-4.21481 0.6206,-0.4018 3.81804,-1.91834c3.19744,-1.51654 1.89317,-5.52363 3.89225,-1.30882z" fill="#dca323" stroke="#b33232" stroke-width="2"/><path d="M242.69443,314.90617c-2.05718,5.29843 -7.20791,8.30797 -11.0217,11.25889c-5.16003,3.99256 -9.11853,1.60108 -10.63116,-3.68829c-1.51219,-5.28783 -2.6784,-11.03962 -0.25849,-17.27229c4.84053,-12.46716 2.05953,0.50105 11.51737,4.17318c9.45784,3.67213 15.23451,-6.93865 10.39398,5.52851z" fill="#3b9eeb" stroke="#00d0d0" stroke-width="2"/><path d="M234.72019,316.76529c-0.90178,2.32261 -3.15963,3.64185 -4.83144,4.93541c-2.26193,1.75016 -3.99717,0.70185 -4.66023,-1.61678c-0.66288,-2.31795 -1.17409,-4.83929 -0.11332,-7.57142c2.12188,-5.46506 0.90281,0.21963 5.04872,1.82933c4.14591,1.6097 6.67815,-3.0416 4.55627,2.42346z" fill="#dca323" stroke="#b33232" stroke-width="2"/><path d="M304.47573,314.74423c-2.05718,5.29843 -7.20791,8.30797 -11.0217,11.25889c-5.16003,3.99256 -9.11853,1.60108 -10.63116,-3.68829c-1.51219,-5.28783 -2.6784,-11.03962 -0.25849,-17.27229c4.84053,-12.46716 2.05953,0.50104 11.51737,4.17317c9.45785,3.67213 15.23451,-6.93865 10.39398,5.52851z" fill="#3b9eeb" stroke="#00d0d0" stroke-width="2"/><path d="M296.50148,316.60335c-0.90179,2.32261 -3.15963,3.64185 -4.83144,4.93541c-2.26193,1.75016 -3.99716,0.70185 -4.66023,-1.61678c-0.66288,-2.31795 -1.1741,-4.83929 -0.11332,-7.57142c2.12188,-5.46506 0.9028,0.21964 5.04871,1.82934c4.14591,1.6097 6.67815,-3.0416 4.55627,2.42346z" fill="#dca323" stroke="#b33232" stroke-width="2"/><text transform="translate(318.36329,99.69448) rotate(63.33579) scale(0.5,0.5)" font-size="40" xml:space="preserve" fill="#f2e100" fill-rule="nonzero" stroke="none" stroke-width="1" stroke-linecap="butt" stroke-linejoin="miter" stroke-miterlimit="10" stroke-dasharray="" stroke-dashoffset="0" font-family="Sans Serif" font-weight="normal" text-anchor="start" style="mix-blend-mode: normal"><tspan x="0" dy="0">Zig</tspan></text><text transform="translate(330.42354,127.38814) rotate(63.33579) scale(0.5,0.5)" font-size="40" xml:space="preserve" fill="#f2f0d5" fill-rule="nonzero" stroke="none" stroke-width="1" stroke-linecap="butt" stroke-linejoin="miter" stroke-miterlimit="10" stroke-dasharray="" stroke-dashoffset="0" font-family="Sans Serif" font-weight="normal" text-anchor="start" style="mix-blend-mode: normal"><tspan x="0" dy="0">istry</tspan></text></g></g></svg>