<svg xmlns="http://www.w3.org/2000/svg" width="1080" height="1080" xmlns:v="https://vecta.io/nano"><style><![CDATA[.B{stroke:#000}.C{fill:#7b9955}.D{stroke-width:2}.E{visibility:hidden}.F{fill:#d6b13b}.G{fill:#dfd438}.H{fill-opacity:0}.I{font-family:sans-serif}.J{font-weight:900}.K{fill:#8dccea}.L{font-size:105px}]]></style><path fill="transparent" d="M0 0h1080v1080H0z"/><g fill="#fff"><path vector-effect="non-scaling-stroke" d="M-540-540H540V540H-540z" transform="translate(540 540)" class="E"/><path vector-effect="non-scaling-stroke" d="M-50-50H50V50H-50z" transform="matrix(.99 0 0 .99 27.3 -126.54)" class="H"/><path vector-effect="non-scaling-stroke" d="M-540-540H540V540H-540z" transform="matrix(.99 0 0 .99 512.4 358.56)" class="E"/><path vector-effect="non-scaling-stroke" d="M-50-50H50V50H-50z" transform="matrix(.99 0 0 .99 32.63 -61.14)" class="H"/><path vector-effect="non-scaling-stroke" d="M-540-540H540V540H-540z" transform="matrix(.99 0 0 .99 517.73 423.96)" class="E"/><path vector-effect="non-scaling-stroke" d="M-50-50H50V50H-50z" transform="matrix(.99 0 0 .99 53.62 -2.41)" class="H"/><path vector-effect="non-scaling-stroke" d="M-600-450H600v900H-600z" transform="matrix(.99 0 0 .99 598.12 393.59)" class="E"/></g><path vector-effect="non-scaling-stroke" transform="matrix(1.6 3.29 -3.38 1.64 1035.11 9.79)" d="M20.339 27.172c-3.754 0-6.78-3.08-6.78-6.833s3.026-6.778 6.78-6.778c18.26 0 34.787 7.393 46.775 19.326 11.931 11.986 19.325 28.511 19.325 46.775 0 3.751-3.025 6.777-6.777 6.777s-6.835-3.026-6.835-6.777c0-14.509-5.825-27.616-15.347-37.142-9.524-9.465-22.632-15.348-37.141-15.348z" class="C"/><path vector-effect="non-scaling-stroke" d="M-50-50H50V50H-50z" fill="#fff" transform="matrix(.46 0 0 .46 511.75 -1.34)" class="H"/><circle vector-effect="non-scaling-stroke" cx="0" cy="0" r="35" transform="matrix(2.56 -.18 .47 6.79 789.41 469.07)" class="B D F"/><path vector-effect="non-scaling-stroke" d="M-540-540H540V540H-540z" fill="#fff" transform="matrix(.46 0 0 .46 493.23 183.22)" class="E"/><circle vector-effect="non-scaling-stroke" cx="0" cy="0" r="35" stroke-width="3" transform="matrix(3.52 0 0 3.52 674.96 155.51)" class="B K"/><circle vector-effect="non-scaling-stroke" cx="0" cy="0" r="35" transform="matrix(2.98 0 0 2.91 683.67 174.41)" class="C"/><circle vector-effect="non-scaling-stroke" cx="0" cy="0" r="35" fill="#8dcbe9" transform="matrix(-.3 -.72 2.05 -.84 628.16 109.51)"/><path vector-effect="non-scaling-stroke" d="M-33.085-33.085h66.17v66.17h-66.17z" transform="matrix(1.21 0 0 .46 695.96 71.83)" class="K"/><path vector-effect="non-scaling-stroke" d="M-33.085-33.085h66.17v66.17h-66.17z" fill="#8dcbe9" transform="matrix(.43 .18 -.1 .23 744.42 82.01)"/><g class="B D"><g class="F"><circle vector-effect="non-scaling-stroke" cx="0" cy="0" r="35" transform="matrix(2.68 -.19 .47 6.79 801.27 481.99)"/><path vector-effect="non-scaling-stroke" d="M-37.46-19.415h74.92v38.83h-74.92z" transform="matrix(2.62 -.49 .36 1.92 783.07 341.55)"/></g><path vector-effect="non-scaling-stroke" d="M-37.46-19.415h74.92v38.83h-74.92z" transform="matrix(2.64 -.33 .22 1.82 793.01 407.57)" class="G"/></g><g class="C"><path vector-effect="non-scaling-stroke" d="M-37.43 32.41L0-32.41l37.43 64.82z" transform="matrix(.11 .27 -.43 .17 762.58 99.53)"/><path vector-effect="non-scaling-stroke" d="M-37.43 32.41L0-32.41l37.43 64.82z" transform="matrix(.11 .27 -.43 .17 770.99 118.08)"/><circle vector-effect="non-scaling-stroke" cx="0" cy="0" r="35" transform="matrix(.8 0 0 .42 769.71 140.52)"/></g><circle vector-effect="non-scaling-stroke" cx="0" cy="0" r="35" transform="matrix(.51 0 0 1.15 580.33 174.6)" class="K"/><circle vector-effect="non-scaling-stroke" cx="0" cy="0" r="35" transform="matrix(-.55 -1.02 .76 -.4 598.19 185.34)" class="C"/><path vector-effect="non-scaling-stroke" d="M-37.46-19.415h74.92v38.83h-74.92z" transform="matrix(2.45 -1.47 1.97 3.25 744.88 278.33)" class="B D F"/><path vector-effect="non-scaling-stroke" transform="matrix(1.4 -.37 .11 .45 579.5 165.28)" d="M50 92.875C26.358 92.875 7.125 73.642 7.125 50S26.358 7.125 50 7.125 92.875 26.358 92.875 50 73.642 92.875 50 92.875zm0-83.75C27.461 9.125 9.125 27.461 9.125 50S27.461 90.875 50 90.875 90.875 72.538 90.875 50 72.538 9.125 50 9.125z"/><circle vector-effect="non-scaling-stroke" cx="0" cy="0" r="35" transform="matrix(2.71 -1.62 .09 .15 704.68 213.78)" class="B D G"/><g class="C"><circle vector-effect="non-scaling-stroke" cx="0" cy="0" r="35" transform="matrix(1.64 -.63 .13 .33 657.13 154.49)"/><circle vector-effect="non-scaling-stroke" cx="0" cy="0" r="35" transform="matrix(.46 -.18 .28 .74 707.83 158.35)"/></g><circle vector-effect="non-scaling-stroke" cx="0" cy="0" r="35" fill="#e0eecf" transform="matrix(.46 0 0 .46 688.92 137.78)"/><path vector-effect="non-scaling-stroke" d="M-33.085-33.085h66.17v66.17h-66.17z" transform="matrix(.37 -.28 .07 .1 680.63 127.29)" class="C"/><circle vector-effect="non-scaling-stroke" cx="0" cy="0" r="35" fill="#656565" transform="matrix(.09 0 0 .23 690.61 142.41)"/><circle vector-effect="non-scaling-stroke" cx="0" cy="0" r="35" transform="matrix(.08 -.04 .11 .2 588.85 168.74)"/><path vector-effect="non-scaling-stroke" d="M-37.46-19.415h74.92v38.83h-74.92z" transform="matrix(.21 -.08 .01 .03 580.99 198.31)"/><path vector-effect="non-scaling-stroke" d="M-37.46-19.415h74.92v38.83h-74.92z" transform="matrix(.11 .04 -.01 .03 592.73 197.1)"/><path vector-effect="non-scaling-stroke" d="M-37.46-19.415h74.92v38.83h-74.92z" transform="matrix(.08 -.07 .02 .02 599.35 195.65)"/><path vector-effect="non-scaling-stroke" d="M-37.46-19.415h74.92v38.83h-74.92z" transform="matrix(.15 .1 -.02 .03 607.57 197.69)"/><path vector-effect="non-scaling-stroke" d="M-37.46-19.415h74.92v38.83h-74.92z" transform="matrix(.05 -.11 .03 .01 614.41 197.88)"/><g class="C"><circle vector-effect="non-scaling-stroke" cx="0" cy="0" r="35" transform="matrix(.46 0 0 .35 611.55 181.54)"/><circle vector-effect="non-scaling-stroke" cx="0" cy="0" r="35" transform="matrix(.46 0 0 .35 607.27 181.18)"/><circle vector-effect="non-scaling-stroke" cx="0" cy="0" r="35" transform="matrix(.25 0 0 .35 610.95 184.05)"/></g><path vector-effect="non-scaling-stroke" d="M-37.46-19.415h74.92v38.83h-74.92z" transform="matrix(-.14 -.1 .02 -.03 701.75 177.86)"/><path vector-effect="non-scaling-stroke" d="M-37.46-19.415h74.92v38.83h-74.92z" transform="matrix(-.05 .16 -.03 -.01 708.34 176.6)"/><path vector-effect="non-scaling-stroke" d="M-37.46-19.415h74.92v38.83h-74.92z" transform="matrix(-.14 .09 -.02 -.02 715.33 167.35)"/><path vector-effect="non-scaling-stroke" d="M-37.46-19.415h74.92v38.83h-74.92z" transform="matrix(-.07 -.05 .02 -.03 722.77 165.69)"/><path vector-effect="non-scaling-stroke" d="M-37.46-19.415h74.92v38.83h-74.92z" transform="matrix(-.05 .16 -.03 -.01 727.7 163.09)"/><path vector-effect="non-scaling-stroke" transform="matrix(.36 0 0 .19 700.86 142)" d="M50 92.875C26.358 92.875 7.125 73.642 7.125 50S26.358 7.125 50 7.125 92.875 26.358 92.875 50 73.642 92.875 50 92.875zm0-83.75C27.461 9.125 9.125 27.461 9.125 50S27.461 90.875 50 90.875 90.875 72.538 90.875 50 72.538 9.125 50 9.125z" class="B"/><g class="C"><circle vector-effect="non-scaling-stroke" cx="0" cy="0" r="35" transform="matrix(.36 -.14 .13 .33 714.91 150.56)"/><circle vector-effect="non-scaling-stroke" cx="0" cy="0" r="35" transform="matrix(.2 -.07 .07 .18 721.42 156.25)"/></g><g class="B D G"><path vector-effect="non-scaling-stroke" d="M-37.46-19.415h74.92v38.83h-74.92z" transform="matrix(.35 -.3 .42 .49 659.09 351.37)"/><circle vector-effect="non-scaling-stroke" cx="0" cy="0" r="35" transform="matrix(.13 -.07 .14 .24 662.12 335.25)"/><circle vector-effect="non-scaling-stroke" cx="0" cy="0" r="35" transform="matrix(.13 -.07 .14 .24 640.72 349.33)"/><circle vector-effect="non-scaling-stroke" cx="0" cy="0" r="35" transform="matrix(.13 .07 -.14 .24 639.95 338.93)"/></g><path vector-effect="non-scaling-stroke" d="M-33.085-33.085h66.17v66.17h-66.17z" fill="#656565" transform="matrix(.08 -.08 1.51 1.51 626.08 320.4)"/><g class="G"><path vector-effect="non-scaling-stroke" d="M-37.46-19.415h74.92v38.83h-74.92z" stroke="#dfd438" transform="matrix(.35 -.3 .42 .49 658.61 353.43)" class="D"/><circle vector-effect="non-scaling-stroke" cx="0" cy="0" r="35" transform="matrix(.1 -.04 .1 .26 639.2 348.23)"/></g><circle vector-effect="non-scaling-stroke" cx="0" cy="0" r="35" stroke-width="6" fill="#01d0f5" fill-opacity=".33" transform="matrix(.43 -.34 .68 .86 553.51 241.36)" class="B"/><path vector-effect="non-scaling-stroke" transform="matrix(1.23 -.72 .92 1.58 700.5 209.94)" d="M50 92.875C26.358 92.875 7.125 73.642 7.125 50S26.358 7.125 50 7.125 92.875 26.358 92.875 50 73.642 92.875 50 92.875zm0-83.75C27.461 9.125 9.125 27.461 9.125 50S27.461 90.875 50 90.875 90.875 72.538 90.875 50 72.538 9.125 50 9.125z" stroke="#3f3f3f" stroke-width="16" fill="#918b8b"/><circle vector-effect="non-scaling-stroke" cx="0" cy="0" r="35" transform="matrix(2.29 -.93 .24 .6 735.56 346.31)" class="B D F"/><g class="C"><path vector-effect="non-scaling-stroke" d="M-37.43 32.41L0-32.41l37.43 64.82z" transform="matrix(.61 -.24 .26 .65 914.39 343.88)"/><path vector-effect="non-scaling-stroke" d="M-37.43 32.41L0-32.41l37.43 64.82z" transform="matrix(.24 -.61 .65 .25 958.54 278.53)"/><path vector-effect="non-scaling-stroke" d="M-37.43 32.41L0-32.41l37.43 64.82z" transform="matrix(.29 -.59 .63 .31 938.29 317.14)"/></g><g class="F"><circle vector-effect="non-scaling-stroke" cx="0" cy="0" r="35" transform="matrix(.57 1.93 -.77 .23 784.74 263.49)" class="B D"/><circle vector-effect="non-scaling-stroke" cx="0" cy="0" r="35" transform="matrix(.71 -.54 .26 .34 789.6 323.12)"/><circle vector-effect="non-scaling-stroke" cx="0" cy="0" r="35" transform="matrix(.89 -.09 .04 .41 781.13 324.14)"/></g><path vector-effect="non-scaling-stroke" d="M-33.085-33.085h66.17v66.17h-66.17z" fill="#3f3f3f" transform="matrix(1.02 -.68 1.69 2.51 882.48 223.68)"/><path vector-effect="non-scaling-stroke" d="M-37.43 32.41L0-32.41l37.43 64.82z" fill="#fcff1f" fill-opacity=".18" transform="matrix(8.86 11.43 -11.94 9.25 165.89 539.8)"/><text xml:space="preserve" style="white-space:pre" fill="#ccc" transform="matrix(.26 .38 -.38 .26 901.87 261.96)" class="I J L"><tspan x="-110.9" y="32.98">istry</tspan></text><text xml:space="preserve" style="white-space:pre" fill="#f2dc10" transform="matrix(.26 .38 -.38 .26 857.07 187.75)" class="I J L"><tspan x="-78.72" y="32.98">Zig</tspan></text><g class="B D G"><circle vector-effect="non-scaling-stroke" cx="0" cy="0" r="35" transform="matrix(2.03 0 0 .69 788.96 713.58)"/><circle vector-effect="non-scaling-stroke" cx="0" cy="0" r="35" transform="matrix(2.03 0 0 .69 796.71 714.7)"/></g><g class="C"><path vector-effect="non-scaling-stroke" d="M-37.43 32.41L0-32.41l37.43 64.82z" transform="matrix(-.19 -.63 .63 -.19 972.13 119.5)"/><path vector-effect="non-scaling-stroke" d="M-37.43 32.41L0-32.41l37.43 64.82z" transform="matrix(-.05 -.66 .66 -.05 971.97 153.29)"/><path vector-effect="non-scaling-stroke" d="M-37.43 32.41L0-32.41l37.43 64.82z" transform="matrix(0 -.66 .67 0 975.73 197)"/><path vector-effect="non-scaling-stroke" d="M-37.43 32.41L0-32.41l37.43 64.82z" transform="matrix(.15 -.64 .68 .16 973.77 237.7)"/></g><g fill="#0e68c2"><path vector-effect="non-scaling-stroke" transform="matrix(3.27 0 0 3.27 40.66 336.28)" d="M94.75 50c0 6.213-5.236 11.25-11.696 11.25H16.946C10.486 61.25 5.25 56.213 5.25 50h0c0-6.213 5.236-11.25 11.696-11.25h66.107c6.461 0 11.697 5.037 11.697 11.25h0z"/><path vector-effect="non-scaling-stroke" transform="matrix(-.32 -.16 .16 -.32 561.1 266.75)" d="M94.75 50c0 6.213-5.236 11.25-11.696 11.25H16.946C10.486 61.25 5.25 56.213 5.25 50h0c0-6.213 5.236-11.25 11.696-11.25h66.107c6.461 0 11.697 5.037 11.697 11.25h0z" fill-opacity=".53"/></g><text xml:space="preserve" style="white-space:pre" fill="#fff" transform="matrix(.52 0 0 .52 196.24 499.1)" class="I J L"><tspan x="-64.14" y="32.98">zig</tspan></text><text xml:space="preserve" font-size="10" style="white-space:pre" fill="#fff" transform="matrix(-.35 -.16 .16 -.35 549.73 243.93)" class="I J"><tspan x="-6.11" y="3.14">zig</tspan></text></svg>